G04 #@! TF.GenerationSoftware,KiCad,Pcbnew,(5.1.5-0-10_14)*
G04 #@! TF.CreationDate,2020-04-15T22:36:55+02:00*
G04 #@! TF.ProjectId,Debugger,44656275-6767-4657-922e-6b696361645f,rev?*
G04 #@! TF.SameCoordinates,Original*
G04 #@! TF.FileFunction,Legend,Top*
G04 #@! TF.FilePolarity,Positive*
%FSLAX46Y46*%
G04 Gerber Fmt 4.6, Leading zero omitted, Abs format (unit mm)*
G04 Created by KiCad (PCBNEW (5.1.5-0-10_14)) date 2020-04-15 22:36:55*
%MOMM*%
%LPD*%
G04 APERTURE LIST*
%ADD10C,0.150000*%
%ADD11C,0.120000*%
G04 APERTURE END LIST*
D10*
X91892380Y-115504642D02*
X91940000Y-115552261D01*
X91987619Y-115647500D01*
X91987619Y-115885595D01*
X91940000Y-115980833D01*
X91892380Y-116028452D01*
X91797142Y-116076071D01*
X91701904Y-116076071D01*
X91559047Y-116028452D01*
X90987619Y-115457023D01*
X90987619Y-116076071D01*
X91082857Y-116504642D02*
X91035238Y-116552261D01*
X90987619Y-116504642D01*
X91035238Y-116457023D01*
X91082857Y-116504642D01*
X90987619Y-116504642D01*
X91987619Y-116885595D02*
X91987619Y-117504642D01*
X91606666Y-117171309D01*
X91606666Y-117314166D01*
X91559047Y-117409404D01*
X91511428Y-117457023D01*
X91416190Y-117504642D01*
X91178095Y-117504642D01*
X91082857Y-117457023D01*
X91035238Y-117409404D01*
X90987619Y-117314166D01*
X90987619Y-117028452D01*
X91035238Y-116933214D01*
X91082857Y-116885595D01*
X91987619Y-118361785D02*
X91987619Y-118171309D01*
X91940000Y-118076071D01*
X91892380Y-118028452D01*
X91749523Y-117933214D01*
X91559047Y-117885595D01*
X91178095Y-117885595D01*
X91082857Y-117933214D01*
X91035238Y-117980833D01*
X90987619Y-118076071D01*
X90987619Y-118266547D01*
X91035238Y-118361785D01*
X91082857Y-118409404D01*
X91178095Y-118457023D01*
X91416190Y-118457023D01*
X91511428Y-118409404D01*
X91559047Y-118361785D01*
X91606666Y-118266547D01*
X91606666Y-118076071D01*
X91559047Y-117980833D01*
X91511428Y-117933214D01*
X91416190Y-117885595D01*
X99512380Y-115504642D02*
X99560000Y-115552261D01*
X99607619Y-115647500D01*
X99607619Y-115885595D01*
X99560000Y-115980833D01*
X99512380Y-116028452D01*
X99417142Y-116076071D01*
X99321904Y-116076071D01*
X99179047Y-116028452D01*
X98607619Y-115457023D01*
X98607619Y-116076071D01*
X98702857Y-116504642D02*
X98655238Y-116552261D01*
X98607619Y-116504642D01*
X98655238Y-116457023D01*
X98702857Y-116504642D01*
X98607619Y-116504642D01*
X99607619Y-116885595D02*
X99607619Y-117504642D01*
X99226666Y-117171309D01*
X99226666Y-117314166D01*
X99179047Y-117409404D01*
X99131428Y-117457023D01*
X99036190Y-117504642D01*
X98798095Y-117504642D01*
X98702857Y-117457023D01*
X98655238Y-117409404D01*
X98607619Y-117314166D01*
X98607619Y-117028452D01*
X98655238Y-116933214D01*
X98702857Y-116885595D01*
X98607619Y-117980833D02*
X98607619Y-118171309D01*
X98655238Y-118266547D01*
X98702857Y-118314166D01*
X98845714Y-118409404D01*
X99036190Y-118457023D01*
X99417142Y-118457023D01*
X99512380Y-118409404D01*
X99560000Y-118361785D01*
X99607619Y-118266547D01*
X99607619Y-118076071D01*
X99560000Y-117980833D01*
X99512380Y-117933214D01*
X99417142Y-117885595D01*
X99179047Y-117885595D01*
X99083809Y-117933214D01*
X99036190Y-117980833D01*
X98988571Y-118076071D01*
X98988571Y-118266547D01*
X99036190Y-118361785D01*
X99083809Y-118409404D01*
X99179047Y-118457023D01*
X94432380Y-115504642D02*
X94480000Y-115552261D01*
X94527619Y-115647500D01*
X94527619Y-115885595D01*
X94480000Y-115980833D01*
X94432380Y-116028452D01*
X94337142Y-116076071D01*
X94241904Y-116076071D01*
X94099047Y-116028452D01*
X93527619Y-115457023D01*
X93527619Y-116076071D01*
X93622857Y-116504642D02*
X93575238Y-116552261D01*
X93527619Y-116504642D01*
X93575238Y-116457023D01*
X93622857Y-116504642D01*
X93527619Y-116504642D01*
X94527619Y-116885595D02*
X94527619Y-117504642D01*
X94146666Y-117171309D01*
X94146666Y-117314166D01*
X94099047Y-117409404D01*
X94051428Y-117457023D01*
X93956190Y-117504642D01*
X93718095Y-117504642D01*
X93622857Y-117457023D01*
X93575238Y-117409404D01*
X93527619Y-117314166D01*
X93527619Y-117028452D01*
X93575238Y-116933214D01*
X93622857Y-116885595D01*
X94527619Y-117837976D02*
X94527619Y-118504642D01*
X93527619Y-118076071D01*
X96972380Y-115504642D02*
X97020000Y-115552261D01*
X97067619Y-115647500D01*
X97067619Y-115885595D01*
X97020000Y-115980833D01*
X96972380Y-116028452D01*
X96877142Y-116076071D01*
X96781904Y-116076071D01*
X96639047Y-116028452D01*
X96067619Y-115457023D01*
X96067619Y-116076071D01*
X96162857Y-116504642D02*
X96115238Y-116552261D01*
X96067619Y-116504642D01*
X96115238Y-116457023D01*
X96162857Y-116504642D01*
X96067619Y-116504642D01*
X97067619Y-116885595D02*
X97067619Y-117504642D01*
X96686666Y-117171309D01*
X96686666Y-117314166D01*
X96639047Y-117409404D01*
X96591428Y-117457023D01*
X96496190Y-117504642D01*
X96258095Y-117504642D01*
X96162857Y-117457023D01*
X96115238Y-117409404D01*
X96067619Y-117314166D01*
X96067619Y-117028452D01*
X96115238Y-116933214D01*
X96162857Y-116885595D01*
X96639047Y-118076071D02*
X96686666Y-117980833D01*
X96734285Y-117933214D01*
X96829523Y-117885595D01*
X96877142Y-117885595D01*
X96972380Y-117933214D01*
X97020000Y-117980833D01*
X97067619Y-118076071D01*
X97067619Y-118266547D01*
X97020000Y-118361785D01*
X96972380Y-118409404D01*
X96877142Y-118457023D01*
X96829523Y-118457023D01*
X96734285Y-118409404D01*
X96686666Y-118361785D01*
X96639047Y-118266547D01*
X96639047Y-118076071D01*
X96591428Y-117980833D01*
X96543809Y-117933214D01*
X96448571Y-117885595D01*
X96258095Y-117885595D01*
X96162857Y-117933214D01*
X96115238Y-117980833D01*
X96067619Y-118076071D01*
X96067619Y-118266547D01*
X96115238Y-118361785D01*
X96162857Y-118409404D01*
X96258095Y-118457023D01*
X96448571Y-118457023D01*
X96543809Y-118409404D01*
X96591428Y-118361785D01*
X96639047Y-118266547D01*
X102052380Y-115504642D02*
X102100000Y-115552261D01*
X102147619Y-115647500D01*
X102147619Y-115885595D01*
X102100000Y-115980833D01*
X102052380Y-116028452D01*
X101957142Y-116076071D01*
X101861904Y-116076071D01*
X101719047Y-116028452D01*
X101147619Y-115457023D01*
X101147619Y-116076071D01*
X101242857Y-116504642D02*
X101195238Y-116552261D01*
X101147619Y-116504642D01*
X101195238Y-116457023D01*
X101242857Y-116504642D01*
X101147619Y-116504642D01*
X101814285Y-117409404D02*
X101147619Y-117409404D01*
X102195238Y-117171309D02*
X101480952Y-116933214D01*
X101480952Y-117552261D01*
X102147619Y-118123690D02*
X102147619Y-118218928D01*
X102100000Y-118314166D01*
X102052380Y-118361785D01*
X101957142Y-118409404D01*
X101766666Y-118457023D01*
X101528571Y-118457023D01*
X101338095Y-118409404D01*
X101242857Y-118361785D01*
X101195238Y-118314166D01*
X101147619Y-118218928D01*
X101147619Y-118123690D01*
X101195238Y-118028452D01*
X101242857Y-117980833D01*
X101338095Y-117933214D01*
X101528571Y-117885595D01*
X101766666Y-117885595D01*
X101957142Y-117933214D01*
X102052380Y-117980833D01*
X102100000Y-118028452D01*
X102147619Y-118123690D01*
X79192380Y-115504642D02*
X79240000Y-115552261D01*
X79287619Y-115647500D01*
X79287619Y-115885595D01*
X79240000Y-115980833D01*
X79192380Y-116028452D01*
X79097142Y-116076071D01*
X79001904Y-116076071D01*
X78859047Y-116028452D01*
X78287619Y-115457023D01*
X78287619Y-116076071D01*
X78382857Y-116504642D02*
X78335238Y-116552261D01*
X78287619Y-116504642D01*
X78335238Y-116457023D01*
X78382857Y-116504642D01*
X78287619Y-116504642D01*
X79287619Y-116885595D02*
X79287619Y-117504642D01*
X78906666Y-117171309D01*
X78906666Y-117314166D01*
X78859047Y-117409404D01*
X78811428Y-117457023D01*
X78716190Y-117504642D01*
X78478095Y-117504642D01*
X78382857Y-117457023D01*
X78335238Y-117409404D01*
X78287619Y-117314166D01*
X78287619Y-117028452D01*
X78335238Y-116933214D01*
X78382857Y-116885595D01*
X78287619Y-118457023D02*
X78287619Y-117885595D01*
X78287619Y-118171309D02*
X79287619Y-118171309D01*
X79144761Y-118076071D01*
X79049523Y-117980833D01*
X79001904Y-117885595D01*
X86812380Y-115504642D02*
X86860000Y-115552261D01*
X86907619Y-115647500D01*
X86907619Y-115885595D01*
X86860000Y-115980833D01*
X86812380Y-116028452D01*
X86717142Y-116076071D01*
X86621904Y-116076071D01*
X86479047Y-116028452D01*
X85907619Y-115457023D01*
X85907619Y-116076071D01*
X86002857Y-116504642D02*
X85955238Y-116552261D01*
X85907619Y-116504642D01*
X85955238Y-116457023D01*
X86002857Y-116504642D01*
X85907619Y-116504642D01*
X86907619Y-116885595D02*
X86907619Y-117504642D01*
X86526666Y-117171309D01*
X86526666Y-117314166D01*
X86479047Y-117409404D01*
X86431428Y-117457023D01*
X86336190Y-117504642D01*
X86098095Y-117504642D01*
X86002857Y-117457023D01*
X85955238Y-117409404D01*
X85907619Y-117314166D01*
X85907619Y-117028452D01*
X85955238Y-116933214D01*
X86002857Y-116885595D01*
X86574285Y-118361785D02*
X85907619Y-118361785D01*
X86955238Y-118123690D02*
X86240952Y-117885595D01*
X86240952Y-118504642D01*
X81732380Y-115504642D02*
X81780000Y-115552261D01*
X81827619Y-115647500D01*
X81827619Y-115885595D01*
X81780000Y-115980833D01*
X81732380Y-116028452D01*
X81637142Y-116076071D01*
X81541904Y-116076071D01*
X81399047Y-116028452D01*
X80827619Y-115457023D01*
X80827619Y-116076071D01*
X80922857Y-116504642D02*
X80875238Y-116552261D01*
X80827619Y-116504642D01*
X80875238Y-116457023D01*
X80922857Y-116504642D01*
X80827619Y-116504642D01*
X81827619Y-116885595D02*
X81827619Y-117504642D01*
X81446666Y-117171309D01*
X81446666Y-117314166D01*
X81399047Y-117409404D01*
X81351428Y-117457023D01*
X81256190Y-117504642D01*
X81018095Y-117504642D01*
X80922857Y-117457023D01*
X80875238Y-117409404D01*
X80827619Y-117314166D01*
X80827619Y-117028452D01*
X80875238Y-116933214D01*
X80922857Y-116885595D01*
X81732380Y-117885595D02*
X81780000Y-117933214D01*
X81827619Y-118028452D01*
X81827619Y-118266547D01*
X81780000Y-118361785D01*
X81732380Y-118409404D01*
X81637142Y-118457023D01*
X81541904Y-118457023D01*
X81399047Y-118409404D01*
X80827619Y-117837976D01*
X80827619Y-118457023D01*
X89352380Y-115504642D02*
X89400000Y-115552261D01*
X89447619Y-115647500D01*
X89447619Y-115885595D01*
X89400000Y-115980833D01*
X89352380Y-116028452D01*
X89257142Y-116076071D01*
X89161904Y-116076071D01*
X89019047Y-116028452D01*
X88447619Y-115457023D01*
X88447619Y-116076071D01*
X88542857Y-116504642D02*
X88495238Y-116552261D01*
X88447619Y-116504642D01*
X88495238Y-116457023D01*
X88542857Y-116504642D01*
X88447619Y-116504642D01*
X89447619Y-116885595D02*
X89447619Y-117504642D01*
X89066666Y-117171309D01*
X89066666Y-117314166D01*
X89019047Y-117409404D01*
X88971428Y-117457023D01*
X88876190Y-117504642D01*
X88638095Y-117504642D01*
X88542857Y-117457023D01*
X88495238Y-117409404D01*
X88447619Y-117314166D01*
X88447619Y-117028452D01*
X88495238Y-116933214D01*
X88542857Y-116885595D01*
X89447619Y-118409404D02*
X89447619Y-117933214D01*
X88971428Y-117885595D01*
X89019047Y-117933214D01*
X89066666Y-118028452D01*
X89066666Y-118266547D01*
X89019047Y-118361785D01*
X88971428Y-118409404D01*
X88876190Y-118457023D01*
X88638095Y-118457023D01*
X88542857Y-118409404D01*
X88495238Y-118361785D01*
X88447619Y-118266547D01*
X88447619Y-118028452D01*
X88495238Y-117933214D01*
X88542857Y-117885595D01*
X84272380Y-115504642D02*
X84320000Y-115552261D01*
X84367619Y-115647500D01*
X84367619Y-115885595D01*
X84320000Y-115980833D01*
X84272380Y-116028452D01*
X84177142Y-116076071D01*
X84081904Y-116076071D01*
X83939047Y-116028452D01*
X83367619Y-115457023D01*
X83367619Y-116076071D01*
X83462857Y-116504642D02*
X83415238Y-116552261D01*
X83367619Y-116504642D01*
X83415238Y-116457023D01*
X83462857Y-116504642D01*
X83367619Y-116504642D01*
X84367619Y-116885595D02*
X84367619Y-117504642D01*
X83986666Y-117171309D01*
X83986666Y-117314166D01*
X83939047Y-117409404D01*
X83891428Y-117457023D01*
X83796190Y-117504642D01*
X83558095Y-117504642D01*
X83462857Y-117457023D01*
X83415238Y-117409404D01*
X83367619Y-117314166D01*
X83367619Y-117028452D01*
X83415238Y-116933214D01*
X83462857Y-116885595D01*
X84367619Y-117837976D02*
X84367619Y-118457023D01*
X83986666Y-118123690D01*
X83986666Y-118266547D01*
X83939047Y-118361785D01*
X83891428Y-118409404D01*
X83796190Y-118457023D01*
X83558095Y-118457023D01*
X83462857Y-118409404D01*
X83415238Y-118361785D01*
X83367619Y-118266547D01*
X83367619Y-117980833D01*
X83415238Y-117885595D01*
X83462857Y-117837976D01*
X76652380Y-115504642D02*
X76700000Y-115552261D01*
X76747619Y-115647500D01*
X76747619Y-115885595D01*
X76700000Y-115980833D01*
X76652380Y-116028452D01*
X76557142Y-116076071D01*
X76461904Y-116076071D01*
X76319047Y-116028452D01*
X75747619Y-115457023D01*
X75747619Y-116076071D01*
X75842857Y-116504642D02*
X75795238Y-116552261D01*
X75747619Y-116504642D01*
X75795238Y-116457023D01*
X75842857Y-116504642D01*
X75747619Y-116504642D01*
X76747619Y-116885595D02*
X76747619Y-117504642D01*
X76366666Y-117171309D01*
X76366666Y-117314166D01*
X76319047Y-117409404D01*
X76271428Y-117457023D01*
X76176190Y-117504642D01*
X75938095Y-117504642D01*
X75842857Y-117457023D01*
X75795238Y-117409404D01*
X75747619Y-117314166D01*
X75747619Y-117028452D01*
X75795238Y-116933214D01*
X75842857Y-116885595D01*
X76747619Y-118123690D02*
X76747619Y-118218928D01*
X76700000Y-118314166D01*
X76652380Y-118361785D01*
X76557142Y-118409404D01*
X76366666Y-118457023D01*
X76128571Y-118457023D01*
X75938095Y-118409404D01*
X75842857Y-118361785D01*
X75795238Y-118314166D01*
X75747619Y-118218928D01*
X75747619Y-118123690D01*
X75795238Y-118028452D01*
X75842857Y-117980833D01*
X75938095Y-117933214D01*
X76128571Y-117885595D01*
X76366666Y-117885595D01*
X76557142Y-117933214D01*
X76652380Y-117980833D01*
X76700000Y-118028452D01*
X76747619Y-118123690D01*
X71572380Y-115504642D02*
X71620000Y-115552261D01*
X71667619Y-115647500D01*
X71667619Y-115885595D01*
X71620000Y-115980833D01*
X71572380Y-116028452D01*
X71477142Y-116076071D01*
X71381904Y-116076071D01*
X71239047Y-116028452D01*
X70667619Y-115457023D01*
X70667619Y-116076071D01*
X70762857Y-116504642D02*
X70715238Y-116552261D01*
X70667619Y-116504642D01*
X70715238Y-116457023D01*
X70762857Y-116504642D01*
X70667619Y-116504642D01*
X71572380Y-116933214D02*
X71620000Y-116980833D01*
X71667619Y-117076071D01*
X71667619Y-117314166D01*
X71620000Y-117409404D01*
X71572380Y-117457023D01*
X71477142Y-117504642D01*
X71381904Y-117504642D01*
X71239047Y-117457023D01*
X70667619Y-116885595D01*
X70667619Y-117504642D01*
X71239047Y-118076071D02*
X71286666Y-117980833D01*
X71334285Y-117933214D01*
X71429523Y-117885595D01*
X71477142Y-117885595D01*
X71572380Y-117933214D01*
X71620000Y-117980833D01*
X71667619Y-118076071D01*
X71667619Y-118266547D01*
X71620000Y-118361785D01*
X71572380Y-118409404D01*
X71477142Y-118457023D01*
X71429523Y-118457023D01*
X71334285Y-118409404D01*
X71286666Y-118361785D01*
X71239047Y-118266547D01*
X71239047Y-118076071D01*
X71191428Y-117980833D01*
X71143809Y-117933214D01*
X71048571Y-117885595D01*
X70858095Y-117885595D01*
X70762857Y-117933214D01*
X70715238Y-117980833D01*
X70667619Y-118076071D01*
X70667619Y-118266547D01*
X70715238Y-118361785D01*
X70762857Y-118409404D01*
X70858095Y-118457023D01*
X71048571Y-118457023D01*
X71143809Y-118409404D01*
X71191428Y-118361785D01*
X71239047Y-118266547D01*
X74112380Y-115504642D02*
X74160000Y-115552261D01*
X74207619Y-115647500D01*
X74207619Y-115885595D01*
X74160000Y-115980833D01*
X74112380Y-116028452D01*
X74017142Y-116076071D01*
X73921904Y-116076071D01*
X73779047Y-116028452D01*
X73207619Y-115457023D01*
X73207619Y-116076071D01*
X73302857Y-116504642D02*
X73255238Y-116552261D01*
X73207619Y-116504642D01*
X73255238Y-116457023D01*
X73302857Y-116504642D01*
X73207619Y-116504642D01*
X74112380Y-116933214D02*
X74160000Y-116980833D01*
X74207619Y-117076071D01*
X74207619Y-117314166D01*
X74160000Y-117409404D01*
X74112380Y-117457023D01*
X74017142Y-117504642D01*
X73921904Y-117504642D01*
X73779047Y-117457023D01*
X73207619Y-116885595D01*
X73207619Y-117504642D01*
X73207619Y-117980833D02*
X73207619Y-118171309D01*
X73255238Y-118266547D01*
X73302857Y-118314166D01*
X73445714Y-118409404D01*
X73636190Y-118457023D01*
X74017142Y-118457023D01*
X74112380Y-118409404D01*
X74160000Y-118361785D01*
X74207619Y-118266547D01*
X74207619Y-118076071D01*
X74160000Y-117980833D01*
X74112380Y-117933214D01*
X74017142Y-117885595D01*
X73779047Y-117885595D01*
X73683809Y-117933214D01*
X73636190Y-117980833D01*
X73588571Y-118076071D01*
X73588571Y-118266547D01*
X73636190Y-118361785D01*
X73683809Y-118409404D01*
X73779047Y-118457023D01*
X69032380Y-115504642D02*
X69080000Y-115552261D01*
X69127619Y-115647500D01*
X69127619Y-115885595D01*
X69080000Y-115980833D01*
X69032380Y-116028452D01*
X68937142Y-116076071D01*
X68841904Y-116076071D01*
X68699047Y-116028452D01*
X68127619Y-115457023D01*
X68127619Y-116076071D01*
X68222857Y-116504642D02*
X68175238Y-116552261D01*
X68127619Y-116504642D01*
X68175238Y-116457023D01*
X68222857Y-116504642D01*
X68127619Y-116504642D01*
X69032380Y-116933214D02*
X69080000Y-116980833D01*
X69127619Y-117076071D01*
X69127619Y-117314166D01*
X69080000Y-117409404D01*
X69032380Y-117457023D01*
X68937142Y-117504642D01*
X68841904Y-117504642D01*
X68699047Y-117457023D01*
X68127619Y-116885595D01*
X68127619Y-117504642D01*
X69127619Y-117837976D02*
X69127619Y-118504642D01*
X68127619Y-118076071D01*
X66492380Y-115504642D02*
X66540000Y-115552261D01*
X66587619Y-115647500D01*
X66587619Y-115885595D01*
X66540000Y-115980833D01*
X66492380Y-116028452D01*
X66397142Y-116076071D01*
X66301904Y-116076071D01*
X66159047Y-116028452D01*
X65587619Y-115457023D01*
X65587619Y-116076071D01*
X65682857Y-116504642D02*
X65635238Y-116552261D01*
X65587619Y-116504642D01*
X65635238Y-116457023D01*
X65682857Y-116504642D01*
X65587619Y-116504642D01*
X66492380Y-116933214D02*
X66540000Y-116980833D01*
X66587619Y-117076071D01*
X66587619Y-117314166D01*
X66540000Y-117409404D01*
X66492380Y-117457023D01*
X66397142Y-117504642D01*
X66301904Y-117504642D01*
X66159047Y-117457023D01*
X65587619Y-116885595D01*
X65587619Y-117504642D01*
X66587619Y-118361785D02*
X66587619Y-118171309D01*
X66540000Y-118076071D01*
X66492380Y-118028452D01*
X66349523Y-117933214D01*
X66159047Y-117885595D01*
X65778095Y-117885595D01*
X65682857Y-117933214D01*
X65635238Y-117980833D01*
X65587619Y-118076071D01*
X65587619Y-118266547D01*
X65635238Y-118361785D01*
X65682857Y-118409404D01*
X65778095Y-118457023D01*
X66016190Y-118457023D01*
X66111428Y-118409404D01*
X66159047Y-118361785D01*
X66206666Y-118266547D01*
X66206666Y-118076071D01*
X66159047Y-117980833D01*
X66111428Y-117933214D01*
X66016190Y-117885595D01*
X63952380Y-115504642D02*
X64000000Y-115552261D01*
X64047619Y-115647500D01*
X64047619Y-115885595D01*
X64000000Y-115980833D01*
X63952380Y-116028452D01*
X63857142Y-116076071D01*
X63761904Y-116076071D01*
X63619047Y-116028452D01*
X63047619Y-115457023D01*
X63047619Y-116076071D01*
X63142857Y-116504642D02*
X63095238Y-116552261D01*
X63047619Y-116504642D01*
X63095238Y-116457023D01*
X63142857Y-116504642D01*
X63047619Y-116504642D01*
X63952380Y-116933214D02*
X64000000Y-116980833D01*
X64047619Y-117076071D01*
X64047619Y-117314166D01*
X64000000Y-117409404D01*
X63952380Y-117457023D01*
X63857142Y-117504642D01*
X63761904Y-117504642D01*
X63619047Y-117457023D01*
X63047619Y-116885595D01*
X63047619Y-117504642D01*
X64047619Y-118409404D02*
X64047619Y-117933214D01*
X63571428Y-117885595D01*
X63619047Y-117933214D01*
X63666666Y-118028452D01*
X63666666Y-118266547D01*
X63619047Y-118361785D01*
X63571428Y-118409404D01*
X63476190Y-118457023D01*
X63238095Y-118457023D01*
X63142857Y-118409404D01*
X63095238Y-118361785D01*
X63047619Y-118266547D01*
X63047619Y-118028452D01*
X63095238Y-117933214D01*
X63142857Y-117885595D01*
X56332380Y-115504642D02*
X56380000Y-115552261D01*
X56427619Y-115647500D01*
X56427619Y-115885595D01*
X56380000Y-115980833D01*
X56332380Y-116028452D01*
X56237142Y-116076071D01*
X56141904Y-116076071D01*
X55999047Y-116028452D01*
X55427619Y-115457023D01*
X55427619Y-116076071D01*
X55522857Y-116504642D02*
X55475238Y-116552261D01*
X55427619Y-116504642D01*
X55475238Y-116457023D01*
X55522857Y-116504642D01*
X55427619Y-116504642D01*
X56332380Y-116933214D02*
X56380000Y-116980833D01*
X56427619Y-117076071D01*
X56427619Y-117314166D01*
X56380000Y-117409404D01*
X56332380Y-117457023D01*
X56237142Y-117504642D01*
X56141904Y-117504642D01*
X55999047Y-117457023D01*
X55427619Y-116885595D01*
X55427619Y-117504642D01*
X56332380Y-117885595D02*
X56380000Y-117933214D01*
X56427619Y-118028452D01*
X56427619Y-118266547D01*
X56380000Y-118361785D01*
X56332380Y-118409404D01*
X56237142Y-118457023D01*
X56141904Y-118457023D01*
X55999047Y-118409404D01*
X55427619Y-117837976D01*
X55427619Y-118457023D01*
X58872380Y-115504642D02*
X58920000Y-115552261D01*
X58967619Y-115647500D01*
X58967619Y-115885595D01*
X58920000Y-115980833D01*
X58872380Y-116028452D01*
X58777142Y-116076071D01*
X58681904Y-116076071D01*
X58539047Y-116028452D01*
X57967619Y-115457023D01*
X57967619Y-116076071D01*
X58062857Y-116504642D02*
X58015238Y-116552261D01*
X57967619Y-116504642D01*
X58015238Y-116457023D01*
X58062857Y-116504642D01*
X57967619Y-116504642D01*
X58872380Y-116933214D02*
X58920000Y-116980833D01*
X58967619Y-117076071D01*
X58967619Y-117314166D01*
X58920000Y-117409404D01*
X58872380Y-117457023D01*
X58777142Y-117504642D01*
X58681904Y-117504642D01*
X58539047Y-117457023D01*
X57967619Y-116885595D01*
X57967619Y-117504642D01*
X58967619Y-117837976D02*
X58967619Y-118457023D01*
X58586666Y-118123690D01*
X58586666Y-118266547D01*
X58539047Y-118361785D01*
X58491428Y-118409404D01*
X58396190Y-118457023D01*
X58158095Y-118457023D01*
X58062857Y-118409404D01*
X58015238Y-118361785D01*
X57967619Y-118266547D01*
X57967619Y-117980833D01*
X58015238Y-117885595D01*
X58062857Y-117837976D01*
X53792380Y-115504642D02*
X53840000Y-115552261D01*
X53887619Y-115647500D01*
X53887619Y-115885595D01*
X53840000Y-115980833D01*
X53792380Y-116028452D01*
X53697142Y-116076071D01*
X53601904Y-116076071D01*
X53459047Y-116028452D01*
X52887619Y-115457023D01*
X52887619Y-116076071D01*
X52982857Y-116504642D02*
X52935238Y-116552261D01*
X52887619Y-116504642D01*
X52935238Y-116457023D01*
X52982857Y-116504642D01*
X52887619Y-116504642D01*
X53792380Y-116933214D02*
X53840000Y-116980833D01*
X53887619Y-117076071D01*
X53887619Y-117314166D01*
X53840000Y-117409404D01*
X53792380Y-117457023D01*
X53697142Y-117504642D01*
X53601904Y-117504642D01*
X53459047Y-117457023D01*
X52887619Y-116885595D01*
X52887619Y-117504642D01*
X52887619Y-118457023D02*
X52887619Y-117885595D01*
X52887619Y-118171309D02*
X53887619Y-118171309D01*
X53744761Y-118076071D01*
X53649523Y-117980833D01*
X53601904Y-117885595D01*
X61412380Y-115504642D02*
X61460000Y-115552261D01*
X61507619Y-115647500D01*
X61507619Y-115885595D01*
X61460000Y-115980833D01*
X61412380Y-116028452D01*
X61317142Y-116076071D01*
X61221904Y-116076071D01*
X61079047Y-116028452D01*
X60507619Y-115457023D01*
X60507619Y-116076071D01*
X60602857Y-116504642D02*
X60555238Y-116552261D01*
X60507619Y-116504642D01*
X60555238Y-116457023D01*
X60602857Y-116504642D01*
X60507619Y-116504642D01*
X61412380Y-116933214D02*
X61460000Y-116980833D01*
X61507619Y-117076071D01*
X61507619Y-117314166D01*
X61460000Y-117409404D01*
X61412380Y-117457023D01*
X61317142Y-117504642D01*
X61221904Y-117504642D01*
X61079047Y-117457023D01*
X60507619Y-116885595D01*
X60507619Y-117504642D01*
X61174285Y-118361785D02*
X60507619Y-118361785D01*
X61555238Y-118123690D02*
X60840952Y-117885595D01*
X60840952Y-118504642D01*
X61412380Y-125382976D02*
X61460000Y-125430595D01*
X61507619Y-125525833D01*
X61507619Y-125763928D01*
X61460000Y-125859166D01*
X61412380Y-125906785D01*
X61317142Y-125954404D01*
X61221904Y-125954404D01*
X61079047Y-125906785D01*
X60507619Y-125335357D01*
X60507619Y-125954404D01*
X60602857Y-126382976D02*
X60555238Y-126430595D01*
X60507619Y-126382976D01*
X60555238Y-126335357D01*
X60602857Y-126382976D01*
X60507619Y-126382976D01*
X60507619Y-127382976D02*
X60507619Y-126811547D01*
X60507619Y-127097261D02*
X61507619Y-127097261D01*
X61364761Y-127002023D01*
X61269523Y-126906785D01*
X61221904Y-126811547D01*
X61507619Y-127716309D02*
X61507619Y-128382976D01*
X60507619Y-127954404D01*
X63952380Y-125382976D02*
X64000000Y-125430595D01*
X64047619Y-125525833D01*
X64047619Y-125763928D01*
X64000000Y-125859166D01*
X63952380Y-125906785D01*
X63857142Y-125954404D01*
X63761904Y-125954404D01*
X63619047Y-125906785D01*
X63047619Y-125335357D01*
X63047619Y-125954404D01*
X63142857Y-126382976D02*
X63095238Y-126430595D01*
X63047619Y-126382976D01*
X63095238Y-126335357D01*
X63142857Y-126382976D01*
X63047619Y-126382976D01*
X63047619Y-127382976D02*
X63047619Y-126811547D01*
X63047619Y-127097261D02*
X64047619Y-127097261D01*
X63904761Y-127002023D01*
X63809523Y-126906785D01*
X63761904Y-126811547D01*
X64047619Y-128240119D02*
X64047619Y-128049642D01*
X64000000Y-127954404D01*
X63952380Y-127906785D01*
X63809523Y-127811547D01*
X63619047Y-127763928D01*
X63238095Y-127763928D01*
X63142857Y-127811547D01*
X63095238Y-127859166D01*
X63047619Y-127954404D01*
X63047619Y-128144880D01*
X63095238Y-128240119D01*
X63142857Y-128287738D01*
X63238095Y-128335357D01*
X63476190Y-128335357D01*
X63571428Y-128287738D01*
X63619047Y-128240119D01*
X63666666Y-128144880D01*
X63666666Y-127954404D01*
X63619047Y-127859166D01*
X63571428Y-127811547D01*
X63476190Y-127763928D01*
X58872380Y-125382976D02*
X58920000Y-125430595D01*
X58967619Y-125525833D01*
X58967619Y-125763928D01*
X58920000Y-125859166D01*
X58872380Y-125906785D01*
X58777142Y-125954404D01*
X58681904Y-125954404D01*
X58539047Y-125906785D01*
X57967619Y-125335357D01*
X57967619Y-125954404D01*
X58062857Y-126382976D02*
X58015238Y-126430595D01*
X57967619Y-126382976D01*
X58015238Y-126335357D01*
X58062857Y-126382976D01*
X57967619Y-126382976D01*
X57967619Y-127382976D02*
X57967619Y-126811547D01*
X57967619Y-127097261D02*
X58967619Y-127097261D01*
X58824761Y-127002023D01*
X58729523Y-126906785D01*
X58681904Y-126811547D01*
X58539047Y-127954404D02*
X58586666Y-127859166D01*
X58634285Y-127811547D01*
X58729523Y-127763928D01*
X58777142Y-127763928D01*
X58872380Y-127811547D01*
X58920000Y-127859166D01*
X58967619Y-127954404D01*
X58967619Y-128144880D01*
X58920000Y-128240119D01*
X58872380Y-128287738D01*
X58777142Y-128335357D01*
X58729523Y-128335357D01*
X58634285Y-128287738D01*
X58586666Y-128240119D01*
X58539047Y-128144880D01*
X58539047Y-127954404D01*
X58491428Y-127859166D01*
X58443809Y-127811547D01*
X58348571Y-127763928D01*
X58158095Y-127763928D01*
X58062857Y-127811547D01*
X58015238Y-127859166D01*
X57967619Y-127954404D01*
X57967619Y-128144880D01*
X58015238Y-128240119D01*
X58062857Y-128287738D01*
X58158095Y-128335357D01*
X58348571Y-128335357D01*
X58443809Y-128287738D01*
X58491428Y-128240119D01*
X58539047Y-128144880D01*
X53792380Y-125382976D02*
X53840000Y-125430595D01*
X53887619Y-125525833D01*
X53887619Y-125763928D01*
X53840000Y-125859166D01*
X53792380Y-125906785D01*
X53697142Y-125954404D01*
X53601904Y-125954404D01*
X53459047Y-125906785D01*
X52887619Y-125335357D01*
X52887619Y-125954404D01*
X52982857Y-126382976D02*
X52935238Y-126430595D01*
X52887619Y-126382976D01*
X52935238Y-126335357D01*
X52982857Y-126382976D01*
X52887619Y-126382976D01*
X53792380Y-126811547D02*
X53840000Y-126859166D01*
X53887619Y-126954404D01*
X53887619Y-127192500D01*
X53840000Y-127287738D01*
X53792380Y-127335357D01*
X53697142Y-127382976D01*
X53601904Y-127382976D01*
X53459047Y-127335357D01*
X52887619Y-126763928D01*
X52887619Y-127382976D01*
X53887619Y-128002023D02*
X53887619Y-128097261D01*
X53840000Y-128192500D01*
X53792380Y-128240119D01*
X53697142Y-128287738D01*
X53506666Y-128335357D01*
X53268571Y-128335357D01*
X53078095Y-128287738D01*
X52982857Y-128240119D01*
X52935238Y-128192500D01*
X52887619Y-128097261D01*
X52887619Y-128002023D01*
X52935238Y-127906785D01*
X52982857Y-127859166D01*
X53078095Y-127811547D01*
X53268571Y-127763928D01*
X53506666Y-127763928D01*
X53697142Y-127811547D01*
X53792380Y-127859166D01*
X53840000Y-127906785D01*
X53887619Y-128002023D01*
X56332380Y-125382976D02*
X56380000Y-125430595D01*
X56427619Y-125525833D01*
X56427619Y-125763928D01*
X56380000Y-125859166D01*
X56332380Y-125906785D01*
X56237142Y-125954404D01*
X56141904Y-125954404D01*
X55999047Y-125906785D01*
X55427619Y-125335357D01*
X55427619Y-125954404D01*
X55522857Y-126382976D02*
X55475238Y-126430595D01*
X55427619Y-126382976D01*
X55475238Y-126335357D01*
X55522857Y-126382976D01*
X55427619Y-126382976D01*
X55427619Y-127382976D02*
X55427619Y-126811547D01*
X55427619Y-127097261D02*
X56427619Y-127097261D01*
X56284761Y-127002023D01*
X56189523Y-126906785D01*
X56141904Y-126811547D01*
X55427619Y-127859166D02*
X55427619Y-128049642D01*
X55475238Y-128144880D01*
X55522857Y-128192500D01*
X55665714Y-128287738D01*
X55856190Y-128335357D01*
X56237142Y-128335357D01*
X56332380Y-128287738D01*
X56380000Y-128240119D01*
X56427619Y-128144880D01*
X56427619Y-127954404D01*
X56380000Y-127859166D01*
X56332380Y-127811547D01*
X56237142Y-127763928D01*
X55999047Y-127763928D01*
X55903809Y-127811547D01*
X55856190Y-127859166D01*
X55808571Y-127954404D01*
X55808571Y-128144880D01*
X55856190Y-128240119D01*
X55903809Y-128287738D01*
X55999047Y-128335357D01*
X69032380Y-125382976D02*
X69080000Y-125430595D01*
X69127619Y-125525833D01*
X69127619Y-125763928D01*
X69080000Y-125859166D01*
X69032380Y-125906785D01*
X68937142Y-125954404D01*
X68841904Y-125954404D01*
X68699047Y-125906785D01*
X68127619Y-125335357D01*
X68127619Y-125954404D01*
X68222857Y-126382976D02*
X68175238Y-126430595D01*
X68127619Y-126382976D01*
X68175238Y-126335357D01*
X68222857Y-126382976D01*
X68127619Y-126382976D01*
X68127619Y-127382976D02*
X68127619Y-126811547D01*
X68127619Y-127097261D02*
X69127619Y-127097261D01*
X68984761Y-127002023D01*
X68889523Y-126906785D01*
X68841904Y-126811547D01*
X68794285Y-128240119D02*
X68127619Y-128240119D01*
X69175238Y-128002023D02*
X68460952Y-127763928D01*
X68460952Y-128382976D01*
X71572380Y-125382976D02*
X71620000Y-125430595D01*
X71667619Y-125525833D01*
X71667619Y-125763928D01*
X71620000Y-125859166D01*
X71572380Y-125906785D01*
X71477142Y-125954404D01*
X71381904Y-125954404D01*
X71239047Y-125906785D01*
X70667619Y-125335357D01*
X70667619Y-125954404D01*
X70762857Y-126382976D02*
X70715238Y-126430595D01*
X70667619Y-126382976D01*
X70715238Y-126335357D01*
X70762857Y-126382976D01*
X70667619Y-126382976D01*
X70667619Y-127382976D02*
X70667619Y-126811547D01*
X70667619Y-127097261D02*
X71667619Y-127097261D01*
X71524761Y-127002023D01*
X71429523Y-126906785D01*
X71381904Y-126811547D01*
X71667619Y-127716309D02*
X71667619Y-128335357D01*
X71286666Y-128002023D01*
X71286666Y-128144880D01*
X71239047Y-128240119D01*
X71191428Y-128287738D01*
X71096190Y-128335357D01*
X70858095Y-128335357D01*
X70762857Y-128287738D01*
X70715238Y-128240119D01*
X70667619Y-128144880D01*
X70667619Y-127859166D01*
X70715238Y-127763928D01*
X70762857Y-127716309D01*
X66492380Y-125382976D02*
X66540000Y-125430595D01*
X66587619Y-125525833D01*
X66587619Y-125763928D01*
X66540000Y-125859166D01*
X66492380Y-125906785D01*
X66397142Y-125954404D01*
X66301904Y-125954404D01*
X66159047Y-125906785D01*
X65587619Y-125335357D01*
X65587619Y-125954404D01*
X65682857Y-126382976D02*
X65635238Y-126430595D01*
X65587619Y-126382976D01*
X65635238Y-126335357D01*
X65682857Y-126382976D01*
X65587619Y-126382976D01*
X65587619Y-127382976D02*
X65587619Y-126811547D01*
X65587619Y-127097261D02*
X66587619Y-127097261D01*
X66444761Y-127002023D01*
X66349523Y-126906785D01*
X66301904Y-126811547D01*
X66587619Y-128287738D02*
X66587619Y-127811547D01*
X66111428Y-127763928D01*
X66159047Y-127811547D01*
X66206666Y-127906785D01*
X66206666Y-128144880D01*
X66159047Y-128240119D01*
X66111428Y-128287738D01*
X66016190Y-128335357D01*
X65778095Y-128335357D01*
X65682857Y-128287738D01*
X65635238Y-128240119D01*
X65587619Y-128144880D01*
X65587619Y-127906785D01*
X65635238Y-127811547D01*
X65682857Y-127763928D01*
X74112380Y-125382976D02*
X74160000Y-125430595D01*
X74207619Y-125525833D01*
X74207619Y-125763928D01*
X74160000Y-125859166D01*
X74112380Y-125906785D01*
X74017142Y-125954404D01*
X73921904Y-125954404D01*
X73779047Y-125906785D01*
X73207619Y-125335357D01*
X73207619Y-125954404D01*
X73302857Y-126382976D02*
X73255238Y-126430595D01*
X73207619Y-126382976D01*
X73255238Y-126335357D01*
X73302857Y-126382976D01*
X73207619Y-126382976D01*
X73207619Y-127382976D02*
X73207619Y-126811547D01*
X73207619Y-127097261D02*
X74207619Y-127097261D01*
X74064761Y-127002023D01*
X73969523Y-126906785D01*
X73921904Y-126811547D01*
X74112380Y-127763928D02*
X74160000Y-127811547D01*
X74207619Y-127906785D01*
X74207619Y-128144880D01*
X74160000Y-128240119D01*
X74112380Y-128287738D01*
X74017142Y-128335357D01*
X73921904Y-128335357D01*
X73779047Y-128287738D01*
X73207619Y-127716309D01*
X73207619Y-128335357D01*
X76652380Y-125382976D02*
X76700000Y-125430595D01*
X76747619Y-125525833D01*
X76747619Y-125763928D01*
X76700000Y-125859166D01*
X76652380Y-125906785D01*
X76557142Y-125954404D01*
X76461904Y-125954404D01*
X76319047Y-125906785D01*
X75747619Y-125335357D01*
X75747619Y-125954404D01*
X75842857Y-126382976D02*
X75795238Y-126430595D01*
X75747619Y-126382976D01*
X75795238Y-126335357D01*
X75842857Y-126382976D01*
X75747619Y-126382976D01*
X75747619Y-127382976D02*
X75747619Y-126811547D01*
X75747619Y-127097261D02*
X76747619Y-127097261D01*
X76604761Y-127002023D01*
X76509523Y-126906785D01*
X76461904Y-126811547D01*
X75747619Y-128335357D02*
X75747619Y-127763928D01*
X75747619Y-128049642D02*
X76747619Y-128049642D01*
X76604761Y-127954404D01*
X76509523Y-127859166D01*
X76461904Y-127763928D01*
X81732380Y-125382976D02*
X81780000Y-125430595D01*
X81827619Y-125525833D01*
X81827619Y-125763928D01*
X81780000Y-125859166D01*
X81732380Y-125906785D01*
X81637142Y-125954404D01*
X81541904Y-125954404D01*
X81399047Y-125906785D01*
X80827619Y-125335357D01*
X80827619Y-125954404D01*
X80922857Y-126382976D02*
X80875238Y-126430595D01*
X80827619Y-126382976D01*
X80875238Y-126335357D01*
X80922857Y-126382976D01*
X80827619Y-126382976D01*
X80827619Y-126906785D02*
X80827619Y-127097261D01*
X80875238Y-127192500D01*
X80922857Y-127240119D01*
X81065714Y-127335357D01*
X81256190Y-127382976D01*
X81637142Y-127382976D01*
X81732380Y-127335357D01*
X81780000Y-127287738D01*
X81827619Y-127192500D01*
X81827619Y-127002023D01*
X81780000Y-126906785D01*
X81732380Y-126859166D01*
X81637142Y-126811547D01*
X81399047Y-126811547D01*
X81303809Y-126859166D01*
X81256190Y-126906785D01*
X81208571Y-127002023D01*
X81208571Y-127192500D01*
X81256190Y-127287738D01*
X81303809Y-127335357D01*
X81399047Y-127382976D01*
X86812380Y-125382976D02*
X86860000Y-125430595D01*
X86907619Y-125525833D01*
X86907619Y-125763928D01*
X86860000Y-125859166D01*
X86812380Y-125906785D01*
X86717142Y-125954404D01*
X86621904Y-125954404D01*
X86479047Y-125906785D01*
X85907619Y-125335357D01*
X85907619Y-125954404D01*
X86002857Y-126382976D02*
X85955238Y-126430595D01*
X85907619Y-126382976D01*
X85955238Y-126335357D01*
X86002857Y-126382976D01*
X85907619Y-126382976D01*
X86907619Y-126763928D02*
X86907619Y-127430595D01*
X85907619Y-127002023D01*
X79192380Y-125382976D02*
X79240000Y-125430595D01*
X79287619Y-125525833D01*
X79287619Y-125763928D01*
X79240000Y-125859166D01*
X79192380Y-125906785D01*
X79097142Y-125954404D01*
X79001904Y-125954404D01*
X78859047Y-125906785D01*
X78287619Y-125335357D01*
X78287619Y-125954404D01*
X78382857Y-126382976D02*
X78335238Y-126430595D01*
X78287619Y-126382976D01*
X78335238Y-126335357D01*
X78382857Y-126382976D01*
X78287619Y-126382976D01*
X78287619Y-127382976D02*
X78287619Y-126811547D01*
X78287619Y-127097261D02*
X79287619Y-127097261D01*
X79144761Y-127002023D01*
X79049523Y-126906785D01*
X79001904Y-126811547D01*
X79287619Y-128002023D02*
X79287619Y-128097261D01*
X79240000Y-128192500D01*
X79192380Y-128240119D01*
X79097142Y-128287738D01*
X78906666Y-128335357D01*
X78668571Y-128335357D01*
X78478095Y-128287738D01*
X78382857Y-128240119D01*
X78335238Y-128192500D01*
X78287619Y-128097261D01*
X78287619Y-128002023D01*
X78335238Y-127906785D01*
X78382857Y-127859166D01*
X78478095Y-127811547D01*
X78668571Y-127763928D01*
X78906666Y-127763928D01*
X79097142Y-127811547D01*
X79192380Y-127859166D01*
X79240000Y-127906785D01*
X79287619Y-128002023D01*
X84272380Y-125382976D02*
X84320000Y-125430595D01*
X84367619Y-125525833D01*
X84367619Y-125763928D01*
X84320000Y-125859166D01*
X84272380Y-125906785D01*
X84177142Y-125954404D01*
X84081904Y-125954404D01*
X83939047Y-125906785D01*
X83367619Y-125335357D01*
X83367619Y-125954404D01*
X83462857Y-126382976D02*
X83415238Y-126430595D01*
X83367619Y-126382976D01*
X83415238Y-126335357D01*
X83462857Y-126382976D01*
X83367619Y-126382976D01*
X83939047Y-127002023D02*
X83986666Y-126906785D01*
X84034285Y-126859166D01*
X84129523Y-126811547D01*
X84177142Y-126811547D01*
X84272380Y-126859166D01*
X84320000Y-126906785D01*
X84367619Y-127002023D01*
X84367619Y-127192500D01*
X84320000Y-127287738D01*
X84272380Y-127335357D01*
X84177142Y-127382976D01*
X84129523Y-127382976D01*
X84034285Y-127335357D01*
X83986666Y-127287738D01*
X83939047Y-127192500D01*
X83939047Y-127002023D01*
X83891428Y-126906785D01*
X83843809Y-126859166D01*
X83748571Y-126811547D01*
X83558095Y-126811547D01*
X83462857Y-126859166D01*
X83415238Y-126906785D01*
X83367619Y-127002023D01*
X83367619Y-127192500D01*
X83415238Y-127287738D01*
X83462857Y-127335357D01*
X83558095Y-127382976D01*
X83748571Y-127382976D01*
X83843809Y-127335357D01*
X83891428Y-127287738D01*
X83939047Y-127192500D01*
X89352380Y-125382976D02*
X89400000Y-125430595D01*
X89447619Y-125525833D01*
X89447619Y-125763928D01*
X89400000Y-125859166D01*
X89352380Y-125906785D01*
X89257142Y-125954404D01*
X89161904Y-125954404D01*
X89019047Y-125906785D01*
X88447619Y-125335357D01*
X88447619Y-125954404D01*
X88542857Y-126382976D02*
X88495238Y-126430595D01*
X88447619Y-126382976D01*
X88495238Y-126335357D01*
X88542857Y-126382976D01*
X88447619Y-126382976D01*
X89447619Y-127287738D02*
X89447619Y-127097261D01*
X89400000Y-127002023D01*
X89352380Y-126954404D01*
X89209523Y-126859166D01*
X89019047Y-126811547D01*
X88638095Y-126811547D01*
X88542857Y-126859166D01*
X88495238Y-126906785D01*
X88447619Y-127002023D01*
X88447619Y-127192500D01*
X88495238Y-127287738D01*
X88542857Y-127335357D01*
X88638095Y-127382976D01*
X88876190Y-127382976D01*
X88971428Y-127335357D01*
X89019047Y-127287738D01*
X89066666Y-127192500D01*
X89066666Y-127002023D01*
X89019047Y-126906785D01*
X88971428Y-126859166D01*
X88876190Y-126811547D01*
X99512380Y-125382976D02*
X99560000Y-125430595D01*
X99607619Y-125525833D01*
X99607619Y-125763928D01*
X99560000Y-125859166D01*
X99512380Y-125906785D01*
X99417142Y-125954404D01*
X99321904Y-125954404D01*
X99179047Y-125906785D01*
X98607619Y-125335357D01*
X98607619Y-125954404D01*
X98702857Y-126382976D02*
X98655238Y-126430595D01*
X98607619Y-126382976D01*
X98655238Y-126335357D01*
X98702857Y-126382976D01*
X98607619Y-126382976D01*
X99512380Y-126811547D02*
X99560000Y-126859166D01*
X99607619Y-126954404D01*
X99607619Y-127192500D01*
X99560000Y-127287738D01*
X99512380Y-127335357D01*
X99417142Y-127382976D01*
X99321904Y-127382976D01*
X99179047Y-127335357D01*
X98607619Y-126763928D01*
X98607619Y-127382976D01*
X102052380Y-125382976D02*
X102100000Y-125430595D01*
X102147619Y-125525833D01*
X102147619Y-125763928D01*
X102100000Y-125859166D01*
X102052380Y-125906785D01*
X101957142Y-125954404D01*
X101861904Y-125954404D01*
X101719047Y-125906785D01*
X101147619Y-125335357D01*
X101147619Y-125954404D01*
X101242857Y-126382976D02*
X101195238Y-126430595D01*
X101147619Y-126382976D01*
X101195238Y-126335357D01*
X101242857Y-126382976D01*
X101147619Y-126382976D01*
X101147619Y-127382976D02*
X101147619Y-126811547D01*
X101147619Y-127097261D02*
X102147619Y-127097261D01*
X102004761Y-127002023D01*
X101909523Y-126906785D01*
X101861904Y-126811547D01*
X91892380Y-125382976D02*
X91940000Y-125430595D01*
X91987619Y-125525833D01*
X91987619Y-125763928D01*
X91940000Y-125859166D01*
X91892380Y-125906785D01*
X91797142Y-125954404D01*
X91701904Y-125954404D01*
X91559047Y-125906785D01*
X90987619Y-125335357D01*
X90987619Y-125954404D01*
X91082857Y-126382976D02*
X91035238Y-126430595D01*
X90987619Y-126382976D01*
X91035238Y-126335357D01*
X91082857Y-126382976D01*
X90987619Y-126382976D01*
X91987619Y-127335357D02*
X91987619Y-126859166D01*
X91511428Y-126811547D01*
X91559047Y-126859166D01*
X91606666Y-126954404D01*
X91606666Y-127192500D01*
X91559047Y-127287738D01*
X91511428Y-127335357D01*
X91416190Y-127382976D01*
X91178095Y-127382976D01*
X91082857Y-127335357D01*
X91035238Y-127287738D01*
X90987619Y-127192500D01*
X90987619Y-126954404D01*
X91035238Y-126859166D01*
X91082857Y-126811547D01*
X94432380Y-125382976D02*
X94480000Y-125430595D01*
X94527619Y-125525833D01*
X94527619Y-125763928D01*
X94480000Y-125859166D01*
X94432380Y-125906785D01*
X94337142Y-125954404D01*
X94241904Y-125954404D01*
X94099047Y-125906785D01*
X93527619Y-125335357D01*
X93527619Y-125954404D01*
X93622857Y-126382976D02*
X93575238Y-126430595D01*
X93527619Y-126382976D01*
X93575238Y-126335357D01*
X93622857Y-126382976D01*
X93527619Y-126382976D01*
X94194285Y-127287738D02*
X93527619Y-127287738D01*
X94575238Y-127049642D02*
X93860952Y-126811547D01*
X93860952Y-127430595D01*
X96972380Y-125382976D02*
X97020000Y-125430595D01*
X97067619Y-125525833D01*
X97067619Y-125763928D01*
X97020000Y-125859166D01*
X96972380Y-125906785D01*
X96877142Y-125954404D01*
X96781904Y-125954404D01*
X96639047Y-125906785D01*
X96067619Y-125335357D01*
X96067619Y-125954404D01*
X96162857Y-126382976D02*
X96115238Y-126430595D01*
X96067619Y-126382976D01*
X96115238Y-126335357D01*
X96162857Y-126382976D01*
X96067619Y-126382976D01*
X97067619Y-126763928D02*
X97067619Y-127382976D01*
X96686666Y-127049642D01*
X96686666Y-127192500D01*
X96639047Y-127287738D01*
X96591428Y-127335357D01*
X96496190Y-127382976D01*
X96258095Y-127382976D01*
X96162857Y-127335357D01*
X96115238Y-127287738D01*
X96067619Y-127192500D01*
X96067619Y-126906785D01*
X96115238Y-126811547D01*
X96162857Y-126763928D01*
X60793333Y-27176071D02*
X60793333Y-27652261D01*
X60507619Y-27080833D02*
X61507619Y-27414166D01*
X60507619Y-27747500D01*
X60507619Y-28604642D02*
X60507619Y-28033214D01*
X60507619Y-28318928D02*
X61507619Y-28318928D01*
X61364761Y-28223690D01*
X61269523Y-28128452D01*
X61221904Y-28033214D01*
X61412380Y-28985595D02*
X61460000Y-29033214D01*
X61507619Y-29128452D01*
X61507619Y-29366547D01*
X61460000Y-29461785D01*
X61412380Y-29509404D01*
X61317142Y-29557023D01*
X61221904Y-29557023D01*
X61079047Y-29509404D01*
X60507619Y-28937976D01*
X60507619Y-29557023D01*
X53173333Y-27176071D02*
X53173333Y-27652261D01*
X52887619Y-27080833D02*
X53887619Y-27414166D01*
X52887619Y-27747500D01*
X52887619Y-28604642D02*
X52887619Y-28033214D01*
X52887619Y-28318928D02*
X53887619Y-28318928D01*
X53744761Y-28223690D01*
X53649523Y-28128452D01*
X53601904Y-28033214D01*
X53887619Y-29509404D02*
X53887619Y-29033214D01*
X53411428Y-28985595D01*
X53459047Y-29033214D01*
X53506666Y-29128452D01*
X53506666Y-29366547D01*
X53459047Y-29461785D01*
X53411428Y-29509404D01*
X53316190Y-29557023D01*
X53078095Y-29557023D01*
X52982857Y-29509404D01*
X52935238Y-29461785D01*
X52887619Y-29366547D01*
X52887619Y-29128452D01*
X52935238Y-29033214D01*
X52982857Y-28985595D01*
X58253333Y-27176071D02*
X58253333Y-27652261D01*
X57967619Y-27080833D02*
X58967619Y-27414166D01*
X57967619Y-27747500D01*
X57967619Y-28604642D02*
X57967619Y-28033214D01*
X57967619Y-28318928D02*
X58967619Y-28318928D01*
X58824761Y-28223690D01*
X58729523Y-28128452D01*
X58681904Y-28033214D01*
X58967619Y-28937976D02*
X58967619Y-29557023D01*
X58586666Y-29223690D01*
X58586666Y-29366547D01*
X58539047Y-29461785D01*
X58491428Y-29509404D01*
X58396190Y-29557023D01*
X58158095Y-29557023D01*
X58062857Y-29509404D01*
X58015238Y-29461785D01*
X57967619Y-29366547D01*
X57967619Y-29080833D01*
X58015238Y-28985595D01*
X58062857Y-28937976D01*
X55713333Y-27176071D02*
X55713333Y-27652261D01*
X55427619Y-27080833D02*
X56427619Y-27414166D01*
X55427619Y-27747500D01*
X55427619Y-28604642D02*
X55427619Y-28033214D01*
X55427619Y-28318928D02*
X56427619Y-28318928D01*
X56284761Y-28223690D01*
X56189523Y-28128452D01*
X56141904Y-28033214D01*
X56094285Y-29461785D02*
X55427619Y-29461785D01*
X56475238Y-29223690D02*
X55760952Y-28985595D01*
X55760952Y-29604642D01*
X65873333Y-27176071D02*
X65873333Y-27652261D01*
X65587619Y-27080833D02*
X66587619Y-27414166D01*
X65587619Y-27747500D01*
X65587619Y-28604642D02*
X65587619Y-28033214D01*
X65587619Y-28318928D02*
X66587619Y-28318928D01*
X66444761Y-28223690D01*
X66349523Y-28128452D01*
X66301904Y-28033214D01*
X66587619Y-29223690D02*
X66587619Y-29318928D01*
X66540000Y-29414166D01*
X66492380Y-29461785D01*
X66397142Y-29509404D01*
X66206666Y-29557023D01*
X65968571Y-29557023D01*
X65778095Y-29509404D01*
X65682857Y-29461785D01*
X65635238Y-29414166D01*
X65587619Y-29318928D01*
X65587619Y-29223690D01*
X65635238Y-29128452D01*
X65682857Y-29080833D01*
X65778095Y-29033214D01*
X65968571Y-28985595D01*
X66206666Y-28985595D01*
X66397142Y-29033214D01*
X66492380Y-29080833D01*
X66540000Y-29128452D01*
X66587619Y-29223690D01*
X70953333Y-28128452D02*
X70953333Y-28604642D01*
X70667619Y-28033214D02*
X71667619Y-28366547D01*
X70667619Y-28699880D01*
X71239047Y-29176071D02*
X71286666Y-29080833D01*
X71334285Y-29033214D01*
X71429523Y-28985595D01*
X71477142Y-28985595D01*
X71572380Y-29033214D01*
X71620000Y-29080833D01*
X71667619Y-29176071D01*
X71667619Y-29366547D01*
X71620000Y-29461785D01*
X71572380Y-29509404D01*
X71477142Y-29557023D01*
X71429523Y-29557023D01*
X71334285Y-29509404D01*
X71286666Y-29461785D01*
X71239047Y-29366547D01*
X71239047Y-29176071D01*
X71191428Y-29080833D01*
X71143809Y-29033214D01*
X71048571Y-28985595D01*
X70858095Y-28985595D01*
X70762857Y-29033214D01*
X70715238Y-29080833D01*
X70667619Y-29176071D01*
X70667619Y-29366547D01*
X70715238Y-29461785D01*
X70762857Y-29509404D01*
X70858095Y-29557023D01*
X71048571Y-29557023D01*
X71143809Y-29509404D01*
X71191428Y-29461785D01*
X71239047Y-29366547D01*
X63333333Y-27176071D02*
X63333333Y-27652261D01*
X63047619Y-27080833D02*
X64047619Y-27414166D01*
X63047619Y-27747500D01*
X63047619Y-28604642D02*
X63047619Y-28033214D01*
X63047619Y-28318928D02*
X64047619Y-28318928D01*
X63904761Y-28223690D01*
X63809523Y-28128452D01*
X63761904Y-28033214D01*
X63047619Y-29557023D02*
X63047619Y-28985595D01*
X63047619Y-29271309D02*
X64047619Y-29271309D01*
X63904761Y-29176071D01*
X63809523Y-29080833D01*
X63761904Y-28985595D01*
X68413333Y-28128452D02*
X68413333Y-28604642D01*
X68127619Y-28033214D02*
X69127619Y-28366547D01*
X68127619Y-28699880D01*
X68127619Y-29080833D02*
X68127619Y-29271309D01*
X68175238Y-29366547D01*
X68222857Y-29414166D01*
X68365714Y-29509404D01*
X68556190Y-29557023D01*
X68937142Y-29557023D01*
X69032380Y-29509404D01*
X69080000Y-29461785D01*
X69127619Y-29366547D01*
X69127619Y-29176071D01*
X69080000Y-29080833D01*
X69032380Y-29033214D01*
X68937142Y-28985595D01*
X68699047Y-28985595D01*
X68603809Y-29033214D01*
X68556190Y-29080833D01*
X68508571Y-29176071D01*
X68508571Y-29366547D01*
X68556190Y-29461785D01*
X68603809Y-29509404D01*
X68699047Y-29557023D01*
X73493333Y-28128452D02*
X73493333Y-28604642D01*
X73207619Y-28033214D02*
X74207619Y-28366547D01*
X73207619Y-28699880D01*
X74207619Y-28937976D02*
X74207619Y-29604642D01*
X73207619Y-29176071D01*
X78573333Y-28128452D02*
X78573333Y-28604642D01*
X78287619Y-28033214D02*
X79287619Y-28366547D01*
X78287619Y-28699880D01*
X79287619Y-29509404D02*
X79287619Y-29033214D01*
X78811428Y-28985595D01*
X78859047Y-29033214D01*
X78906666Y-29128452D01*
X78906666Y-29366547D01*
X78859047Y-29461785D01*
X78811428Y-29509404D01*
X78716190Y-29557023D01*
X78478095Y-29557023D01*
X78382857Y-29509404D01*
X78335238Y-29461785D01*
X78287619Y-29366547D01*
X78287619Y-29128452D01*
X78335238Y-29033214D01*
X78382857Y-28985595D01*
X76033333Y-28128452D02*
X76033333Y-28604642D01*
X75747619Y-28033214D02*
X76747619Y-28366547D01*
X75747619Y-28699880D01*
X76747619Y-29461785D02*
X76747619Y-29271309D01*
X76700000Y-29176071D01*
X76652380Y-29128452D01*
X76509523Y-29033214D01*
X76319047Y-28985595D01*
X75938095Y-28985595D01*
X75842857Y-29033214D01*
X75795238Y-29080833D01*
X75747619Y-29176071D01*
X75747619Y-29366547D01*
X75795238Y-29461785D01*
X75842857Y-29509404D01*
X75938095Y-29557023D01*
X76176190Y-29557023D01*
X76271428Y-29509404D01*
X76319047Y-29461785D01*
X76366666Y-29366547D01*
X76366666Y-29176071D01*
X76319047Y-29080833D01*
X76271428Y-29033214D01*
X76176190Y-28985595D01*
X81113333Y-28128452D02*
X81113333Y-28604642D01*
X80827619Y-28033214D02*
X81827619Y-28366547D01*
X80827619Y-28699880D01*
X81494285Y-29461785D02*
X80827619Y-29461785D01*
X81875238Y-29223690D02*
X81160952Y-28985595D01*
X81160952Y-29604642D01*
X88733333Y-28128452D02*
X88733333Y-28604642D01*
X88447619Y-28033214D02*
X89447619Y-28366547D01*
X88447619Y-28699880D01*
X88447619Y-29557023D02*
X88447619Y-28985595D01*
X88447619Y-29271309D02*
X89447619Y-29271309D01*
X89304761Y-29176071D01*
X89209523Y-29080833D01*
X89161904Y-28985595D01*
X86193333Y-28128452D02*
X86193333Y-28604642D01*
X85907619Y-28033214D02*
X86907619Y-28366547D01*
X85907619Y-28699880D01*
X86812380Y-28985595D02*
X86860000Y-29033214D01*
X86907619Y-29128452D01*
X86907619Y-29366547D01*
X86860000Y-29461785D01*
X86812380Y-29509404D01*
X86717142Y-29557023D01*
X86621904Y-29557023D01*
X86479047Y-29509404D01*
X85907619Y-28937976D01*
X85907619Y-29557023D01*
X83653333Y-28128452D02*
X83653333Y-28604642D01*
X83367619Y-28033214D02*
X84367619Y-28366547D01*
X83367619Y-28699880D01*
X84367619Y-28937976D02*
X84367619Y-29557023D01*
X83986666Y-29223690D01*
X83986666Y-29366547D01*
X83939047Y-29461785D01*
X83891428Y-29509404D01*
X83796190Y-29557023D01*
X83558095Y-29557023D01*
X83462857Y-29509404D01*
X83415238Y-29461785D01*
X83367619Y-29366547D01*
X83367619Y-29080833D01*
X83415238Y-28985595D01*
X83462857Y-28937976D01*
X91273333Y-28128452D02*
X91273333Y-28604642D01*
X90987619Y-28033214D02*
X91987619Y-28366547D01*
X90987619Y-28699880D01*
X91987619Y-29223690D02*
X91987619Y-29318928D01*
X91940000Y-29414166D01*
X91892380Y-29461785D01*
X91797142Y-29509404D01*
X91606666Y-29557023D01*
X91368571Y-29557023D01*
X91178095Y-29509404D01*
X91082857Y-29461785D01*
X91035238Y-29414166D01*
X90987619Y-29318928D01*
X90987619Y-29223690D01*
X91035238Y-29128452D01*
X91082857Y-29080833D01*
X91178095Y-29033214D01*
X91368571Y-28985595D01*
X91606666Y-28985595D01*
X91797142Y-29033214D01*
X91892380Y-29080833D01*
X91940000Y-29128452D01*
X91987619Y-29223690D01*
X93527619Y-26985595D02*
X94527619Y-26985595D01*
X93527619Y-27557023D01*
X94527619Y-27557023D01*
X93622857Y-28604642D02*
X93575238Y-28557023D01*
X93527619Y-28414166D01*
X93527619Y-28318928D01*
X93575238Y-28176071D01*
X93670476Y-28080833D01*
X93765714Y-28033214D01*
X93956190Y-27985595D01*
X94099047Y-27985595D01*
X94289523Y-28033214D01*
X94384761Y-28080833D01*
X94480000Y-28176071D01*
X94527619Y-28318928D01*
X94527619Y-28414166D01*
X94480000Y-28557023D01*
X94432380Y-28604642D01*
X94527619Y-29509404D02*
X94527619Y-29033214D01*
X94051428Y-28985595D01*
X94099047Y-29033214D01*
X94146666Y-29128452D01*
X94146666Y-29366547D01*
X94099047Y-29461785D01*
X94051428Y-29509404D01*
X93956190Y-29557023D01*
X93718095Y-29557023D01*
X93622857Y-29509404D01*
X93575238Y-29461785D01*
X93527619Y-29366547D01*
X93527619Y-29128452D01*
X93575238Y-29033214D01*
X93622857Y-28985595D01*
X97435000Y-27033214D02*
X97435000Y-28033214D01*
X96067619Y-27842738D02*
X96543809Y-27509404D01*
X96067619Y-27271309D02*
X97067619Y-27271309D01*
X97067619Y-27652261D01*
X97020000Y-27747500D01*
X96972380Y-27795119D01*
X96877142Y-27842738D01*
X96734285Y-27842738D01*
X96639047Y-27795119D01*
X96591428Y-27747500D01*
X96543809Y-27652261D01*
X96543809Y-27271309D01*
X97435000Y-28033214D02*
X97435000Y-28985595D01*
X96115238Y-28223690D02*
X96067619Y-28366547D01*
X96067619Y-28604642D01*
X96115238Y-28699880D01*
X96162857Y-28747500D01*
X96258095Y-28795119D01*
X96353333Y-28795119D01*
X96448571Y-28747500D01*
X96496190Y-28699880D01*
X96543809Y-28604642D01*
X96591428Y-28414166D01*
X96639047Y-28318928D01*
X96686666Y-28271309D01*
X96781904Y-28223690D01*
X96877142Y-28223690D01*
X96972380Y-28271309D01*
X97020000Y-28318928D01*
X97067619Y-28414166D01*
X97067619Y-28652261D01*
X97020000Y-28795119D01*
X97435000Y-28985595D02*
X97435000Y-29747500D01*
X97067619Y-29080833D02*
X97067619Y-29652261D01*
X96067619Y-29366547D02*
X97067619Y-29366547D01*
X99975000Y-26033214D02*
X99975000Y-27033214D01*
X98607619Y-26271309D02*
X99607619Y-26271309D01*
X99607619Y-26509404D01*
X99560000Y-26652261D01*
X99464761Y-26747500D01*
X99369523Y-26795119D01*
X99179047Y-26842738D01*
X99036190Y-26842738D01*
X98845714Y-26795119D01*
X98750476Y-26747500D01*
X98655238Y-26652261D01*
X98607619Y-26509404D01*
X98607619Y-26271309D01*
X99975000Y-27033214D02*
X99975000Y-28033214D01*
X98607619Y-27842738D02*
X99083809Y-27509404D01*
X98607619Y-27271309D02*
X99607619Y-27271309D01*
X99607619Y-27652261D01*
X99560000Y-27747500D01*
X99512380Y-27795119D01*
X99417142Y-27842738D01*
X99274285Y-27842738D01*
X99179047Y-27795119D01*
X99131428Y-27747500D01*
X99083809Y-27652261D01*
X99083809Y-27271309D01*
X99975000Y-28033214D02*
X99975000Y-28985595D01*
X98655238Y-28223690D02*
X98607619Y-28366547D01*
X98607619Y-28604642D01*
X98655238Y-28699880D01*
X98702857Y-28747500D01*
X98798095Y-28795119D01*
X98893333Y-28795119D01*
X98988571Y-28747500D01*
X99036190Y-28699880D01*
X99083809Y-28604642D01*
X99131428Y-28414166D01*
X99179047Y-28318928D01*
X99226666Y-28271309D01*
X99321904Y-28223690D01*
X99417142Y-28223690D01*
X99512380Y-28271309D01*
X99560000Y-28318928D01*
X99607619Y-28414166D01*
X99607619Y-28652261D01*
X99560000Y-28795119D01*
X99975000Y-28985595D02*
X99975000Y-29747500D01*
X99607619Y-29080833D02*
X99607619Y-29652261D01*
X98607619Y-29366547D02*
X99607619Y-29366547D01*
X52887619Y-36530595D02*
X53887619Y-36530595D01*
X53887619Y-36768690D01*
X53840000Y-36911547D01*
X53744761Y-37006785D01*
X53649523Y-37054404D01*
X53459047Y-37102023D01*
X53316190Y-37102023D01*
X53125714Y-37054404D01*
X53030476Y-37006785D01*
X52935238Y-36911547D01*
X52887619Y-36768690D01*
X52887619Y-36530595D01*
X53887619Y-37435357D02*
X53887619Y-38102023D01*
X52887619Y-37673452D01*
X70667619Y-36530595D02*
X71667619Y-36530595D01*
X71667619Y-36768690D01*
X71620000Y-36911547D01*
X71524761Y-37006785D01*
X71429523Y-37054404D01*
X71239047Y-37102023D01*
X71096190Y-37102023D01*
X70905714Y-37054404D01*
X70810476Y-37006785D01*
X70715238Y-36911547D01*
X70667619Y-36768690D01*
X70667619Y-36530595D01*
X71667619Y-37721071D02*
X71667619Y-37816309D01*
X71620000Y-37911547D01*
X71572380Y-37959166D01*
X71477142Y-38006785D01*
X71286666Y-38054404D01*
X71048571Y-38054404D01*
X70858095Y-38006785D01*
X70762857Y-37959166D01*
X70715238Y-37911547D01*
X70667619Y-37816309D01*
X70667619Y-37721071D01*
X70715238Y-37625833D01*
X70762857Y-37578214D01*
X70858095Y-37530595D01*
X71048571Y-37482976D01*
X71286666Y-37482976D01*
X71477142Y-37530595D01*
X71572380Y-37578214D01*
X71620000Y-37625833D01*
X71667619Y-37721071D01*
X63047619Y-36530595D02*
X64047619Y-36530595D01*
X64047619Y-36768690D01*
X64000000Y-36911547D01*
X63904761Y-37006785D01*
X63809523Y-37054404D01*
X63619047Y-37102023D01*
X63476190Y-37102023D01*
X63285714Y-37054404D01*
X63190476Y-37006785D01*
X63095238Y-36911547D01*
X63047619Y-36768690D01*
X63047619Y-36530595D01*
X64047619Y-37435357D02*
X64047619Y-38054404D01*
X63666666Y-37721071D01*
X63666666Y-37863928D01*
X63619047Y-37959166D01*
X63571428Y-38006785D01*
X63476190Y-38054404D01*
X63238095Y-38054404D01*
X63142857Y-38006785D01*
X63095238Y-37959166D01*
X63047619Y-37863928D01*
X63047619Y-37578214D01*
X63095238Y-37482976D01*
X63142857Y-37435357D01*
X65587619Y-36530595D02*
X66587619Y-36530595D01*
X66587619Y-36768690D01*
X66540000Y-36911547D01*
X66444761Y-37006785D01*
X66349523Y-37054404D01*
X66159047Y-37102023D01*
X66016190Y-37102023D01*
X65825714Y-37054404D01*
X65730476Y-37006785D01*
X65635238Y-36911547D01*
X65587619Y-36768690D01*
X65587619Y-36530595D01*
X66492380Y-37482976D02*
X66540000Y-37530595D01*
X66587619Y-37625833D01*
X66587619Y-37863928D01*
X66540000Y-37959166D01*
X66492380Y-38006785D01*
X66397142Y-38054404D01*
X66301904Y-38054404D01*
X66159047Y-38006785D01*
X65587619Y-37435357D01*
X65587619Y-38054404D01*
X55427619Y-36530595D02*
X56427619Y-36530595D01*
X56427619Y-36768690D01*
X56380000Y-36911547D01*
X56284761Y-37006785D01*
X56189523Y-37054404D01*
X55999047Y-37102023D01*
X55856190Y-37102023D01*
X55665714Y-37054404D01*
X55570476Y-37006785D01*
X55475238Y-36911547D01*
X55427619Y-36768690D01*
X55427619Y-36530595D01*
X56427619Y-37959166D02*
X56427619Y-37768690D01*
X56380000Y-37673452D01*
X56332380Y-37625833D01*
X56189523Y-37530595D01*
X55999047Y-37482976D01*
X55618095Y-37482976D01*
X55522857Y-37530595D01*
X55475238Y-37578214D01*
X55427619Y-37673452D01*
X55427619Y-37863928D01*
X55475238Y-37959166D01*
X55522857Y-38006785D01*
X55618095Y-38054404D01*
X55856190Y-38054404D01*
X55951428Y-38006785D01*
X55999047Y-37959166D01*
X56046666Y-37863928D01*
X56046666Y-37673452D01*
X55999047Y-37578214D01*
X55951428Y-37530595D01*
X55856190Y-37482976D01*
X57967619Y-36530595D02*
X58967619Y-36530595D01*
X58967619Y-36768690D01*
X58920000Y-36911547D01*
X58824761Y-37006785D01*
X58729523Y-37054404D01*
X58539047Y-37102023D01*
X58396190Y-37102023D01*
X58205714Y-37054404D01*
X58110476Y-37006785D01*
X58015238Y-36911547D01*
X57967619Y-36768690D01*
X57967619Y-36530595D01*
X58967619Y-38006785D02*
X58967619Y-37530595D01*
X58491428Y-37482976D01*
X58539047Y-37530595D01*
X58586666Y-37625833D01*
X58586666Y-37863928D01*
X58539047Y-37959166D01*
X58491428Y-38006785D01*
X58396190Y-38054404D01*
X58158095Y-38054404D01*
X58062857Y-38006785D01*
X58015238Y-37959166D01*
X57967619Y-37863928D01*
X57967619Y-37625833D01*
X58015238Y-37530595D01*
X58062857Y-37482976D01*
X60507619Y-36530595D02*
X61507619Y-36530595D01*
X61507619Y-36768690D01*
X61460000Y-36911547D01*
X61364761Y-37006785D01*
X61269523Y-37054404D01*
X61079047Y-37102023D01*
X60936190Y-37102023D01*
X60745714Y-37054404D01*
X60650476Y-37006785D01*
X60555238Y-36911547D01*
X60507619Y-36768690D01*
X60507619Y-36530595D01*
X61174285Y-37959166D02*
X60507619Y-37959166D01*
X61555238Y-37721071D02*
X60840952Y-37482976D01*
X60840952Y-38102023D01*
X68127619Y-36530595D02*
X69127619Y-36530595D01*
X69127619Y-36768690D01*
X69080000Y-36911547D01*
X68984761Y-37006785D01*
X68889523Y-37054404D01*
X68699047Y-37102023D01*
X68556190Y-37102023D01*
X68365714Y-37054404D01*
X68270476Y-37006785D01*
X68175238Y-36911547D01*
X68127619Y-36768690D01*
X68127619Y-36530595D01*
X68127619Y-38054404D02*
X68127619Y-37482976D01*
X68127619Y-37768690D02*
X69127619Y-37768690D01*
X68984761Y-37673452D01*
X68889523Y-37578214D01*
X68841904Y-37482976D01*
X102147619Y-28652261D02*
X102147619Y-28176071D01*
X101671428Y-28128452D01*
X101719047Y-28176071D01*
X101766666Y-28271309D01*
X101766666Y-28509404D01*
X101719047Y-28604642D01*
X101671428Y-28652261D01*
X101576190Y-28699880D01*
X101338095Y-28699880D01*
X101242857Y-28652261D01*
X101195238Y-28604642D01*
X101147619Y-28509404D01*
X101147619Y-28271309D01*
X101195238Y-28176071D01*
X101242857Y-28128452D01*
X102147619Y-28985595D02*
X101147619Y-29318928D01*
X102147619Y-29652261D01*
X80827619Y-37054404D02*
X80827619Y-36482976D01*
X80827619Y-36768690D02*
X81827619Y-36768690D01*
X81684761Y-36673452D01*
X81589523Y-36578214D01*
X81541904Y-36482976D01*
X80922857Y-37482976D02*
X80875238Y-37530595D01*
X80827619Y-37482976D01*
X80875238Y-37435357D01*
X80922857Y-37482976D01*
X80827619Y-37482976D01*
X81732380Y-37911547D02*
X81780000Y-37959166D01*
X81827619Y-38054404D01*
X81827619Y-38292500D01*
X81780000Y-38387738D01*
X81732380Y-38435357D01*
X81637142Y-38482976D01*
X81541904Y-38482976D01*
X81399047Y-38435357D01*
X80827619Y-37863928D01*
X80827619Y-38482976D01*
X83367619Y-37054404D02*
X83367619Y-36482976D01*
X83367619Y-36768690D02*
X84367619Y-36768690D01*
X84224761Y-36673452D01*
X84129523Y-36578214D01*
X84081904Y-36482976D01*
X83462857Y-37482976D02*
X83415238Y-37530595D01*
X83367619Y-37482976D01*
X83415238Y-37435357D01*
X83462857Y-37482976D01*
X83367619Y-37482976D01*
X83367619Y-38482976D02*
X83367619Y-37911547D01*
X83367619Y-38197261D02*
X84367619Y-38197261D01*
X84224761Y-38102023D01*
X84129523Y-38006785D01*
X84081904Y-37911547D01*
X73207619Y-37054404D02*
X73207619Y-36482976D01*
X73207619Y-36768690D02*
X74207619Y-36768690D01*
X74064761Y-36673452D01*
X73969523Y-36578214D01*
X73921904Y-36482976D01*
X73302857Y-37482976D02*
X73255238Y-37530595D01*
X73207619Y-37482976D01*
X73255238Y-37435357D01*
X73302857Y-37482976D01*
X73207619Y-37482976D01*
X74207619Y-38435357D02*
X74207619Y-37959166D01*
X73731428Y-37911547D01*
X73779047Y-37959166D01*
X73826666Y-38054404D01*
X73826666Y-38292500D01*
X73779047Y-38387738D01*
X73731428Y-38435357D01*
X73636190Y-38482976D01*
X73398095Y-38482976D01*
X73302857Y-38435357D01*
X73255238Y-38387738D01*
X73207619Y-38292500D01*
X73207619Y-38054404D01*
X73255238Y-37959166D01*
X73302857Y-37911547D01*
X75747619Y-37054404D02*
X75747619Y-36482976D01*
X75747619Y-36768690D02*
X76747619Y-36768690D01*
X76604761Y-36673452D01*
X76509523Y-36578214D01*
X76461904Y-36482976D01*
X75842857Y-37482976D02*
X75795238Y-37530595D01*
X75747619Y-37482976D01*
X75795238Y-37435357D01*
X75842857Y-37482976D01*
X75747619Y-37482976D01*
X76414285Y-38387738D02*
X75747619Y-38387738D01*
X76795238Y-38149642D02*
X76080952Y-37911547D01*
X76080952Y-38530595D01*
X78287619Y-37054404D02*
X78287619Y-36482976D01*
X78287619Y-36768690D02*
X79287619Y-36768690D01*
X79144761Y-36673452D01*
X79049523Y-36578214D01*
X79001904Y-36482976D01*
X78382857Y-37482976D02*
X78335238Y-37530595D01*
X78287619Y-37482976D01*
X78335238Y-37435357D01*
X78382857Y-37482976D01*
X78287619Y-37482976D01*
X79287619Y-37863928D02*
X79287619Y-38482976D01*
X78906666Y-38149642D01*
X78906666Y-38292500D01*
X78859047Y-38387738D01*
X78811428Y-38435357D01*
X78716190Y-38482976D01*
X78478095Y-38482976D01*
X78382857Y-38435357D01*
X78335238Y-38387738D01*
X78287619Y-38292500D01*
X78287619Y-38006785D01*
X78335238Y-37911547D01*
X78382857Y-37863928D01*
X85907619Y-36530595D02*
X86907619Y-36530595D01*
X85907619Y-37102023D01*
X86907619Y-37102023D01*
X86002857Y-38149642D02*
X85955238Y-38102023D01*
X85907619Y-37959166D01*
X85907619Y-37863928D01*
X85955238Y-37721071D01*
X86050476Y-37625833D01*
X86145714Y-37578214D01*
X86336190Y-37530595D01*
X86479047Y-37530595D01*
X86669523Y-37578214D01*
X86764761Y-37625833D01*
X86860000Y-37721071D01*
X86907619Y-37863928D01*
X86907619Y-37959166D01*
X86860000Y-38102023D01*
X86812380Y-38149642D01*
X86574285Y-39006785D02*
X85907619Y-39006785D01*
X86955238Y-38768690D02*
X86240952Y-38530595D01*
X86240952Y-39149642D01*
X88447619Y-36530595D02*
X89447619Y-36530595D01*
X88447619Y-37102023D01*
X89447619Y-37102023D01*
X88542857Y-38149642D02*
X88495238Y-38102023D01*
X88447619Y-37959166D01*
X88447619Y-37863928D01*
X88495238Y-37721071D01*
X88590476Y-37625833D01*
X88685714Y-37578214D01*
X88876190Y-37530595D01*
X89019047Y-37530595D01*
X89209523Y-37578214D01*
X89304761Y-37625833D01*
X89400000Y-37721071D01*
X89447619Y-37863928D01*
X89447619Y-37959166D01*
X89400000Y-38102023D01*
X89352380Y-38149642D01*
X89447619Y-38482976D02*
X89447619Y-39102023D01*
X89066666Y-38768690D01*
X89066666Y-38911547D01*
X89019047Y-39006785D01*
X88971428Y-39054404D01*
X88876190Y-39102023D01*
X88638095Y-39102023D01*
X88542857Y-39054404D01*
X88495238Y-39006785D01*
X88447619Y-38911547D01*
X88447619Y-38625833D01*
X88495238Y-38530595D01*
X88542857Y-38482976D01*
X90987619Y-36530595D02*
X91987619Y-36530595D01*
X90987619Y-37102023D01*
X91987619Y-37102023D01*
X91082857Y-38149642D02*
X91035238Y-38102023D01*
X90987619Y-37959166D01*
X90987619Y-37863928D01*
X91035238Y-37721071D01*
X91130476Y-37625833D01*
X91225714Y-37578214D01*
X91416190Y-37530595D01*
X91559047Y-37530595D01*
X91749523Y-37578214D01*
X91844761Y-37625833D01*
X91940000Y-37721071D01*
X91987619Y-37863928D01*
X91987619Y-37959166D01*
X91940000Y-38102023D01*
X91892380Y-38149642D01*
X91892380Y-38530595D02*
X91940000Y-38578214D01*
X91987619Y-38673452D01*
X91987619Y-38911547D01*
X91940000Y-39006785D01*
X91892380Y-39054404D01*
X91797142Y-39102023D01*
X91701904Y-39102023D01*
X91559047Y-39054404D01*
X90987619Y-38482976D01*
X90987619Y-39102023D01*
X93527619Y-36530595D02*
X94527619Y-36530595D01*
X93527619Y-37102023D01*
X94527619Y-37102023D01*
X93622857Y-38149642D02*
X93575238Y-38102023D01*
X93527619Y-37959166D01*
X93527619Y-37863928D01*
X93575238Y-37721071D01*
X93670476Y-37625833D01*
X93765714Y-37578214D01*
X93956190Y-37530595D01*
X94099047Y-37530595D01*
X94289523Y-37578214D01*
X94384761Y-37625833D01*
X94480000Y-37721071D01*
X94527619Y-37863928D01*
X94527619Y-37959166D01*
X94480000Y-38102023D01*
X94432380Y-38149642D01*
X93527619Y-39102023D02*
X93527619Y-38530595D01*
X93527619Y-38816309D02*
X94527619Y-38816309D01*
X94384761Y-38721071D01*
X94289523Y-38625833D01*
X94241904Y-38530595D01*
X96162857Y-37102023D02*
X96115238Y-37054404D01*
X96067619Y-36911547D01*
X96067619Y-36816309D01*
X96115238Y-36673452D01*
X96210476Y-36578214D01*
X96305714Y-36530595D01*
X96496190Y-36482976D01*
X96639047Y-36482976D01*
X96829523Y-36530595D01*
X96924761Y-36578214D01*
X97020000Y-36673452D01*
X97067619Y-36816309D01*
X97067619Y-36911547D01*
X97020000Y-37054404D01*
X96972380Y-37102023D01*
X96067619Y-38006785D02*
X96067619Y-37530595D01*
X97067619Y-37530595D01*
X97067619Y-38530595D02*
X97067619Y-38721071D01*
X97020000Y-38816309D01*
X96924761Y-38911547D01*
X96734285Y-38959166D01*
X96400952Y-38959166D01*
X96210476Y-38911547D01*
X96115238Y-38816309D01*
X96067619Y-38721071D01*
X96067619Y-38530595D01*
X96115238Y-38435357D01*
X96210476Y-38340119D01*
X96400952Y-38292500D01*
X96734285Y-38292500D01*
X96924761Y-38340119D01*
X97020000Y-38435357D01*
X97067619Y-38530595D01*
X96162857Y-39959166D02*
X96115238Y-39911547D01*
X96067619Y-39768690D01*
X96067619Y-39673452D01*
X96115238Y-39530595D01*
X96210476Y-39435357D01*
X96305714Y-39387738D01*
X96496190Y-39340119D01*
X96639047Y-39340119D01*
X96829523Y-39387738D01*
X96924761Y-39435357D01*
X97020000Y-39530595D01*
X97067619Y-39673452D01*
X97067619Y-39768690D01*
X97020000Y-39911547D01*
X96972380Y-39959166D01*
X96067619Y-40387738D02*
X97067619Y-40387738D01*
X96067619Y-40959166D02*
X96639047Y-40530595D01*
X97067619Y-40959166D02*
X96496190Y-40387738D01*
X96972380Y-41340119D02*
X97020000Y-41387738D01*
X97067619Y-41482976D01*
X97067619Y-41721071D01*
X97020000Y-41816309D01*
X96972380Y-41863928D01*
X96877142Y-41911547D01*
X96781904Y-41911547D01*
X96639047Y-41863928D01*
X96067619Y-41292500D01*
X96067619Y-41911547D01*
X98702857Y-37102023D02*
X98655238Y-37054404D01*
X98607619Y-36911547D01*
X98607619Y-36816309D01*
X98655238Y-36673452D01*
X98750476Y-36578214D01*
X98845714Y-36530595D01*
X99036190Y-36482976D01*
X99179047Y-36482976D01*
X99369523Y-36530595D01*
X99464761Y-36578214D01*
X99560000Y-36673452D01*
X99607619Y-36816309D01*
X99607619Y-36911547D01*
X99560000Y-37054404D01*
X99512380Y-37102023D01*
X98607619Y-38006785D02*
X98607619Y-37530595D01*
X99607619Y-37530595D01*
X99607619Y-38530595D02*
X99607619Y-38721071D01*
X99560000Y-38816309D01*
X99464761Y-38911547D01*
X99274285Y-38959166D01*
X98940952Y-38959166D01*
X98750476Y-38911547D01*
X98655238Y-38816309D01*
X98607619Y-38721071D01*
X98607619Y-38530595D01*
X98655238Y-38435357D01*
X98750476Y-38340119D01*
X98940952Y-38292500D01*
X99274285Y-38292500D01*
X99464761Y-38340119D01*
X99560000Y-38435357D01*
X99607619Y-38530595D01*
X98702857Y-39959166D02*
X98655238Y-39911547D01*
X98607619Y-39768690D01*
X98607619Y-39673452D01*
X98655238Y-39530595D01*
X98750476Y-39435357D01*
X98845714Y-39387738D01*
X99036190Y-39340119D01*
X99179047Y-39340119D01*
X99369523Y-39387738D01*
X99464761Y-39435357D01*
X99560000Y-39530595D01*
X99607619Y-39673452D01*
X99607619Y-39768690D01*
X99560000Y-39911547D01*
X99512380Y-39959166D01*
X98607619Y-40387738D02*
X99607619Y-40387738D01*
X98607619Y-40959166D02*
X99179047Y-40530595D01*
X99607619Y-40959166D02*
X99036190Y-40387738D01*
X98607619Y-41911547D02*
X98607619Y-41340119D01*
X98607619Y-41625833D02*
X99607619Y-41625833D01*
X99464761Y-41530595D01*
X99369523Y-41435357D01*
X99321904Y-41340119D01*
X102100000Y-37054404D02*
X102147619Y-36959166D01*
X102147619Y-36816309D01*
X102100000Y-36673452D01*
X102004761Y-36578214D01*
X101909523Y-36530595D01*
X101719047Y-36482976D01*
X101576190Y-36482976D01*
X101385714Y-36530595D01*
X101290476Y-36578214D01*
X101195238Y-36673452D01*
X101147619Y-36816309D01*
X101147619Y-36911547D01*
X101195238Y-37054404D01*
X101242857Y-37102023D01*
X101576190Y-37102023D01*
X101576190Y-36911547D01*
X101147619Y-37530595D02*
X102147619Y-37530595D01*
X101147619Y-38102023D01*
X102147619Y-38102023D01*
X101147619Y-38578214D02*
X102147619Y-38578214D01*
X102147619Y-38816309D01*
X102100000Y-38959166D01*
X102004761Y-39054404D01*
X101909523Y-39102023D01*
X101719047Y-39149642D01*
X101576190Y-39149642D01*
X101385714Y-39102023D01*
X101290476Y-39054404D01*
X101195238Y-38959166D01*
X101147619Y-38816309D01*
X101147619Y-38578214D01*
D11*
X123180000Y-108870000D02*
X122880000Y-108870000D01*
X122880000Y-109760000D02*
X123230000Y-109760000D01*
X122880000Y-109760000D02*
X122880000Y-108870000D01*
X125430000Y-110250000D02*
X125430000Y-115230000D01*
X129670000Y-108870000D02*
X125820000Y-108870000D01*
X129670000Y-116610000D02*
X129670000Y-108870000D01*
X125820000Y-116610000D02*
X129670000Y-116610000D01*
X123180000Y-116610000D02*
X122880000Y-116610000D01*
X122880000Y-116610000D02*
X122880000Y-115720000D01*
X122880000Y-115720000D02*
X123230000Y-115720000D01*
X102930000Y-123190000D02*
X102930000Y-124520000D01*
X102930000Y-124520000D02*
X101600000Y-124520000D01*
X102930000Y-121920000D02*
X100330000Y-121920000D01*
X100330000Y-121920000D02*
X100330000Y-124520000D01*
X100330000Y-124520000D02*
X52010000Y-124520000D01*
X52010000Y-119320000D02*
X52010000Y-124520000D01*
X102930000Y-119320000D02*
X52010000Y-119320000D01*
X102930000Y-119320000D02*
X102930000Y-121920000D01*
X102930000Y-34290000D02*
X102930000Y-35620000D01*
X102930000Y-35620000D02*
X101600000Y-35620000D01*
X102930000Y-33020000D02*
X100330000Y-33020000D01*
X100330000Y-33020000D02*
X100330000Y-35620000D01*
X100330000Y-35620000D02*
X52010000Y-35620000D01*
X52010000Y-30420000D02*
X52010000Y-35620000D01*
X102930000Y-30420000D02*
X52010000Y-30420000D01*
X102930000Y-30420000D02*
X102930000Y-33020000D01*
X129290000Y-38080000D02*
G75*
G02X129290000Y-43200000I0J-2560000D01*
G01*
X123130000Y-43200000D02*
X129290000Y-43200000D01*
X123130000Y-38080000D02*
X129290000Y-38080000D01*
X123130000Y-43200000D02*
X123130000Y-38080000D01*
X123130000Y-37680000D02*
X124250000Y-37680000D01*
X124250000Y-37680000D02*
X124250000Y-38080000D01*
X124250000Y-38080000D02*
X123130000Y-38080000D01*
X123130000Y-38080000D02*
X123130000Y-37680000D01*
X123000000Y-41910000D02*
X123130000Y-41910000D01*
X123130000Y-41910000D02*
X123130000Y-41910000D01*
X123130000Y-41910000D02*
X123000000Y-41910000D01*
X123000000Y-41910000D02*
X123000000Y-41910000D01*
X123000000Y-39370000D02*
X123130000Y-39370000D01*
X123130000Y-39370000D02*
X123130000Y-39370000D01*
X123130000Y-39370000D02*
X123000000Y-39370000D01*
X123000000Y-39370000D02*
X123000000Y-39370000D01*
X111030000Y-40870000D02*
X111030000Y-40540000D01*
X111030000Y-40540000D02*
X117570000Y-40540000D01*
X117570000Y-40540000D02*
X117570000Y-40870000D01*
X111030000Y-42950000D02*
X111030000Y-43280000D01*
X111030000Y-43280000D02*
X117570000Y-43280000D01*
X117570000Y-43280000D02*
X117570000Y-42950000D01*
D10*
X26670000Y-50800000D02*
X26670000Y-104140000D01*
X125730000Y-63500000D02*
X125730000Y-52324000D01*
X128270000Y-66040000D02*
X125730000Y-63500000D01*
X128270000Y-100330000D02*
X128270000Y-66040000D01*
X125730000Y-102870000D02*
X128270000Y-100330000D01*
X125730000Y-104140000D02*
X125730000Y-102870000D01*
X124206000Y-50800000D02*
X125730000Y-52324000D01*
X26670000Y-104140000D02*
X125730000Y-104140000D01*
X26670000Y-50800000D02*
X124206000Y-50800000D01*
X124904761Y-114073333D02*
X124952380Y-113930476D01*
X124952380Y-113692380D01*
X124904761Y-113597142D01*
X124857142Y-113549523D01*
X124761904Y-113501904D01*
X124666666Y-113501904D01*
X124571428Y-113549523D01*
X124523809Y-113597142D01*
X124476190Y-113692380D01*
X124428571Y-113882857D01*
X124380952Y-113978095D01*
X124333333Y-114025714D01*
X124238095Y-114073333D01*
X124142857Y-114073333D01*
X124047619Y-114025714D01*
X124000000Y-113978095D01*
X123952380Y-113882857D01*
X123952380Y-113644761D01*
X124000000Y-113501904D01*
X123952380Y-113168571D02*
X124952380Y-112930476D01*
X124238095Y-112740000D01*
X124952380Y-112549523D01*
X123952380Y-112311428D01*
X124952380Y-111406666D02*
X124952380Y-111978095D01*
X124952380Y-111692380D02*
X123952380Y-111692380D01*
X124095238Y-111787619D01*
X124190476Y-111882857D01*
X124238095Y-111978095D01*
X122362380Y-114192380D02*
X121886190Y-114525714D01*
X122362380Y-114763809D02*
X121362380Y-114763809D01*
X121362380Y-114382857D01*
X121410000Y-114287619D01*
X121457619Y-114240000D01*
X121552857Y-114192380D01*
X121695714Y-114192380D01*
X121790952Y-114240000D01*
X121838571Y-114287619D01*
X121886190Y-114382857D01*
X121886190Y-114763809D01*
X121838571Y-113763809D02*
X121838571Y-113430476D01*
X122362380Y-113287619D02*
X122362380Y-113763809D01*
X121362380Y-113763809D01*
X121362380Y-113287619D01*
X122314761Y-112906666D02*
X122362380Y-112763809D01*
X122362380Y-112525714D01*
X122314761Y-112430476D01*
X122267142Y-112382857D01*
X122171904Y-112335238D01*
X122076666Y-112335238D01*
X121981428Y-112382857D01*
X121933809Y-112430476D01*
X121886190Y-112525714D01*
X121838571Y-112716190D01*
X121790952Y-112811428D01*
X121743333Y-112859047D01*
X121648095Y-112906666D01*
X121552857Y-112906666D01*
X121457619Y-112859047D01*
X121410000Y-112811428D01*
X121362380Y-112716190D01*
X121362380Y-112478095D01*
X121410000Y-112335238D01*
X121838571Y-111906666D02*
X121838571Y-111573333D01*
X122362380Y-111430476D02*
X122362380Y-111906666D01*
X121362380Y-111906666D01*
X121362380Y-111430476D01*
X121362380Y-111144761D02*
X121362380Y-110573333D01*
X122362380Y-110859047D02*
X121362380Y-110859047D01*
X46124761Y-42862333D02*
X46172380Y-42719476D01*
X46172380Y-42481380D01*
X46124761Y-42386142D01*
X46077142Y-42338523D01*
X45981904Y-42290904D01*
X45886666Y-42290904D01*
X45791428Y-42338523D01*
X45743809Y-42386142D01*
X45696190Y-42481380D01*
X45648571Y-42671857D01*
X45600952Y-42767095D01*
X45553333Y-42814714D01*
X45458095Y-42862333D01*
X45362857Y-42862333D01*
X45267619Y-42814714D01*
X45220000Y-42767095D01*
X45172380Y-42671857D01*
X45172380Y-42433761D01*
X45220000Y-42290904D01*
X45172380Y-41957571D02*
X46172380Y-41719476D01*
X45458095Y-41529000D01*
X46172380Y-41338523D01*
X45172380Y-41100428D01*
X45267619Y-40767095D02*
X45220000Y-40719476D01*
X45172380Y-40624238D01*
X45172380Y-40386142D01*
X45220000Y-40290904D01*
X45267619Y-40243285D01*
X45362857Y-40195666D01*
X45458095Y-40195666D01*
X45600952Y-40243285D01*
X46172380Y-40814714D01*
X46172380Y-40195666D01*
X51252380Y-43838523D02*
X50252380Y-43838523D01*
X50252380Y-43457571D01*
X50300000Y-43362333D01*
X50347619Y-43314714D01*
X50442857Y-43267095D01*
X50585714Y-43267095D01*
X50680952Y-43314714D01*
X50728571Y-43362333D01*
X50776190Y-43457571D01*
X50776190Y-43838523D01*
X50252380Y-42648047D02*
X50252380Y-42457571D01*
X50300000Y-42362333D01*
X50395238Y-42267095D01*
X50585714Y-42219476D01*
X50919047Y-42219476D01*
X51109523Y-42267095D01*
X51204761Y-42362333D01*
X51252380Y-42457571D01*
X51252380Y-42648047D01*
X51204761Y-42743285D01*
X51109523Y-42838523D01*
X50919047Y-42886142D01*
X50585714Y-42886142D01*
X50395238Y-42838523D01*
X50300000Y-42743285D01*
X50252380Y-42648047D01*
X50252380Y-41886142D02*
X51252380Y-41648047D01*
X50538095Y-41457571D01*
X51252380Y-41267095D01*
X50252380Y-41029000D01*
X50728571Y-40648047D02*
X50728571Y-40314714D01*
X51252380Y-40171857D02*
X51252380Y-40648047D01*
X50252380Y-40648047D01*
X50252380Y-40171857D01*
X51252380Y-39171857D02*
X50776190Y-39505190D01*
X51252380Y-39743285D02*
X50252380Y-39743285D01*
X50252380Y-39362333D01*
X50300000Y-39267095D01*
X50347619Y-39219476D01*
X50442857Y-39171857D01*
X50585714Y-39171857D01*
X50680952Y-39219476D01*
X50728571Y-39267095D01*
X50776190Y-39362333D01*
X50776190Y-39743285D01*
X104917619Y-121586666D02*
X104203333Y-121586666D01*
X104060476Y-121539047D01*
X103965238Y-121443809D01*
X103917619Y-121300952D01*
X103917619Y-121205714D01*
X104822380Y-122015238D02*
X104870000Y-122062857D01*
X104917619Y-122158095D01*
X104917619Y-122396190D01*
X104870000Y-122491428D01*
X104822380Y-122539047D01*
X104727142Y-122586666D01*
X104631904Y-122586666D01*
X104489047Y-122539047D01*
X103917619Y-121967619D01*
X103917619Y-122586666D01*
X50641428Y-120515238D02*
X50593809Y-120658095D01*
X50546190Y-120705714D01*
X50450952Y-120753333D01*
X50308095Y-120753333D01*
X50212857Y-120705714D01*
X50165238Y-120658095D01*
X50117619Y-120562857D01*
X50117619Y-120181904D01*
X51117619Y-120181904D01*
X51117619Y-120515238D01*
X51070000Y-120610476D01*
X51022380Y-120658095D01*
X50927142Y-120705714D01*
X50831904Y-120705714D01*
X50736666Y-120658095D01*
X50689047Y-120610476D01*
X50641428Y-120515238D01*
X50641428Y-120181904D01*
X51117619Y-121181904D02*
X50308095Y-121181904D01*
X50212857Y-121229523D01*
X50165238Y-121277142D01*
X50117619Y-121372380D01*
X50117619Y-121562857D01*
X50165238Y-121658095D01*
X50212857Y-121705714D01*
X50308095Y-121753333D01*
X51117619Y-121753333D01*
X50165238Y-122181904D02*
X50117619Y-122324761D01*
X50117619Y-122562857D01*
X50165238Y-122658095D01*
X50212857Y-122705714D01*
X50308095Y-122753333D01*
X50403333Y-122753333D01*
X50498571Y-122705714D01*
X50546190Y-122658095D01*
X50593809Y-122562857D01*
X50641428Y-122372380D01*
X50689047Y-122277142D01*
X50736666Y-122229523D01*
X50831904Y-122181904D01*
X50927142Y-122181904D01*
X51022380Y-122229523D01*
X51070000Y-122277142D01*
X51117619Y-122372380D01*
X51117619Y-122610476D01*
X51070000Y-122753333D01*
X51022380Y-123134285D02*
X51070000Y-123181904D01*
X51117619Y-123277142D01*
X51117619Y-123515238D01*
X51070000Y-123610476D01*
X51022380Y-123658095D01*
X50927142Y-123705714D01*
X50831904Y-123705714D01*
X50689047Y-123658095D01*
X50117619Y-123086666D01*
X50117619Y-123705714D01*
X104917619Y-32686666D02*
X104203333Y-32686666D01*
X104060476Y-32639047D01*
X103965238Y-32543809D01*
X103917619Y-32400952D01*
X103917619Y-32305714D01*
X103917619Y-33686666D02*
X103917619Y-33115238D01*
X103917619Y-33400952D02*
X104917619Y-33400952D01*
X104774761Y-33305714D01*
X104679523Y-33210476D01*
X104631904Y-33115238D01*
X50641428Y-31615238D02*
X50593809Y-31758095D01*
X50546190Y-31805714D01*
X50450952Y-31853333D01*
X50308095Y-31853333D01*
X50212857Y-31805714D01*
X50165238Y-31758095D01*
X50117619Y-31662857D01*
X50117619Y-31281904D01*
X51117619Y-31281904D01*
X51117619Y-31615238D01*
X51070000Y-31710476D01*
X51022380Y-31758095D01*
X50927142Y-31805714D01*
X50831904Y-31805714D01*
X50736666Y-31758095D01*
X50689047Y-31710476D01*
X50641428Y-31615238D01*
X50641428Y-31281904D01*
X51117619Y-32281904D02*
X50308095Y-32281904D01*
X50212857Y-32329523D01*
X50165238Y-32377142D01*
X50117619Y-32472380D01*
X50117619Y-32662857D01*
X50165238Y-32758095D01*
X50212857Y-32805714D01*
X50308095Y-32853333D01*
X51117619Y-32853333D01*
X50165238Y-33281904D02*
X50117619Y-33424761D01*
X50117619Y-33662857D01*
X50165238Y-33758095D01*
X50212857Y-33805714D01*
X50308095Y-33853333D01*
X50403333Y-33853333D01*
X50498571Y-33805714D01*
X50546190Y-33758095D01*
X50593809Y-33662857D01*
X50641428Y-33472380D01*
X50689047Y-33377142D01*
X50736666Y-33329523D01*
X50831904Y-33281904D01*
X50927142Y-33281904D01*
X51022380Y-33329523D01*
X51070000Y-33377142D01*
X51117619Y-33472380D01*
X51117619Y-33710476D01*
X51070000Y-33853333D01*
X50117619Y-34805714D02*
X50117619Y-34234285D01*
X50117619Y-34520000D02*
X51117619Y-34520000D01*
X50974761Y-34424761D01*
X50879523Y-34329523D01*
X50831904Y-34234285D01*
X124795595Y-45537380D02*
X124795595Y-44537380D01*
X125033690Y-44537380D01*
X125176547Y-44585000D01*
X125271785Y-44680238D01*
X125319404Y-44775476D01*
X125367023Y-44965952D01*
X125367023Y-45108809D01*
X125319404Y-45299285D01*
X125271785Y-45394523D01*
X125176547Y-45489761D01*
X125033690Y-45537380D01*
X124795595Y-45537380D01*
X126319404Y-45537380D02*
X125747976Y-45537380D01*
X126033690Y-45537380D02*
X126033690Y-44537380D01*
X125938452Y-44680238D01*
X125843214Y-44775476D01*
X125747976Y-44823095D01*
X122255595Y-36647380D02*
X122255595Y-35647380D01*
X122636547Y-35647380D01*
X122731785Y-35695000D01*
X122779404Y-35742619D01*
X122827023Y-35837857D01*
X122827023Y-35980714D01*
X122779404Y-36075952D01*
X122731785Y-36123571D01*
X122636547Y-36171190D01*
X122255595Y-36171190D01*
X123446071Y-35647380D02*
X123636547Y-35647380D01*
X123731785Y-35695000D01*
X123827023Y-35790238D01*
X123874642Y-35980714D01*
X123874642Y-36314047D01*
X123827023Y-36504523D01*
X123731785Y-36599761D01*
X123636547Y-36647380D01*
X123446071Y-36647380D01*
X123350833Y-36599761D01*
X123255595Y-36504523D01*
X123207976Y-36314047D01*
X123207976Y-35980714D01*
X123255595Y-35790238D01*
X123350833Y-35695000D01*
X123446071Y-35647380D01*
X124207976Y-35647380D02*
X124446071Y-36647380D01*
X124636547Y-35933095D01*
X124827023Y-36647380D01*
X125065119Y-35647380D01*
X125446071Y-36123571D02*
X125779404Y-36123571D01*
X125922261Y-36647380D02*
X125446071Y-36647380D01*
X125446071Y-35647380D01*
X125922261Y-35647380D01*
X126922261Y-36647380D02*
X126588928Y-36171190D01*
X126350833Y-36647380D02*
X126350833Y-35647380D01*
X126731785Y-35647380D01*
X126827023Y-35695000D01*
X126874642Y-35742619D01*
X126922261Y-35837857D01*
X126922261Y-35980714D01*
X126874642Y-36075952D01*
X126827023Y-36123571D01*
X126731785Y-36171190D01*
X126350833Y-36171190D01*
X114133333Y-39992380D02*
X113800000Y-39516190D01*
X113561904Y-39992380D02*
X113561904Y-38992380D01*
X113942857Y-38992380D01*
X114038095Y-39040000D01*
X114085714Y-39087619D01*
X114133333Y-39182857D01*
X114133333Y-39325714D01*
X114085714Y-39420952D01*
X114038095Y-39468571D01*
X113942857Y-39516190D01*
X113561904Y-39516190D01*
X115085714Y-39992380D02*
X114514285Y-39992380D01*
X114800000Y-39992380D02*
X114800000Y-38992380D01*
X114704761Y-39135238D01*
X114609523Y-39230476D01*
X114514285Y-39278095D01*
X113014285Y-43732380D02*
X113633333Y-43732380D01*
X113300000Y-44113333D01*
X113442857Y-44113333D01*
X113538095Y-44160952D01*
X113585714Y-44208571D01*
X113633333Y-44303809D01*
X113633333Y-44541904D01*
X113585714Y-44637142D01*
X113538095Y-44684761D01*
X113442857Y-44732380D01*
X113157142Y-44732380D01*
X113061904Y-44684761D01*
X113014285Y-44637142D01*
X113966666Y-43732380D02*
X114585714Y-43732380D01*
X114252380Y-44113333D01*
X114395238Y-44113333D01*
X114490476Y-44160952D01*
X114538095Y-44208571D01*
X114585714Y-44303809D01*
X114585714Y-44541904D01*
X114538095Y-44637142D01*
X114490476Y-44684761D01*
X114395238Y-44732380D01*
X114109523Y-44732380D01*
X114014285Y-44684761D01*
X113966666Y-44637142D01*
X115204761Y-43732380D02*
X115300000Y-43732380D01*
X115395238Y-43780000D01*
X115442857Y-43827619D01*
X115490476Y-43922857D01*
X115538095Y-44113333D01*
X115538095Y-44351428D01*
X115490476Y-44541904D01*
X115442857Y-44637142D01*
X115395238Y-44684761D01*
X115300000Y-44732380D01*
X115204761Y-44732380D01*
X115109523Y-44684761D01*
X115061904Y-44637142D01*
X115014285Y-44541904D01*
X114966666Y-44351428D01*
X114966666Y-44113333D01*
X115014285Y-43922857D01*
X115061904Y-43827619D01*
X115109523Y-43780000D01*
X115204761Y-43732380D01*
X27336904Y-48982380D02*
X28003571Y-49982380D01*
X28003571Y-48982380D02*
X27336904Y-49982380D01*
X28336904Y-49696666D02*
X28813095Y-49696666D01*
X28241666Y-49982380D02*
X28575000Y-48982380D01*
X28908333Y-49982380D01*
X29765476Y-49982380D02*
X29194047Y-49982380D01*
X29479761Y-49982380D02*
X29479761Y-48982380D01*
X29384523Y-49125238D01*
X29289285Y-49220476D01*
X29194047Y-49268095D01*
X32584285Y-49696666D02*
X33060476Y-49696666D01*
X32489047Y-49982380D02*
X32822380Y-48982380D01*
X33155714Y-49982380D01*
X33489047Y-49982380D02*
X33489047Y-49315714D01*
X33489047Y-49506190D02*
X33536666Y-49410952D01*
X33584285Y-49363333D01*
X33679523Y-49315714D01*
X33774761Y-49315714D01*
X34536666Y-49982380D02*
X34536666Y-48982380D01*
X34536666Y-49934761D02*
X34441428Y-49982380D01*
X34250952Y-49982380D01*
X34155714Y-49934761D01*
X34108095Y-49887142D01*
X34060476Y-49791904D01*
X34060476Y-49506190D01*
X34108095Y-49410952D01*
X34155714Y-49363333D01*
X34250952Y-49315714D01*
X34441428Y-49315714D01*
X34536666Y-49363333D01*
X35441428Y-49315714D02*
X35441428Y-49982380D01*
X35012857Y-49315714D02*
X35012857Y-49839523D01*
X35060476Y-49934761D01*
X35155714Y-49982380D01*
X35298571Y-49982380D01*
X35393809Y-49934761D01*
X35441428Y-49887142D01*
X35917619Y-49982380D02*
X35917619Y-49315714D01*
X35917619Y-48982380D02*
X35870000Y-49030000D01*
X35917619Y-49077619D01*
X35965238Y-49030000D01*
X35917619Y-48982380D01*
X35917619Y-49077619D01*
X36393809Y-49315714D02*
X36393809Y-49982380D01*
X36393809Y-49410952D02*
X36441428Y-49363333D01*
X36536666Y-49315714D01*
X36679523Y-49315714D01*
X36774761Y-49363333D01*
X36822380Y-49458571D01*
X36822380Y-49982380D01*
X37441428Y-49982380D02*
X37346190Y-49934761D01*
X37298571Y-49887142D01*
X37250952Y-49791904D01*
X37250952Y-49506190D01*
X37298571Y-49410952D01*
X37346190Y-49363333D01*
X37441428Y-49315714D01*
X37584285Y-49315714D01*
X37679523Y-49363333D01*
X37727142Y-49410952D01*
X37774761Y-49506190D01*
X37774761Y-49791904D01*
X37727142Y-49887142D01*
X37679523Y-49934761D01*
X37584285Y-49982380D01*
X37441428Y-49982380D01*
X38965238Y-49982380D02*
X38965238Y-48982380D01*
X39298571Y-49696666D01*
X39631904Y-48982380D01*
X39631904Y-49982380D01*
X40489047Y-49934761D02*
X40393809Y-49982380D01*
X40203333Y-49982380D01*
X40108095Y-49934761D01*
X40060476Y-49839523D01*
X40060476Y-49458571D01*
X40108095Y-49363333D01*
X40203333Y-49315714D01*
X40393809Y-49315714D01*
X40489047Y-49363333D01*
X40536666Y-49458571D01*
X40536666Y-49553809D01*
X40060476Y-49649047D01*
X41393809Y-49315714D02*
X41393809Y-50125238D01*
X41346190Y-50220476D01*
X41298571Y-50268095D01*
X41203333Y-50315714D01*
X41060476Y-50315714D01*
X40965238Y-50268095D01*
X41393809Y-49934761D02*
X41298571Y-49982380D01*
X41108095Y-49982380D01*
X41012857Y-49934761D01*
X40965238Y-49887142D01*
X40917619Y-49791904D01*
X40917619Y-49506190D01*
X40965238Y-49410952D01*
X41012857Y-49363333D01*
X41108095Y-49315714D01*
X41298571Y-49315714D01*
X41393809Y-49363333D01*
X42298571Y-49982380D02*
X42298571Y-49458571D01*
X42250952Y-49363333D01*
X42155714Y-49315714D01*
X41965238Y-49315714D01*
X41870000Y-49363333D01*
X42298571Y-49934761D02*
X42203333Y-49982380D01*
X41965238Y-49982380D01*
X41870000Y-49934761D01*
X41822380Y-49839523D01*
X41822380Y-49744285D01*
X41870000Y-49649047D01*
X41965238Y-49601428D01*
X42203333Y-49601428D01*
X42298571Y-49553809D01*
X42727142Y-49077619D02*
X42774761Y-49030000D01*
X42870000Y-48982380D01*
X43108095Y-48982380D01*
X43203333Y-49030000D01*
X43250952Y-49077619D01*
X43298571Y-49172857D01*
X43298571Y-49268095D01*
X43250952Y-49410952D01*
X42679523Y-49982380D01*
X43298571Y-49982380D01*
X44203333Y-48982380D02*
X43727142Y-48982380D01*
X43679523Y-49458571D01*
X43727142Y-49410952D01*
X43822380Y-49363333D01*
X44060476Y-49363333D01*
X44155714Y-49410952D01*
X44203333Y-49458571D01*
X44250952Y-49553809D01*
X44250952Y-49791904D01*
X44203333Y-49887142D01*
X44155714Y-49934761D01*
X44060476Y-49982380D01*
X43822380Y-49982380D01*
X43727142Y-49934761D01*
X43679523Y-49887142D01*
X45108095Y-48982380D02*
X44917619Y-48982380D01*
X44822380Y-49030000D01*
X44774761Y-49077619D01*
X44679523Y-49220476D01*
X44631904Y-49410952D01*
X44631904Y-49791904D01*
X44679523Y-49887142D01*
X44727142Y-49934761D01*
X44822380Y-49982380D01*
X45012857Y-49982380D01*
X45108095Y-49934761D01*
X45155714Y-49887142D01*
X45203333Y-49791904D01*
X45203333Y-49553809D01*
X45155714Y-49458571D01*
X45108095Y-49410952D01*
X45012857Y-49363333D01*
X44822380Y-49363333D01*
X44727142Y-49410952D01*
X44679523Y-49458571D01*
X44631904Y-49553809D01*
X45822380Y-48982380D02*
X45917619Y-48982380D01*
X46012857Y-49030000D01*
X46060476Y-49077619D01*
X46108095Y-49172857D01*
X46155714Y-49363333D01*
X46155714Y-49601428D01*
X46108095Y-49791904D01*
X46060476Y-49887142D01*
X46012857Y-49934761D01*
X45917619Y-49982380D01*
X45822380Y-49982380D01*
X45727142Y-49934761D01*
X45679523Y-49887142D01*
X45631904Y-49791904D01*
X45584285Y-49601428D01*
X45584285Y-49363333D01*
X45631904Y-49172857D01*
X45679523Y-49077619D01*
X45727142Y-49030000D01*
X45822380Y-48982380D01*
X89154000Y-72493142D02*
X89201619Y-72540761D01*
X89154000Y-72588380D01*
X89106380Y-72540761D01*
X89154000Y-72493142D01*
X89154000Y-72588380D01*
M02*
