M48
; DRILL file {KiCad (5.1.5-0-10_14)} date 2020 April 15, Wednesday 22:30:45
; FORMAT={-:-/ absolute / inch / decimal}
; #@! TF.CreationDate,2020-04-15T22:30:45+02:00
; #@! TF.GenerationSoftware,Kicad,Pcbnew,(5.1.5-0-10_14)
FMAT,2
INCH
T1C0.0157
T2C0.0315
T3C0.0354
T4C0.0394
T5C0.0400
T6C0.0512
T7C0.0748
T8C0.1260
%
G90
G05
T1
X2.4318Y-1.9869
X2.7979Y-2.2086
X2.8465Y-2.2573
X2.8733Y-2.3519
X2.9249Y-2.495
X3.1821Y-1.6169
X3.2107Y-1.4882
X3.5453Y-3.3297
X3.6833Y-3.37
X3.7713Y-3.6428
X3.8342Y-3.4716
X3.8574Y-3.4047
X3.8684Y-3.3591
X3.8866Y-3.2167
X3.9034Y-3.1642
X3.9551Y-3.2218
X3.9629Y-4.115
X3.9629Y-3.3578
X4.1229Y-3.5609
X4.1319Y-3.7101
X4.1614Y-3.6387
X4.1758Y-3.708
X4.3662Y-2.5078
X4.6289Y-3.2178
T2
X4.35Y-1.65
X4.65Y-1.65
T3
X4.8Y-1.55
X4.8Y-1.65
T4
X2.1Y-4.75
X2.1Y-4.85
X2.2Y-4.75
X2.2Y-4.85
X2.3Y-4.75
X2.3Y-4.85
X2.4Y-4.75
X2.4Y-4.85
X2.5Y-4.75
X2.5Y-4.85
X2.6Y-4.75
X2.6Y-4.85
X2.7Y-4.75
X2.7Y-4.85
X2.8Y-4.75
X2.8Y-4.85
X2.9Y-4.75
X2.9Y-4.85
X3.0Y-4.75
X3.0Y-4.85
X3.1Y-4.75
X3.1Y-4.85
X3.2Y-4.75
X3.2Y-4.85
X3.3Y-4.75
X3.3Y-4.85
X3.4Y-4.75
X3.4Y-4.85
X3.5Y-4.75
X3.5Y-4.85
X3.6Y-4.75
X3.6Y-4.85
X3.7Y-4.75
X3.7Y-4.85
X3.8Y-4.75
X3.8Y-4.85
X3.9Y-4.75
X3.9Y-4.85
X4.0Y-4.75
X4.0Y-4.85
X2.1Y-1.25
X2.1Y-1.35
X2.2Y-1.25
X2.2Y-1.35
X2.3Y-1.25
X2.3Y-1.35
X2.4Y-1.25
X2.4Y-1.35
X2.5Y-1.25
X2.5Y-1.35
X2.6Y-1.25
X2.6Y-1.35
X2.7Y-1.25
X2.7Y-1.35
X2.8Y-1.25
X2.8Y-1.35
X2.9Y-1.25
X2.9Y-1.35
X3.0Y-1.25
X3.0Y-1.35
X3.1Y-1.25
X3.1Y-1.35
X3.2Y-1.25
X3.2Y-1.35
X3.3Y-1.25
X3.3Y-1.35
X3.4Y-1.25
X3.4Y-1.35
X3.5Y-1.25
X3.5Y-1.35
X3.6Y-1.25
X3.6Y-1.35
X3.7Y-1.25
X3.7Y-1.35
X3.8Y-1.25
X3.8Y-1.35
X3.9Y-1.25
X3.9Y-1.35
X4.0Y-1.25
X4.0Y-1.35
X5.0Y-4.35
X5.0Y-4.5272
T5
X1.79Y-2.1
X1.89Y-2.1
X1.99Y-2.1
X2.09Y-2.1
X2.15Y-4.0
X2.19Y-2.1
X2.25Y-4.0
X2.29Y-2.1
X2.35Y-4.0
X2.39Y-2.1
X2.45Y-4.0
X2.49Y-2.1
X2.55Y-4.0
X2.59Y-2.1
X2.65Y-4.0
X2.69Y-2.1
X2.75Y-4.0
X2.85Y-2.1
X2.85Y-4.0
X2.95Y-2.1
X3.05Y-2.1
X3.05Y-4.0
X3.15Y-2.1
X3.15Y-4.0
X3.25Y-2.1
X3.25Y-4.0
X3.35Y-2.1
X3.35Y-4.0
X3.45Y-2.1
X3.45Y-4.0
X3.55Y-2.1
X3.55Y-4.0
X3.555Y-2.9
X3.555Y-3.0
X3.555Y-3.1
X3.65Y-4.0
X3.655Y-2.9
X3.655Y-3.0
X3.655Y-3.1
X3.75Y-2.1
X3.75Y-4.0
X3.85Y-2.1
X3.95Y-2.1
X3.95Y-4.0
X4.05Y-2.1
X4.05Y-4.0
X4.15Y-2.1
X4.15Y-4.0
X4.25Y-2.1
X4.25Y-4.0
X4.35Y-2.1
X4.35Y-4.0
X4.45Y-2.1
X4.45Y-4.0
X4.55Y-4.0
X4.65Y-4.0
X4.75Y-2.1
X4.75Y-2.2
X4.75Y-2.3
X4.75Y-2.4
X4.75Y-2.5
X4.75Y-2.6
X4.75Y-2.7
X4.75Y-2.8
X4.75Y-2.9
X4.75Y-3.0
X4.75Y-3.1
X4.75Y-3.2
X4.75Y-3.3
X4.75Y-3.4
X4.75Y-3.5
X4.75Y-3.6
X4.75Y-3.7
X4.75Y-3.8
X4.85Y-2.1
X4.85Y-2.2
X4.85Y-2.3
X4.85Y-2.4
X4.85Y-2.5
X4.85Y-2.6
X4.85Y-2.7
X4.85Y-2.8
X4.85Y-2.9
X4.85Y-3.0
X4.85Y-3.1
X4.85Y-3.2
X4.85Y-3.3
X4.85Y-3.4
X4.85Y-3.5
X4.85Y-3.6
X4.85Y-3.7
X4.85Y-3.8
T6
X4.9016Y-4.3008
X4.9016Y-4.5764
T7
X1.7Y-1.435
X1.7Y-1.835
X1.9Y-1.435
X1.9Y-1.835
T8
X1.2Y-4.9
X4.9Y-1.2
X1.2Y-1.2
X1.6Y-4.0
X1.65Y-2.1
X3.65Y-2.7
X3.65Y-3.8
X4.6Y-2.1
X4.85Y-4.0
X4.9Y-4.9
T0
M30
