G04 #@! TF.GenerationSoftware,KiCad,Pcbnew,(5.1.5-0-10_14)*
G04 #@! TF.CreationDate,2020-04-15T22:36:55+02:00*
G04 #@! TF.ProjectId,Debugger,44656275-6767-4657-922e-6b696361645f,rev?*
G04 #@! TF.SameCoordinates,Original*
G04 #@! TF.FileFunction,Copper,L1,Top*
G04 #@! TF.FilePolarity,Positive*
%FSLAX46Y46*%
G04 Gerber Fmt 4.6, Leading zero omitted, Abs format (unit mm)*
G04 Created by KiCad (PCBNEW (5.1.5-0-10_14)) date 2020-04-15 22:36:55*
%MOMM*%
%LPD*%
G04 APERTURE LIST*
%ADD10C,1.700000*%
%ADD11C,2.200000*%
%ADD12C,3.200000*%
%ADD13O,1.700000X1.700000*%
%ADD14R,1.700000X1.700000*%
%ADD15R,1.800000X1.800000*%
%ADD16C,1.800000*%
%ADD17C,1.600000*%
%ADD18O,1.600000X1.600000*%
%ADD19O,1.727200X1.727200*%
%ADD20C,0.800000*%
%ADD21C,0.250000*%
%ADD22C,0.254000*%
G04 APERTURE END LIST*
D10*
X127000000Y-110490000D03*
X127000000Y-114990000D03*
D11*
X124500000Y-109240000D03*
X124500000Y-116240000D03*
D12*
X48260000Y-36449000D03*
X48260000Y-46609000D03*
X43180000Y-36449000D03*
X43180000Y-46609000D03*
D13*
X53340000Y-120650000D03*
X53340000Y-123190000D03*
X55880000Y-120650000D03*
X55880000Y-123190000D03*
X58420000Y-120650000D03*
X58420000Y-123190000D03*
X60960000Y-120650000D03*
X60960000Y-123190000D03*
X63500000Y-120650000D03*
X63500000Y-123190000D03*
X66040000Y-120650000D03*
X66040000Y-123190000D03*
X68580000Y-120650000D03*
X68580000Y-123190000D03*
X71120000Y-120650000D03*
X71120000Y-123190000D03*
X73660000Y-120650000D03*
X73660000Y-123190000D03*
X76200000Y-120650000D03*
X76200000Y-123190000D03*
X78740000Y-120650000D03*
X78740000Y-123190000D03*
X81280000Y-120650000D03*
X81280000Y-123190000D03*
X83820000Y-120650000D03*
X83820000Y-123190000D03*
X86360000Y-120650000D03*
X86360000Y-123190000D03*
X88900000Y-120650000D03*
X88900000Y-123190000D03*
X91440000Y-120650000D03*
X91440000Y-123190000D03*
X93980000Y-120650000D03*
X93980000Y-123190000D03*
X96520000Y-120650000D03*
X96520000Y-123190000D03*
X99060000Y-120650000D03*
X99060000Y-123190000D03*
X101600000Y-120650000D03*
D14*
X101600000Y-123190000D03*
D13*
X53340000Y-31750000D03*
X53340000Y-34290000D03*
X55880000Y-31750000D03*
X55880000Y-34290000D03*
X58420000Y-31750000D03*
X58420000Y-34290000D03*
X60960000Y-31750000D03*
X60960000Y-34290000D03*
X63500000Y-31750000D03*
X63500000Y-34290000D03*
X66040000Y-31750000D03*
X66040000Y-34290000D03*
X68580000Y-31750000D03*
X68580000Y-34290000D03*
X71120000Y-31750000D03*
X71120000Y-34290000D03*
X73660000Y-31750000D03*
X73660000Y-34290000D03*
X76200000Y-31750000D03*
X76200000Y-34290000D03*
X78740000Y-31750000D03*
X78740000Y-34290000D03*
X81280000Y-31750000D03*
X81280000Y-34290000D03*
X83820000Y-31750000D03*
X83820000Y-34290000D03*
X86360000Y-31750000D03*
X86360000Y-34290000D03*
X88900000Y-31750000D03*
X88900000Y-34290000D03*
X91440000Y-31750000D03*
X91440000Y-34290000D03*
X93980000Y-31750000D03*
X93980000Y-34290000D03*
X96520000Y-31750000D03*
X96520000Y-34290000D03*
X99060000Y-31750000D03*
X99060000Y-34290000D03*
X101600000Y-31750000D03*
D14*
X101600000Y-34290000D03*
D15*
X121920000Y-41910000D03*
D16*
X121920000Y-39370000D03*
D17*
X110490000Y-41910000D03*
D18*
X118110000Y-41910000D03*
D19*
X90297000Y-78740000D03*
X92837000Y-78740000D03*
X92837000Y-76200000D03*
X90297000Y-76200000D03*
X92837000Y-73660000D03*
X77470000Y-101600000D03*
X72390000Y-101600000D03*
X69850000Y-101600000D03*
X67310000Y-101600000D03*
X64770000Y-101600000D03*
X62230000Y-101600000D03*
X59690000Y-101600000D03*
X57150000Y-101600000D03*
X113030000Y-53340000D03*
X110490000Y-53340000D03*
X107950000Y-53340000D03*
X105410000Y-53340000D03*
X102870000Y-53340000D03*
X100330000Y-53340000D03*
X97790000Y-53340000D03*
X95250000Y-53340000D03*
X90170000Y-53340000D03*
X87630000Y-53340000D03*
X85090000Y-53340000D03*
X82550000Y-53340000D03*
X80010000Y-53340000D03*
X77470000Y-53340000D03*
X74930000Y-53340000D03*
X72390000Y-53340000D03*
X53086000Y-53340000D03*
X68326000Y-53340000D03*
X65786000Y-53340000D03*
X63246000Y-53340000D03*
X45466000Y-53340000D03*
X48006000Y-53340000D03*
X50546000Y-53340000D03*
X55626000Y-53340000D03*
X58166000Y-53340000D03*
X60706000Y-53340000D03*
X54610000Y-101600000D03*
X80010000Y-101600000D03*
X82550000Y-101600000D03*
X85090000Y-101600000D03*
X87630000Y-101600000D03*
X90170000Y-101600000D03*
X92710000Y-101600000D03*
X95250000Y-101600000D03*
X100330000Y-101600000D03*
X102870000Y-101600000D03*
X105410000Y-101600000D03*
X107950000Y-101600000D03*
X110490000Y-101600000D03*
X113030000Y-101600000D03*
X115570000Y-101600000D03*
X118110000Y-101600000D03*
X120650000Y-53340000D03*
X123190000Y-53340000D03*
X120650000Y-55880000D03*
X123190000Y-55880000D03*
X120650000Y-58420000D03*
X123190000Y-58420000D03*
X120650000Y-60960000D03*
X123190000Y-60960000D03*
X120650000Y-63500000D03*
X123190000Y-63500000D03*
X120650000Y-66040000D03*
X123190000Y-66040000D03*
X120650000Y-68580000D03*
X123190000Y-68580000D03*
X120650000Y-71120000D03*
X123190000Y-71120000D03*
X120650000Y-73660000D03*
X123190000Y-73660000D03*
X120650000Y-76200000D03*
X123190000Y-76200000D03*
X120650000Y-78740000D03*
X123190000Y-78740000D03*
X120650000Y-81280000D03*
X123190000Y-81280000D03*
X120650000Y-83820000D03*
X123190000Y-83820000D03*
X120650000Y-86360000D03*
X123190000Y-86360000D03*
X120650000Y-88900000D03*
X123190000Y-88900000D03*
X120650000Y-91440000D03*
X123190000Y-91440000D03*
X120650000Y-93980000D03*
X123190000Y-93980000D03*
X120650000Y-96520000D03*
X123190000Y-96520000D03*
X90297000Y-73660000D03*
D20*
X117575000Y-81731700D03*
X93555000Y-85598900D03*
X80826200Y-41070300D03*
X81551500Y-37801300D03*
X74293200Y-63372300D03*
X72981400Y-59738500D03*
X71066200Y-56099200D03*
X72301800Y-57334800D03*
X61767500Y-50466900D03*
X90051300Y-84573400D03*
X100657800Y-104520700D03*
X98720100Y-81704000D03*
X98256600Y-85320500D03*
X97979200Y-86479800D03*
X97387900Y-88178000D03*
X95791500Y-92527700D03*
X99147400Y-80370900D03*
X100459000Y-81832500D03*
X100658000Y-85288200D03*
X104721000Y-90447100D03*
X105700000Y-92422200D03*
X104951000Y-94235600D03*
X106066000Y-94182000D03*
X110902000Y-63698300D03*
D21*
X127000000Y-110490000D02*
X127694000Y-109796000D01*
X127694000Y-109796000D02*
X127694000Y-58634500D01*
X127694000Y-58634500D02*
X123669000Y-54610000D01*
X123669000Y-54610000D02*
X122757000Y-54610000D01*
X122757000Y-54610000D02*
X122001000Y-53854300D01*
X122001000Y-53854300D02*
X122001000Y-52958800D01*
X122001000Y-52958800D02*
X110952000Y-41910000D01*
X110952000Y-41910000D02*
X110490000Y-41910000D01*
X110490000Y-41910000D02*
X110490000Y-38929100D01*
X110490000Y-38929100D02*
X100334000Y-28773000D01*
X100334000Y-28773000D02*
X52074700Y-28773000D01*
X52074700Y-28773000D02*
X48260000Y-32587700D01*
X48260000Y-32587700D02*
X48260000Y-36449000D01*
X118110000Y-41910000D02*
X121920000Y-41910000D01*
X101600000Y-31750000D02*
X99073300Y-29223300D01*
X99073300Y-29223300D02*
X52261300Y-29223300D01*
X52261300Y-29223300D02*
X50239700Y-31244900D01*
X50239700Y-31244900D02*
X50239700Y-39549300D01*
X50239700Y-39549300D02*
X43180000Y-46609000D01*
X59690000Y-101600000D02*
X59690000Y-102789000D01*
X59690000Y-102789000D02*
X52138700Y-110340000D01*
X52138700Y-110340000D02*
X52138700Y-123728000D01*
X52138700Y-123728000D02*
X54653100Y-126242000D01*
X54653100Y-126242000D02*
X110601000Y-126242000D01*
X110601000Y-126242000D02*
X122031000Y-114812000D01*
X122031000Y-114812000D02*
X126822000Y-114812000D01*
X126822000Y-114812000D02*
X127000000Y-114990000D01*
X89493300Y-70669400D02*
X73660000Y-54836100D01*
X73660000Y-54836100D02*
X73660000Y-52840000D01*
X73660000Y-52840000D02*
X56852800Y-36032800D01*
X56852800Y-36032800D02*
X53340000Y-36032800D01*
X123190000Y-93980000D02*
X122001000Y-95168600D01*
X122001000Y-95168600D02*
X120079000Y-95168600D01*
X120079000Y-95168600D02*
X118110000Y-93199100D01*
X118110000Y-93199100D02*
X118110000Y-92710000D01*
X118110000Y-92710000D02*
X95657800Y-70669400D01*
X95657800Y-70669400D02*
X89493300Y-70669400D01*
X53340000Y-36032800D02*
X53340000Y-34290000D01*
X120650000Y-93980000D02*
X96937100Y-70267100D01*
X96937100Y-70267100D02*
X96937100Y-70025500D01*
X96937100Y-70025500D02*
X93345600Y-66434000D01*
X93345600Y-66434000D02*
X88863700Y-66434000D01*
X88863700Y-66434000D02*
X76200000Y-53770300D01*
X76200000Y-53770300D02*
X76200000Y-52877900D01*
X76200000Y-52877900D02*
X59055000Y-36195000D01*
X59055000Y-36195000D02*
X57785000Y-36195000D01*
X57785000Y-36195000D02*
X55880000Y-34290000D01*
X71120000Y-34290000D02*
X73025000Y-36195000D01*
X73025000Y-36195000D02*
X89123400Y-51632300D01*
X89123400Y-51632300D02*
X90215800Y-51632300D01*
X90215800Y-51632300D02*
X93304700Y-54721200D01*
X93304700Y-54721200D02*
X93304700Y-57461700D01*
X93304700Y-57461700D02*
X117575000Y-81731700D01*
X123190000Y-86360000D02*
X121920000Y-85090000D01*
X121920000Y-85090000D02*
X119380000Y-85090000D01*
X119380000Y-85090000D02*
X88925300Y-54125700D01*
X88925300Y-54125700D02*
X88925300Y-52933300D01*
X88925300Y-52933300D02*
X71755000Y-36195000D01*
X71755000Y-36195000D02*
X70485000Y-36195000D01*
X70485000Y-36195000D02*
X68580000Y-34290000D01*
X120650000Y-88900000D02*
X118110000Y-86360000D01*
X118110000Y-86360000D02*
X86278900Y-53699100D01*
X86278900Y-53699100D02*
X86278900Y-52847500D01*
X86278900Y-52847500D02*
X82749900Y-49318500D01*
X82749900Y-49318500D02*
X81876500Y-49318500D01*
X81876500Y-49318500D02*
X67945000Y-35560000D01*
X67945000Y-35560000D02*
X67310000Y-35560000D01*
X67310000Y-35560000D02*
X66040000Y-34290000D01*
X123190000Y-88900000D02*
X121920000Y-90170000D01*
X121920000Y-90170000D02*
X120650000Y-90170000D01*
X120650000Y-90170000D02*
X120166000Y-90101100D01*
X120166000Y-90101100D02*
X83820000Y-53754700D01*
X83820000Y-53754700D02*
X83820000Y-52878000D01*
X83820000Y-52878000D02*
X66675000Y-36195000D01*
X66675000Y-36195000D02*
X66206000Y-36195000D01*
X66206000Y-36195000D02*
X65151000Y-35140000D01*
X65151000Y-35140000D02*
X64350000Y-35140000D01*
X64350000Y-35140000D02*
X63500000Y-34290000D01*
X120650000Y-91440000D02*
X119380000Y-90170000D01*
X119380000Y-90170000D02*
X83150200Y-54928800D01*
X83150200Y-54928800D02*
X82457300Y-54928800D01*
X82457300Y-54928800D02*
X81280000Y-53751500D01*
X81280000Y-53751500D02*
X81280000Y-52861300D01*
X81280000Y-52861300D02*
X64135000Y-35560000D01*
X64135000Y-35560000D02*
X62230000Y-35560000D01*
X62230000Y-35560000D02*
X60960000Y-34290000D01*
X58420000Y-34290000D02*
X60403200Y-36273200D01*
X60403200Y-36273200D02*
X62151800Y-36273200D01*
X62151800Y-36273200D02*
X78740000Y-52861300D01*
X78740000Y-52861300D02*
X78740000Y-53752500D01*
X78740000Y-53752500D02*
X83714500Y-58727000D01*
X83714500Y-58727000D02*
X86275500Y-58727000D01*
X86275500Y-58727000D02*
X99732900Y-72184400D01*
X99732900Y-72184400D02*
X99732900Y-72349100D01*
X99732900Y-72349100D02*
X120062000Y-92678400D01*
X120062000Y-92678400D02*
X121952000Y-92678400D01*
X121952000Y-92678400D02*
X123190000Y-91440000D01*
X80010000Y-101600000D02*
X80010000Y-100411000D01*
X80010000Y-100411000D02*
X93555000Y-86866100D01*
X93555000Y-86866100D02*
X93555000Y-85598900D01*
X80826200Y-41070300D02*
X84455000Y-37465000D01*
X84455000Y-37465000D02*
X85185000Y-36735000D01*
X85185000Y-36735000D02*
X85185000Y-32925000D01*
X85185000Y-32925000D02*
X86360000Y-31750000D01*
X83820000Y-31750000D02*
X82645000Y-32925000D01*
X82645000Y-32925000D02*
X82645000Y-36707800D01*
X82645000Y-36707800D02*
X81551500Y-37801300D01*
X105410000Y-101600000D02*
X105410000Y-100411000D01*
X105410000Y-100411000D02*
X106792000Y-99029400D01*
X106792000Y-99029400D02*
X106792000Y-86974500D01*
X106792000Y-86974500D02*
X97359100Y-77541900D01*
X97359100Y-77541900D02*
X88462800Y-77541900D01*
X88462800Y-77541900D02*
X74293200Y-63372300D01*
X107950000Y-101600000D02*
X107950000Y-87488900D01*
X107950000Y-87488900D02*
X95391100Y-74930000D01*
X95391100Y-74930000D02*
X88172900Y-74930000D01*
X88172900Y-74930000D02*
X72981400Y-59738500D01*
X110490000Y-101600000D02*
X110490000Y-89374000D01*
X110490000Y-89374000D02*
X93587100Y-72471100D01*
X93587100Y-72471100D02*
X86739700Y-72471100D01*
X86739700Y-72471100D02*
X86739700Y-72471000D01*
X86739700Y-72471000D02*
X73281900Y-59013200D01*
X73281900Y-59013200D02*
X72954500Y-59013200D01*
X72954500Y-59013200D02*
X71066200Y-57124900D01*
X71066200Y-57124900D02*
X71066200Y-56099200D01*
X113030000Y-101600000D02*
X113030000Y-91269600D01*
X113030000Y-91269600D02*
X93780900Y-72020500D01*
X93780900Y-72020500D02*
X86987500Y-72020500D01*
X86987500Y-72020500D02*
X72301800Y-57334800D01*
X70566700Y-54610000D02*
X70643400Y-54610000D01*
X70643400Y-54610000D02*
X87603600Y-71570200D01*
X61767500Y-50466900D02*
X64672000Y-50466900D01*
X64672000Y-50466900D02*
X67056000Y-52850900D01*
X67056000Y-52850900D02*
X67056000Y-53829100D01*
X67056000Y-53829100D02*
X67836900Y-54610000D01*
X67836900Y-54610000D02*
X70566700Y-54610000D01*
X115570000Y-101600000D02*
X115570000Y-93133400D01*
X115570000Y-93133400D02*
X94006800Y-71570200D01*
X94006800Y-71570200D02*
X87603600Y-71570200D01*
X90051300Y-84573400D02*
X62057000Y-56579100D01*
X62057000Y-56579100D02*
X62057000Y-52560400D01*
X62057000Y-52560400D02*
X52705000Y-43208400D01*
X52705000Y-43208400D02*
X52705000Y-36195000D01*
X118110000Y-101011400D02*
X114600700Y-104520700D01*
X114600700Y-104520700D02*
X100657800Y-104520700D01*
X118110000Y-101011400D02*
X118110000Y-101600000D01*
X53340000Y-31750000D02*
X52165000Y-32925000D01*
X52165000Y-32925000D02*
X52165000Y-35655000D01*
X52165000Y-35655000D02*
X52705000Y-36195000D01*
X101600000Y-34290000D02*
X101600000Y-33190000D01*
X101600000Y-33190000D02*
X101335000Y-32925000D01*
X101335000Y-32925000D02*
X98330000Y-32925000D01*
X98330000Y-32925000D02*
X97790000Y-32385000D01*
X97790000Y-32385000D02*
X97790000Y-31277300D01*
X97790000Y-31277300D02*
X96186300Y-29673600D01*
X96186300Y-29673600D02*
X52447900Y-29673600D01*
X52447900Y-29673600D02*
X50690100Y-31431400D01*
X50690100Y-31431400D02*
X50690100Y-44178900D01*
X50690100Y-44178900D02*
X48260000Y-46609000D01*
X107950000Y-53340000D02*
X109139000Y-53340000D01*
X109139000Y-53340000D02*
X109139000Y-53711500D01*
X109139000Y-53711500D02*
X112577000Y-57150000D01*
X112577000Y-57150000D02*
X123610000Y-57150000D01*
X123610000Y-57150000D02*
X126726000Y-60265600D01*
X126726000Y-60265600D02*
X126726000Y-102100000D01*
X126726000Y-102100000D02*
X103540000Y-125285000D01*
X103540000Y-125285000D02*
X60515300Y-125285000D01*
X60515300Y-125285000D02*
X58420000Y-123190000D01*
X60960000Y-123190000D02*
X60152100Y-123190000D01*
X60152100Y-123190000D02*
X58976800Y-122015000D01*
X58976800Y-122015000D02*
X58083700Y-122015000D01*
X58083700Y-122015000D02*
X57244600Y-121176000D01*
X57244600Y-121176000D02*
X57244600Y-119501000D01*
X57244600Y-119501000D02*
X95041700Y-81704000D01*
X95041700Y-81704000D02*
X98720100Y-81704000D01*
X63500000Y-123190000D02*
X64675300Y-122015000D01*
X64675300Y-122015000D02*
X64675300Y-119156000D01*
X64675300Y-119156000D02*
X81280000Y-102552000D01*
X81280000Y-102552000D02*
X81280000Y-101182000D01*
X81280000Y-101182000D02*
X97141400Y-85320500D01*
X97141400Y-85320500D02*
X98256600Y-85320500D01*
X66040000Y-123190000D02*
X67215300Y-122015000D01*
X67215300Y-122015000D02*
X67215300Y-118677000D01*
X67215300Y-118677000D02*
X83820000Y-102072000D01*
X83820000Y-102072000D02*
X83820000Y-100639000D01*
X83820000Y-100639000D02*
X97979200Y-86479800D01*
X68580000Y-123190000D02*
X69765800Y-122004000D01*
X69765800Y-122004000D02*
X69765800Y-118628000D01*
X69765800Y-118628000D02*
X86360000Y-102034000D01*
X86360000Y-102034000D02*
X86360000Y-99205900D01*
X86360000Y-99205900D02*
X97387900Y-88178000D01*
X71120000Y-123190000D02*
X72485000Y-121825000D01*
X72485000Y-121825000D02*
X72485000Y-120086000D01*
X72485000Y-120086000D02*
X73157600Y-119413000D01*
X73157600Y-119413000D02*
X74065800Y-119413000D01*
X74065800Y-119413000D02*
X91440000Y-102039000D01*
X91440000Y-102039000D02*
X91440000Y-100538000D01*
X91440000Y-100538000D02*
X95791500Y-96186200D01*
X95791500Y-96186200D02*
X95791500Y-92527700D01*
X53340000Y-120650000D02*
X54147900Y-120650000D01*
X54147900Y-120650000D02*
X55323200Y-119475000D01*
X55323200Y-119475000D02*
X56634100Y-119475000D01*
X56634100Y-119475000D02*
X95737900Y-80370900D01*
X95737900Y-80370900D02*
X99147400Y-80370900D01*
X55880000Y-120650000D02*
X57055300Y-121825000D01*
X57055300Y-121825000D02*
X57055300Y-123500000D01*
X57055300Y-123500000D02*
X59346600Y-125792000D01*
X59346600Y-125792000D02*
X103735000Y-125792000D01*
X103735000Y-125792000D02*
X127176000Y-102350000D01*
X127176000Y-102350000D02*
X127176000Y-59866300D01*
X127176000Y-59866300D02*
X123190000Y-55880000D01*
X123190000Y-58420000D02*
X126271000Y-61501100D01*
X126271000Y-61501100D02*
X126271000Y-101906000D01*
X126271000Y-101906000D02*
X103347000Y-124830000D01*
X103347000Y-124830000D02*
X63459300Y-124830000D01*
X63459300Y-124830000D02*
X62135300Y-123506000D01*
X62135300Y-123506000D02*
X62135300Y-121825000D01*
X62135300Y-121825000D02*
X60960000Y-120650000D01*
X100459000Y-81832500D02*
X98970900Y-83320900D01*
X98970900Y-83320900D02*
X94061700Y-83320900D01*
X94061700Y-83320900D02*
X63500000Y-113883000D01*
X63500000Y-113883000D02*
X63500000Y-120650000D01*
X120650000Y-63500000D02*
X121839000Y-64688600D01*
X121839000Y-64688600D02*
X121839000Y-66391900D01*
X121839000Y-66391900D02*
X122757000Y-67310000D01*
X122757000Y-67310000D02*
X123669000Y-67310000D01*
X123669000Y-67310000D02*
X125819000Y-69459900D01*
X125819000Y-69459900D02*
X125819000Y-101696000D01*
X125819000Y-101696000D02*
X105501000Y-122015000D01*
X105501000Y-122015000D02*
X100615000Y-122015000D01*
X100615000Y-122015000D02*
X100425000Y-122205000D01*
X100425000Y-122205000D02*
X100425000Y-123555000D01*
X100425000Y-123555000D02*
X99609400Y-124371000D01*
X99609400Y-124371000D02*
X68056900Y-124371000D01*
X68056900Y-124371000D02*
X67404700Y-123718000D01*
X67404700Y-123718000D02*
X67404700Y-122633000D01*
X67404700Y-122633000D02*
X68580000Y-121458000D01*
X68580000Y-121458000D02*
X68580000Y-120650000D01*
X100658000Y-85288200D02*
X100658000Y-85939500D01*
X100658000Y-85939500D02*
X97693900Y-88903400D01*
X97693900Y-88903400D02*
X97595300Y-88903400D01*
X97595300Y-88903400D02*
X88900000Y-97598700D01*
X88900000Y-97598700D02*
X88900000Y-102062000D01*
X88900000Y-102062000D02*
X72390000Y-118110000D01*
X72390000Y-118110000D02*
X71120000Y-119380000D01*
X71120000Y-119380000D02*
X71120000Y-120650000D01*
X104721000Y-90447100D02*
X93980000Y-101188000D01*
X93980000Y-101188000D02*
X93980000Y-102087000D01*
X93980000Y-102087000D02*
X91048600Y-105019000D01*
X91048600Y-105019000D02*
X89291400Y-105019000D01*
X89291400Y-105019000D02*
X73660000Y-120650000D01*
X76200000Y-120650000D02*
X74838600Y-122011000D01*
X74838600Y-122011000D02*
X72935000Y-122011000D01*
X72935000Y-122011000D02*
X72931400Y-122015000D01*
X72931400Y-122015000D02*
X75446000Y-122015000D01*
X75446000Y-122015000D02*
X94672400Y-102789000D01*
X94672400Y-102789000D02*
X95820500Y-102789000D01*
X95820500Y-102789000D02*
X96438600Y-102171000D01*
X96438600Y-102171000D02*
X96438600Y-101684000D01*
X96438600Y-101684000D02*
X105300000Y-92822200D01*
X105300000Y-92822200D02*
X105700000Y-92422200D01*
X104951000Y-94235600D02*
X104951000Y-94438900D01*
X104951000Y-94438900D02*
X78740000Y-120650000D01*
X123190000Y-68580000D02*
X125312000Y-70702400D01*
X125312000Y-70702400D02*
X125312000Y-96744700D01*
X125312000Y-96744700D02*
X103620000Y-118437000D01*
X103620000Y-118437000D02*
X96193300Y-118437000D01*
X96193300Y-118437000D02*
X95345000Y-119285000D01*
X95345000Y-119285000D02*
X95345000Y-121024000D01*
X95345000Y-121024000D02*
X94544000Y-121825000D01*
X94544000Y-121825000D02*
X82455000Y-121825000D01*
X82455000Y-121825000D02*
X81280000Y-120650000D01*
X106066000Y-94182000D02*
X83820000Y-116428000D01*
X83820000Y-116428000D02*
X83820000Y-120650000D01*
X123190000Y-73660000D02*
X124851000Y-75321100D01*
X124851000Y-75321100D02*
X124851000Y-96569100D01*
X124851000Y-96569100D02*
X103725000Y-117695000D01*
X103725000Y-117695000D02*
X94394900Y-117695000D01*
X94394900Y-117695000D02*
X91440000Y-120650000D01*
X123190000Y-83820000D02*
X124379000Y-82631400D01*
X124379000Y-82631400D02*
X124379000Y-78218500D01*
X124379000Y-78218500D02*
X123579000Y-77419000D01*
X123579000Y-77419000D02*
X122640000Y-77419000D01*
X122640000Y-77419000D02*
X121839000Y-76618000D01*
X121839000Y-76618000D02*
X121839000Y-75685700D01*
X121839000Y-75685700D02*
X121083000Y-74930000D01*
X121083000Y-74930000D02*
X120171000Y-74930000D01*
X120171000Y-74930000D02*
X113674000Y-68433000D01*
X113674000Y-68433000D02*
X113674000Y-62293600D01*
X113674000Y-62293600D02*
X106680000Y-55299800D01*
X106680000Y-55299800D02*
X106680000Y-44505600D01*
X106680000Y-44505600D02*
X97790000Y-35560000D01*
X97790000Y-35560000D02*
X97790000Y-33821000D01*
X97790000Y-33821000D02*
X96520000Y-32551000D01*
X96520000Y-32551000D02*
X96520000Y-31750000D01*
X120650000Y-81280000D02*
X118110000Y-78740000D01*
X118110000Y-78740000D02*
X110902000Y-70714300D01*
X110902000Y-70714300D02*
X110902000Y-63698300D01*
X123190000Y-81280000D02*
X121920000Y-80010000D01*
X121920000Y-80010000D02*
X121920000Y-78105000D01*
X121920000Y-78105000D02*
X121139000Y-77470000D01*
X121139000Y-77470000D02*
X120217000Y-77470000D01*
X120217000Y-77470000D02*
X111627000Y-68879600D01*
X111627000Y-68879600D02*
X111627000Y-63397800D01*
X111627000Y-63397800D02*
X104140000Y-55910800D01*
X104140000Y-55910800D02*
X104140000Y-43085300D01*
X104140000Y-43085300D02*
X96520000Y-35465300D01*
X96520000Y-35465300D02*
X96520000Y-34290000D01*
X78740000Y-34290000D02*
X77565000Y-33115000D01*
X77565000Y-33115000D02*
X77565000Y-31376000D01*
X77565000Y-31376000D02*
X76312900Y-30123900D01*
X76312900Y-30123900D02*
X52634500Y-30123900D01*
X52634500Y-30123900D02*
X51140500Y-31617900D01*
X51140500Y-31617900D02*
X51140500Y-49016600D01*
X51140500Y-49016600D02*
X48006000Y-52151100D01*
X48006000Y-52151100D02*
X48006000Y-53340000D01*
X45466000Y-53340000D02*
X46654600Y-54528600D01*
X46654600Y-54528600D02*
X48578900Y-54528600D01*
X48578900Y-54528600D02*
X49276000Y-53831500D01*
X49276000Y-53831500D02*
X49276000Y-52151000D01*
X49276000Y-52151000D02*
X51590900Y-49836100D01*
X51590900Y-49836100D02*
X51590900Y-31804400D01*
X51590900Y-31804400D02*
X52821100Y-30574200D01*
X52821100Y-30574200D02*
X61448900Y-30574200D01*
X61448900Y-30574200D02*
X62324600Y-31449900D01*
X62324600Y-31449900D02*
X62324600Y-32333100D01*
X62324600Y-32333100D02*
X62865000Y-33020000D01*
X62865000Y-33020000D02*
X74930000Y-33020000D01*
X74930000Y-33020000D02*
X76200000Y-34290000D01*
X120650000Y-83820000D02*
X119380000Y-82550000D01*
X119380000Y-82550000D02*
X119380000Y-81280000D01*
X119380000Y-81280000D02*
X93914000Y-56266600D01*
X93914000Y-56266600D02*
X93914000Y-54693600D01*
X93914000Y-54693600D02*
X90243100Y-51022700D01*
X90243100Y-51022700D02*
X89217400Y-51022700D01*
X89217400Y-51022700D02*
X73660000Y-35465300D01*
X73660000Y-35465300D02*
X73660000Y-34290000D01*
D22*
G36*
X125233358Y-26181842D02*
G01*
X125982277Y-26386723D01*
X126683072Y-26720986D01*
X127313605Y-27174069D01*
X127853934Y-27731645D01*
X128286989Y-28376099D01*
X128599073Y-29087044D01*
X128781640Y-29847493D01*
X128830000Y-30506031D01*
X128830001Y-124428371D01*
X128758158Y-125233359D01*
X128553277Y-125982277D01*
X128219013Y-126683075D01*
X127765931Y-127313605D01*
X127208354Y-127853935D01*
X126563901Y-128286989D01*
X125852956Y-128599073D01*
X125092506Y-128781640D01*
X124433968Y-128830000D01*
X30511618Y-128830000D01*
X29706641Y-128758158D01*
X28957723Y-128553277D01*
X28256925Y-128219013D01*
X27626395Y-127765931D01*
X27086065Y-127208354D01*
X26653011Y-126563901D01*
X26340927Y-125852956D01*
X26158360Y-125092506D01*
X26110000Y-124433968D01*
X26110000Y-124239872D01*
X28245000Y-124239872D01*
X28245000Y-124680128D01*
X28330890Y-125111925D01*
X28499369Y-125518669D01*
X28743962Y-125884729D01*
X29055271Y-126196038D01*
X29421331Y-126440631D01*
X29828075Y-126609110D01*
X30259872Y-126695000D01*
X30700128Y-126695000D01*
X31131925Y-126609110D01*
X31538669Y-126440631D01*
X31904729Y-126196038D01*
X32216038Y-125884729D01*
X32460631Y-125518669D01*
X32629110Y-125111925D01*
X32715000Y-124680128D01*
X32715000Y-124239872D01*
X32629110Y-123808075D01*
X32460631Y-123401331D01*
X32216038Y-123035271D01*
X31904729Y-122723962D01*
X31538669Y-122479369D01*
X31131925Y-122310890D01*
X30700128Y-122225000D01*
X30259872Y-122225000D01*
X29828075Y-122310890D01*
X29421331Y-122479369D01*
X29055271Y-122723962D01*
X28743962Y-123035271D01*
X28499369Y-123401331D01*
X28330890Y-123808075D01*
X28245000Y-124239872D01*
X26110000Y-124239872D01*
X26110000Y-101379872D01*
X38405000Y-101379872D01*
X38405000Y-101820128D01*
X38490890Y-102251925D01*
X38659369Y-102658669D01*
X38903962Y-103024729D01*
X39215271Y-103336038D01*
X39581331Y-103580631D01*
X39988075Y-103749110D01*
X40419872Y-103835000D01*
X40860128Y-103835000D01*
X41291925Y-103749110D01*
X41698669Y-103580631D01*
X42064729Y-103336038D01*
X42376038Y-103024729D01*
X42620631Y-102658669D01*
X42789110Y-102251925D01*
X42875000Y-101820128D01*
X42875000Y-101379872D01*
X42789110Y-100948075D01*
X42620631Y-100541331D01*
X42376038Y-100175271D01*
X42064729Y-99863962D01*
X41698669Y-99619369D01*
X41291925Y-99450890D01*
X40860128Y-99365000D01*
X40419872Y-99365000D01*
X39988075Y-99450890D01*
X39581331Y-99619369D01*
X39215271Y-99863962D01*
X38903962Y-100175271D01*
X38659369Y-100541331D01*
X38490890Y-100948075D01*
X38405000Y-101379872D01*
X26110000Y-101379872D01*
X26110000Y-53119872D01*
X39675000Y-53119872D01*
X39675000Y-53560128D01*
X39760890Y-53991925D01*
X39929369Y-54398669D01*
X40173962Y-54764729D01*
X40485271Y-55076038D01*
X40851331Y-55320631D01*
X41258075Y-55489110D01*
X41689872Y-55575000D01*
X42130128Y-55575000D01*
X42561925Y-55489110D01*
X42968669Y-55320631D01*
X43334729Y-55076038D01*
X43646038Y-54764729D01*
X43890631Y-54398669D01*
X44059110Y-53991925D01*
X44076906Y-53902460D01*
X44137958Y-54049853D01*
X44301961Y-54295302D01*
X44510698Y-54504039D01*
X44756147Y-54668042D01*
X45028875Y-54781010D01*
X45318401Y-54838600D01*
X45613599Y-54838600D01*
X45843974Y-54792776D01*
X46090801Y-55039603D01*
X46114599Y-55068601D01*
X46230324Y-55163574D01*
X46362353Y-55234146D01*
X46505614Y-55277603D01*
X46617267Y-55288600D01*
X46617276Y-55288600D01*
X46654599Y-55292276D01*
X46691922Y-55288600D01*
X48541578Y-55288600D01*
X48578900Y-55292276D01*
X48616222Y-55288600D01*
X48616233Y-55288600D01*
X48727886Y-55277603D01*
X48871147Y-55234146D01*
X49003176Y-55163574D01*
X49118901Y-55068601D01*
X49142703Y-55039598D01*
X49643189Y-54539112D01*
X49836147Y-54668042D01*
X50108875Y-54781010D01*
X50398401Y-54838600D01*
X50693599Y-54838600D01*
X50983125Y-54781010D01*
X51255853Y-54668042D01*
X51501302Y-54504039D01*
X51710039Y-54295302D01*
X51816000Y-54136719D01*
X51921961Y-54295302D01*
X52130698Y-54504039D01*
X52376147Y-54668042D01*
X52648875Y-54781010D01*
X52938401Y-54838600D01*
X53233599Y-54838600D01*
X53523125Y-54781010D01*
X53795853Y-54668042D01*
X54041302Y-54504039D01*
X54250039Y-54295302D01*
X54356000Y-54136719D01*
X54461961Y-54295302D01*
X54670698Y-54504039D01*
X54916147Y-54668042D01*
X55188875Y-54781010D01*
X55478401Y-54838600D01*
X55773599Y-54838600D01*
X56063125Y-54781010D01*
X56335853Y-54668042D01*
X56581302Y-54504039D01*
X56790039Y-54295302D01*
X56896000Y-54136719D01*
X57001961Y-54295302D01*
X57210698Y-54504039D01*
X57456147Y-54668042D01*
X57728875Y-54781010D01*
X58018401Y-54838600D01*
X58313599Y-54838600D01*
X58603125Y-54781010D01*
X58875853Y-54668042D01*
X59121302Y-54504039D01*
X59330039Y-54295302D01*
X59436000Y-54136719D01*
X59541961Y-54295302D01*
X59750698Y-54504039D01*
X59996147Y-54668042D01*
X60268875Y-54781010D01*
X60558401Y-54838600D01*
X60853599Y-54838600D01*
X61143125Y-54781010D01*
X61297000Y-54717272D01*
X61297000Y-56541777D01*
X61293324Y-56579100D01*
X61297000Y-56616422D01*
X61297000Y-56616432D01*
X61307997Y-56728085D01*
X61343324Y-56844544D01*
X61351454Y-56871346D01*
X61422026Y-57003376D01*
X61446258Y-57032902D01*
X61516999Y-57119101D01*
X61546003Y-57142904D01*
X89016300Y-84613202D01*
X89016300Y-84675339D01*
X89056074Y-84875298D01*
X89134095Y-85063656D01*
X89247363Y-85233174D01*
X89391526Y-85377337D01*
X89550489Y-85483552D01*
X73837692Y-101196470D01*
X73831010Y-101162875D01*
X73718042Y-100890147D01*
X73554039Y-100644698D01*
X73345302Y-100435961D01*
X73099853Y-100271958D01*
X72827125Y-100158990D01*
X72537599Y-100101400D01*
X72242401Y-100101400D01*
X71952875Y-100158990D01*
X71680147Y-100271958D01*
X71434698Y-100435961D01*
X71225961Y-100644698D01*
X71120000Y-100803281D01*
X71014039Y-100644698D01*
X70805302Y-100435961D01*
X70559853Y-100271958D01*
X70287125Y-100158990D01*
X69997599Y-100101400D01*
X69702401Y-100101400D01*
X69412875Y-100158990D01*
X69140147Y-100271958D01*
X68894698Y-100435961D01*
X68685961Y-100644698D01*
X68580000Y-100803281D01*
X68474039Y-100644698D01*
X68265302Y-100435961D01*
X68019853Y-100271958D01*
X67747125Y-100158990D01*
X67457599Y-100101400D01*
X67162401Y-100101400D01*
X66872875Y-100158990D01*
X66600147Y-100271958D01*
X66354698Y-100435961D01*
X66145961Y-100644698D01*
X66040000Y-100803281D01*
X65934039Y-100644698D01*
X65725302Y-100435961D01*
X65479853Y-100271958D01*
X65207125Y-100158990D01*
X64917599Y-100101400D01*
X64622401Y-100101400D01*
X64332875Y-100158990D01*
X64060147Y-100271958D01*
X63814698Y-100435961D01*
X63605961Y-100644698D01*
X63500000Y-100803281D01*
X63394039Y-100644698D01*
X63185302Y-100435961D01*
X62939853Y-100271958D01*
X62667125Y-100158990D01*
X62377599Y-100101400D01*
X62082401Y-100101400D01*
X61792875Y-100158990D01*
X61520147Y-100271958D01*
X61274698Y-100435961D01*
X61065961Y-100644698D01*
X60960000Y-100803281D01*
X60854039Y-100644698D01*
X60645302Y-100435961D01*
X60399853Y-100271958D01*
X60127125Y-100158990D01*
X59837599Y-100101400D01*
X59542401Y-100101400D01*
X59252875Y-100158990D01*
X58980147Y-100271958D01*
X58734698Y-100435961D01*
X58525961Y-100644698D01*
X58420000Y-100803281D01*
X58314039Y-100644698D01*
X58105302Y-100435961D01*
X57859853Y-100271958D01*
X57587125Y-100158990D01*
X57297599Y-100101400D01*
X57002401Y-100101400D01*
X56712875Y-100158990D01*
X56440147Y-100271958D01*
X56194698Y-100435961D01*
X55985961Y-100644698D01*
X55880000Y-100803281D01*
X55774039Y-100644698D01*
X55565302Y-100435961D01*
X55319853Y-100271958D01*
X55047125Y-100158990D01*
X54757599Y-100101400D01*
X54462401Y-100101400D01*
X54172875Y-100158990D01*
X53900147Y-100271958D01*
X53654698Y-100435961D01*
X53445961Y-100644698D01*
X53281958Y-100890147D01*
X53168990Y-101162875D01*
X53111400Y-101452401D01*
X53111400Y-101747599D01*
X53168990Y-102037125D01*
X53281958Y-102309853D01*
X53445961Y-102555302D01*
X53654698Y-102764039D01*
X53900147Y-102928042D01*
X54172875Y-103041010D01*
X54462401Y-103098600D01*
X54757599Y-103098600D01*
X55047125Y-103041010D01*
X55319853Y-102928042D01*
X55565302Y-102764039D01*
X55774039Y-102555302D01*
X55880000Y-102396719D01*
X55985961Y-102555302D01*
X56194698Y-102764039D01*
X56440147Y-102928042D01*
X56712875Y-103041010D01*
X57002401Y-103098600D01*
X57297599Y-103098600D01*
X57587125Y-103041010D01*
X57859853Y-102928042D01*
X58105302Y-102764039D01*
X58314039Y-102555302D01*
X58420000Y-102396719D01*
X58525961Y-102555302D01*
X58687419Y-102716760D01*
X51627709Y-109776191D01*
X51598699Y-109799999D01*
X51539873Y-109871679D01*
X51503735Y-109915712D01*
X51503732Y-109915718D01*
X51503726Y-109915725D01*
X51462777Y-109992334D01*
X51433160Y-110047740D01*
X51433158Y-110047746D01*
X51433154Y-110047754D01*
X51400081Y-110156784D01*
X51389701Y-110191000D01*
X51389701Y-110191003D01*
X51389697Y-110191015D01*
X51378700Y-110302667D01*
X51375024Y-110339985D01*
X51378700Y-110377315D01*
X51378701Y-123690697D01*
X51375024Y-123728060D01*
X51382827Y-123807225D01*
X51389698Y-123876986D01*
X51389706Y-123877011D01*
X51389709Y-123877045D01*
X51410970Y-123947113D01*
X51433155Y-124020247D01*
X51433170Y-124020274D01*
X51433178Y-124020302D01*
X51466541Y-124082707D01*
X51503727Y-124152276D01*
X51503745Y-124152298D01*
X51503760Y-124152326D01*
X51551598Y-124210607D01*
X51598700Y-124268001D01*
X51627723Y-124291819D01*
X54089321Y-126753027D01*
X54113099Y-126782001D01*
X54142119Y-126805817D01*
X54142142Y-126805840D01*
X54173780Y-126831800D01*
X54228824Y-126876974D01*
X54228849Y-126876987D01*
X54228874Y-126877008D01*
X54296476Y-126913135D01*
X54360853Y-126947546D01*
X54360883Y-126947555D01*
X54360909Y-126947569D01*
X54427635Y-126967804D01*
X54504114Y-126991003D01*
X54504148Y-126991006D01*
X54504173Y-126991014D01*
X54567934Y-126997289D01*
X54615767Y-127002000D01*
X54615807Y-127002000D01*
X54653160Y-127005676D01*
X54690454Y-127002000D01*
X110563678Y-127002000D01*
X110601000Y-127005676D01*
X110638322Y-127002000D01*
X110638333Y-127002000D01*
X110749986Y-126991003D01*
X110893247Y-126947546D01*
X111025276Y-126876974D01*
X111141001Y-126782001D01*
X111164804Y-126752997D01*
X113677929Y-124239872D01*
X122225000Y-124239872D01*
X122225000Y-124680128D01*
X122310890Y-125111925D01*
X122479369Y-125518669D01*
X122723962Y-125884729D01*
X123035271Y-126196038D01*
X123401331Y-126440631D01*
X123808075Y-126609110D01*
X124239872Y-126695000D01*
X124680128Y-126695000D01*
X125111925Y-126609110D01*
X125518669Y-126440631D01*
X125884729Y-126196038D01*
X126196038Y-125884729D01*
X126440631Y-125518669D01*
X126609110Y-125111925D01*
X126695000Y-124680128D01*
X126695000Y-124239872D01*
X126609110Y-123808075D01*
X126440631Y-123401331D01*
X126196038Y-123035271D01*
X125884729Y-122723962D01*
X125518669Y-122479369D01*
X125111925Y-122310890D01*
X124680128Y-122225000D01*
X124239872Y-122225000D01*
X123808075Y-122310890D01*
X123401331Y-122479369D01*
X123035271Y-122723962D01*
X122723962Y-123035271D01*
X122479369Y-123401331D01*
X122310890Y-123808075D01*
X122225000Y-124239872D01*
X113677929Y-124239872D01*
X122345802Y-115572000D01*
X122898744Y-115572000D01*
X122831675Y-115733919D01*
X122765000Y-116069117D01*
X122765000Y-116410883D01*
X122831675Y-116746081D01*
X122962463Y-117061831D01*
X123152337Y-117345998D01*
X123394002Y-117587663D01*
X123678169Y-117777537D01*
X123993919Y-117908325D01*
X124329117Y-117975000D01*
X124670883Y-117975000D01*
X125006081Y-117908325D01*
X125321831Y-117777537D01*
X125605998Y-117587663D01*
X125847663Y-117345998D01*
X126037537Y-117061831D01*
X126168325Y-116746081D01*
X126235000Y-116410883D01*
X126235000Y-116264838D01*
X126296589Y-116305990D01*
X126566842Y-116417932D01*
X126853740Y-116475000D01*
X127146260Y-116475000D01*
X127433158Y-116417932D01*
X127703411Y-116305990D01*
X127946632Y-116143475D01*
X128153475Y-115936632D01*
X128315990Y-115693411D01*
X128427932Y-115423158D01*
X128485000Y-115136260D01*
X128485000Y-114843740D01*
X128427932Y-114556842D01*
X128315990Y-114286589D01*
X128153475Y-114043368D01*
X127946632Y-113836525D01*
X127703411Y-113674010D01*
X127433158Y-113562068D01*
X127146260Y-113505000D01*
X126853740Y-113505000D01*
X126566842Y-113562068D01*
X126296589Y-113674010D01*
X126053368Y-113836525D01*
X125846525Y-114043368D01*
X125840757Y-114052000D01*
X122068322Y-114052000D01*
X122030999Y-114048324D01*
X121993677Y-114052000D01*
X121993667Y-114052000D01*
X121882014Y-114062997D01*
X121738753Y-114106454D01*
X121606723Y-114177026D01*
X121523083Y-114245668D01*
X121490999Y-114271999D01*
X121467201Y-114300997D01*
X110286199Y-125482000D01*
X105119765Y-125482000D01*
X126934000Y-103666835D01*
X126934000Y-109005000D01*
X126853740Y-109005000D01*
X126566842Y-109062068D01*
X126296589Y-109174010D01*
X126235000Y-109215162D01*
X126235000Y-109069117D01*
X126168325Y-108733919D01*
X126037537Y-108418169D01*
X125847663Y-108134002D01*
X125605998Y-107892337D01*
X125321831Y-107702463D01*
X125006081Y-107571675D01*
X124670883Y-107505000D01*
X124329117Y-107505000D01*
X123993919Y-107571675D01*
X123678169Y-107702463D01*
X123394002Y-107892337D01*
X123152337Y-108134002D01*
X122962463Y-108418169D01*
X122831675Y-108733919D01*
X122765000Y-109069117D01*
X122765000Y-109410883D01*
X122831675Y-109746081D01*
X122962463Y-110061831D01*
X123152337Y-110345998D01*
X123394002Y-110587663D01*
X123678169Y-110777537D01*
X123993919Y-110908325D01*
X124329117Y-110975000D01*
X124670883Y-110975000D01*
X125006081Y-110908325D01*
X125321831Y-110777537D01*
X125517143Y-110647034D01*
X125572068Y-110923158D01*
X125684010Y-111193411D01*
X125846525Y-111436632D01*
X126053368Y-111643475D01*
X126296589Y-111805990D01*
X126566842Y-111917932D01*
X126853740Y-111975000D01*
X127146260Y-111975000D01*
X127433158Y-111917932D01*
X127703411Y-111805990D01*
X127946632Y-111643475D01*
X128153475Y-111436632D01*
X128315990Y-111193411D01*
X128427932Y-110923158D01*
X128485000Y-110636260D01*
X128485000Y-110343740D01*
X128427932Y-110056842D01*
X128417045Y-110030559D01*
X128443003Y-109944986D01*
X128454000Y-109833333D01*
X128454000Y-109833324D01*
X128457676Y-109796001D01*
X128454000Y-109758678D01*
X128454000Y-58671800D01*
X128457676Y-58634452D01*
X128451223Y-58568973D01*
X128443003Y-58485514D01*
X128442995Y-58485488D01*
X128442993Y-58485467D01*
X128422226Y-58417021D01*
X128399546Y-58342253D01*
X128399535Y-58342233D01*
X128399528Y-58342209D01*
X128364556Y-58276792D01*
X128328974Y-58210224D01*
X128328958Y-58210204D01*
X128328947Y-58210184D01*
X128283535Y-58154857D01*
X128234001Y-58094499D01*
X128204983Y-58070685D01*
X124384114Y-54250291D01*
X124518042Y-54049853D01*
X124631010Y-53777125D01*
X124688600Y-53487599D01*
X124688600Y-53192401D01*
X124631010Y-52902875D01*
X124518042Y-52630147D01*
X124354039Y-52384698D01*
X124145302Y-52175961D01*
X123899853Y-52011958D01*
X123627125Y-51898990D01*
X123337599Y-51841400D01*
X123042401Y-51841400D01*
X122752875Y-51898990D01*
X122480147Y-52011958D01*
X122269623Y-52152625D01*
X111925000Y-41808191D01*
X111925000Y-41768665D01*
X116675000Y-41768665D01*
X116675000Y-42051335D01*
X116730147Y-42328574D01*
X116838320Y-42589727D01*
X116995363Y-42824759D01*
X117195241Y-43024637D01*
X117430273Y-43181680D01*
X117691426Y-43289853D01*
X117968665Y-43345000D01*
X118251335Y-43345000D01*
X118528574Y-43289853D01*
X118789727Y-43181680D01*
X119024759Y-43024637D01*
X119224637Y-42824759D01*
X119328043Y-42670000D01*
X120381928Y-42670000D01*
X120381928Y-42810000D01*
X120394188Y-42934482D01*
X120430498Y-43054180D01*
X120489463Y-43164494D01*
X120568815Y-43261185D01*
X120665506Y-43340537D01*
X120775820Y-43399502D01*
X120895518Y-43435812D01*
X121020000Y-43448072D01*
X122820000Y-43448072D01*
X122944482Y-43435812D01*
X123064180Y-43399502D01*
X123174494Y-43340537D01*
X123271185Y-43261185D01*
X123350537Y-43164494D01*
X123409502Y-43054180D01*
X123445812Y-42934482D01*
X123458072Y-42810000D01*
X123458072Y-41010000D01*
X123445812Y-40885518D01*
X123409502Y-40765820D01*
X123350537Y-40655506D01*
X123271185Y-40558815D01*
X123174494Y-40479463D01*
X123064180Y-40420498D01*
X123045873Y-40414944D01*
X123112312Y-40348505D01*
X123280299Y-40097095D01*
X123396011Y-39817743D01*
X123455000Y-39521184D01*
X123455000Y-39218816D01*
X123396011Y-38922257D01*
X123280299Y-38642905D01*
X123112312Y-38391495D01*
X122898505Y-38177688D01*
X122647095Y-38009701D01*
X122367743Y-37893989D01*
X122071184Y-37835000D01*
X121768816Y-37835000D01*
X121472257Y-37893989D01*
X121192905Y-38009701D01*
X120941495Y-38177688D01*
X120727688Y-38391495D01*
X120559701Y-38642905D01*
X120443989Y-38922257D01*
X120385000Y-39218816D01*
X120385000Y-39521184D01*
X120443989Y-39817743D01*
X120559701Y-40097095D01*
X120727688Y-40348505D01*
X120794127Y-40414944D01*
X120775820Y-40420498D01*
X120665506Y-40479463D01*
X120568815Y-40558815D01*
X120489463Y-40655506D01*
X120430498Y-40765820D01*
X120394188Y-40885518D01*
X120381928Y-41010000D01*
X120381928Y-41150000D01*
X119328043Y-41150000D01*
X119224637Y-40995241D01*
X119024759Y-40795363D01*
X118789727Y-40638320D01*
X118528574Y-40530147D01*
X118251335Y-40475000D01*
X117968665Y-40475000D01*
X117691426Y-40530147D01*
X117430273Y-40638320D01*
X117195241Y-40795363D01*
X116995363Y-40995241D01*
X116838320Y-41230273D01*
X116730147Y-41491426D01*
X116675000Y-41768665D01*
X111925000Y-41768665D01*
X111869853Y-41491426D01*
X111761680Y-41230273D01*
X111604637Y-40995241D01*
X111404759Y-40795363D01*
X111250000Y-40691957D01*
X111250000Y-38966426D01*
X111253676Y-38929104D01*
X111250000Y-38891779D01*
X111250000Y-38891767D01*
X111239003Y-38780114D01*
X111195546Y-38636853D01*
X111124974Y-38504824D01*
X111063265Y-38429631D01*
X111053802Y-38418100D01*
X111053799Y-38418097D01*
X111030001Y-38389099D01*
X111001006Y-38365303D01*
X102895655Y-30259872D01*
X122225000Y-30259872D01*
X122225000Y-30700128D01*
X122310890Y-31131925D01*
X122479369Y-31538669D01*
X122723962Y-31904729D01*
X123035271Y-32216038D01*
X123401331Y-32460631D01*
X123808075Y-32629110D01*
X124239872Y-32715000D01*
X124680128Y-32715000D01*
X125111925Y-32629110D01*
X125518669Y-32460631D01*
X125884729Y-32216038D01*
X126196038Y-31904729D01*
X126440631Y-31538669D01*
X126609110Y-31131925D01*
X126695000Y-30700128D01*
X126695000Y-30259872D01*
X126609110Y-29828075D01*
X126440631Y-29421331D01*
X126196038Y-29055271D01*
X125884729Y-28743962D01*
X125518669Y-28499369D01*
X125111925Y-28330890D01*
X124680128Y-28245000D01*
X124239872Y-28245000D01*
X123808075Y-28330890D01*
X123401331Y-28499369D01*
X123035271Y-28743962D01*
X122723962Y-29055271D01*
X122479369Y-29421331D01*
X122310890Y-29828075D01*
X122225000Y-30259872D01*
X102895655Y-30259872D01*
X100897802Y-28262000D01*
X100874001Y-28232999D01*
X100803147Y-28174851D01*
X100758279Y-28138028D01*
X100758277Y-28138027D01*
X100758276Y-28138026D01*
X100626247Y-28067454D01*
X100482986Y-28023997D01*
X100371333Y-28013000D01*
X100371326Y-28013000D01*
X100334003Y-28009324D01*
X100296678Y-28013000D01*
X52112022Y-28013000D01*
X52074699Y-28009324D01*
X52037376Y-28013000D01*
X52037367Y-28013000D01*
X51925714Y-28023997D01*
X51782453Y-28067454D01*
X51650424Y-28138026D01*
X51650422Y-28138027D01*
X51650423Y-28138027D01*
X51563696Y-28209201D01*
X51563692Y-28209205D01*
X51534699Y-28232999D01*
X51510905Y-28261992D01*
X47749003Y-32023896D01*
X47719999Y-32047699D01*
X47679830Y-32096646D01*
X47625026Y-32163424D01*
X47598219Y-32213576D01*
X47554454Y-32295454D01*
X47510997Y-32438715D01*
X47500000Y-32550368D01*
X47500000Y-32550378D01*
X47496324Y-32587700D01*
X47500000Y-32625023D01*
X47500000Y-34344656D01*
X47201331Y-34468369D01*
X46835271Y-34712962D01*
X46523962Y-35024271D01*
X46279369Y-35390331D01*
X46110890Y-35797075D01*
X46025000Y-36228872D01*
X46025000Y-36669128D01*
X46110890Y-37100925D01*
X46279369Y-37507669D01*
X46523962Y-37873729D01*
X46835271Y-38185038D01*
X47201331Y-38429631D01*
X47608075Y-38598110D01*
X48039872Y-38684000D01*
X48480128Y-38684000D01*
X48911925Y-38598110D01*
X49318669Y-38429631D01*
X49479701Y-38322033D01*
X49479701Y-39234496D01*
X44130595Y-44583603D01*
X43831925Y-44459890D01*
X43400128Y-44374000D01*
X42959872Y-44374000D01*
X42528075Y-44459890D01*
X42121331Y-44628369D01*
X41755271Y-44872962D01*
X41443962Y-45184271D01*
X41199369Y-45550331D01*
X41030890Y-45957075D01*
X40945000Y-46388872D01*
X40945000Y-46829128D01*
X41030890Y-47260925D01*
X41199369Y-47667669D01*
X41443962Y-48033729D01*
X41755271Y-48345038D01*
X42121331Y-48589631D01*
X42528075Y-48758110D01*
X42959872Y-48844000D01*
X43400128Y-48844000D01*
X43831925Y-48758110D01*
X44238669Y-48589631D01*
X44604729Y-48345038D01*
X44916038Y-48033729D01*
X45160631Y-47667669D01*
X45329110Y-47260925D01*
X45415000Y-46829128D01*
X45415000Y-46388872D01*
X45329110Y-45957075D01*
X45205397Y-45658405D01*
X49930101Y-40933702D01*
X49930101Y-43864096D01*
X49210595Y-44583603D01*
X48911925Y-44459890D01*
X48480128Y-44374000D01*
X48039872Y-44374000D01*
X47608075Y-44459890D01*
X47201331Y-44628369D01*
X46835271Y-44872962D01*
X46523962Y-45184271D01*
X46279369Y-45550331D01*
X46110890Y-45957075D01*
X46025000Y-46388872D01*
X46025000Y-46829128D01*
X46110890Y-47260925D01*
X46279369Y-47667669D01*
X46523962Y-48033729D01*
X46835271Y-48345038D01*
X47201331Y-48589631D01*
X47608075Y-48758110D01*
X48039872Y-48844000D01*
X48480128Y-48844000D01*
X48911925Y-48758110D01*
X49318669Y-48589631D01*
X49684729Y-48345038D01*
X49996038Y-48033729D01*
X50240631Y-47667669D01*
X50380501Y-47329993D01*
X50380501Y-48701796D01*
X47495003Y-51587296D01*
X47465999Y-51611099D01*
X47410871Y-51678274D01*
X47371026Y-51726824D01*
X47309783Y-51841400D01*
X47300454Y-51858854D01*
X47256997Y-52002115D01*
X47253201Y-52040653D01*
X47050698Y-52175961D01*
X46841961Y-52384698D01*
X46736000Y-52543281D01*
X46630039Y-52384698D01*
X46421302Y-52175961D01*
X46175853Y-52011958D01*
X45903125Y-51898990D01*
X45613599Y-51841400D01*
X45318401Y-51841400D01*
X45028875Y-51898990D01*
X44756147Y-52011958D01*
X44510698Y-52175961D01*
X44301961Y-52384698D01*
X44137958Y-52630147D01*
X44076906Y-52777540D01*
X44059110Y-52688075D01*
X43890631Y-52281331D01*
X43646038Y-51915271D01*
X43334729Y-51603962D01*
X42968669Y-51359369D01*
X42561925Y-51190890D01*
X42130128Y-51105000D01*
X41689872Y-51105000D01*
X41258075Y-51190890D01*
X40851331Y-51359369D01*
X40485271Y-51603962D01*
X40173962Y-51915271D01*
X39929369Y-52281331D01*
X39760890Y-52688075D01*
X39675000Y-53119872D01*
X26110000Y-53119872D01*
X26110000Y-36228872D01*
X40945000Y-36228872D01*
X40945000Y-36669128D01*
X41030890Y-37100925D01*
X41199369Y-37507669D01*
X41443962Y-37873729D01*
X41755271Y-38185038D01*
X42121331Y-38429631D01*
X42528075Y-38598110D01*
X42959872Y-38684000D01*
X43400128Y-38684000D01*
X43831925Y-38598110D01*
X44238669Y-38429631D01*
X44604729Y-38185038D01*
X44916038Y-37873729D01*
X45160631Y-37507669D01*
X45329110Y-37100925D01*
X45415000Y-36669128D01*
X45415000Y-36228872D01*
X45329110Y-35797075D01*
X45160631Y-35390331D01*
X44916038Y-35024271D01*
X44604729Y-34712962D01*
X44238669Y-34468369D01*
X43831925Y-34299890D01*
X43400128Y-34214000D01*
X42959872Y-34214000D01*
X42528075Y-34299890D01*
X42121331Y-34468369D01*
X41755271Y-34712962D01*
X41443962Y-35024271D01*
X41199369Y-35390331D01*
X41030890Y-35797075D01*
X40945000Y-36228872D01*
X26110000Y-36228872D01*
X26110000Y-30511618D01*
X26132467Y-30259872D01*
X28245000Y-30259872D01*
X28245000Y-30700128D01*
X28330890Y-31131925D01*
X28499369Y-31538669D01*
X28743962Y-31904729D01*
X29055271Y-32216038D01*
X29421331Y-32460631D01*
X29828075Y-32629110D01*
X30259872Y-32715000D01*
X30700128Y-32715000D01*
X31131925Y-32629110D01*
X31538669Y-32460631D01*
X31904729Y-32216038D01*
X32216038Y-31904729D01*
X32460631Y-31538669D01*
X32629110Y-31131925D01*
X32715000Y-30700128D01*
X32715000Y-30259872D01*
X32629110Y-29828075D01*
X32460631Y-29421331D01*
X32216038Y-29055271D01*
X31904729Y-28743962D01*
X31538669Y-28499369D01*
X31131925Y-28330890D01*
X30700128Y-28245000D01*
X30259872Y-28245000D01*
X29828075Y-28330890D01*
X29421331Y-28499369D01*
X29055271Y-28743962D01*
X28743962Y-29055271D01*
X28499369Y-29421331D01*
X28330890Y-29828075D01*
X28245000Y-30259872D01*
X26132467Y-30259872D01*
X26181842Y-29706642D01*
X26386723Y-28957723D01*
X26720986Y-28256928D01*
X27174069Y-27626395D01*
X27731645Y-27086066D01*
X28376099Y-26653011D01*
X29087044Y-26340927D01*
X29847493Y-26158360D01*
X30506031Y-26110000D01*
X124428382Y-26110000D01*
X125233358Y-26181842D01*
G37*
X125233358Y-26181842D02*
X125982277Y-26386723D01*
X126683072Y-26720986D01*
X127313605Y-27174069D01*
X127853934Y-27731645D01*
X128286989Y-28376099D01*
X128599073Y-29087044D01*
X128781640Y-29847493D01*
X128830000Y-30506031D01*
X128830001Y-124428371D01*
X128758158Y-125233359D01*
X128553277Y-125982277D01*
X128219013Y-126683075D01*
X127765931Y-127313605D01*
X127208354Y-127853935D01*
X126563901Y-128286989D01*
X125852956Y-128599073D01*
X125092506Y-128781640D01*
X124433968Y-128830000D01*
X30511618Y-128830000D01*
X29706641Y-128758158D01*
X28957723Y-128553277D01*
X28256925Y-128219013D01*
X27626395Y-127765931D01*
X27086065Y-127208354D01*
X26653011Y-126563901D01*
X26340927Y-125852956D01*
X26158360Y-125092506D01*
X26110000Y-124433968D01*
X26110000Y-124239872D01*
X28245000Y-124239872D01*
X28245000Y-124680128D01*
X28330890Y-125111925D01*
X28499369Y-125518669D01*
X28743962Y-125884729D01*
X29055271Y-126196038D01*
X29421331Y-126440631D01*
X29828075Y-126609110D01*
X30259872Y-126695000D01*
X30700128Y-126695000D01*
X31131925Y-126609110D01*
X31538669Y-126440631D01*
X31904729Y-126196038D01*
X32216038Y-125884729D01*
X32460631Y-125518669D01*
X32629110Y-125111925D01*
X32715000Y-124680128D01*
X32715000Y-124239872D01*
X32629110Y-123808075D01*
X32460631Y-123401331D01*
X32216038Y-123035271D01*
X31904729Y-122723962D01*
X31538669Y-122479369D01*
X31131925Y-122310890D01*
X30700128Y-122225000D01*
X30259872Y-122225000D01*
X29828075Y-122310890D01*
X29421331Y-122479369D01*
X29055271Y-122723962D01*
X28743962Y-123035271D01*
X28499369Y-123401331D01*
X28330890Y-123808075D01*
X28245000Y-124239872D01*
X26110000Y-124239872D01*
X26110000Y-101379872D01*
X38405000Y-101379872D01*
X38405000Y-101820128D01*
X38490890Y-102251925D01*
X38659369Y-102658669D01*
X38903962Y-103024729D01*
X39215271Y-103336038D01*
X39581331Y-103580631D01*
X39988075Y-103749110D01*
X40419872Y-103835000D01*
X40860128Y-103835000D01*
X41291925Y-103749110D01*
X41698669Y-103580631D01*
X42064729Y-103336038D01*
X42376038Y-103024729D01*
X42620631Y-102658669D01*
X42789110Y-102251925D01*
X42875000Y-101820128D01*
X42875000Y-101379872D01*
X42789110Y-100948075D01*
X42620631Y-100541331D01*
X42376038Y-100175271D01*
X42064729Y-99863962D01*
X41698669Y-99619369D01*
X41291925Y-99450890D01*
X40860128Y-99365000D01*
X40419872Y-99365000D01*
X39988075Y-99450890D01*
X39581331Y-99619369D01*
X39215271Y-99863962D01*
X38903962Y-100175271D01*
X38659369Y-100541331D01*
X38490890Y-100948075D01*
X38405000Y-101379872D01*
X26110000Y-101379872D01*
X26110000Y-53119872D01*
X39675000Y-53119872D01*
X39675000Y-53560128D01*
X39760890Y-53991925D01*
X39929369Y-54398669D01*
X40173962Y-54764729D01*
X40485271Y-55076038D01*
X40851331Y-55320631D01*
X41258075Y-55489110D01*
X41689872Y-55575000D01*
X42130128Y-55575000D01*
X42561925Y-55489110D01*
X42968669Y-55320631D01*
X43334729Y-55076038D01*
X43646038Y-54764729D01*
X43890631Y-54398669D01*
X44059110Y-53991925D01*
X44076906Y-53902460D01*
X44137958Y-54049853D01*
X44301961Y-54295302D01*
X44510698Y-54504039D01*
X44756147Y-54668042D01*
X45028875Y-54781010D01*
X45318401Y-54838600D01*
X45613599Y-54838600D01*
X45843974Y-54792776D01*
X46090801Y-55039603D01*
X46114599Y-55068601D01*
X46230324Y-55163574D01*
X46362353Y-55234146D01*
X46505614Y-55277603D01*
X46617267Y-55288600D01*
X46617276Y-55288600D01*
X46654599Y-55292276D01*
X46691922Y-55288600D01*
X48541578Y-55288600D01*
X48578900Y-55292276D01*
X48616222Y-55288600D01*
X48616233Y-55288600D01*
X48727886Y-55277603D01*
X48871147Y-55234146D01*
X49003176Y-55163574D01*
X49118901Y-55068601D01*
X49142703Y-55039598D01*
X49643189Y-54539112D01*
X49836147Y-54668042D01*
X50108875Y-54781010D01*
X50398401Y-54838600D01*
X50693599Y-54838600D01*
X50983125Y-54781010D01*
X51255853Y-54668042D01*
X51501302Y-54504039D01*
X51710039Y-54295302D01*
X51816000Y-54136719D01*
X51921961Y-54295302D01*
X52130698Y-54504039D01*
X52376147Y-54668042D01*
X52648875Y-54781010D01*
X52938401Y-54838600D01*
X53233599Y-54838600D01*
X53523125Y-54781010D01*
X53795853Y-54668042D01*
X54041302Y-54504039D01*
X54250039Y-54295302D01*
X54356000Y-54136719D01*
X54461961Y-54295302D01*
X54670698Y-54504039D01*
X54916147Y-54668042D01*
X55188875Y-54781010D01*
X55478401Y-54838600D01*
X55773599Y-54838600D01*
X56063125Y-54781010D01*
X56335853Y-54668042D01*
X56581302Y-54504039D01*
X56790039Y-54295302D01*
X56896000Y-54136719D01*
X57001961Y-54295302D01*
X57210698Y-54504039D01*
X57456147Y-54668042D01*
X57728875Y-54781010D01*
X58018401Y-54838600D01*
X58313599Y-54838600D01*
X58603125Y-54781010D01*
X58875853Y-54668042D01*
X59121302Y-54504039D01*
X59330039Y-54295302D01*
X59436000Y-54136719D01*
X59541961Y-54295302D01*
X59750698Y-54504039D01*
X59996147Y-54668042D01*
X60268875Y-54781010D01*
X60558401Y-54838600D01*
X60853599Y-54838600D01*
X61143125Y-54781010D01*
X61297000Y-54717272D01*
X61297000Y-56541777D01*
X61293324Y-56579100D01*
X61297000Y-56616422D01*
X61297000Y-56616432D01*
X61307997Y-56728085D01*
X61343324Y-56844544D01*
X61351454Y-56871346D01*
X61422026Y-57003376D01*
X61446258Y-57032902D01*
X61516999Y-57119101D01*
X61546003Y-57142904D01*
X89016300Y-84613202D01*
X89016300Y-84675339D01*
X89056074Y-84875298D01*
X89134095Y-85063656D01*
X89247363Y-85233174D01*
X89391526Y-85377337D01*
X89550489Y-85483552D01*
X73837692Y-101196470D01*
X73831010Y-101162875D01*
X73718042Y-100890147D01*
X73554039Y-100644698D01*
X73345302Y-100435961D01*
X73099853Y-100271958D01*
X72827125Y-100158990D01*
X72537599Y-100101400D01*
X72242401Y-100101400D01*
X71952875Y-100158990D01*
X71680147Y-100271958D01*
X71434698Y-100435961D01*
X71225961Y-100644698D01*
X71120000Y-100803281D01*
X71014039Y-100644698D01*
X70805302Y-100435961D01*
X70559853Y-100271958D01*
X70287125Y-100158990D01*
X69997599Y-100101400D01*
X69702401Y-100101400D01*
X69412875Y-100158990D01*
X69140147Y-100271958D01*
X68894698Y-100435961D01*
X68685961Y-100644698D01*
X68580000Y-100803281D01*
X68474039Y-100644698D01*
X68265302Y-100435961D01*
X68019853Y-100271958D01*
X67747125Y-100158990D01*
X67457599Y-100101400D01*
X67162401Y-100101400D01*
X66872875Y-100158990D01*
X66600147Y-100271958D01*
X66354698Y-100435961D01*
X66145961Y-100644698D01*
X66040000Y-100803281D01*
X65934039Y-100644698D01*
X65725302Y-100435961D01*
X65479853Y-100271958D01*
X65207125Y-100158990D01*
X64917599Y-100101400D01*
X64622401Y-100101400D01*
X64332875Y-100158990D01*
X64060147Y-100271958D01*
X63814698Y-100435961D01*
X63605961Y-100644698D01*
X63500000Y-100803281D01*
X63394039Y-100644698D01*
X63185302Y-100435961D01*
X62939853Y-100271958D01*
X62667125Y-100158990D01*
X62377599Y-100101400D01*
X62082401Y-100101400D01*
X61792875Y-100158990D01*
X61520147Y-100271958D01*
X61274698Y-100435961D01*
X61065961Y-100644698D01*
X60960000Y-100803281D01*
X60854039Y-100644698D01*
X60645302Y-100435961D01*
X60399853Y-100271958D01*
X60127125Y-100158990D01*
X59837599Y-100101400D01*
X59542401Y-100101400D01*
X59252875Y-100158990D01*
X58980147Y-100271958D01*
X58734698Y-100435961D01*
X58525961Y-100644698D01*
X58420000Y-100803281D01*
X58314039Y-100644698D01*
X58105302Y-100435961D01*
X57859853Y-100271958D01*
X57587125Y-100158990D01*
X57297599Y-100101400D01*
X57002401Y-100101400D01*
X56712875Y-100158990D01*
X56440147Y-100271958D01*
X56194698Y-100435961D01*
X55985961Y-100644698D01*
X55880000Y-100803281D01*
X55774039Y-100644698D01*
X55565302Y-100435961D01*
X55319853Y-100271958D01*
X55047125Y-100158990D01*
X54757599Y-100101400D01*
X54462401Y-100101400D01*
X54172875Y-100158990D01*
X53900147Y-100271958D01*
X53654698Y-100435961D01*
X53445961Y-100644698D01*
X53281958Y-100890147D01*
X53168990Y-101162875D01*
X53111400Y-101452401D01*
X53111400Y-101747599D01*
X53168990Y-102037125D01*
X53281958Y-102309853D01*
X53445961Y-102555302D01*
X53654698Y-102764039D01*
X53900147Y-102928042D01*
X54172875Y-103041010D01*
X54462401Y-103098600D01*
X54757599Y-103098600D01*
X55047125Y-103041010D01*
X55319853Y-102928042D01*
X55565302Y-102764039D01*
X55774039Y-102555302D01*
X55880000Y-102396719D01*
X55985961Y-102555302D01*
X56194698Y-102764039D01*
X56440147Y-102928042D01*
X56712875Y-103041010D01*
X57002401Y-103098600D01*
X57297599Y-103098600D01*
X57587125Y-103041010D01*
X57859853Y-102928042D01*
X58105302Y-102764039D01*
X58314039Y-102555302D01*
X58420000Y-102396719D01*
X58525961Y-102555302D01*
X58687419Y-102716760D01*
X51627709Y-109776191D01*
X51598699Y-109799999D01*
X51539873Y-109871679D01*
X51503735Y-109915712D01*
X51503732Y-109915718D01*
X51503726Y-109915725D01*
X51462777Y-109992334D01*
X51433160Y-110047740D01*
X51433158Y-110047746D01*
X51433154Y-110047754D01*
X51400081Y-110156784D01*
X51389701Y-110191000D01*
X51389701Y-110191003D01*
X51389697Y-110191015D01*
X51378700Y-110302667D01*
X51375024Y-110339985D01*
X51378700Y-110377315D01*
X51378701Y-123690697D01*
X51375024Y-123728060D01*
X51382827Y-123807225D01*
X51389698Y-123876986D01*
X51389706Y-123877011D01*
X51389709Y-123877045D01*
X51410970Y-123947113D01*
X51433155Y-124020247D01*
X51433170Y-124020274D01*
X51433178Y-124020302D01*
X51466541Y-124082707D01*
X51503727Y-124152276D01*
X51503745Y-124152298D01*
X51503760Y-124152326D01*
X51551598Y-124210607D01*
X51598700Y-124268001D01*
X51627723Y-124291819D01*
X54089321Y-126753027D01*
X54113099Y-126782001D01*
X54142119Y-126805817D01*
X54142142Y-126805840D01*
X54173780Y-126831800D01*
X54228824Y-126876974D01*
X54228849Y-126876987D01*
X54228874Y-126877008D01*
X54296476Y-126913135D01*
X54360853Y-126947546D01*
X54360883Y-126947555D01*
X54360909Y-126947569D01*
X54427635Y-126967804D01*
X54504114Y-126991003D01*
X54504148Y-126991006D01*
X54504173Y-126991014D01*
X54567934Y-126997289D01*
X54615767Y-127002000D01*
X54615807Y-127002000D01*
X54653160Y-127005676D01*
X54690454Y-127002000D01*
X110563678Y-127002000D01*
X110601000Y-127005676D01*
X110638322Y-127002000D01*
X110638333Y-127002000D01*
X110749986Y-126991003D01*
X110893247Y-126947546D01*
X111025276Y-126876974D01*
X111141001Y-126782001D01*
X111164804Y-126752997D01*
X113677929Y-124239872D01*
X122225000Y-124239872D01*
X122225000Y-124680128D01*
X122310890Y-125111925D01*
X122479369Y-125518669D01*
X122723962Y-125884729D01*
X123035271Y-126196038D01*
X123401331Y-126440631D01*
X123808075Y-126609110D01*
X124239872Y-126695000D01*
X124680128Y-126695000D01*
X125111925Y-126609110D01*
X125518669Y-126440631D01*
X125884729Y-126196038D01*
X126196038Y-125884729D01*
X126440631Y-125518669D01*
X126609110Y-125111925D01*
X126695000Y-124680128D01*
X126695000Y-124239872D01*
X126609110Y-123808075D01*
X126440631Y-123401331D01*
X126196038Y-123035271D01*
X125884729Y-122723962D01*
X125518669Y-122479369D01*
X125111925Y-122310890D01*
X124680128Y-122225000D01*
X124239872Y-122225000D01*
X123808075Y-122310890D01*
X123401331Y-122479369D01*
X123035271Y-122723962D01*
X122723962Y-123035271D01*
X122479369Y-123401331D01*
X122310890Y-123808075D01*
X122225000Y-124239872D01*
X113677929Y-124239872D01*
X122345802Y-115572000D01*
X122898744Y-115572000D01*
X122831675Y-115733919D01*
X122765000Y-116069117D01*
X122765000Y-116410883D01*
X122831675Y-116746081D01*
X122962463Y-117061831D01*
X123152337Y-117345998D01*
X123394002Y-117587663D01*
X123678169Y-117777537D01*
X123993919Y-117908325D01*
X124329117Y-117975000D01*
X124670883Y-117975000D01*
X125006081Y-117908325D01*
X125321831Y-117777537D01*
X125605998Y-117587663D01*
X125847663Y-117345998D01*
X126037537Y-117061831D01*
X126168325Y-116746081D01*
X126235000Y-116410883D01*
X126235000Y-116264838D01*
X126296589Y-116305990D01*
X126566842Y-116417932D01*
X126853740Y-116475000D01*
X127146260Y-116475000D01*
X127433158Y-116417932D01*
X127703411Y-116305990D01*
X127946632Y-116143475D01*
X128153475Y-115936632D01*
X128315990Y-115693411D01*
X128427932Y-115423158D01*
X128485000Y-115136260D01*
X128485000Y-114843740D01*
X128427932Y-114556842D01*
X128315990Y-114286589D01*
X128153475Y-114043368D01*
X127946632Y-113836525D01*
X127703411Y-113674010D01*
X127433158Y-113562068D01*
X127146260Y-113505000D01*
X126853740Y-113505000D01*
X126566842Y-113562068D01*
X126296589Y-113674010D01*
X126053368Y-113836525D01*
X125846525Y-114043368D01*
X125840757Y-114052000D01*
X122068322Y-114052000D01*
X122030999Y-114048324D01*
X121993677Y-114052000D01*
X121993667Y-114052000D01*
X121882014Y-114062997D01*
X121738753Y-114106454D01*
X121606723Y-114177026D01*
X121523083Y-114245668D01*
X121490999Y-114271999D01*
X121467201Y-114300997D01*
X110286199Y-125482000D01*
X105119765Y-125482000D01*
X126934000Y-103666835D01*
X126934000Y-109005000D01*
X126853740Y-109005000D01*
X126566842Y-109062068D01*
X126296589Y-109174010D01*
X126235000Y-109215162D01*
X126235000Y-109069117D01*
X126168325Y-108733919D01*
X126037537Y-108418169D01*
X125847663Y-108134002D01*
X125605998Y-107892337D01*
X125321831Y-107702463D01*
X125006081Y-107571675D01*
X124670883Y-107505000D01*
X124329117Y-107505000D01*
X123993919Y-107571675D01*
X123678169Y-107702463D01*
X123394002Y-107892337D01*
X123152337Y-108134002D01*
X122962463Y-108418169D01*
X122831675Y-108733919D01*
X122765000Y-109069117D01*
X122765000Y-109410883D01*
X122831675Y-109746081D01*
X122962463Y-110061831D01*
X123152337Y-110345998D01*
X123394002Y-110587663D01*
X123678169Y-110777537D01*
X123993919Y-110908325D01*
X124329117Y-110975000D01*
X124670883Y-110975000D01*
X125006081Y-110908325D01*
X125321831Y-110777537D01*
X125517143Y-110647034D01*
X125572068Y-110923158D01*
X125684010Y-111193411D01*
X125846525Y-111436632D01*
X126053368Y-111643475D01*
X126296589Y-111805990D01*
X126566842Y-111917932D01*
X126853740Y-111975000D01*
X127146260Y-111975000D01*
X127433158Y-111917932D01*
X127703411Y-111805990D01*
X127946632Y-111643475D01*
X128153475Y-111436632D01*
X128315990Y-111193411D01*
X128427932Y-110923158D01*
X128485000Y-110636260D01*
X128485000Y-110343740D01*
X128427932Y-110056842D01*
X128417045Y-110030559D01*
X128443003Y-109944986D01*
X128454000Y-109833333D01*
X128454000Y-109833324D01*
X128457676Y-109796001D01*
X128454000Y-109758678D01*
X128454000Y-58671800D01*
X128457676Y-58634452D01*
X128451223Y-58568973D01*
X128443003Y-58485514D01*
X128442995Y-58485488D01*
X128442993Y-58485467D01*
X128422226Y-58417021D01*
X128399546Y-58342253D01*
X128399535Y-58342233D01*
X128399528Y-58342209D01*
X128364556Y-58276792D01*
X128328974Y-58210224D01*
X128328958Y-58210204D01*
X128328947Y-58210184D01*
X128283535Y-58154857D01*
X128234001Y-58094499D01*
X128204983Y-58070685D01*
X124384114Y-54250291D01*
X124518042Y-54049853D01*
X124631010Y-53777125D01*
X124688600Y-53487599D01*
X124688600Y-53192401D01*
X124631010Y-52902875D01*
X124518042Y-52630147D01*
X124354039Y-52384698D01*
X124145302Y-52175961D01*
X123899853Y-52011958D01*
X123627125Y-51898990D01*
X123337599Y-51841400D01*
X123042401Y-51841400D01*
X122752875Y-51898990D01*
X122480147Y-52011958D01*
X122269623Y-52152625D01*
X111925000Y-41808191D01*
X111925000Y-41768665D01*
X116675000Y-41768665D01*
X116675000Y-42051335D01*
X116730147Y-42328574D01*
X116838320Y-42589727D01*
X116995363Y-42824759D01*
X117195241Y-43024637D01*
X117430273Y-43181680D01*
X117691426Y-43289853D01*
X117968665Y-43345000D01*
X118251335Y-43345000D01*
X118528574Y-43289853D01*
X118789727Y-43181680D01*
X119024759Y-43024637D01*
X119224637Y-42824759D01*
X119328043Y-42670000D01*
X120381928Y-42670000D01*
X120381928Y-42810000D01*
X120394188Y-42934482D01*
X120430498Y-43054180D01*
X120489463Y-43164494D01*
X120568815Y-43261185D01*
X120665506Y-43340537D01*
X120775820Y-43399502D01*
X120895518Y-43435812D01*
X121020000Y-43448072D01*
X122820000Y-43448072D01*
X122944482Y-43435812D01*
X123064180Y-43399502D01*
X123174494Y-43340537D01*
X123271185Y-43261185D01*
X123350537Y-43164494D01*
X123409502Y-43054180D01*
X123445812Y-42934482D01*
X123458072Y-42810000D01*
X123458072Y-41010000D01*
X123445812Y-40885518D01*
X123409502Y-40765820D01*
X123350537Y-40655506D01*
X123271185Y-40558815D01*
X123174494Y-40479463D01*
X123064180Y-40420498D01*
X123045873Y-40414944D01*
X123112312Y-40348505D01*
X123280299Y-40097095D01*
X123396011Y-39817743D01*
X123455000Y-39521184D01*
X123455000Y-39218816D01*
X123396011Y-38922257D01*
X123280299Y-38642905D01*
X123112312Y-38391495D01*
X122898505Y-38177688D01*
X122647095Y-38009701D01*
X122367743Y-37893989D01*
X122071184Y-37835000D01*
X121768816Y-37835000D01*
X121472257Y-37893989D01*
X121192905Y-38009701D01*
X120941495Y-38177688D01*
X120727688Y-38391495D01*
X120559701Y-38642905D01*
X120443989Y-38922257D01*
X120385000Y-39218816D01*
X120385000Y-39521184D01*
X120443989Y-39817743D01*
X120559701Y-40097095D01*
X120727688Y-40348505D01*
X120794127Y-40414944D01*
X120775820Y-40420498D01*
X120665506Y-40479463D01*
X120568815Y-40558815D01*
X120489463Y-40655506D01*
X120430498Y-40765820D01*
X120394188Y-40885518D01*
X120381928Y-41010000D01*
X120381928Y-41150000D01*
X119328043Y-41150000D01*
X119224637Y-40995241D01*
X119024759Y-40795363D01*
X118789727Y-40638320D01*
X118528574Y-40530147D01*
X118251335Y-40475000D01*
X117968665Y-40475000D01*
X117691426Y-40530147D01*
X117430273Y-40638320D01*
X117195241Y-40795363D01*
X116995363Y-40995241D01*
X116838320Y-41230273D01*
X116730147Y-41491426D01*
X116675000Y-41768665D01*
X111925000Y-41768665D01*
X111869853Y-41491426D01*
X111761680Y-41230273D01*
X111604637Y-40995241D01*
X111404759Y-40795363D01*
X111250000Y-40691957D01*
X111250000Y-38966426D01*
X111253676Y-38929104D01*
X111250000Y-38891779D01*
X111250000Y-38891767D01*
X111239003Y-38780114D01*
X111195546Y-38636853D01*
X111124974Y-38504824D01*
X111063265Y-38429631D01*
X111053802Y-38418100D01*
X111053799Y-38418097D01*
X111030001Y-38389099D01*
X111001006Y-38365303D01*
X102895655Y-30259872D01*
X122225000Y-30259872D01*
X122225000Y-30700128D01*
X122310890Y-31131925D01*
X122479369Y-31538669D01*
X122723962Y-31904729D01*
X123035271Y-32216038D01*
X123401331Y-32460631D01*
X123808075Y-32629110D01*
X124239872Y-32715000D01*
X124680128Y-32715000D01*
X125111925Y-32629110D01*
X125518669Y-32460631D01*
X125884729Y-32216038D01*
X126196038Y-31904729D01*
X126440631Y-31538669D01*
X126609110Y-31131925D01*
X126695000Y-30700128D01*
X126695000Y-30259872D01*
X126609110Y-29828075D01*
X126440631Y-29421331D01*
X126196038Y-29055271D01*
X125884729Y-28743962D01*
X125518669Y-28499369D01*
X125111925Y-28330890D01*
X124680128Y-28245000D01*
X124239872Y-28245000D01*
X123808075Y-28330890D01*
X123401331Y-28499369D01*
X123035271Y-28743962D01*
X122723962Y-29055271D01*
X122479369Y-29421331D01*
X122310890Y-29828075D01*
X122225000Y-30259872D01*
X102895655Y-30259872D01*
X100897802Y-28262000D01*
X100874001Y-28232999D01*
X100803147Y-28174851D01*
X100758279Y-28138028D01*
X100758277Y-28138027D01*
X100758276Y-28138026D01*
X100626247Y-28067454D01*
X100482986Y-28023997D01*
X100371333Y-28013000D01*
X100371326Y-28013000D01*
X100334003Y-28009324D01*
X100296678Y-28013000D01*
X52112022Y-28013000D01*
X52074699Y-28009324D01*
X52037376Y-28013000D01*
X52037367Y-28013000D01*
X51925714Y-28023997D01*
X51782453Y-28067454D01*
X51650424Y-28138026D01*
X51650422Y-28138027D01*
X51650423Y-28138027D01*
X51563696Y-28209201D01*
X51563692Y-28209205D01*
X51534699Y-28232999D01*
X51510905Y-28261992D01*
X47749003Y-32023896D01*
X47719999Y-32047699D01*
X47679830Y-32096646D01*
X47625026Y-32163424D01*
X47598219Y-32213576D01*
X47554454Y-32295454D01*
X47510997Y-32438715D01*
X47500000Y-32550368D01*
X47500000Y-32550378D01*
X47496324Y-32587700D01*
X47500000Y-32625023D01*
X47500000Y-34344656D01*
X47201331Y-34468369D01*
X46835271Y-34712962D01*
X46523962Y-35024271D01*
X46279369Y-35390331D01*
X46110890Y-35797075D01*
X46025000Y-36228872D01*
X46025000Y-36669128D01*
X46110890Y-37100925D01*
X46279369Y-37507669D01*
X46523962Y-37873729D01*
X46835271Y-38185038D01*
X47201331Y-38429631D01*
X47608075Y-38598110D01*
X48039872Y-38684000D01*
X48480128Y-38684000D01*
X48911925Y-38598110D01*
X49318669Y-38429631D01*
X49479701Y-38322033D01*
X49479701Y-39234496D01*
X44130595Y-44583603D01*
X43831925Y-44459890D01*
X43400128Y-44374000D01*
X42959872Y-44374000D01*
X42528075Y-44459890D01*
X42121331Y-44628369D01*
X41755271Y-44872962D01*
X41443962Y-45184271D01*
X41199369Y-45550331D01*
X41030890Y-45957075D01*
X40945000Y-46388872D01*
X40945000Y-46829128D01*
X41030890Y-47260925D01*
X41199369Y-47667669D01*
X41443962Y-48033729D01*
X41755271Y-48345038D01*
X42121331Y-48589631D01*
X42528075Y-48758110D01*
X42959872Y-48844000D01*
X43400128Y-48844000D01*
X43831925Y-48758110D01*
X44238669Y-48589631D01*
X44604729Y-48345038D01*
X44916038Y-48033729D01*
X45160631Y-47667669D01*
X45329110Y-47260925D01*
X45415000Y-46829128D01*
X45415000Y-46388872D01*
X45329110Y-45957075D01*
X45205397Y-45658405D01*
X49930101Y-40933702D01*
X49930101Y-43864096D01*
X49210595Y-44583603D01*
X48911925Y-44459890D01*
X48480128Y-44374000D01*
X48039872Y-44374000D01*
X47608075Y-44459890D01*
X47201331Y-44628369D01*
X46835271Y-44872962D01*
X46523962Y-45184271D01*
X46279369Y-45550331D01*
X46110890Y-45957075D01*
X46025000Y-46388872D01*
X46025000Y-46829128D01*
X46110890Y-47260925D01*
X46279369Y-47667669D01*
X46523962Y-48033729D01*
X46835271Y-48345038D01*
X47201331Y-48589631D01*
X47608075Y-48758110D01*
X48039872Y-48844000D01*
X48480128Y-48844000D01*
X48911925Y-48758110D01*
X49318669Y-48589631D01*
X49684729Y-48345038D01*
X49996038Y-48033729D01*
X50240631Y-47667669D01*
X50380501Y-47329993D01*
X50380501Y-48701796D01*
X47495003Y-51587296D01*
X47465999Y-51611099D01*
X47410871Y-51678274D01*
X47371026Y-51726824D01*
X47309783Y-51841400D01*
X47300454Y-51858854D01*
X47256997Y-52002115D01*
X47253201Y-52040653D01*
X47050698Y-52175961D01*
X46841961Y-52384698D01*
X46736000Y-52543281D01*
X46630039Y-52384698D01*
X46421302Y-52175961D01*
X46175853Y-52011958D01*
X45903125Y-51898990D01*
X45613599Y-51841400D01*
X45318401Y-51841400D01*
X45028875Y-51898990D01*
X44756147Y-52011958D01*
X44510698Y-52175961D01*
X44301961Y-52384698D01*
X44137958Y-52630147D01*
X44076906Y-52777540D01*
X44059110Y-52688075D01*
X43890631Y-52281331D01*
X43646038Y-51915271D01*
X43334729Y-51603962D01*
X42968669Y-51359369D01*
X42561925Y-51190890D01*
X42130128Y-51105000D01*
X41689872Y-51105000D01*
X41258075Y-51190890D01*
X40851331Y-51359369D01*
X40485271Y-51603962D01*
X40173962Y-51915271D01*
X39929369Y-52281331D01*
X39760890Y-52688075D01*
X39675000Y-53119872D01*
X26110000Y-53119872D01*
X26110000Y-36228872D01*
X40945000Y-36228872D01*
X40945000Y-36669128D01*
X41030890Y-37100925D01*
X41199369Y-37507669D01*
X41443962Y-37873729D01*
X41755271Y-38185038D01*
X42121331Y-38429631D01*
X42528075Y-38598110D01*
X42959872Y-38684000D01*
X43400128Y-38684000D01*
X43831925Y-38598110D01*
X44238669Y-38429631D01*
X44604729Y-38185038D01*
X44916038Y-37873729D01*
X45160631Y-37507669D01*
X45329110Y-37100925D01*
X45415000Y-36669128D01*
X45415000Y-36228872D01*
X45329110Y-35797075D01*
X45160631Y-35390331D01*
X44916038Y-35024271D01*
X44604729Y-34712962D01*
X44238669Y-34468369D01*
X43831925Y-34299890D01*
X43400128Y-34214000D01*
X42959872Y-34214000D01*
X42528075Y-34299890D01*
X42121331Y-34468369D01*
X41755271Y-34712962D01*
X41443962Y-35024271D01*
X41199369Y-35390331D01*
X41030890Y-35797075D01*
X40945000Y-36228872D01*
X26110000Y-36228872D01*
X26110000Y-30511618D01*
X26132467Y-30259872D01*
X28245000Y-30259872D01*
X28245000Y-30700128D01*
X28330890Y-31131925D01*
X28499369Y-31538669D01*
X28743962Y-31904729D01*
X29055271Y-32216038D01*
X29421331Y-32460631D01*
X29828075Y-32629110D01*
X30259872Y-32715000D01*
X30700128Y-32715000D01*
X31131925Y-32629110D01*
X31538669Y-32460631D01*
X31904729Y-32216038D01*
X32216038Y-31904729D01*
X32460631Y-31538669D01*
X32629110Y-31131925D01*
X32715000Y-30700128D01*
X32715000Y-30259872D01*
X32629110Y-29828075D01*
X32460631Y-29421331D01*
X32216038Y-29055271D01*
X31904729Y-28743962D01*
X31538669Y-28499369D01*
X31131925Y-28330890D01*
X30700128Y-28245000D01*
X30259872Y-28245000D01*
X29828075Y-28330890D01*
X29421331Y-28499369D01*
X29055271Y-28743962D01*
X28743962Y-29055271D01*
X28499369Y-29421331D01*
X28330890Y-29828075D01*
X28245000Y-30259872D01*
X26132467Y-30259872D01*
X26181842Y-29706642D01*
X26386723Y-28957723D01*
X26720986Y-28256928D01*
X27174069Y-27626395D01*
X27731645Y-27086066D01*
X28376099Y-26653011D01*
X29087044Y-26340927D01*
X29847493Y-26158360D01*
X30506031Y-26110000D01*
X124428382Y-26110000D01*
X125233358Y-26181842D01*
G36*
X54726525Y-124136632D02*
G01*
X54933368Y-124343475D01*
X55176589Y-124505990D01*
X55446842Y-124617932D01*
X55733740Y-124675000D01*
X56026260Y-124675000D01*
X56313158Y-124617932D01*
X56583411Y-124505990D01*
X56824982Y-124344577D01*
X57962057Y-125482000D01*
X54967867Y-125482000D01*
X54006848Y-124521135D01*
X54043411Y-124505990D01*
X54286632Y-124343475D01*
X54493475Y-124136632D01*
X54610000Y-123962240D01*
X54726525Y-124136632D01*
G37*
X54726525Y-124136632D02*
X54933368Y-124343475D01*
X55176589Y-124505990D01*
X55446842Y-124617932D01*
X55733740Y-124675000D01*
X56026260Y-124675000D01*
X56313158Y-124617932D01*
X56583411Y-124505990D01*
X56824982Y-124344577D01*
X57962057Y-125482000D01*
X54967867Y-125482000D01*
X54006848Y-124521135D01*
X54043411Y-124505990D01*
X54286632Y-124343475D01*
X54493475Y-124136632D01*
X54610000Y-123962240D01*
X54726525Y-124136632D01*
G36*
X62079499Y-124525000D02*
G01*
X61617517Y-124525000D01*
X61663411Y-124505990D01*
X61901442Y-124346943D01*
X62079499Y-124525000D01*
G37*
X62079499Y-124525000D02*
X61617517Y-124525000D01*
X61663411Y-124505990D01*
X61901442Y-124346943D01*
X62079499Y-124525000D01*
G36*
X64842003Y-124070000D02*
G01*
X64697997Y-124070000D01*
X64770000Y-123962240D01*
X64842003Y-124070000D01*
G37*
X64842003Y-124070000D02*
X64697997Y-124070000D01*
X64770000Y-123962240D01*
X64842003Y-124070000D01*
G36*
X103088072Y-124014127D02*
G01*
X103088072Y-122775000D01*
X104327199Y-122775000D01*
X103088072Y-124014127D01*
G37*
X103088072Y-124014127D02*
X103088072Y-122775000D01*
X104327199Y-122775000D01*
X103088072Y-124014127D01*
G36*
X97906525Y-121596632D02*
G01*
X98113368Y-121803475D01*
X98287760Y-121920000D01*
X98113368Y-122036525D01*
X97906525Y-122243368D01*
X97790000Y-122417760D01*
X97673475Y-122243368D01*
X97466632Y-122036525D01*
X97292240Y-121920000D01*
X97466632Y-121803475D01*
X97673475Y-121596632D01*
X97790000Y-121422240D01*
X97906525Y-121596632D01*
G37*
X97906525Y-121596632D02*
X98113368Y-121803475D01*
X98287760Y-121920000D01*
X98113368Y-122036525D01*
X97906525Y-122243368D01*
X97790000Y-122417760D01*
X97673475Y-122243368D01*
X97466632Y-122036525D01*
X97292240Y-121920000D01*
X97466632Y-121803475D01*
X97673475Y-121596632D01*
X97790000Y-121422240D01*
X97906525Y-121596632D01*
G36*
X95747760Y-121920000D02*
G01*
X95573368Y-122036525D01*
X95366525Y-122243368D01*
X95250000Y-122417760D01*
X95160295Y-122283506D01*
X95613507Y-121830295D01*
X95747760Y-121920000D01*
G37*
X95747760Y-121920000D02*
X95573368Y-122036525D01*
X95366525Y-122243368D01*
X95250000Y-122417760D01*
X95160295Y-122283506D01*
X95613507Y-121830295D01*
X95747760Y-121920000D01*
G36*
X80126525Y-121596632D02*
G01*
X80333368Y-121803475D01*
X80507760Y-121920000D01*
X80333368Y-122036525D01*
X80126525Y-122243368D01*
X80010000Y-122417760D01*
X79893475Y-122243368D01*
X79686632Y-122036525D01*
X79512240Y-121920000D01*
X79686632Y-121803475D01*
X79893475Y-121596632D01*
X80010000Y-121422240D01*
X80126525Y-121596632D01*
G37*
X80126525Y-121596632D02*
X80333368Y-121803475D01*
X80507760Y-121920000D01*
X80333368Y-122036525D01*
X80126525Y-122243368D01*
X80010000Y-122417760D01*
X79893475Y-122243368D01*
X79686632Y-122036525D01*
X79512240Y-121920000D01*
X79686632Y-121803475D01*
X79893475Y-121596632D01*
X80010000Y-121422240D01*
X80126525Y-121596632D01*
G36*
X77586525Y-121596632D02*
G01*
X77793368Y-121803475D01*
X77967760Y-121920000D01*
X77793368Y-122036525D01*
X77586525Y-122243368D01*
X77470000Y-122417760D01*
X77353475Y-122243368D01*
X77146632Y-122036525D01*
X76972240Y-121920000D01*
X77146632Y-121803475D01*
X77353475Y-121596632D01*
X77470000Y-121422240D01*
X77586525Y-121596632D01*
G37*
X77586525Y-121596632D02*
X77793368Y-121803475D01*
X77967760Y-121920000D01*
X77793368Y-122036525D01*
X77586525Y-122243368D01*
X77470000Y-122417760D01*
X77353475Y-122243368D01*
X77146632Y-122036525D01*
X76972240Y-121920000D01*
X77146632Y-121803475D01*
X77353475Y-121596632D01*
X77470000Y-121422240D01*
X77586525Y-121596632D01*
G36*
X54726525Y-121596632D02*
G01*
X54933368Y-121803475D01*
X55107760Y-121920000D01*
X54933368Y-122036525D01*
X54726525Y-122243368D01*
X54610000Y-122417760D01*
X54493475Y-122243368D01*
X54286632Y-122036525D01*
X54112240Y-121920000D01*
X54286632Y-121803475D01*
X54493475Y-121596632D01*
X54610000Y-121422240D01*
X54726525Y-121596632D01*
G37*
X54726525Y-121596632D02*
X54933368Y-121803475D01*
X55107760Y-121920000D01*
X54933368Y-122036525D01*
X54726525Y-122243368D01*
X54610000Y-122417760D01*
X54493475Y-122243368D01*
X54286632Y-122036525D01*
X54112240Y-121920000D01*
X54286632Y-121803475D01*
X54493475Y-121596632D01*
X54610000Y-121422240D01*
X54726525Y-121596632D01*
G36*
X59806525Y-121596632D02*
G01*
X60013368Y-121803475D01*
X60187760Y-121920000D01*
X60049272Y-122012534D01*
X59597419Y-121560797D01*
X59690000Y-121422240D01*
X59806525Y-121596632D01*
G37*
X59806525Y-121596632D02*
X60013368Y-121803475D01*
X60187760Y-121920000D01*
X60049272Y-122012534D01*
X59597419Y-121560797D01*
X59690000Y-121422240D01*
X59806525Y-121596632D01*
G36*
X121040890Y-102251925D02*
G01*
X121209369Y-102658669D01*
X121453962Y-103024729D01*
X121765271Y-103336038D01*
X122131331Y-103580631D01*
X122538075Y-103749110D01*
X122665809Y-103774518D01*
X105186188Y-121255000D01*
X102956753Y-121255000D01*
X103027932Y-121083158D01*
X103085000Y-120796260D01*
X103085000Y-120503740D01*
X103027932Y-120216842D01*
X102915990Y-119946589D01*
X102753475Y-119703368D01*
X102546632Y-119496525D01*
X102303411Y-119334010D01*
X102033158Y-119222068D01*
X101907134Y-119197000D01*
X103582680Y-119197000D01*
X103620005Y-119200676D01*
X103657325Y-119197000D01*
X103657333Y-119197000D01*
X103768986Y-119186003D01*
X103912247Y-119142546D01*
X103924466Y-119136015D01*
X103953409Y-119120544D01*
X104044276Y-119071974D01*
X104160001Y-118977001D01*
X104183803Y-118947999D01*
X121014138Y-102117432D01*
X121040890Y-102251925D01*
G37*
X121040890Y-102251925D02*
X121209369Y-102658669D01*
X121453962Y-103024729D01*
X121765271Y-103336038D01*
X122131331Y-103580631D01*
X122538075Y-103749110D01*
X122665809Y-103774518D01*
X105186188Y-121255000D01*
X102956753Y-121255000D01*
X103027932Y-121083158D01*
X103085000Y-120796260D01*
X103085000Y-120503740D01*
X103027932Y-120216842D01*
X102915990Y-119946589D01*
X102753475Y-119703368D01*
X102546632Y-119496525D01*
X102303411Y-119334010D01*
X102033158Y-119222068D01*
X101907134Y-119197000D01*
X103582680Y-119197000D01*
X103620005Y-119200676D01*
X103657325Y-119197000D01*
X103657333Y-119197000D01*
X103768986Y-119186003D01*
X103912247Y-119142546D01*
X103924466Y-119136015D01*
X103953409Y-119120544D01*
X104044276Y-119071974D01*
X104160001Y-118977001D01*
X104183803Y-118947999D01*
X121014138Y-102117432D01*
X121040890Y-102251925D01*
G36*
X98626842Y-119222068D02*
G01*
X98356589Y-119334010D01*
X98113368Y-119496525D01*
X97906525Y-119703368D01*
X97790000Y-119877760D01*
X97673475Y-119703368D01*
X97466632Y-119496525D01*
X97223411Y-119334010D01*
X96953158Y-119222068D01*
X96827134Y-119197000D01*
X98752866Y-119197000D01*
X98626842Y-119222068D01*
G37*
X98626842Y-119222068D02*
X98356589Y-119334010D01*
X98113368Y-119496525D01*
X97906525Y-119703368D01*
X97790000Y-119877760D01*
X97673475Y-119703368D01*
X97466632Y-119496525D01*
X97223411Y-119334010D01*
X96953158Y-119222068D01*
X96827134Y-119197000D01*
X98752866Y-119197000D01*
X98626842Y-119222068D01*
G36*
X83060001Y-119371821D02*
G01*
X82873368Y-119496525D01*
X82666525Y-119703368D01*
X82550000Y-119877760D01*
X82433475Y-119703368D01*
X82226632Y-119496525D01*
X81983411Y-119334010D01*
X81713158Y-119222068D01*
X81426260Y-119165000D01*
X81299793Y-119165000D01*
X83060000Y-117404786D01*
X83060001Y-119371821D01*
G37*
X83060001Y-119371821D02*
X82873368Y-119496525D01*
X82666525Y-119703368D01*
X82550000Y-119877760D01*
X82433475Y-119703368D01*
X82226632Y-119496525D01*
X81983411Y-119334010D01*
X81713158Y-119222068D01*
X81426260Y-119165000D01*
X81299793Y-119165000D01*
X83060000Y-117404786D01*
X83060001Y-119371821D01*
G36*
X99165961Y-102555302D02*
G01*
X99374698Y-102764039D01*
X99620147Y-102928042D01*
X99892875Y-103041010D01*
X100182401Y-103098600D01*
X100477599Y-103098600D01*
X100767125Y-103041010D01*
X101039853Y-102928042D01*
X101285302Y-102764039D01*
X101494039Y-102555302D01*
X101600000Y-102396719D01*
X101705961Y-102555302D01*
X101914698Y-102764039D01*
X102160147Y-102928042D01*
X102432875Y-103041010D01*
X102722401Y-103098600D01*
X103017599Y-103098600D01*
X103307125Y-103041010D01*
X103579853Y-102928042D01*
X103825302Y-102764039D01*
X104034039Y-102555302D01*
X104140000Y-102396719D01*
X104245961Y-102555302D01*
X104454698Y-102764039D01*
X104700147Y-102928042D01*
X104972875Y-103041010D01*
X105262401Y-103098600D01*
X105557599Y-103098600D01*
X105847125Y-103041010D01*
X106119853Y-102928042D01*
X106365302Y-102764039D01*
X106574039Y-102555302D01*
X106680000Y-102396719D01*
X106785961Y-102555302D01*
X106994698Y-102764039D01*
X107240147Y-102928042D01*
X107512875Y-103041010D01*
X107802401Y-103098600D01*
X108097599Y-103098600D01*
X108387125Y-103041010D01*
X108659853Y-102928042D01*
X108905302Y-102764039D01*
X109114039Y-102555302D01*
X109220000Y-102396719D01*
X109325961Y-102555302D01*
X109534698Y-102764039D01*
X109780147Y-102928042D01*
X110052875Y-103041010D01*
X110342401Y-103098600D01*
X110637599Y-103098600D01*
X110927125Y-103041010D01*
X111199853Y-102928042D01*
X111445302Y-102764039D01*
X111654039Y-102555302D01*
X111760000Y-102396719D01*
X111865961Y-102555302D01*
X112074698Y-102764039D01*
X112320147Y-102928042D01*
X112592875Y-103041010D01*
X112882401Y-103098600D01*
X113177599Y-103098600D01*
X113467125Y-103041010D01*
X113739853Y-102928042D01*
X113985302Y-102764039D01*
X114194039Y-102555302D01*
X114300000Y-102396719D01*
X114405961Y-102555302D01*
X114614698Y-102764039D01*
X114860147Y-102928042D01*
X115042870Y-103003729D01*
X114285899Y-103760700D01*
X101361511Y-103760700D01*
X101317574Y-103716763D01*
X101148056Y-103603495D01*
X100959698Y-103525474D01*
X100759739Y-103485700D01*
X100555861Y-103485700D01*
X100355902Y-103525474D01*
X100167544Y-103603495D01*
X99998026Y-103716763D01*
X99853863Y-103860926D01*
X99740595Y-104030444D01*
X99662574Y-104218802D01*
X99622800Y-104418761D01*
X99622800Y-104622639D01*
X99662574Y-104822598D01*
X99740595Y-105010956D01*
X99853863Y-105180474D01*
X99998026Y-105324637D01*
X100167544Y-105437905D01*
X100355902Y-105515926D01*
X100555861Y-105555700D01*
X100759739Y-105555700D01*
X100959698Y-105515926D01*
X101148056Y-105437905D01*
X101317574Y-105324637D01*
X101361511Y-105280700D01*
X114563378Y-105280700D01*
X114600700Y-105284376D01*
X114638022Y-105280700D01*
X114638033Y-105280700D01*
X114749686Y-105269703D01*
X114892947Y-105226246D01*
X115024976Y-105155674D01*
X115140701Y-105060701D01*
X115164504Y-105031697D01*
X117321026Y-102875175D01*
X117400147Y-102928042D01*
X117412222Y-102933044D01*
X103410199Y-116935000D01*
X94432217Y-116935000D01*
X94394886Y-116931324D01*
X94357569Y-116935000D01*
X94357567Y-116935000D01*
X94245914Y-116945997D01*
X94245906Y-116946000D01*
X94245901Y-116946000D01*
X94204986Y-116958412D01*
X94102653Y-116989454D01*
X94102641Y-116989460D01*
X94075296Y-117004077D01*
X93970624Y-117060026D01*
X93970618Y-117060031D01*
X93970612Y-117060034D01*
X93910619Y-117109271D01*
X93854899Y-117154999D01*
X93831097Y-117184002D01*
X91806382Y-119208785D01*
X91586260Y-119165000D01*
X91293740Y-119165000D01*
X91006842Y-119222068D01*
X90736589Y-119334010D01*
X90493368Y-119496525D01*
X90286525Y-119703368D01*
X90170000Y-119877760D01*
X90053475Y-119703368D01*
X89846632Y-119496525D01*
X89603411Y-119334010D01*
X89333158Y-119222068D01*
X89046260Y-119165000D01*
X88753740Y-119165000D01*
X88466842Y-119222068D01*
X88196589Y-119334010D01*
X87953368Y-119496525D01*
X87746525Y-119703368D01*
X87630000Y-119877760D01*
X87513475Y-119703368D01*
X87306632Y-119496525D01*
X87063411Y-119334010D01*
X86793158Y-119222068D01*
X86506260Y-119165000D01*
X86213740Y-119165000D01*
X85926842Y-119222068D01*
X85656589Y-119334010D01*
X85413368Y-119496525D01*
X85206525Y-119703368D01*
X85090000Y-119877760D01*
X84973475Y-119703368D01*
X84766632Y-119496525D01*
X84580000Y-119371822D01*
X84580000Y-116742801D01*
X99006360Y-102316441D01*
X99165961Y-102555302D01*
G37*
X99165961Y-102555302D02*
X99374698Y-102764039D01*
X99620147Y-102928042D01*
X99892875Y-103041010D01*
X100182401Y-103098600D01*
X100477599Y-103098600D01*
X100767125Y-103041010D01*
X101039853Y-102928042D01*
X101285302Y-102764039D01*
X101494039Y-102555302D01*
X101600000Y-102396719D01*
X101705961Y-102555302D01*
X101914698Y-102764039D01*
X102160147Y-102928042D01*
X102432875Y-103041010D01*
X102722401Y-103098600D01*
X103017599Y-103098600D01*
X103307125Y-103041010D01*
X103579853Y-102928042D01*
X103825302Y-102764039D01*
X104034039Y-102555302D01*
X104140000Y-102396719D01*
X104245961Y-102555302D01*
X104454698Y-102764039D01*
X104700147Y-102928042D01*
X104972875Y-103041010D01*
X105262401Y-103098600D01*
X105557599Y-103098600D01*
X105847125Y-103041010D01*
X106119853Y-102928042D01*
X106365302Y-102764039D01*
X106574039Y-102555302D01*
X106680000Y-102396719D01*
X106785961Y-102555302D01*
X106994698Y-102764039D01*
X107240147Y-102928042D01*
X107512875Y-103041010D01*
X107802401Y-103098600D01*
X108097599Y-103098600D01*
X108387125Y-103041010D01*
X108659853Y-102928042D01*
X108905302Y-102764039D01*
X109114039Y-102555302D01*
X109220000Y-102396719D01*
X109325961Y-102555302D01*
X109534698Y-102764039D01*
X109780147Y-102928042D01*
X110052875Y-103041010D01*
X110342401Y-103098600D01*
X110637599Y-103098600D01*
X110927125Y-103041010D01*
X111199853Y-102928042D01*
X111445302Y-102764039D01*
X111654039Y-102555302D01*
X111760000Y-102396719D01*
X111865961Y-102555302D01*
X112074698Y-102764039D01*
X112320147Y-102928042D01*
X112592875Y-103041010D01*
X112882401Y-103098600D01*
X113177599Y-103098600D01*
X113467125Y-103041010D01*
X113739853Y-102928042D01*
X113985302Y-102764039D01*
X114194039Y-102555302D01*
X114300000Y-102396719D01*
X114405961Y-102555302D01*
X114614698Y-102764039D01*
X114860147Y-102928042D01*
X115042870Y-103003729D01*
X114285899Y-103760700D01*
X101361511Y-103760700D01*
X101317574Y-103716763D01*
X101148056Y-103603495D01*
X100959698Y-103525474D01*
X100759739Y-103485700D01*
X100555861Y-103485700D01*
X100355902Y-103525474D01*
X100167544Y-103603495D01*
X99998026Y-103716763D01*
X99853863Y-103860926D01*
X99740595Y-104030444D01*
X99662574Y-104218802D01*
X99622800Y-104418761D01*
X99622800Y-104622639D01*
X99662574Y-104822598D01*
X99740595Y-105010956D01*
X99853863Y-105180474D01*
X99998026Y-105324637D01*
X100167544Y-105437905D01*
X100355902Y-105515926D01*
X100555861Y-105555700D01*
X100759739Y-105555700D01*
X100959698Y-105515926D01*
X101148056Y-105437905D01*
X101317574Y-105324637D01*
X101361511Y-105280700D01*
X114563378Y-105280700D01*
X114600700Y-105284376D01*
X114638022Y-105280700D01*
X114638033Y-105280700D01*
X114749686Y-105269703D01*
X114892947Y-105226246D01*
X115024976Y-105155674D01*
X115140701Y-105060701D01*
X115164504Y-105031697D01*
X117321026Y-102875175D01*
X117400147Y-102928042D01*
X117412222Y-102933044D01*
X103410199Y-116935000D01*
X94432217Y-116935000D01*
X94394886Y-116931324D01*
X94357569Y-116935000D01*
X94357567Y-116935000D01*
X94245914Y-116945997D01*
X94245906Y-116946000D01*
X94245901Y-116946000D01*
X94204986Y-116958412D01*
X94102653Y-116989454D01*
X94102641Y-116989460D01*
X94075296Y-117004077D01*
X93970624Y-117060026D01*
X93970618Y-117060031D01*
X93970612Y-117060034D01*
X93910619Y-117109271D01*
X93854899Y-117154999D01*
X93831097Y-117184002D01*
X91806382Y-119208785D01*
X91586260Y-119165000D01*
X91293740Y-119165000D01*
X91006842Y-119222068D01*
X90736589Y-119334010D01*
X90493368Y-119496525D01*
X90286525Y-119703368D01*
X90170000Y-119877760D01*
X90053475Y-119703368D01*
X89846632Y-119496525D01*
X89603411Y-119334010D01*
X89333158Y-119222068D01*
X89046260Y-119165000D01*
X88753740Y-119165000D01*
X88466842Y-119222068D01*
X88196589Y-119334010D01*
X87953368Y-119496525D01*
X87746525Y-119703368D01*
X87630000Y-119877760D01*
X87513475Y-119703368D01*
X87306632Y-119496525D01*
X87063411Y-119334010D01*
X86793158Y-119222068D01*
X86506260Y-119165000D01*
X86213740Y-119165000D01*
X85926842Y-119222068D01*
X85656589Y-119334010D01*
X85413368Y-119496525D01*
X85206525Y-119703368D01*
X85090000Y-119877760D01*
X84973475Y-119703368D01*
X84766632Y-119496525D01*
X84580000Y-119371822D01*
X84580000Y-116742801D01*
X99006360Y-102316441D01*
X99165961Y-102555302D01*
G36*
X62740001Y-119371821D02*
G01*
X62553368Y-119496525D01*
X62346525Y-119703368D01*
X62230000Y-119877760D01*
X62113475Y-119703368D01*
X61906632Y-119496525D01*
X61663411Y-119334010D01*
X61393158Y-119222068D01*
X61106260Y-119165000D01*
X60813740Y-119165000D01*
X60526842Y-119222068D01*
X60256589Y-119334010D01*
X60013368Y-119496525D01*
X59806525Y-119703368D01*
X59690000Y-119877760D01*
X59573475Y-119703368D01*
X59366632Y-119496525D01*
X59123411Y-119334010D01*
X58853158Y-119222068D01*
X58640613Y-119179790D01*
X62740000Y-115080414D01*
X62740001Y-119371821D01*
G37*
X62740001Y-119371821D02*
X62553368Y-119496525D01*
X62346525Y-119703368D01*
X62230000Y-119877760D01*
X62113475Y-119703368D01*
X61906632Y-119496525D01*
X61663411Y-119334010D01*
X61393158Y-119222068D01*
X61106260Y-119165000D01*
X60813740Y-119165000D01*
X60526842Y-119222068D01*
X60256589Y-119334010D01*
X60013368Y-119496525D01*
X59806525Y-119703368D01*
X59690000Y-119877760D01*
X59573475Y-119703368D01*
X59366632Y-119496525D01*
X59123411Y-119334010D01*
X58853158Y-119222068D01*
X58640613Y-119179790D01*
X62740000Y-115080414D01*
X62740001Y-119371821D01*
G36*
X101166842Y-119222068D02*
G01*
X100896589Y-119334010D01*
X100653368Y-119496525D01*
X100446525Y-119703368D01*
X100330000Y-119877760D01*
X100213475Y-119703368D01*
X100006632Y-119496525D01*
X99763411Y-119334010D01*
X99493158Y-119222068D01*
X99367134Y-119197000D01*
X101292866Y-119197000D01*
X101166842Y-119222068D01*
G37*
X101166842Y-119222068D02*
X100896589Y-119334010D01*
X100653368Y-119496525D01*
X100446525Y-119703368D01*
X100330000Y-119877760D01*
X100213475Y-119703368D01*
X100006632Y-119496525D01*
X99763411Y-119334010D01*
X99493158Y-119222068D01*
X99367134Y-119197000D01*
X101292866Y-119197000D01*
X101166842Y-119222068D01*
G36*
X71225961Y-102555302D02*
G01*
X71434698Y-102764039D01*
X71680147Y-102928042D01*
X71952875Y-103041010D01*
X71986482Y-103047695D01*
X56319297Y-118715000D01*
X55360571Y-118715000D01*
X55323297Y-118711324D01*
X55285925Y-118715000D01*
X55285867Y-118715000D01*
X55241298Y-118719390D01*
X55174309Y-118725979D01*
X55174267Y-118725992D01*
X55174214Y-118725997D01*
X55098772Y-118748882D01*
X55031043Y-118769417D01*
X55031001Y-118769439D01*
X55030953Y-118769454D01*
X54965413Y-118804486D01*
X54899004Y-118839972D01*
X54898965Y-118840004D01*
X54898924Y-118840026D01*
X54841358Y-118887269D01*
X54812269Y-118911136D01*
X54812236Y-118911169D01*
X54783199Y-118934999D01*
X54759430Y-118963961D01*
X54250727Y-119472534D01*
X54043411Y-119334010D01*
X53773158Y-119222068D01*
X53486260Y-119165000D01*
X53193740Y-119165000D01*
X52906842Y-119222068D01*
X52898700Y-119225441D01*
X52898700Y-110654810D01*
X60200997Y-103352804D01*
X60230001Y-103329001D01*
X60288643Y-103257546D01*
X60324965Y-103213289D01*
X60324968Y-103213283D01*
X60324974Y-103213276D01*
X60378212Y-103113677D01*
X60395540Y-103081261D01*
X60395542Y-103081254D01*
X60395546Y-103081247D01*
X60427384Y-102976290D01*
X60439000Y-102938001D01*
X60439001Y-102937993D01*
X60439003Y-102937986D01*
X60442809Y-102899340D01*
X60645302Y-102764039D01*
X60854039Y-102555302D01*
X60960000Y-102396719D01*
X61065961Y-102555302D01*
X61274698Y-102764039D01*
X61520147Y-102928042D01*
X61792875Y-103041010D01*
X62082401Y-103098600D01*
X62377599Y-103098600D01*
X62667125Y-103041010D01*
X62939853Y-102928042D01*
X63185302Y-102764039D01*
X63394039Y-102555302D01*
X63500000Y-102396719D01*
X63605961Y-102555302D01*
X63814698Y-102764039D01*
X64060147Y-102928042D01*
X64332875Y-103041010D01*
X64622401Y-103098600D01*
X64917599Y-103098600D01*
X65207125Y-103041010D01*
X65479853Y-102928042D01*
X65725302Y-102764039D01*
X65934039Y-102555302D01*
X66040000Y-102396719D01*
X66145961Y-102555302D01*
X66354698Y-102764039D01*
X66600147Y-102928042D01*
X66872875Y-103041010D01*
X67162401Y-103098600D01*
X67457599Y-103098600D01*
X67747125Y-103041010D01*
X68019853Y-102928042D01*
X68265302Y-102764039D01*
X68474039Y-102555302D01*
X68580000Y-102396719D01*
X68685961Y-102555302D01*
X68894698Y-102764039D01*
X69140147Y-102928042D01*
X69412875Y-103041010D01*
X69702401Y-103098600D01*
X69997599Y-103098600D01*
X70287125Y-103041010D01*
X70559853Y-102928042D01*
X70805302Y-102764039D01*
X71014039Y-102555302D01*
X71120000Y-102396719D01*
X71225961Y-102555302D01*
G37*
X71225961Y-102555302D02*
X71434698Y-102764039D01*
X71680147Y-102928042D01*
X71952875Y-103041010D01*
X71986482Y-103047695D01*
X56319297Y-118715000D01*
X55360571Y-118715000D01*
X55323297Y-118711324D01*
X55285925Y-118715000D01*
X55285867Y-118715000D01*
X55241298Y-118719390D01*
X55174309Y-118725979D01*
X55174267Y-118725992D01*
X55174214Y-118725997D01*
X55098772Y-118748882D01*
X55031043Y-118769417D01*
X55031001Y-118769439D01*
X55030953Y-118769454D01*
X54965413Y-118804486D01*
X54899004Y-118839972D01*
X54898965Y-118840004D01*
X54898924Y-118840026D01*
X54841358Y-118887269D01*
X54812269Y-118911136D01*
X54812236Y-118911169D01*
X54783199Y-118934999D01*
X54759430Y-118963961D01*
X54250727Y-119472534D01*
X54043411Y-119334010D01*
X53773158Y-119222068D01*
X53486260Y-119165000D01*
X53193740Y-119165000D01*
X52906842Y-119222068D01*
X52898700Y-119225441D01*
X52898700Y-110654810D01*
X60200997Y-103352804D01*
X60230001Y-103329001D01*
X60288643Y-103257546D01*
X60324965Y-103213289D01*
X60324968Y-103213283D01*
X60324974Y-103213276D01*
X60378212Y-103113677D01*
X60395540Y-103081261D01*
X60395542Y-103081254D01*
X60395546Y-103081247D01*
X60427384Y-102976290D01*
X60439000Y-102938001D01*
X60439001Y-102937993D01*
X60439003Y-102937986D01*
X60442809Y-102899340D01*
X60645302Y-102764039D01*
X60854039Y-102555302D01*
X60960000Y-102396719D01*
X61065961Y-102555302D01*
X61274698Y-102764039D01*
X61520147Y-102928042D01*
X61792875Y-103041010D01*
X62082401Y-103098600D01*
X62377599Y-103098600D01*
X62667125Y-103041010D01*
X62939853Y-102928042D01*
X63185302Y-102764039D01*
X63394039Y-102555302D01*
X63500000Y-102396719D01*
X63605961Y-102555302D01*
X63814698Y-102764039D01*
X64060147Y-102928042D01*
X64332875Y-103041010D01*
X64622401Y-103098600D01*
X64917599Y-103098600D01*
X65207125Y-103041010D01*
X65479853Y-102928042D01*
X65725302Y-102764039D01*
X65934039Y-102555302D01*
X66040000Y-102396719D01*
X66145961Y-102555302D01*
X66354698Y-102764039D01*
X66600147Y-102928042D01*
X66872875Y-103041010D01*
X67162401Y-103098600D01*
X67457599Y-103098600D01*
X67747125Y-103041010D01*
X68019853Y-102928042D01*
X68265302Y-102764039D01*
X68474039Y-102555302D01*
X68580000Y-102396719D01*
X68685961Y-102555302D01*
X68894698Y-102764039D01*
X69140147Y-102928042D01*
X69412875Y-103041010D01*
X69702401Y-103098600D01*
X69997599Y-103098600D01*
X70287125Y-103041010D01*
X70559853Y-102928042D01*
X70805302Y-102764039D01*
X71014039Y-102555302D01*
X71120000Y-102396719D01*
X71225961Y-102555302D01*
G36*
X76992623Y-119393619D02*
G01*
X76903411Y-119334010D01*
X76633158Y-119222068D01*
X76346260Y-119165000D01*
X76219854Y-119165000D01*
X89606197Y-105779000D01*
X90607524Y-105779000D01*
X76992623Y-119393619D01*
G37*
X76992623Y-119393619D02*
X76903411Y-119334010D01*
X76633158Y-119222068D01*
X76346260Y-119165000D01*
X76219854Y-119165000D01*
X89606197Y-105779000D01*
X90607524Y-105779000D01*
X76992623Y-119393619D01*
G36*
X84380147Y-102928042D02*
G01*
X84387919Y-102931261D01*
X69254796Y-118064203D01*
X69225800Y-118087999D01*
X69202006Y-118116992D01*
X69202004Y-118116994D01*
X69130829Y-118203721D01*
X69060256Y-118335750D01*
X69027419Y-118444002D01*
X69016798Y-118479014D01*
X69012660Y-118521026D01*
X69002124Y-118627996D01*
X69005801Y-118665331D01*
X69005801Y-119220605D01*
X68726260Y-119165000D01*
X68433740Y-119165000D01*
X68146842Y-119222068D01*
X67975300Y-119293123D01*
X67975300Y-118991797D01*
X84175502Y-102791303D01*
X84380147Y-102928042D01*
G37*
X84380147Y-102928042D02*
X84387919Y-102931261D01*
X69254796Y-118064203D01*
X69225800Y-118087999D01*
X69202006Y-118116992D01*
X69202004Y-118116994D01*
X69130829Y-118203721D01*
X69060256Y-118335750D01*
X69027419Y-118444002D01*
X69016798Y-118479014D01*
X69012660Y-118521026D01*
X69002124Y-118627996D01*
X69005801Y-118665331D01*
X69005801Y-119220605D01*
X68726260Y-119165000D01*
X68433740Y-119165000D01*
X68146842Y-119222068D01*
X67975300Y-119293123D01*
X67975300Y-118991797D01*
X84175502Y-102791303D01*
X84380147Y-102928042D01*
G36*
X94834051Y-118721157D02*
G01*
X94804999Y-118744999D01*
X94758084Y-118802166D01*
X94710101Y-118860612D01*
X94710068Y-118860674D01*
X94710026Y-118860725D01*
X94675062Y-118926137D01*
X94639506Y-118992629D01*
X94639487Y-118992693D01*
X94639454Y-118992754D01*
X94617180Y-119066183D01*
X94596024Y-119135882D01*
X94596018Y-119135947D01*
X94595997Y-119136015D01*
X94588245Y-119214717D01*
X94581324Y-119284865D01*
X94582027Y-119292016D01*
X94413158Y-119222068D01*
X94126260Y-119165000D01*
X93999733Y-119165000D01*
X94709709Y-118455000D01*
X95100302Y-118455000D01*
X94834051Y-118721157D01*
G37*
X94834051Y-118721157D02*
X94804999Y-118744999D01*
X94758084Y-118802166D01*
X94710101Y-118860612D01*
X94710068Y-118860674D01*
X94710026Y-118860725D01*
X94675062Y-118926137D01*
X94639506Y-118992629D01*
X94639487Y-118992693D01*
X94639454Y-118992754D01*
X94617180Y-119066183D01*
X94596024Y-119135882D01*
X94596018Y-119135947D01*
X94595997Y-119136015D01*
X94588245Y-119214717D01*
X94581324Y-119284865D01*
X94582027Y-119292016D01*
X94413158Y-119222068D01*
X94126260Y-119165000D01*
X93999733Y-119165000D01*
X94709709Y-118455000D01*
X95100302Y-118455000D01*
X94834051Y-118721157D01*
G36*
X66466296Y-118528021D02*
G01*
X66451624Y-118677006D01*
X66455301Y-118714336D01*
X66455301Y-119218516D01*
X66186260Y-119165000D01*
X65893740Y-119165000D01*
X65703226Y-119202896D01*
X66504682Y-118401473D01*
X66466296Y-118528021D01*
G37*
X66466296Y-118528021D02*
X66451624Y-118677006D01*
X66455301Y-118714336D01*
X66455301Y-119218516D01*
X66186260Y-119165000D01*
X65893740Y-119165000D01*
X65703226Y-119202896D01*
X66504682Y-118401473D01*
X66466296Y-118528021D01*
G36*
X89460147Y-102928042D02*
G01*
X89471455Y-102932726D01*
X73751002Y-118653000D01*
X73194811Y-118653000D01*
X73157373Y-118649324D01*
X73085744Y-118656400D01*
X73008614Y-118663997D01*
X73008502Y-118664031D01*
X73008391Y-118664042D01*
X72937785Y-118685482D01*
X72868217Y-118706585D01*
X72923611Y-118651190D01*
X89246366Y-102785198D01*
X89460147Y-102928042D01*
G37*
X89460147Y-102928042D02*
X89471455Y-102932726D01*
X73751002Y-118653000D01*
X73194811Y-118653000D01*
X73157373Y-118649324D01*
X73085744Y-118656400D01*
X73008614Y-118663997D01*
X73008502Y-118664031D01*
X73008391Y-118664042D01*
X72937785Y-118685482D01*
X72868217Y-118706585D01*
X72923611Y-118651190D01*
X89246366Y-102785198D01*
X89460147Y-102928042D01*
G36*
X76305961Y-102555302D02*
G01*
X76514698Y-102764039D01*
X76760147Y-102928042D01*
X77032875Y-103041010D01*
X77322401Y-103098600D01*
X77617599Y-103098600D01*
X77907125Y-103041010D01*
X78179853Y-102928042D01*
X78425302Y-102764039D01*
X78634039Y-102555302D01*
X78740000Y-102396719D01*
X78845961Y-102555302D01*
X79054698Y-102764039D01*
X79300147Y-102928042D01*
X79572875Y-103041010D01*
X79692374Y-103064780D01*
X64260000Y-118496504D01*
X64260000Y-114197799D01*
X76144294Y-102313349D01*
X76305961Y-102555302D01*
G37*
X76305961Y-102555302D02*
X76514698Y-102764039D01*
X76760147Y-102928042D01*
X77032875Y-103041010D01*
X77322401Y-103098600D01*
X77617599Y-103098600D01*
X77907125Y-103041010D01*
X78179853Y-102928042D01*
X78425302Y-102764039D01*
X78634039Y-102555302D01*
X78740000Y-102396719D01*
X78845961Y-102555302D01*
X79054698Y-102764039D01*
X79300147Y-102928042D01*
X79572875Y-103041010D01*
X79692374Y-103064780D01*
X64260000Y-118496504D01*
X64260000Y-114197799D01*
X76144294Y-102313349D01*
X76305961Y-102555302D01*
G36*
X86919256Y-102927446D02*
G01*
X73408788Y-116059851D01*
X86692720Y-102776081D01*
X86919256Y-102927446D01*
G37*
X86919256Y-102927446D02*
X73408788Y-116059851D01*
X86692720Y-102776081D01*
X86919256Y-102927446D01*
G36*
X92000147Y-102928042D02*
G01*
X92045610Y-102946874D01*
X90733753Y-104259000D01*
X90294782Y-104259000D01*
X91775716Y-102778083D01*
X92000147Y-102928042D01*
G37*
X92000147Y-102928042D02*
X92045610Y-102946874D01*
X90733753Y-104259000D01*
X90294782Y-104259000D01*
X91775716Y-102778083D01*
X92000147Y-102928042D01*
G36*
X117350000Y-93028929D02*
G01*
X117350000Y-93161730D01*
X117346324Y-93199004D01*
X117350000Y-93236375D01*
X117350000Y-93236432D01*
X117354144Y-93278502D01*
X117360979Y-93347990D01*
X117360992Y-93348032D01*
X117360997Y-93348085D01*
X117383882Y-93423527D01*
X117404417Y-93491256D01*
X117404439Y-93491298D01*
X117404454Y-93491346D01*
X117439909Y-93557676D01*
X117474973Y-93623295D01*
X117475002Y-93623331D01*
X117475026Y-93623375D01*
X117523022Y-93681859D01*
X117546136Y-93710031D01*
X117546170Y-93710065D01*
X117569999Y-93739101D01*
X117598961Y-93762870D01*
X119451658Y-95616037D01*
X119321958Y-95810147D01*
X119208990Y-96082875D01*
X119151400Y-96372401D01*
X119151400Y-96667599D01*
X119208990Y-96957125D01*
X119321958Y-97229853D01*
X119485961Y-97475302D01*
X119694698Y-97684039D01*
X119940147Y-97848042D01*
X120212875Y-97961010D01*
X120502401Y-98018600D01*
X120797599Y-98018600D01*
X121087125Y-97961010D01*
X121359853Y-97848042D01*
X121605302Y-97684039D01*
X121814039Y-97475302D01*
X121920000Y-97316719D01*
X122025961Y-97475302D01*
X122234698Y-97684039D01*
X122480147Y-97848042D01*
X122492239Y-97853051D01*
X119443046Y-100902229D01*
X119438042Y-100890147D01*
X119274039Y-100644698D01*
X119065302Y-100435961D01*
X118819853Y-100271958D01*
X118547125Y-100158990D01*
X118257599Y-100101400D01*
X117962401Y-100101400D01*
X117672875Y-100158990D01*
X117400147Y-100271958D01*
X117154698Y-100435961D01*
X116945961Y-100644698D01*
X116840000Y-100803281D01*
X116734039Y-100644698D01*
X116525302Y-100435961D01*
X116330000Y-100305465D01*
X116330000Y-93170723D01*
X116333676Y-93133400D01*
X116330000Y-93096077D01*
X116330000Y-93096067D01*
X116319003Y-92984414D01*
X116275546Y-92841153D01*
X116265406Y-92822183D01*
X116204974Y-92709123D01*
X116133799Y-92622397D01*
X116110001Y-92593399D01*
X116081003Y-92569601D01*
X94940801Y-71429400D01*
X95347109Y-71429400D01*
X117350000Y-93028929D01*
G37*
X117350000Y-93028929D02*
X117350000Y-93161730D01*
X117346324Y-93199004D01*
X117350000Y-93236375D01*
X117350000Y-93236432D01*
X117354144Y-93278502D01*
X117360979Y-93347990D01*
X117360992Y-93348032D01*
X117360997Y-93348085D01*
X117383882Y-93423527D01*
X117404417Y-93491256D01*
X117404439Y-93491298D01*
X117404454Y-93491346D01*
X117439909Y-93557676D01*
X117474973Y-93623295D01*
X117475002Y-93623331D01*
X117475026Y-93623375D01*
X117523022Y-93681859D01*
X117546136Y-93710031D01*
X117546170Y-93710065D01*
X117569999Y-93739101D01*
X117598961Y-93762870D01*
X119451658Y-95616037D01*
X119321958Y-95810147D01*
X119208990Y-96082875D01*
X119151400Y-96372401D01*
X119151400Y-96667599D01*
X119208990Y-96957125D01*
X119321958Y-97229853D01*
X119485961Y-97475302D01*
X119694698Y-97684039D01*
X119940147Y-97848042D01*
X120212875Y-97961010D01*
X120502401Y-98018600D01*
X120797599Y-98018600D01*
X121087125Y-97961010D01*
X121359853Y-97848042D01*
X121605302Y-97684039D01*
X121814039Y-97475302D01*
X121920000Y-97316719D01*
X122025961Y-97475302D01*
X122234698Y-97684039D01*
X122480147Y-97848042D01*
X122492239Y-97853051D01*
X119443046Y-100902229D01*
X119438042Y-100890147D01*
X119274039Y-100644698D01*
X119065302Y-100435961D01*
X118819853Y-100271958D01*
X118547125Y-100158990D01*
X118257599Y-100101400D01*
X117962401Y-100101400D01*
X117672875Y-100158990D01*
X117400147Y-100271958D01*
X117154698Y-100435961D01*
X116945961Y-100644698D01*
X116840000Y-100803281D01*
X116734039Y-100644698D01*
X116525302Y-100435961D01*
X116330000Y-100305465D01*
X116330000Y-93170723D01*
X116333676Y-93133400D01*
X116330000Y-93096077D01*
X116330000Y-93096067D01*
X116319003Y-92984414D01*
X116275546Y-92841153D01*
X116265406Y-92822183D01*
X116204974Y-92709123D01*
X116133799Y-92622397D01*
X116110001Y-92593399D01*
X116081003Y-92569601D01*
X94940801Y-71429400D01*
X95347109Y-71429400D01*
X117350000Y-93028929D01*
G36*
X109730001Y-89688804D02*
G01*
X109730000Y-100305465D01*
X109534698Y-100435961D01*
X109325961Y-100644698D01*
X109220000Y-100803281D01*
X109114039Y-100644698D01*
X108905302Y-100435961D01*
X108710000Y-100305465D01*
X108710000Y-88668803D01*
X109730001Y-89688804D01*
G37*
X109730001Y-89688804D02*
X109730000Y-100305465D01*
X109534698Y-100435961D01*
X109325961Y-100644698D01*
X109220000Y-100803281D01*
X109114039Y-100644698D01*
X108905302Y-100435961D01*
X108710000Y-100305465D01*
X108710000Y-88668803D01*
X109730001Y-89688804D01*
G36*
X107190000Y-100305465D02*
G01*
X106994698Y-100435961D01*
X106785961Y-100644698D01*
X106680000Y-100803281D01*
X106574039Y-100644698D01*
X106412639Y-100483298D01*
X107190000Y-99706162D01*
X107190000Y-100305465D01*
G37*
X107190000Y-100305465D02*
X106994698Y-100435961D01*
X106785961Y-100644698D01*
X106680000Y-100803281D01*
X106574039Y-100644698D01*
X106412639Y-100483298D01*
X107190000Y-99706162D01*
X107190000Y-100305465D01*
G36*
X112270001Y-91584403D02*
G01*
X112270000Y-100305465D01*
X112074698Y-100435961D01*
X111865961Y-100644698D01*
X111760000Y-100803281D01*
X111654039Y-100644698D01*
X111445302Y-100435961D01*
X111250000Y-100305465D01*
X111250000Y-90564402D01*
X112270001Y-91584403D01*
G37*
X112270001Y-91584403D02*
X112270000Y-100305465D01*
X112074698Y-100435961D01*
X111865961Y-100644698D01*
X111760000Y-100803281D01*
X111654039Y-100644698D01*
X111445302Y-100435961D01*
X111250000Y-100305465D01*
X111250000Y-90564402D01*
X112270001Y-91584403D01*
G36*
X114810001Y-93448203D02*
G01*
X114810000Y-100305465D01*
X114614698Y-100435961D01*
X114405961Y-100644698D01*
X114300000Y-100803281D01*
X114194039Y-100644698D01*
X113985302Y-100435961D01*
X113790000Y-100305465D01*
X113790000Y-92428202D01*
X114810001Y-93448203D01*
G37*
X114810001Y-93448203D02*
X114810000Y-100305465D01*
X114614698Y-100435961D01*
X114405961Y-100644698D01*
X114300000Y-100803281D01*
X114194039Y-100644698D01*
X113985302Y-100435961D01*
X113790000Y-100305465D01*
X113790000Y-92428202D01*
X114810001Y-93448203D01*
G36*
X106032000Y-98714533D02*
G01*
X104899038Y-99847168D01*
X104870000Y-99870999D01*
X104823216Y-99928006D01*
X104775088Y-99986633D01*
X104775062Y-99986681D01*
X104775027Y-99986724D01*
X104739253Y-100053652D01*
X104704497Y-100118652D01*
X104704481Y-100118704D01*
X104704455Y-100118753D01*
X104683133Y-100189045D01*
X104661019Y-100261906D01*
X104661013Y-100261963D01*
X104660998Y-100262014D01*
X104657192Y-100300660D01*
X104454698Y-100435961D01*
X104245961Y-100644698D01*
X104140000Y-100803281D01*
X104034039Y-100644698D01*
X103825302Y-100435961D01*
X103579853Y-100271958D01*
X103307125Y-100158990D01*
X103017599Y-100101400D01*
X102722401Y-100101400D01*
X102432875Y-100158990D01*
X102160147Y-100271958D01*
X101914698Y-100435961D01*
X101705961Y-100644698D01*
X101600000Y-100803281D01*
X101494039Y-100644698D01*
X101285302Y-100435961D01*
X101046441Y-100276360D01*
X106032000Y-95290802D01*
X106032000Y-98714533D01*
G37*
X106032000Y-98714533D02*
X104899038Y-99847168D01*
X104870000Y-99870999D01*
X104823216Y-99928006D01*
X104775088Y-99986633D01*
X104775062Y-99986681D01*
X104775027Y-99986724D01*
X104739253Y-100053652D01*
X104704497Y-100118652D01*
X104704481Y-100118704D01*
X104704455Y-100118753D01*
X104683133Y-100189045D01*
X104661019Y-100261906D01*
X104661013Y-100261963D01*
X104660998Y-100262014D01*
X104657192Y-100300660D01*
X104454698Y-100435961D01*
X104245961Y-100644698D01*
X104140000Y-100803281D01*
X104034039Y-100644698D01*
X103825302Y-100435961D01*
X103579853Y-100271958D01*
X103307125Y-100158990D01*
X103017599Y-100101400D01*
X102722401Y-100101400D01*
X102432875Y-100158990D01*
X102160147Y-100271958D01*
X101914698Y-100435961D01*
X101705961Y-100644698D01*
X101600000Y-100803281D01*
X101494039Y-100644698D01*
X101285302Y-100435961D01*
X101046441Y-100276360D01*
X106032000Y-95290802D01*
X106032000Y-98714533D01*
G36*
X92559774Y-85900798D02*
G01*
X92637795Y-86089156D01*
X92751063Y-86258674D01*
X92795000Y-86302611D01*
X92795000Y-86551296D01*
X79499000Y-99847199D01*
X79470000Y-99870999D01*
X79446203Y-99899996D01*
X79375028Y-99986722D01*
X79304455Y-100118751D01*
X79260998Y-100262012D01*
X79257191Y-100300660D01*
X79054698Y-100435961D01*
X78845961Y-100644698D01*
X78740000Y-100803281D01*
X78634039Y-100644698D01*
X78425302Y-100435961D01*
X78183333Y-100274283D01*
X92559253Y-85898176D01*
X92559774Y-85900798D01*
G37*
X92559774Y-85900798D02*
X92637795Y-86089156D01*
X92751063Y-86258674D01*
X92795000Y-86302611D01*
X92795000Y-86551296D01*
X79499000Y-99847199D01*
X79470000Y-99870999D01*
X79446203Y-99899996D01*
X79375028Y-99986722D01*
X79304455Y-100118751D01*
X79260998Y-100262012D01*
X79257191Y-100300660D01*
X79054698Y-100435961D01*
X78845961Y-100644698D01*
X78740000Y-100803281D01*
X78634039Y-100644698D01*
X78425302Y-100435961D01*
X78183333Y-100274283D01*
X92559253Y-85898176D01*
X92559774Y-85900798D01*
G36*
X106032001Y-87289310D02*
G01*
X106032001Y-91439443D01*
X106001898Y-91426974D01*
X105801939Y-91387200D01*
X105598061Y-91387200D01*
X105398102Y-91426974D01*
X105209744Y-91504995D01*
X105040226Y-91618263D01*
X104896063Y-91762426D01*
X104782795Y-91931944D01*
X104704774Y-92120302D01*
X104665000Y-92320261D01*
X104665000Y-92382402D01*
X96408558Y-100639217D01*
X96205302Y-100435961D01*
X95966449Y-100276366D01*
X104760798Y-91482100D01*
X104822939Y-91482100D01*
X105022898Y-91442326D01*
X105211256Y-91364305D01*
X105380774Y-91251037D01*
X105524937Y-91106874D01*
X105638205Y-90937356D01*
X105716226Y-90748998D01*
X105756000Y-90549039D01*
X105756000Y-90345161D01*
X105716226Y-90145202D01*
X105638205Y-89956844D01*
X105524937Y-89787326D01*
X105380774Y-89643163D01*
X105211256Y-89529895D01*
X105022898Y-89451874D01*
X104822939Y-89412100D01*
X104619061Y-89412100D01*
X104419102Y-89451874D01*
X104230744Y-89529895D01*
X104061226Y-89643163D01*
X103917063Y-89787326D01*
X103803795Y-89956844D01*
X103725774Y-90145202D01*
X103686000Y-90345161D01*
X103686000Y-90407293D01*
X93660469Y-100432732D01*
X93419853Y-100271958D01*
X93147125Y-100158990D01*
X92935783Y-100116952D01*
X96302513Y-96749991D01*
X96331501Y-96726201D01*
X96355308Y-96697192D01*
X96355316Y-96697184D01*
X96379594Y-96667599D01*
X96426474Y-96610476D01*
X96426480Y-96610465D01*
X96426488Y-96610455D01*
X96456143Y-96554969D01*
X96497046Y-96478447D01*
X96497051Y-96478430D01*
X96497055Y-96478423D01*
X96514740Y-96420116D01*
X96540503Y-96335186D01*
X96540505Y-96335169D01*
X96540507Y-96335161D01*
X96546248Y-96276856D01*
X96551500Y-96223533D01*
X96551500Y-96223510D01*
X96555176Y-96186174D01*
X96551500Y-96148864D01*
X96551500Y-93231411D01*
X96595437Y-93187474D01*
X96708705Y-93017956D01*
X96786726Y-92829598D01*
X96826500Y-92629639D01*
X96826500Y-92425761D01*
X96786726Y-92225802D01*
X96708705Y-92037444D01*
X96595437Y-91867926D01*
X96451274Y-91723763D01*
X96281756Y-91610495D01*
X96093398Y-91532474D01*
X96049716Y-91523785D01*
X97955153Y-89618349D01*
X97986122Y-89608956D01*
X97986132Y-89608950D01*
X97986147Y-89608946D01*
X98065361Y-89566605D01*
X98118154Y-89538388D01*
X98118162Y-89538382D01*
X98118176Y-89538374D01*
X98194422Y-89475800D01*
X98204883Y-89467216D01*
X98204886Y-89467213D01*
X98233901Y-89443401D01*
X98257696Y-89414406D01*
X101168994Y-86503306D01*
X101198001Y-86479501D01*
X101244556Y-86422773D01*
X101292959Y-86363798D01*
X101292965Y-86363787D01*
X101292974Y-86363776D01*
X101335923Y-86283426D01*
X101363536Y-86231771D01*
X101363540Y-86231759D01*
X101363546Y-86231747D01*
X101396098Y-86124437D01*
X101406997Y-86088512D01*
X101406998Y-86088503D01*
X101407003Y-86088486D01*
X101416353Y-85993558D01*
X101461937Y-85947974D01*
X101575205Y-85778456D01*
X101653226Y-85590098D01*
X101693000Y-85390139D01*
X101693000Y-85186261D01*
X101653226Y-84986302D01*
X101575205Y-84797944D01*
X101461937Y-84628426D01*
X101317774Y-84484263D01*
X101148256Y-84370995D01*
X100959898Y-84292974D01*
X100759939Y-84253200D01*
X100556061Y-84253200D01*
X100356102Y-84292974D01*
X100167744Y-84370995D01*
X99998226Y-84484263D01*
X99854063Y-84628426D01*
X99740795Y-84797944D01*
X99662774Y-84986302D01*
X99623000Y-85186261D01*
X99623000Y-85390139D01*
X99662774Y-85590098D01*
X99740795Y-85778456D01*
X99742166Y-85780507D01*
X99014200Y-86508424D01*
X99014200Y-86377861D01*
X98974426Y-86177902D01*
X98941763Y-86099048D01*
X99060537Y-85980274D01*
X99173805Y-85810756D01*
X99251826Y-85622398D01*
X99291600Y-85422439D01*
X99291600Y-85218561D01*
X99251826Y-85018602D01*
X99173805Y-84830244D01*
X99060537Y-84660726D01*
X98916374Y-84516563D01*
X98746856Y-84403295D01*
X98558498Y-84325274D01*
X98358539Y-84285500D01*
X98154661Y-84285500D01*
X97954702Y-84325274D01*
X97766344Y-84403295D01*
X97596826Y-84516563D01*
X97552889Y-84560500D01*
X97178722Y-84560500D01*
X97141397Y-84556824D01*
X97104074Y-84560500D01*
X97104067Y-84560500D01*
X96992414Y-84571497D01*
X96849153Y-84614954D01*
X96717124Y-84685526D01*
X96717122Y-84685528D01*
X96630395Y-84756702D01*
X96630392Y-84756705D01*
X96601399Y-84780499D01*
X96577604Y-84809493D01*
X94274384Y-87112728D01*
X94304002Y-87015089D01*
X94304003Y-87015086D01*
X94315000Y-86903433D01*
X94315000Y-86903426D01*
X94318676Y-86866103D01*
X94315000Y-86828778D01*
X94315000Y-86302611D01*
X94358937Y-86258674D01*
X94472205Y-86089156D01*
X94550226Y-85900798D01*
X94590000Y-85700839D01*
X94590000Y-85496961D01*
X94550226Y-85297002D01*
X94472205Y-85108644D01*
X94358937Y-84939126D01*
X94214774Y-84794963D01*
X94045256Y-84681695D01*
X93856898Y-84603674D01*
X93854262Y-84603150D01*
X94376505Y-84080900D01*
X98933615Y-84080900D01*
X98970976Y-84084576D01*
X99034824Y-84078281D01*
X99119886Y-84069903D01*
X99119928Y-84069890D01*
X99119961Y-84069887D01*
X99182285Y-84050975D01*
X99263147Y-84026446D01*
X99263185Y-84026426D01*
X99263217Y-84026416D01*
X99323630Y-83994117D01*
X99395176Y-83955874D01*
X99395207Y-83955849D01*
X99395240Y-83955831D01*
X99451822Y-83909385D01*
X99510901Y-83860901D01*
X99534725Y-83831872D01*
X100498902Y-82867500D01*
X100560939Y-82867500D01*
X100760898Y-82827726D01*
X100949256Y-82749705D01*
X101118774Y-82636437D01*
X101248875Y-82506336D01*
X106032001Y-87289310D01*
G37*
X106032001Y-87289310D02*
X106032001Y-91439443D01*
X106001898Y-91426974D01*
X105801939Y-91387200D01*
X105598061Y-91387200D01*
X105398102Y-91426974D01*
X105209744Y-91504995D01*
X105040226Y-91618263D01*
X104896063Y-91762426D01*
X104782795Y-91931944D01*
X104704774Y-92120302D01*
X104665000Y-92320261D01*
X104665000Y-92382402D01*
X96408558Y-100639217D01*
X96205302Y-100435961D01*
X95966449Y-100276366D01*
X104760798Y-91482100D01*
X104822939Y-91482100D01*
X105022898Y-91442326D01*
X105211256Y-91364305D01*
X105380774Y-91251037D01*
X105524937Y-91106874D01*
X105638205Y-90937356D01*
X105716226Y-90748998D01*
X105756000Y-90549039D01*
X105756000Y-90345161D01*
X105716226Y-90145202D01*
X105638205Y-89956844D01*
X105524937Y-89787326D01*
X105380774Y-89643163D01*
X105211256Y-89529895D01*
X105022898Y-89451874D01*
X104822939Y-89412100D01*
X104619061Y-89412100D01*
X104419102Y-89451874D01*
X104230744Y-89529895D01*
X104061226Y-89643163D01*
X103917063Y-89787326D01*
X103803795Y-89956844D01*
X103725774Y-90145202D01*
X103686000Y-90345161D01*
X103686000Y-90407293D01*
X93660469Y-100432732D01*
X93419853Y-100271958D01*
X93147125Y-100158990D01*
X92935783Y-100116952D01*
X96302513Y-96749991D01*
X96331501Y-96726201D01*
X96355308Y-96697192D01*
X96355316Y-96697184D01*
X96379594Y-96667599D01*
X96426474Y-96610476D01*
X96426480Y-96610465D01*
X96426488Y-96610455D01*
X96456143Y-96554969D01*
X96497046Y-96478447D01*
X96497051Y-96478430D01*
X96497055Y-96478423D01*
X96514740Y-96420116D01*
X96540503Y-96335186D01*
X96540505Y-96335169D01*
X96540507Y-96335161D01*
X96546248Y-96276856D01*
X96551500Y-96223533D01*
X96551500Y-96223510D01*
X96555176Y-96186174D01*
X96551500Y-96148864D01*
X96551500Y-93231411D01*
X96595437Y-93187474D01*
X96708705Y-93017956D01*
X96786726Y-92829598D01*
X96826500Y-92629639D01*
X96826500Y-92425761D01*
X96786726Y-92225802D01*
X96708705Y-92037444D01*
X96595437Y-91867926D01*
X96451274Y-91723763D01*
X96281756Y-91610495D01*
X96093398Y-91532474D01*
X96049716Y-91523785D01*
X97955153Y-89618349D01*
X97986122Y-89608956D01*
X97986132Y-89608950D01*
X97986147Y-89608946D01*
X98065361Y-89566605D01*
X98118154Y-89538388D01*
X98118162Y-89538382D01*
X98118176Y-89538374D01*
X98194422Y-89475800D01*
X98204883Y-89467216D01*
X98204886Y-89467213D01*
X98233901Y-89443401D01*
X98257696Y-89414406D01*
X101168994Y-86503306D01*
X101198001Y-86479501D01*
X101244556Y-86422773D01*
X101292959Y-86363798D01*
X101292965Y-86363787D01*
X101292974Y-86363776D01*
X101335923Y-86283426D01*
X101363536Y-86231771D01*
X101363540Y-86231759D01*
X101363546Y-86231747D01*
X101396098Y-86124437D01*
X101406997Y-86088512D01*
X101406998Y-86088503D01*
X101407003Y-86088486D01*
X101416353Y-85993558D01*
X101461937Y-85947974D01*
X101575205Y-85778456D01*
X101653226Y-85590098D01*
X101693000Y-85390139D01*
X101693000Y-85186261D01*
X101653226Y-84986302D01*
X101575205Y-84797944D01*
X101461937Y-84628426D01*
X101317774Y-84484263D01*
X101148256Y-84370995D01*
X100959898Y-84292974D01*
X100759939Y-84253200D01*
X100556061Y-84253200D01*
X100356102Y-84292974D01*
X100167744Y-84370995D01*
X99998226Y-84484263D01*
X99854063Y-84628426D01*
X99740795Y-84797944D01*
X99662774Y-84986302D01*
X99623000Y-85186261D01*
X99623000Y-85390139D01*
X99662774Y-85590098D01*
X99740795Y-85778456D01*
X99742166Y-85780507D01*
X99014200Y-86508424D01*
X99014200Y-86377861D01*
X98974426Y-86177902D01*
X98941763Y-86099048D01*
X99060537Y-85980274D01*
X99173805Y-85810756D01*
X99251826Y-85622398D01*
X99291600Y-85422439D01*
X99291600Y-85218561D01*
X99251826Y-85018602D01*
X99173805Y-84830244D01*
X99060537Y-84660726D01*
X98916374Y-84516563D01*
X98746856Y-84403295D01*
X98558498Y-84325274D01*
X98358539Y-84285500D01*
X98154661Y-84285500D01*
X97954702Y-84325274D01*
X97766344Y-84403295D01*
X97596826Y-84516563D01*
X97552889Y-84560500D01*
X97178722Y-84560500D01*
X97141397Y-84556824D01*
X97104074Y-84560500D01*
X97104067Y-84560500D01*
X96992414Y-84571497D01*
X96849153Y-84614954D01*
X96717124Y-84685526D01*
X96717122Y-84685528D01*
X96630395Y-84756702D01*
X96630392Y-84756705D01*
X96601399Y-84780499D01*
X96577604Y-84809493D01*
X94274384Y-87112728D01*
X94304002Y-87015089D01*
X94304003Y-87015086D01*
X94315000Y-86903433D01*
X94315000Y-86903426D01*
X94318676Y-86866103D01*
X94315000Y-86828778D01*
X94315000Y-86302611D01*
X94358937Y-86258674D01*
X94472205Y-86089156D01*
X94550226Y-85900798D01*
X94590000Y-85700839D01*
X94590000Y-85496961D01*
X94550226Y-85297002D01*
X94472205Y-85108644D01*
X94358937Y-84939126D01*
X94214774Y-84794963D01*
X94045256Y-84681695D01*
X93856898Y-84603674D01*
X93854262Y-84603150D01*
X94376505Y-84080900D01*
X98933615Y-84080900D01*
X98970976Y-84084576D01*
X99034824Y-84078281D01*
X99119886Y-84069903D01*
X99119928Y-84069890D01*
X99119961Y-84069887D01*
X99182285Y-84050975D01*
X99263147Y-84026446D01*
X99263185Y-84026426D01*
X99263217Y-84026416D01*
X99323630Y-83994117D01*
X99395176Y-83955874D01*
X99395207Y-83955849D01*
X99395240Y-83955831D01*
X99451822Y-83909385D01*
X99510901Y-83860901D01*
X99534725Y-83831872D01*
X100498902Y-82867500D01*
X100560939Y-82867500D01*
X100760898Y-82827726D01*
X100949256Y-82749705D01*
X101118774Y-82636437D01*
X101248875Y-82506336D01*
X106032001Y-87289310D01*
G36*
X125059001Y-100374265D02*
G01*
X124926038Y-100175271D01*
X124614729Y-99863962D01*
X124248669Y-99619369D01*
X123841925Y-99450890D01*
X123707401Y-99424131D01*
X125059001Y-98072512D01*
X125059001Y-100374265D01*
G37*
X125059001Y-100374265D02*
X124926038Y-100175271D01*
X124614729Y-99863962D01*
X124248669Y-99619369D01*
X123841925Y-99450890D01*
X123707401Y-99424131D01*
X125059001Y-98072512D01*
X125059001Y-100374265D01*
G36*
X90560890Y-97171925D02*
G01*
X90729369Y-97578669D01*
X90973962Y-97944729D01*
X91285271Y-98256038D01*
X91651331Y-98500631D01*
X92058075Y-98669110D01*
X92204811Y-98698298D01*
X90928983Y-99974213D01*
X90900000Y-99997999D01*
X90876197Y-100027003D01*
X90876183Y-100027017D01*
X90843761Y-100066527D01*
X90805027Y-100113724D01*
X90805021Y-100113735D01*
X90805012Y-100113746D01*
X90764202Y-100190101D01*
X90749343Y-100217899D01*
X90607125Y-100158990D01*
X90317599Y-100101400D01*
X90022401Y-100101400D01*
X89732875Y-100158990D01*
X89660000Y-100189176D01*
X89660000Y-97913501D01*
X90534458Y-97039043D01*
X90560890Y-97171925D01*
G37*
X90560890Y-97171925D02*
X90729369Y-97578669D01*
X90973962Y-97944729D01*
X91285271Y-98256038D01*
X91651331Y-98500631D01*
X92058075Y-98669110D01*
X92204811Y-98698298D01*
X90928983Y-99974213D01*
X90900000Y-99997999D01*
X90876197Y-100027003D01*
X90876183Y-100027017D01*
X90843761Y-100066527D01*
X90805027Y-100113724D01*
X90805021Y-100113735D01*
X90805012Y-100113746D01*
X90764202Y-100190101D01*
X90749343Y-100217899D01*
X90607125Y-100158990D01*
X90317599Y-100101400D01*
X90022401Y-100101400D01*
X89732875Y-100158990D01*
X89660000Y-100189176D01*
X89660000Y-97913501D01*
X90534458Y-97039043D01*
X90560890Y-97171925D01*
G36*
X85600001Y-100189176D02*
G01*
X85527125Y-100158990D01*
X85400081Y-100133720D01*
X85600001Y-99933800D01*
X85600001Y-100189176D01*
G37*
X85600001Y-100189176D02*
X85527125Y-100158990D01*
X85400081Y-100133720D01*
X85600001Y-99933800D01*
X85600001Y-100189176D01*
G36*
X88140001Y-100189176D02*
G01*
X88067125Y-100158990D01*
X87777599Y-100101400D01*
X87482401Y-100101400D01*
X87192875Y-100158990D01*
X87120000Y-100189176D01*
X87120000Y-99520701D01*
X88140000Y-98500701D01*
X88140001Y-100189176D01*
G37*
X88140001Y-100189176D02*
X88067125Y-100158990D01*
X87777599Y-100101400D01*
X87482401Y-100101400D01*
X87192875Y-100158990D01*
X87120000Y-100189176D01*
X87120000Y-99520701D01*
X88140000Y-98500701D01*
X88140001Y-100189176D01*
G36*
X94796274Y-92829598D02*
G01*
X94874295Y-93017956D01*
X94987563Y-93187474D01*
X95031501Y-93231412D01*
X95031500Y-95871413D01*
X94888267Y-96014656D01*
X94859110Y-95868075D01*
X94690631Y-95461331D01*
X94446038Y-95095271D01*
X94134729Y-94783962D01*
X93768669Y-94539369D01*
X93361925Y-94370890D01*
X93229043Y-94344458D01*
X94787585Y-92785916D01*
X94796274Y-92829598D01*
G37*
X94796274Y-92829598D02*
X94874295Y-93017956D01*
X94987563Y-93187474D01*
X95031501Y-93231412D01*
X95031500Y-95871413D01*
X94888267Y-96014656D01*
X94859110Y-95868075D01*
X94690631Y-95461331D01*
X94446038Y-95095271D01*
X94134729Y-94783962D01*
X93768669Y-94539369D01*
X93361925Y-94370890D01*
X93229043Y-94344458D01*
X94787585Y-92785916D01*
X94796274Y-92829598D01*
G36*
X124091001Y-95319678D02*
G01*
X123986719Y-95250000D01*
X124091001Y-95180322D01*
X124091001Y-95319678D01*
G37*
X124091001Y-95319678D02*
X123986719Y-95250000D01*
X124091001Y-95180322D01*
X124091001Y-95319678D01*
G36*
X124091001Y-92779678D02*
G01*
X123986719Y-92710000D01*
X124091001Y-92640322D01*
X124091001Y-92779678D01*
G37*
X124091001Y-92779678D02*
X123986719Y-92710000D01*
X124091001Y-92640322D01*
X124091001Y-92779678D01*
G36*
X124091001Y-90239678D02*
G01*
X123986719Y-90170000D01*
X124091001Y-90100322D01*
X124091001Y-90239678D01*
G37*
X124091001Y-90239678D02*
X123986719Y-90170000D01*
X124091001Y-90100322D01*
X124091001Y-90239678D01*
G36*
X122025961Y-87315302D02*
G01*
X122234698Y-87524039D01*
X122393281Y-87630000D01*
X122234698Y-87735961D01*
X122025961Y-87944698D01*
X121920000Y-88103281D01*
X121814039Y-87944698D01*
X121605302Y-87735961D01*
X121446719Y-87630000D01*
X121605302Y-87524039D01*
X121814039Y-87315302D01*
X121920000Y-87156719D01*
X122025961Y-87315302D01*
G37*
X122025961Y-87315302D02*
X122234698Y-87524039D01*
X122393281Y-87630000D01*
X122234698Y-87735961D01*
X122025961Y-87944698D01*
X121920000Y-88103281D01*
X121814039Y-87944698D01*
X121605302Y-87735961D01*
X121446719Y-87630000D01*
X121605302Y-87524039D01*
X121814039Y-87315302D01*
X121920000Y-87156719D01*
X122025961Y-87315302D01*
G36*
X124091001Y-87699678D02*
G01*
X123986719Y-87630000D01*
X124091001Y-87560322D01*
X124091001Y-87699678D01*
G37*
X124091001Y-87699678D02*
X123986719Y-87630000D01*
X124091001Y-87560322D01*
X124091001Y-87699678D01*
G36*
X88385299Y-54665701D02*
G01*
X88411859Y-54687498D01*
X118814201Y-85598566D01*
X118839999Y-85630001D01*
X118895407Y-85675473D01*
X118950470Y-85721431D01*
X118953261Y-85722953D01*
X118955724Y-85724974D01*
X119018983Y-85758787D01*
X119081909Y-85793097D01*
X119084947Y-85794046D01*
X119087753Y-85795546D01*
X119156415Y-85816374D01*
X119224804Y-85837740D01*
X119227964Y-85838078D01*
X119231014Y-85839003D01*
X119243233Y-85840206D01*
X119208990Y-85922875D01*
X119151400Y-86212401D01*
X119151400Y-86326599D01*
X118650904Y-85826103D01*
X88300391Y-54684388D01*
X88339853Y-54668042D01*
X88370445Y-54647601D01*
X88385299Y-54665701D01*
G37*
X88385299Y-54665701D02*
X88411859Y-54687498D01*
X118814201Y-85598566D01*
X118839999Y-85630001D01*
X118895407Y-85675473D01*
X118950470Y-85721431D01*
X118953261Y-85722953D01*
X118955724Y-85724974D01*
X119018983Y-85758787D01*
X119081909Y-85793097D01*
X119084947Y-85794046D01*
X119087753Y-85795546D01*
X119156415Y-85816374D01*
X119224804Y-85837740D01*
X119227964Y-85838078D01*
X119231014Y-85839003D01*
X119243233Y-85840206D01*
X119208990Y-85922875D01*
X119151400Y-86212401D01*
X119151400Y-86326599D01*
X118650904Y-85826103D01*
X88300391Y-54684388D01*
X88339853Y-54668042D01*
X88370445Y-54647601D01*
X88385299Y-54665701D01*
G36*
X124091000Y-85159678D02*
G01*
X123986719Y-85090000D01*
X124091000Y-85020322D01*
X124091000Y-85159678D01*
G37*
X124091000Y-85159678D02*
X123986719Y-85090000D01*
X124091000Y-85020322D01*
X124091000Y-85159678D01*
G36*
X64621961Y-54295302D02*
G01*
X64830698Y-54504039D01*
X65076147Y-54668042D01*
X65348875Y-54781010D01*
X65638401Y-54838600D01*
X65933599Y-54838600D01*
X66223125Y-54781010D01*
X66495853Y-54668042D01*
X66690250Y-54538151D01*
X67273101Y-55121002D01*
X67296899Y-55150001D01*
X67412624Y-55244974D01*
X67544653Y-55315546D01*
X67687914Y-55359003D01*
X67799567Y-55370000D01*
X67799576Y-55370000D01*
X67836899Y-55373676D01*
X67874222Y-55370000D01*
X70328599Y-55370000D01*
X70330144Y-55371545D01*
X70262263Y-55439426D01*
X70148995Y-55608944D01*
X70070974Y-55797302D01*
X70031200Y-55997261D01*
X70031200Y-56201139D01*
X70070974Y-56401098D01*
X70148995Y-56589456D01*
X70262263Y-56758974D01*
X70306200Y-56802911D01*
X70306200Y-57087577D01*
X70302524Y-57124900D01*
X70306200Y-57162222D01*
X70306200Y-57162232D01*
X70317197Y-57273885D01*
X70360654Y-57417146D01*
X70431226Y-57549176D01*
X70451858Y-57574316D01*
X70526199Y-57664901D01*
X70555202Y-57688703D01*
X72084441Y-59217944D01*
X72064195Y-59248244D01*
X71986174Y-59436602D01*
X71946400Y-59636561D01*
X71946400Y-59840439D01*
X71986174Y-60040398D01*
X72064195Y-60228756D01*
X72177463Y-60398274D01*
X72321626Y-60542437D01*
X72491144Y-60655705D01*
X72679502Y-60733726D01*
X72879461Y-60773500D01*
X72941599Y-60773500D01*
X74532776Y-62364678D01*
X74395139Y-62337300D01*
X74191261Y-62337300D01*
X73991302Y-62377074D01*
X73802944Y-62455095D01*
X73633426Y-62568363D01*
X73489263Y-62712526D01*
X73375995Y-62882044D01*
X73297974Y-63070402D01*
X73258200Y-63270361D01*
X73258200Y-63474239D01*
X73297974Y-63674198D01*
X73375995Y-63862556D01*
X73489263Y-64032074D01*
X73633426Y-64176237D01*
X73802944Y-64289505D01*
X73991302Y-64367526D01*
X74191261Y-64407300D01*
X74253399Y-64407300D01*
X87899005Y-78052908D01*
X87922799Y-78081901D01*
X87951792Y-78105695D01*
X87951796Y-78105699D01*
X88022485Y-78163711D01*
X88038524Y-78176874D01*
X88170553Y-78247446D01*
X88313814Y-78290903D01*
X88425467Y-78301900D01*
X88425476Y-78301900D01*
X88462799Y-78305576D01*
X88500122Y-78301900D01*
X88856394Y-78301900D01*
X88855990Y-78302875D01*
X88798400Y-78592401D01*
X88798400Y-78887599D01*
X88855990Y-79177125D01*
X88968958Y-79449853D01*
X89132961Y-79695302D01*
X89341698Y-79904039D01*
X89587147Y-80068042D01*
X89859875Y-80181010D01*
X90149401Y-80238600D01*
X90444599Y-80238600D01*
X90734125Y-80181010D01*
X91006853Y-80068042D01*
X91252302Y-79904039D01*
X91461039Y-79695302D01*
X91567000Y-79536719D01*
X91672961Y-79695302D01*
X91881698Y-79904039D01*
X92127147Y-80068042D01*
X92399875Y-80181010D01*
X92689401Y-80238600D01*
X92984599Y-80238600D01*
X93274125Y-80181010D01*
X93546853Y-80068042D01*
X93792302Y-79904039D01*
X94001039Y-79695302D01*
X94165042Y-79449853D01*
X94278010Y-79177125D01*
X94335600Y-78887599D01*
X94335600Y-78592401D01*
X94278010Y-78302875D01*
X94277606Y-78301900D01*
X97044306Y-78301900D01*
X98353347Y-79610900D01*
X95775221Y-79610900D01*
X95737896Y-79607224D01*
X95700576Y-79610900D01*
X95700567Y-79610900D01*
X95588914Y-79621897D01*
X95445653Y-79665354D01*
X95313624Y-79735926D01*
X95313623Y-79735927D01*
X95313621Y-79735928D01*
X95226894Y-79807103D01*
X95226892Y-79807105D01*
X95197899Y-79830899D01*
X95174104Y-79859894D01*
X90961448Y-84072582D01*
X90855237Y-83913626D01*
X90711074Y-83769463D01*
X90541556Y-83656195D01*
X90353198Y-83578174D01*
X90153239Y-83538400D01*
X90091102Y-83538400D01*
X62817000Y-56264299D01*
X62817000Y-54782626D01*
X63098401Y-54838600D01*
X63393599Y-54838600D01*
X63683125Y-54781010D01*
X63955853Y-54668042D01*
X64201302Y-54504039D01*
X64410039Y-54295302D01*
X64516000Y-54136719D01*
X64621961Y-54295302D01*
G37*
X64621961Y-54295302D02*
X64830698Y-54504039D01*
X65076147Y-54668042D01*
X65348875Y-54781010D01*
X65638401Y-54838600D01*
X65933599Y-54838600D01*
X66223125Y-54781010D01*
X66495853Y-54668042D01*
X66690250Y-54538151D01*
X67273101Y-55121002D01*
X67296899Y-55150001D01*
X67412624Y-55244974D01*
X67544653Y-55315546D01*
X67687914Y-55359003D01*
X67799567Y-55370000D01*
X67799576Y-55370000D01*
X67836899Y-55373676D01*
X67874222Y-55370000D01*
X70328599Y-55370000D01*
X70330144Y-55371545D01*
X70262263Y-55439426D01*
X70148995Y-55608944D01*
X70070974Y-55797302D01*
X70031200Y-55997261D01*
X70031200Y-56201139D01*
X70070974Y-56401098D01*
X70148995Y-56589456D01*
X70262263Y-56758974D01*
X70306200Y-56802911D01*
X70306200Y-57087577D01*
X70302524Y-57124900D01*
X70306200Y-57162222D01*
X70306200Y-57162232D01*
X70317197Y-57273885D01*
X70360654Y-57417146D01*
X70431226Y-57549176D01*
X70451858Y-57574316D01*
X70526199Y-57664901D01*
X70555202Y-57688703D01*
X72084441Y-59217944D01*
X72064195Y-59248244D01*
X71986174Y-59436602D01*
X71946400Y-59636561D01*
X71946400Y-59840439D01*
X71986174Y-60040398D01*
X72064195Y-60228756D01*
X72177463Y-60398274D01*
X72321626Y-60542437D01*
X72491144Y-60655705D01*
X72679502Y-60733726D01*
X72879461Y-60773500D01*
X72941599Y-60773500D01*
X74532776Y-62364678D01*
X74395139Y-62337300D01*
X74191261Y-62337300D01*
X73991302Y-62377074D01*
X73802944Y-62455095D01*
X73633426Y-62568363D01*
X73489263Y-62712526D01*
X73375995Y-62882044D01*
X73297974Y-63070402D01*
X73258200Y-63270361D01*
X73258200Y-63474239D01*
X73297974Y-63674198D01*
X73375995Y-63862556D01*
X73489263Y-64032074D01*
X73633426Y-64176237D01*
X73802944Y-64289505D01*
X73991302Y-64367526D01*
X74191261Y-64407300D01*
X74253399Y-64407300D01*
X87899005Y-78052908D01*
X87922799Y-78081901D01*
X87951792Y-78105695D01*
X87951796Y-78105699D01*
X88022485Y-78163711D01*
X88038524Y-78176874D01*
X88170553Y-78247446D01*
X88313814Y-78290903D01*
X88425467Y-78301900D01*
X88425476Y-78301900D01*
X88462799Y-78305576D01*
X88500122Y-78301900D01*
X88856394Y-78301900D01*
X88855990Y-78302875D01*
X88798400Y-78592401D01*
X88798400Y-78887599D01*
X88855990Y-79177125D01*
X88968958Y-79449853D01*
X89132961Y-79695302D01*
X89341698Y-79904039D01*
X89587147Y-80068042D01*
X89859875Y-80181010D01*
X90149401Y-80238600D01*
X90444599Y-80238600D01*
X90734125Y-80181010D01*
X91006853Y-80068042D01*
X91252302Y-79904039D01*
X91461039Y-79695302D01*
X91567000Y-79536719D01*
X91672961Y-79695302D01*
X91881698Y-79904039D01*
X92127147Y-80068042D01*
X92399875Y-80181010D01*
X92689401Y-80238600D01*
X92984599Y-80238600D01*
X93274125Y-80181010D01*
X93546853Y-80068042D01*
X93792302Y-79904039D01*
X94001039Y-79695302D01*
X94165042Y-79449853D01*
X94278010Y-79177125D01*
X94335600Y-78887599D01*
X94335600Y-78592401D01*
X94278010Y-78302875D01*
X94277606Y-78301900D01*
X97044306Y-78301900D01*
X98353347Y-79610900D01*
X95775221Y-79610900D01*
X95737896Y-79607224D01*
X95700576Y-79610900D01*
X95700567Y-79610900D01*
X95588914Y-79621897D01*
X95445653Y-79665354D01*
X95313624Y-79735926D01*
X95313623Y-79735927D01*
X95313621Y-79735928D01*
X95226894Y-79807103D01*
X95226892Y-79807105D01*
X95197899Y-79830899D01*
X95174104Y-79859894D01*
X90961448Y-84072582D01*
X90855237Y-83913626D01*
X90711074Y-83769463D01*
X90541556Y-83656195D01*
X90353198Y-83578174D01*
X90153239Y-83538400D01*
X90091102Y-83538400D01*
X62817000Y-56264299D01*
X62817000Y-54782626D01*
X63098401Y-54838600D01*
X63393599Y-54838600D01*
X63683125Y-54781010D01*
X63955853Y-54668042D01*
X64201302Y-54504039D01*
X64410039Y-54295302D01*
X64516000Y-54136719D01*
X64621961Y-54295302D01*
G36*
X118620001Y-81598802D02*
G01*
X118620000Y-82512677D01*
X118616324Y-82550000D01*
X118620000Y-82587322D01*
X118620000Y-82587332D01*
X118630997Y-82698985D01*
X118674454Y-82842246D01*
X118745026Y-82974276D01*
X118784871Y-83022826D01*
X118839999Y-83090001D01*
X118869003Y-83113804D01*
X119197224Y-83442026D01*
X119151400Y-83672401D01*
X119151400Y-83773743D01*
X118050916Y-82654845D01*
X118065256Y-82648905D01*
X118234774Y-82535637D01*
X118378937Y-82391474D01*
X118492205Y-82221956D01*
X118570226Y-82033598D01*
X118610000Y-81833639D01*
X118610000Y-81629761D01*
X118599918Y-81579077D01*
X118620001Y-81598802D01*
G37*
X118620001Y-81598802D02*
X118620000Y-82512677D01*
X118616324Y-82550000D01*
X118620000Y-82587322D01*
X118620000Y-82587332D01*
X118630997Y-82698985D01*
X118674454Y-82842246D01*
X118745026Y-82974276D01*
X118784871Y-83022826D01*
X118839999Y-83090001D01*
X118869003Y-83113804D01*
X119197224Y-83442026D01*
X119151400Y-83672401D01*
X119151400Y-83773743D01*
X118050916Y-82654845D01*
X118065256Y-82648905D01*
X118234774Y-82535637D01*
X118378937Y-82391474D01*
X118492205Y-82221956D01*
X118570226Y-82033598D01*
X118610000Y-81833639D01*
X118610000Y-81629761D01*
X118599918Y-81579077D01*
X118620001Y-81598802D01*
G36*
X122025961Y-82235302D02*
G01*
X122234698Y-82444039D01*
X122393281Y-82550000D01*
X122234698Y-82655961D01*
X122025961Y-82864698D01*
X121920000Y-83023281D01*
X121814039Y-82864698D01*
X121605302Y-82655961D01*
X121446719Y-82550000D01*
X121605302Y-82444039D01*
X121814039Y-82235302D01*
X121920000Y-82076719D01*
X122025961Y-82235302D01*
G37*
X122025961Y-82235302D02*
X122234698Y-82444039D01*
X122393281Y-82550000D01*
X122234698Y-82655961D01*
X122025961Y-82864698D01*
X121920000Y-83023281D01*
X121814039Y-82864698D01*
X121605302Y-82655961D01*
X121446719Y-82550000D01*
X121605302Y-82444039D01*
X121814039Y-82235302D01*
X121920000Y-82076719D01*
X122025961Y-82235302D01*
G36*
X98060326Y-82507937D02*
G01*
X98139591Y-82560900D01*
X95259602Y-82560900D01*
X95356502Y-82464000D01*
X98016389Y-82464000D01*
X98060326Y-82507937D01*
G37*
X98060326Y-82507937D02*
X98139591Y-82560900D01*
X95259602Y-82560900D01*
X95356502Y-82464000D01*
X98016389Y-82464000D01*
X98060326Y-82507937D01*
G36*
X117707832Y-80702845D02*
G01*
X117676939Y-80696700D01*
X117614796Y-80696700D01*
X112815501Y-75897464D01*
X117707832Y-80702845D01*
G37*
X117707832Y-80702845D02*
X117676939Y-80696700D01*
X117614796Y-80696700D01*
X112815501Y-75897464D01*
X117707832Y-80702845D01*
G36*
X119474323Y-77802116D02*
G01*
X119321958Y-78030147D01*
X119208990Y-78302875D01*
X119151400Y-78592401D01*
X119151400Y-78706599D01*
X118661821Y-78217020D01*
X111662000Y-70423116D01*
X111662000Y-69989428D01*
X119474323Y-77802116D01*
G37*
X119474323Y-77802116D02*
X119321958Y-78030147D01*
X119208990Y-78302875D01*
X119151400Y-78592401D01*
X119151400Y-78706599D01*
X118661821Y-78217020D01*
X111662000Y-70423116D01*
X111662000Y-69989428D01*
X119474323Y-77802116D01*
G36*
X96168199Y-76781900D02*
G01*
X94218042Y-76781900D01*
X94278010Y-76637125D01*
X94335600Y-76347599D01*
X94335600Y-76052401D01*
X94278010Y-75762875D01*
X94247824Y-75690000D01*
X95076299Y-75690000D01*
X96168199Y-76781900D01*
G37*
X96168199Y-76781900D02*
X94218042Y-76781900D01*
X94278010Y-76637125D01*
X94335600Y-76347599D01*
X94335600Y-76052401D01*
X94278010Y-75762875D01*
X94247824Y-75690000D01*
X95076299Y-75690000D01*
X96168199Y-76781900D01*
G36*
X87609100Y-75441002D02*
G01*
X87632899Y-75470001D01*
X87748624Y-75564974D01*
X87880653Y-75635546D01*
X88023914Y-75679003D01*
X88135567Y-75690000D01*
X88135576Y-75690000D01*
X88172899Y-75693676D01*
X88210222Y-75690000D01*
X88886176Y-75690000D01*
X88855990Y-75762875D01*
X88798400Y-76052401D01*
X88798400Y-76347599D01*
X88855990Y-76637125D01*
X88915958Y-76781900D01*
X88777603Y-76781900D01*
X75328200Y-63332499D01*
X75328200Y-63270361D01*
X75300822Y-63132724D01*
X87609100Y-75441002D01*
G37*
X87609100Y-75441002D02*
X87632899Y-75470001D01*
X87748624Y-75564974D01*
X87880653Y-75635546D01*
X88023914Y-75679003D01*
X88135567Y-75690000D01*
X88135576Y-75690000D01*
X88172899Y-75693676D01*
X88210222Y-75690000D01*
X88886176Y-75690000D01*
X88855990Y-75762875D01*
X88798400Y-76052401D01*
X88798400Y-76347599D01*
X88855990Y-76637125D01*
X88915958Y-76781900D01*
X88777603Y-76781900D01*
X75328200Y-63332499D01*
X75328200Y-63270361D01*
X75300822Y-63132724D01*
X87609100Y-75441002D01*
G36*
X105920000Y-55262482D02*
G01*
X105916324Y-55299810D01*
X105920000Y-55337128D01*
X105920000Y-55337132D01*
X105930997Y-55448785D01*
X105974454Y-55592046D01*
X105974455Y-55592047D01*
X105974458Y-55592056D01*
X105997657Y-55635456D01*
X106045026Y-55724075D01*
X106045027Y-55724076D01*
X106045032Y-55724085D01*
X106092821Y-55782314D01*
X106139999Y-55839801D01*
X106169006Y-55863606D01*
X112914001Y-62608409D01*
X112914000Y-68395677D01*
X112910324Y-68433000D01*
X112914000Y-68470322D01*
X112914000Y-68470332D01*
X112924997Y-68581985D01*
X112959650Y-68696223D01*
X112968454Y-68725246D01*
X113039026Y-68857276D01*
X113078871Y-68905826D01*
X113133999Y-68973001D01*
X113163003Y-68996804D01*
X119455894Y-75289696D01*
X119321958Y-75490147D01*
X119319046Y-75497177D01*
X112387000Y-68564810D01*
X112387000Y-63435123D01*
X112390676Y-63397800D01*
X112387000Y-63360477D01*
X112387000Y-63360467D01*
X112376003Y-63248814D01*
X112332546Y-63105553D01*
X112298899Y-63042604D01*
X112261974Y-62973523D01*
X112190799Y-62886797D01*
X112167001Y-62857799D01*
X112138003Y-62834001D01*
X104900000Y-55595999D01*
X104900000Y-54750824D01*
X104972875Y-54781010D01*
X105262401Y-54838600D01*
X105557599Y-54838600D01*
X105847125Y-54781010D01*
X105920000Y-54750824D01*
X105920000Y-55262482D01*
G37*
X105920000Y-55262482D02*
X105916324Y-55299810D01*
X105920000Y-55337128D01*
X105920000Y-55337132D01*
X105930997Y-55448785D01*
X105974454Y-55592046D01*
X105974455Y-55592047D01*
X105974458Y-55592056D01*
X105997657Y-55635456D01*
X106045026Y-55724075D01*
X106045027Y-55724076D01*
X106045032Y-55724085D01*
X106092821Y-55782314D01*
X106139999Y-55839801D01*
X106169006Y-55863606D01*
X112914001Y-62608409D01*
X112914000Y-68395677D01*
X112910324Y-68433000D01*
X112914000Y-68470322D01*
X112914000Y-68470332D01*
X112924997Y-68581985D01*
X112959650Y-68696223D01*
X112968454Y-68725246D01*
X113039026Y-68857276D01*
X113078871Y-68905826D01*
X113133999Y-68973001D01*
X113163003Y-68996804D01*
X119455894Y-75289696D01*
X119321958Y-75490147D01*
X119319046Y-75497177D01*
X112387000Y-68564810D01*
X112387000Y-63435123D01*
X112390676Y-63397800D01*
X112387000Y-63360477D01*
X112387000Y-63360467D01*
X112376003Y-63248814D01*
X112332546Y-63105553D01*
X112298899Y-63042604D01*
X112261974Y-62973523D01*
X112190799Y-62886797D01*
X112167001Y-62857799D01*
X112138003Y-62834001D01*
X104900000Y-55595999D01*
X104900000Y-54750824D01*
X104972875Y-54781010D01*
X105262401Y-54838600D01*
X105557599Y-54838600D01*
X105847125Y-54781010D01*
X105920000Y-54750824D01*
X105920000Y-55262482D01*
G36*
X122025961Y-74615302D02*
G01*
X122234698Y-74824039D01*
X122393281Y-74930000D01*
X122252271Y-75024219D01*
X121825713Y-74597831D01*
X121920000Y-74456719D01*
X122025961Y-74615302D01*
G37*
X122025961Y-74615302D02*
X122234698Y-74824039D01*
X122393281Y-74930000D01*
X122252271Y-75024219D01*
X121825713Y-74597831D01*
X121920000Y-74456719D01*
X122025961Y-74615302D01*
G36*
X88798400Y-73512401D02*
G01*
X88798400Y-73807599D01*
X88855990Y-74097125D01*
X88886176Y-74170000D01*
X88487702Y-74170000D01*
X87548802Y-73231100D01*
X88854354Y-73231100D01*
X88798400Y-73512401D01*
G37*
X88798400Y-73512401D02*
X88798400Y-73807599D01*
X88855990Y-74097125D01*
X88886176Y-74170000D01*
X88487702Y-74170000D01*
X87548802Y-73231100D01*
X88854354Y-73231100D01*
X88798400Y-73512401D01*
G36*
X124552000Y-73032129D02*
G01*
X124518042Y-72950147D01*
X124354039Y-72704698D01*
X124145302Y-72495961D01*
X123986719Y-72390000D01*
X124145302Y-72284039D01*
X124354039Y-72075302D01*
X124518042Y-71829853D01*
X124552000Y-71747871D01*
X124552000Y-73032129D01*
G37*
X124552000Y-73032129D02*
X124518042Y-72950147D01*
X124354039Y-72704698D01*
X124145302Y-72495961D01*
X123986719Y-72390000D01*
X124145302Y-72284039D01*
X124354039Y-72075302D01*
X124518042Y-71829853D01*
X124552000Y-71747871D01*
X124552000Y-73032129D01*
G36*
X112013184Y-57660982D02*
G01*
X112036999Y-57690001D01*
X112092734Y-57735741D01*
X112152677Y-57784943D01*
X112152703Y-57784957D01*
X112152724Y-57784974D01*
X112216607Y-57819121D01*
X112284702Y-57855525D01*
X112284729Y-57855533D01*
X112284753Y-57855546D01*
X112355346Y-57876960D01*
X112427959Y-57898992D01*
X112427987Y-57898995D01*
X112428014Y-57899003D01*
X112510539Y-57907131D01*
X112576944Y-57913676D01*
X112614295Y-57910000D01*
X119239176Y-57910000D01*
X119208990Y-57982875D01*
X119151400Y-58272401D01*
X119151400Y-58567599D01*
X119208990Y-58857125D01*
X119321958Y-59129853D01*
X119485961Y-59375302D01*
X119694698Y-59584039D01*
X119853281Y-59690000D01*
X119694698Y-59795961D01*
X119485961Y-60004698D01*
X119321958Y-60250147D01*
X119208990Y-60522875D01*
X119151400Y-60812401D01*
X119151400Y-61107599D01*
X119208990Y-61397125D01*
X119321958Y-61669853D01*
X119485961Y-61915302D01*
X119694698Y-62124039D01*
X119853281Y-62230000D01*
X119694698Y-62335961D01*
X119485961Y-62544698D01*
X119321958Y-62790147D01*
X119208990Y-63062875D01*
X119151400Y-63352401D01*
X119151400Y-63647599D01*
X119208990Y-63937125D01*
X119321958Y-64209853D01*
X119485961Y-64455302D01*
X119694698Y-64664039D01*
X119853281Y-64770000D01*
X119694698Y-64875961D01*
X119485961Y-65084698D01*
X119321958Y-65330147D01*
X119208990Y-65602875D01*
X119151400Y-65892401D01*
X119151400Y-66187599D01*
X119208990Y-66477125D01*
X119321958Y-66749853D01*
X119485961Y-66995302D01*
X119694698Y-67204039D01*
X119853281Y-67310000D01*
X119694698Y-67415961D01*
X119485961Y-67624698D01*
X119321958Y-67870147D01*
X119208990Y-68142875D01*
X119151400Y-68432401D01*
X119151400Y-68727599D01*
X119208990Y-69017125D01*
X119321958Y-69289853D01*
X119485961Y-69535302D01*
X119694698Y-69744039D01*
X119853281Y-69850000D01*
X119694698Y-69955961D01*
X119485961Y-70164698D01*
X119321958Y-70410147D01*
X119208990Y-70682875D01*
X119151400Y-70972401D01*
X119151400Y-71267599D01*
X119208990Y-71557125D01*
X119321958Y-71829853D01*
X119485961Y-72075302D01*
X119694698Y-72284039D01*
X119853281Y-72390000D01*
X119694698Y-72495961D01*
X119485961Y-72704698D01*
X119321958Y-72950147D01*
X119305553Y-72989751D01*
X114434000Y-68118199D01*
X114434000Y-62330916D01*
X114437676Y-62293588D01*
X114433393Y-62250105D01*
X114423003Y-62144614D01*
X114420411Y-62136067D01*
X114416646Y-62123658D01*
X114379546Y-62001353D01*
X114308974Y-61869324D01*
X114308969Y-61869318D01*
X114308967Y-61869314D01*
X114237792Y-61782589D01*
X114214001Y-61753599D01*
X114185000Y-61729798D01*
X107440000Y-54984993D01*
X107440000Y-54750824D01*
X107512875Y-54781010D01*
X107802401Y-54838600D01*
X108097599Y-54838600D01*
X108387125Y-54781010D01*
X108659853Y-54668042D01*
X108876166Y-54523507D01*
X112013184Y-57660982D01*
G37*
X112013184Y-57660982D02*
X112036999Y-57690001D01*
X112092734Y-57735741D01*
X112152677Y-57784943D01*
X112152703Y-57784957D01*
X112152724Y-57784974D01*
X112216607Y-57819121D01*
X112284702Y-57855525D01*
X112284729Y-57855533D01*
X112284753Y-57855546D01*
X112355346Y-57876960D01*
X112427959Y-57898992D01*
X112427987Y-57898995D01*
X112428014Y-57899003D01*
X112510539Y-57907131D01*
X112576944Y-57913676D01*
X112614295Y-57910000D01*
X119239176Y-57910000D01*
X119208990Y-57982875D01*
X119151400Y-58272401D01*
X119151400Y-58567599D01*
X119208990Y-58857125D01*
X119321958Y-59129853D01*
X119485961Y-59375302D01*
X119694698Y-59584039D01*
X119853281Y-59690000D01*
X119694698Y-59795961D01*
X119485961Y-60004698D01*
X119321958Y-60250147D01*
X119208990Y-60522875D01*
X119151400Y-60812401D01*
X119151400Y-61107599D01*
X119208990Y-61397125D01*
X119321958Y-61669853D01*
X119485961Y-61915302D01*
X119694698Y-62124039D01*
X119853281Y-62230000D01*
X119694698Y-62335961D01*
X119485961Y-62544698D01*
X119321958Y-62790147D01*
X119208990Y-63062875D01*
X119151400Y-63352401D01*
X119151400Y-63647599D01*
X119208990Y-63937125D01*
X119321958Y-64209853D01*
X119485961Y-64455302D01*
X119694698Y-64664039D01*
X119853281Y-64770000D01*
X119694698Y-64875961D01*
X119485961Y-65084698D01*
X119321958Y-65330147D01*
X119208990Y-65602875D01*
X119151400Y-65892401D01*
X119151400Y-66187599D01*
X119208990Y-66477125D01*
X119321958Y-66749853D01*
X119485961Y-66995302D01*
X119694698Y-67204039D01*
X119853281Y-67310000D01*
X119694698Y-67415961D01*
X119485961Y-67624698D01*
X119321958Y-67870147D01*
X119208990Y-68142875D01*
X119151400Y-68432401D01*
X119151400Y-68727599D01*
X119208990Y-69017125D01*
X119321958Y-69289853D01*
X119485961Y-69535302D01*
X119694698Y-69744039D01*
X119853281Y-69850000D01*
X119694698Y-69955961D01*
X119485961Y-70164698D01*
X119321958Y-70410147D01*
X119208990Y-70682875D01*
X119151400Y-70972401D01*
X119151400Y-71267599D01*
X119208990Y-71557125D01*
X119321958Y-71829853D01*
X119485961Y-72075302D01*
X119694698Y-72284039D01*
X119853281Y-72390000D01*
X119694698Y-72495961D01*
X119485961Y-72704698D01*
X119321958Y-72950147D01*
X119305553Y-72989751D01*
X114434000Y-68118199D01*
X114434000Y-62330916D01*
X114437676Y-62293588D01*
X114433393Y-62250105D01*
X114423003Y-62144614D01*
X114420411Y-62136067D01*
X114416646Y-62123658D01*
X114379546Y-62001353D01*
X114308974Y-61869324D01*
X114308969Y-61869318D01*
X114308967Y-61869314D01*
X114237792Y-61782589D01*
X114214001Y-61753599D01*
X114185000Y-61729798D01*
X107440000Y-54984993D01*
X107440000Y-54750824D01*
X107512875Y-54781010D01*
X107802401Y-54838600D01*
X108097599Y-54838600D01*
X108387125Y-54781010D01*
X108659853Y-54668042D01*
X108876166Y-54523507D01*
X112013184Y-57660982D01*
G36*
X122025961Y-72075302D02*
G01*
X122234698Y-72284039D01*
X122393281Y-72390000D01*
X122234698Y-72495961D01*
X122025961Y-72704698D01*
X121920000Y-72863281D01*
X121814039Y-72704698D01*
X121605302Y-72495961D01*
X121446719Y-72390000D01*
X121605302Y-72284039D01*
X121814039Y-72075302D01*
X121920000Y-71916719D01*
X122025961Y-72075302D01*
G37*
X122025961Y-72075302D02*
X122234698Y-72284039D01*
X122393281Y-72390000D01*
X122234698Y-72495961D01*
X122025961Y-72704698D01*
X121920000Y-72863281D01*
X121814039Y-72704698D01*
X121605302Y-72495961D01*
X121446719Y-72390000D01*
X121605302Y-72284039D01*
X121814039Y-72075302D01*
X121920000Y-71916719D01*
X122025961Y-72075302D01*
G36*
X101705961Y-54295302D02*
G01*
X101914698Y-54504039D01*
X102160147Y-54668042D01*
X102432875Y-54781010D01*
X102722401Y-54838600D01*
X103017599Y-54838600D01*
X103307125Y-54781010D01*
X103380000Y-54750824D01*
X103380000Y-55873478D01*
X103376324Y-55910800D01*
X103380000Y-55948122D01*
X103380000Y-55948132D01*
X103390997Y-56059785D01*
X103425103Y-56172219D01*
X103434454Y-56203046D01*
X103505026Y-56335076D01*
X103538528Y-56375898D01*
X103599999Y-56450801D01*
X103629003Y-56474604D01*
X110145494Y-62991095D01*
X110098063Y-63038526D01*
X109984795Y-63208044D01*
X109906774Y-63396402D01*
X109867000Y-63596361D01*
X109867000Y-63800239D01*
X109906774Y-64000198D01*
X109984795Y-64188556D01*
X110098063Y-64358074D01*
X110142001Y-64402012D01*
X110142000Y-70656515D01*
X110139422Y-70673368D01*
X110142000Y-70731199D01*
X110142000Y-70751632D01*
X110143664Y-70768527D01*
X110146089Y-70822925D01*
X110150985Y-70842854D01*
X110152997Y-70863285D01*
X110168810Y-70915413D01*
X110181804Y-70968309D01*
X110190496Y-70986903D01*
X110196454Y-71006546D01*
X110222135Y-71054590D01*
X110245198Y-71103931D01*
X110257349Y-71120472D01*
X110267026Y-71138575D01*
X110301586Y-71180687D01*
X110311622Y-71194348D01*
X110325252Y-71209524D01*
X110361999Y-71254301D01*
X110375187Y-71265124D01*
X111173939Y-72154490D01*
X94674000Y-55947799D01*
X94674000Y-54730933D01*
X94674705Y-54723778D01*
X94812875Y-54781010D01*
X95102401Y-54838600D01*
X95397599Y-54838600D01*
X95687125Y-54781010D01*
X95959853Y-54668042D01*
X96205302Y-54504039D01*
X96414039Y-54295302D01*
X96520000Y-54136719D01*
X96625961Y-54295302D01*
X96834698Y-54504039D01*
X97080147Y-54668042D01*
X97352875Y-54781010D01*
X97642401Y-54838600D01*
X97937599Y-54838600D01*
X98227125Y-54781010D01*
X98499853Y-54668042D01*
X98745302Y-54504039D01*
X98954039Y-54295302D01*
X99060000Y-54136719D01*
X99165961Y-54295302D01*
X99374698Y-54504039D01*
X99620147Y-54668042D01*
X99892875Y-54781010D01*
X100182401Y-54838600D01*
X100477599Y-54838600D01*
X100767125Y-54781010D01*
X101039853Y-54668042D01*
X101285302Y-54504039D01*
X101494039Y-54295302D01*
X101600000Y-54136719D01*
X101705961Y-54295302D01*
G37*
X101705961Y-54295302D02*
X101914698Y-54504039D01*
X102160147Y-54668042D01*
X102432875Y-54781010D01*
X102722401Y-54838600D01*
X103017599Y-54838600D01*
X103307125Y-54781010D01*
X103380000Y-54750824D01*
X103380000Y-55873478D01*
X103376324Y-55910800D01*
X103380000Y-55948122D01*
X103380000Y-55948132D01*
X103390997Y-56059785D01*
X103425103Y-56172219D01*
X103434454Y-56203046D01*
X103505026Y-56335076D01*
X103538528Y-56375898D01*
X103599999Y-56450801D01*
X103629003Y-56474604D01*
X110145494Y-62991095D01*
X110098063Y-63038526D01*
X109984795Y-63208044D01*
X109906774Y-63396402D01*
X109867000Y-63596361D01*
X109867000Y-63800239D01*
X109906774Y-64000198D01*
X109984795Y-64188556D01*
X110098063Y-64358074D01*
X110142001Y-64402012D01*
X110142000Y-70656515D01*
X110139422Y-70673368D01*
X110142000Y-70731199D01*
X110142000Y-70751632D01*
X110143664Y-70768527D01*
X110146089Y-70822925D01*
X110150985Y-70842854D01*
X110152997Y-70863285D01*
X110168810Y-70915413D01*
X110181804Y-70968309D01*
X110190496Y-70986903D01*
X110196454Y-71006546D01*
X110222135Y-71054590D01*
X110245198Y-71103931D01*
X110257349Y-71120472D01*
X110267026Y-71138575D01*
X110301586Y-71180687D01*
X110311622Y-71194348D01*
X110325252Y-71209524D01*
X110361999Y-71254301D01*
X110375187Y-71265124D01*
X111173939Y-72154490D01*
X94674000Y-55947799D01*
X94674000Y-54730933D01*
X94674705Y-54723778D01*
X94812875Y-54781010D01*
X95102401Y-54838600D01*
X95397599Y-54838600D01*
X95687125Y-54781010D01*
X95959853Y-54668042D01*
X96205302Y-54504039D01*
X96414039Y-54295302D01*
X96520000Y-54136719D01*
X96625961Y-54295302D01*
X96834698Y-54504039D01*
X97080147Y-54668042D01*
X97352875Y-54781010D01*
X97642401Y-54838600D01*
X97937599Y-54838600D01*
X98227125Y-54781010D01*
X98499853Y-54668042D01*
X98745302Y-54504039D01*
X98954039Y-54295302D01*
X99060000Y-54136719D01*
X99165961Y-54295302D01*
X99374698Y-54504039D01*
X99620147Y-54668042D01*
X99892875Y-54781010D01*
X100182401Y-54838600D01*
X100477599Y-54838600D01*
X100767125Y-54781010D01*
X101039853Y-54668042D01*
X101285302Y-54504039D01*
X101494039Y-54295302D01*
X101600000Y-54136719D01*
X101705961Y-54295302D01*
G36*
X71952875Y-54781010D02*
G01*
X72242401Y-54838600D01*
X72537599Y-54838600D01*
X72827125Y-54781010D01*
X72900000Y-54750824D01*
X72900000Y-54798777D01*
X72896324Y-54836100D01*
X72900000Y-54873422D01*
X72900000Y-54873432D01*
X72910997Y-54985085D01*
X72934996Y-55064200D01*
X72954454Y-55128346D01*
X73025026Y-55260376D01*
X73057389Y-55299810D01*
X73119999Y-55376101D01*
X73149003Y-55399904D01*
X88559298Y-70810200D01*
X87918402Y-70810200D01*
X71844194Y-54735993D01*
X71952875Y-54781010D01*
G37*
X71952875Y-54781010D02*
X72242401Y-54838600D01*
X72537599Y-54838600D01*
X72827125Y-54781010D01*
X72900000Y-54750824D01*
X72900000Y-54798777D01*
X72896324Y-54836100D01*
X72900000Y-54873422D01*
X72900000Y-54873432D01*
X72910997Y-54985085D01*
X72934996Y-55064200D01*
X72954454Y-55128346D01*
X73025026Y-55260376D01*
X73057389Y-55299810D01*
X73119999Y-55376101D01*
X73149003Y-55399904D01*
X88559298Y-70810200D01*
X87918402Y-70810200D01*
X71844194Y-54735993D01*
X71952875Y-54781010D01*
G36*
X122025961Y-69535302D02*
G01*
X122234698Y-69744039D01*
X122393281Y-69850000D01*
X122234698Y-69955961D01*
X122025961Y-70164698D01*
X121920000Y-70323281D01*
X121814039Y-70164698D01*
X121605302Y-69955961D01*
X121446719Y-69850000D01*
X121605302Y-69744039D01*
X121814039Y-69535302D01*
X121920000Y-69376719D01*
X122025961Y-69535302D01*
G37*
X122025961Y-69535302D02*
X122234698Y-69744039D01*
X122393281Y-69850000D01*
X122234698Y-69955961D01*
X122025961Y-70164698D01*
X121920000Y-70323281D01*
X121814039Y-70164698D01*
X121605302Y-69955961D01*
X121446719Y-69850000D01*
X121605302Y-69744039D01*
X121814039Y-69535302D01*
X121920000Y-69376719D01*
X122025961Y-69535302D01*
G36*
X95751542Y-69914744D02*
G01*
X95728825Y-69912718D01*
X95695133Y-69909400D01*
X95691606Y-69909400D01*
X95650736Y-69905756D01*
X95616947Y-69909400D01*
X94509735Y-69909400D01*
X94690631Y-69638669D01*
X94859110Y-69231925D01*
X94893887Y-69057089D01*
X95751542Y-69914744D01*
G37*
X95751542Y-69914744D02*
X95728825Y-69912718D01*
X95695133Y-69909400D01*
X95691606Y-69909400D01*
X95650736Y-69905756D01*
X95616947Y-69909400D01*
X94509735Y-69909400D01*
X94690631Y-69638669D01*
X94859110Y-69231925D01*
X94893887Y-69057089D01*
X95751542Y-69914744D01*
G36*
X88299900Y-66945002D02*
G01*
X88323699Y-66974001D01*
X88439424Y-67068974D01*
X88571453Y-67139546D01*
X88714714Y-67183003D01*
X88826367Y-67194000D01*
X88826376Y-67194000D01*
X88863699Y-67197676D01*
X88901022Y-67194000D01*
X90948084Y-67194000D01*
X90729369Y-67521331D01*
X90560890Y-67928075D01*
X90475000Y-68359872D01*
X90475000Y-68800128D01*
X90560890Y-69231925D01*
X90729369Y-69638669D01*
X90910265Y-69909400D01*
X89808102Y-69909400D01*
X74726103Y-54827402D01*
X74782401Y-54838600D01*
X75077599Y-54838600D01*
X75367125Y-54781010D01*
X75639853Y-54668042D01*
X75869498Y-54514599D01*
X88299900Y-66945002D01*
G37*
X88299900Y-66945002D02*
X88323699Y-66974001D01*
X88439424Y-67068974D01*
X88571453Y-67139546D01*
X88714714Y-67183003D01*
X88826367Y-67194000D01*
X88826376Y-67194000D01*
X88863699Y-67197676D01*
X88901022Y-67194000D01*
X90948084Y-67194000D01*
X90729369Y-67521331D01*
X90560890Y-67928075D01*
X90475000Y-68359872D01*
X90475000Y-68800128D01*
X90560890Y-69231925D01*
X90729369Y-69638669D01*
X90910265Y-69909400D01*
X89808102Y-69909400D01*
X74726103Y-54827402D01*
X74782401Y-54838600D01*
X75077599Y-54838600D01*
X75367125Y-54781010D01*
X75639853Y-54668042D01*
X75869498Y-54514599D01*
X88299900Y-66945002D01*
G36*
X99741963Y-68602031D02*
G01*
X85804813Y-54664728D01*
X86019170Y-54521500D01*
X99741963Y-68602031D01*
G37*
X99741963Y-68602031D02*
X85804813Y-54664728D01*
X86019170Y-54521500D01*
X99741963Y-68602031D01*
G36*
X125511000Y-61815895D02*
G01*
X125511000Y-68077137D01*
X124384109Y-66950299D01*
X124518042Y-66749853D01*
X124631010Y-66477125D01*
X124688600Y-66187599D01*
X124688600Y-65892401D01*
X124631010Y-65602875D01*
X124518042Y-65330147D01*
X124354039Y-65084698D01*
X124145302Y-64875961D01*
X123986719Y-64770000D01*
X124145302Y-64664039D01*
X124354039Y-64455302D01*
X124518042Y-64209853D01*
X124631010Y-63937125D01*
X124688600Y-63647599D01*
X124688600Y-63352401D01*
X124631010Y-63062875D01*
X124518042Y-62790147D01*
X124354039Y-62544698D01*
X124145302Y-62335961D01*
X123986719Y-62230000D01*
X124145302Y-62124039D01*
X124354039Y-61915302D01*
X124518042Y-61669853D01*
X124631010Y-61397125D01*
X124688600Y-61107599D01*
X124688600Y-60993468D01*
X125511000Y-61815895D01*
G37*
X125511000Y-61815895D02*
X125511000Y-68077137D01*
X124384109Y-66950299D01*
X124518042Y-66749853D01*
X124631010Y-66477125D01*
X124688600Y-66187599D01*
X124688600Y-65892401D01*
X124631010Y-65602875D01*
X124518042Y-65330147D01*
X124354039Y-65084698D01*
X124145302Y-64875961D01*
X123986719Y-64770000D01*
X124145302Y-64664039D01*
X124354039Y-64455302D01*
X124518042Y-64209853D01*
X124631010Y-63937125D01*
X124688600Y-63647599D01*
X124688600Y-63352401D01*
X124631010Y-63062875D01*
X124518042Y-62790147D01*
X124354039Y-62544698D01*
X124145302Y-62335961D01*
X123986719Y-62230000D01*
X124145302Y-62124039D01*
X124354039Y-61915302D01*
X124518042Y-61669853D01*
X124631010Y-61397125D01*
X124688600Y-61107599D01*
X124688600Y-60993468D01*
X125511000Y-61815895D01*
G36*
X122014328Y-67642108D02*
G01*
X121920000Y-67783281D01*
X121814039Y-67624698D01*
X121605302Y-67415961D01*
X121446719Y-67310000D01*
X121587920Y-67215653D01*
X122014328Y-67642108D01*
G37*
X122014328Y-67642108D02*
X121920000Y-67783281D01*
X121814039Y-67624698D01*
X121605302Y-67415961D01*
X121446719Y-67310000D01*
X121587920Y-67215653D01*
X122014328Y-67642108D01*
G36*
X83150700Y-59238002D02*
G01*
X83174499Y-59267001D01*
X83290224Y-59361974D01*
X83422253Y-59432546D01*
X83565514Y-59476003D01*
X83677167Y-59487000D01*
X83677176Y-59487000D01*
X83714499Y-59490676D01*
X83751822Y-59487000D01*
X85960699Y-59487000D01*
X92147699Y-65674000D01*
X89178502Y-65674000D01*
X78174684Y-54670183D01*
X78179853Y-54668042D01*
X78420168Y-54507469D01*
X83150700Y-59238002D01*
G37*
X83150700Y-59238002D02*
X83174499Y-59267001D01*
X83290224Y-59361974D01*
X83422253Y-59432546D01*
X83565514Y-59476003D01*
X83677167Y-59487000D01*
X83677176Y-59487000D01*
X83714499Y-59490676D01*
X83751822Y-59487000D01*
X85960699Y-59487000D01*
X92147699Y-65674000D01*
X89178502Y-65674000D01*
X78174684Y-54670183D01*
X78179853Y-54668042D01*
X78420168Y-54507469D01*
X83150700Y-59238002D01*
G36*
X122025961Y-61915302D02*
G01*
X122234698Y-62124039D01*
X122393281Y-62230000D01*
X122234698Y-62335961D01*
X122025961Y-62544698D01*
X121920000Y-62703281D01*
X121814039Y-62544698D01*
X121605302Y-62335961D01*
X121446719Y-62230000D01*
X121605302Y-62124039D01*
X121814039Y-61915302D01*
X121920000Y-61756719D01*
X122025961Y-61915302D01*
G37*
X122025961Y-61915302D02*
X122234698Y-62124039D01*
X122393281Y-62230000D01*
X122234698Y-62335961D01*
X122025961Y-62544698D01*
X121920000Y-62703281D01*
X121814039Y-62544698D01*
X121605302Y-62335961D01*
X121446719Y-62230000D01*
X121605302Y-62124039D01*
X121814039Y-61915302D01*
X121920000Y-61756719D01*
X122025961Y-61915302D01*
G36*
X122025961Y-59375302D02*
G01*
X122234698Y-59584039D01*
X122393281Y-59690000D01*
X122234698Y-59795961D01*
X122025961Y-60004698D01*
X121920000Y-60163281D01*
X121814039Y-60004698D01*
X121605302Y-59795961D01*
X121446719Y-59690000D01*
X121605302Y-59584039D01*
X121814039Y-59375302D01*
X121920000Y-59216719D01*
X122025961Y-59375302D01*
G37*
X122025961Y-59375302D02*
X122234698Y-59584039D01*
X122393281Y-59690000D01*
X122234698Y-59795961D01*
X122025961Y-60004698D01*
X121920000Y-60163281D01*
X121814039Y-60004698D01*
X121605302Y-59795961D01*
X121446719Y-59690000D01*
X121605302Y-59584039D01*
X121814039Y-59375302D01*
X121920000Y-59216719D01*
X122025961Y-59375302D01*
G36*
X81893501Y-55439803D02*
G01*
X81917299Y-55468801D01*
X81946297Y-55492599D01*
X82033024Y-55563774D01*
X82165053Y-55634346D01*
X82308314Y-55677803D01*
X82457300Y-55692477D01*
X82494633Y-55688800D01*
X82841539Y-55688800D01*
X85183647Y-57967000D01*
X84029302Y-57967000D01*
X80726141Y-54663840D01*
X80960768Y-54507069D01*
X81893501Y-55439803D01*
G37*
X81893501Y-55439803D02*
X81917299Y-55468801D01*
X81946297Y-55492599D01*
X82033024Y-55563774D01*
X82165053Y-55634346D01*
X82308314Y-55677803D01*
X82457300Y-55692477D01*
X82494633Y-55688800D01*
X82841539Y-55688800D01*
X85183647Y-57967000D01*
X84029302Y-57967000D01*
X80726141Y-54663840D01*
X80960768Y-54507069D01*
X81893501Y-55439803D01*
G36*
X92544700Y-55036002D02*
G01*
X92544701Y-56721834D01*
X90627513Y-54772565D01*
X90879853Y-54668042D01*
X91125302Y-54504039D01*
X91334039Y-54295302D01*
X91498042Y-54049853D01*
X91515765Y-54007066D01*
X92544700Y-55036002D01*
G37*
X92544700Y-55036002D02*
X92544701Y-56721834D01*
X90627513Y-54772565D01*
X90879853Y-54668042D01*
X91125302Y-54504039D01*
X91334039Y-54295302D01*
X91498042Y-54049853D01*
X91515765Y-54007066D01*
X92544700Y-55036002D01*
G36*
X109730001Y-39243901D02*
G01*
X109730000Y-40691956D01*
X109575241Y-40795363D01*
X109375363Y-40995241D01*
X109218320Y-41230273D01*
X109110147Y-41491426D01*
X109055000Y-41768665D01*
X109055000Y-42051335D01*
X109110147Y-42328574D01*
X109218320Y-42589727D01*
X109375363Y-42824759D01*
X109575241Y-43024637D01*
X109810273Y-43181680D01*
X110071426Y-43289853D01*
X110348665Y-43345000D01*
X110631335Y-43345000D01*
X110908574Y-43289853D01*
X111154995Y-43187782D01*
X119967853Y-52000482D01*
X119940147Y-52011958D01*
X119694698Y-52175961D01*
X119485961Y-52384698D01*
X119321958Y-52630147D01*
X119208990Y-52902875D01*
X119151400Y-53192401D01*
X119151400Y-53487599D01*
X119208990Y-53777125D01*
X119321958Y-54049853D01*
X119485961Y-54295302D01*
X119694698Y-54504039D01*
X119853281Y-54610000D01*
X119694698Y-54715961D01*
X119485961Y-54924698D01*
X119321958Y-55170147D01*
X119208990Y-55442875D01*
X119151400Y-55732401D01*
X119151400Y-56027599D01*
X119208990Y-56317125D01*
X119239176Y-56390000D01*
X112891834Y-56390000D01*
X111178832Y-54676749D01*
X111199853Y-54668042D01*
X111445302Y-54504039D01*
X111654039Y-54295302D01*
X111760000Y-54136719D01*
X111865961Y-54295302D01*
X112074698Y-54504039D01*
X112320147Y-54668042D01*
X112592875Y-54781010D01*
X112882401Y-54838600D01*
X113177599Y-54838600D01*
X113467125Y-54781010D01*
X113739853Y-54668042D01*
X113985302Y-54504039D01*
X114194039Y-54295302D01*
X114358042Y-54049853D01*
X114471010Y-53777125D01*
X114528600Y-53487599D01*
X114528600Y-53192401D01*
X114514174Y-53119872D01*
X114605000Y-53119872D01*
X114605000Y-53560128D01*
X114690890Y-53991925D01*
X114859369Y-54398669D01*
X115103962Y-54764729D01*
X115415271Y-55076038D01*
X115781331Y-55320631D01*
X116188075Y-55489110D01*
X116619872Y-55575000D01*
X117060128Y-55575000D01*
X117491925Y-55489110D01*
X117898669Y-55320631D01*
X118264729Y-55076038D01*
X118576038Y-54764729D01*
X118820631Y-54398669D01*
X118989110Y-53991925D01*
X119075000Y-53560128D01*
X119075000Y-53119872D01*
X118989110Y-52688075D01*
X118820631Y-52281331D01*
X118576038Y-51915271D01*
X118264729Y-51603962D01*
X117898669Y-51359369D01*
X117491925Y-51190890D01*
X117060128Y-51105000D01*
X116619872Y-51105000D01*
X116188075Y-51190890D01*
X115781331Y-51359369D01*
X115415271Y-51603962D01*
X115103962Y-51915271D01*
X114859369Y-52281331D01*
X114690890Y-52688075D01*
X114605000Y-53119872D01*
X114514174Y-53119872D01*
X114471010Y-52902875D01*
X114358042Y-52630147D01*
X114194039Y-52384698D01*
X113985302Y-52175961D01*
X113739853Y-52011958D01*
X113467125Y-51898990D01*
X113177599Y-51841400D01*
X112882401Y-51841400D01*
X112592875Y-51898990D01*
X112320147Y-52011958D01*
X112074698Y-52175961D01*
X111865961Y-52384698D01*
X111760000Y-52543281D01*
X111654039Y-52384698D01*
X111445302Y-52175961D01*
X111199853Y-52011958D01*
X110927125Y-51898990D01*
X110637599Y-51841400D01*
X110342401Y-51841400D01*
X110052875Y-51898990D01*
X109780147Y-52011958D01*
X109534698Y-52175961D01*
X109325961Y-52384698D01*
X109220000Y-52543281D01*
X109114039Y-52384698D01*
X108905302Y-52175961D01*
X108659853Y-52011958D01*
X108387125Y-51898990D01*
X108097599Y-51841400D01*
X107802401Y-51841400D01*
X107512875Y-51898990D01*
X107440000Y-51929176D01*
X107440000Y-44544116D01*
X107443673Y-44507980D01*
X107440000Y-44469458D01*
X107440000Y-44468267D01*
X107436440Y-44432125D01*
X107429463Y-44358949D01*
X107429121Y-44357807D01*
X107429003Y-44356614D01*
X107407563Y-44285935D01*
X107386453Y-44215554D01*
X107385894Y-44214500D01*
X107385546Y-44213353D01*
X107350753Y-44148261D01*
X107316293Y-44083305D01*
X107315538Y-44082379D01*
X107314974Y-44081324D01*
X107268208Y-44024339D01*
X107245389Y-43996357D01*
X107244553Y-43995516D01*
X107220001Y-43965599D01*
X107191920Y-43942553D01*
X99075130Y-35775000D01*
X99206260Y-35775000D01*
X99493158Y-35717932D01*
X99763411Y-35605990D01*
X100006632Y-35443475D01*
X100138487Y-35311620D01*
X100160498Y-35384180D01*
X100219463Y-35494494D01*
X100298815Y-35591185D01*
X100395506Y-35670537D01*
X100505820Y-35729502D01*
X100625518Y-35765812D01*
X100750000Y-35778072D01*
X102450000Y-35778072D01*
X102574482Y-35765812D01*
X102694180Y-35729502D01*
X102804494Y-35670537D01*
X102901185Y-35591185D01*
X102980537Y-35494494D01*
X103039502Y-35384180D01*
X103075812Y-35264482D01*
X103088072Y-35140000D01*
X103088072Y-33440000D01*
X103075812Y-33315518D01*
X103039502Y-33195820D01*
X102980537Y-33085506D01*
X102901185Y-32988815D01*
X102804494Y-32909463D01*
X102694180Y-32850498D01*
X102621620Y-32828487D01*
X102753475Y-32696632D01*
X102915990Y-32453411D01*
X102922899Y-32436731D01*
X109730001Y-39243901D01*
G37*
X109730001Y-39243901D02*
X109730000Y-40691956D01*
X109575241Y-40795363D01*
X109375363Y-40995241D01*
X109218320Y-41230273D01*
X109110147Y-41491426D01*
X109055000Y-41768665D01*
X109055000Y-42051335D01*
X109110147Y-42328574D01*
X109218320Y-42589727D01*
X109375363Y-42824759D01*
X109575241Y-43024637D01*
X109810273Y-43181680D01*
X110071426Y-43289853D01*
X110348665Y-43345000D01*
X110631335Y-43345000D01*
X110908574Y-43289853D01*
X111154995Y-43187782D01*
X119967853Y-52000482D01*
X119940147Y-52011958D01*
X119694698Y-52175961D01*
X119485961Y-52384698D01*
X119321958Y-52630147D01*
X119208990Y-52902875D01*
X119151400Y-53192401D01*
X119151400Y-53487599D01*
X119208990Y-53777125D01*
X119321958Y-54049853D01*
X119485961Y-54295302D01*
X119694698Y-54504039D01*
X119853281Y-54610000D01*
X119694698Y-54715961D01*
X119485961Y-54924698D01*
X119321958Y-55170147D01*
X119208990Y-55442875D01*
X119151400Y-55732401D01*
X119151400Y-56027599D01*
X119208990Y-56317125D01*
X119239176Y-56390000D01*
X112891834Y-56390000D01*
X111178832Y-54676749D01*
X111199853Y-54668042D01*
X111445302Y-54504039D01*
X111654039Y-54295302D01*
X111760000Y-54136719D01*
X111865961Y-54295302D01*
X112074698Y-54504039D01*
X112320147Y-54668042D01*
X112592875Y-54781010D01*
X112882401Y-54838600D01*
X113177599Y-54838600D01*
X113467125Y-54781010D01*
X113739853Y-54668042D01*
X113985302Y-54504039D01*
X114194039Y-54295302D01*
X114358042Y-54049853D01*
X114471010Y-53777125D01*
X114528600Y-53487599D01*
X114528600Y-53192401D01*
X114514174Y-53119872D01*
X114605000Y-53119872D01*
X114605000Y-53560128D01*
X114690890Y-53991925D01*
X114859369Y-54398669D01*
X115103962Y-54764729D01*
X115415271Y-55076038D01*
X115781331Y-55320631D01*
X116188075Y-55489110D01*
X116619872Y-55575000D01*
X117060128Y-55575000D01*
X117491925Y-55489110D01*
X117898669Y-55320631D01*
X118264729Y-55076038D01*
X118576038Y-54764729D01*
X118820631Y-54398669D01*
X118989110Y-53991925D01*
X119075000Y-53560128D01*
X119075000Y-53119872D01*
X118989110Y-52688075D01*
X118820631Y-52281331D01*
X118576038Y-51915271D01*
X118264729Y-51603962D01*
X117898669Y-51359369D01*
X117491925Y-51190890D01*
X117060128Y-51105000D01*
X116619872Y-51105000D01*
X116188075Y-51190890D01*
X115781331Y-51359369D01*
X115415271Y-51603962D01*
X115103962Y-51915271D01*
X114859369Y-52281331D01*
X114690890Y-52688075D01*
X114605000Y-53119872D01*
X114514174Y-53119872D01*
X114471010Y-52902875D01*
X114358042Y-52630147D01*
X114194039Y-52384698D01*
X113985302Y-52175961D01*
X113739853Y-52011958D01*
X113467125Y-51898990D01*
X113177599Y-51841400D01*
X112882401Y-51841400D01*
X112592875Y-51898990D01*
X112320147Y-52011958D01*
X112074698Y-52175961D01*
X111865961Y-52384698D01*
X111760000Y-52543281D01*
X111654039Y-52384698D01*
X111445302Y-52175961D01*
X111199853Y-52011958D01*
X110927125Y-51898990D01*
X110637599Y-51841400D01*
X110342401Y-51841400D01*
X110052875Y-51898990D01*
X109780147Y-52011958D01*
X109534698Y-52175961D01*
X109325961Y-52384698D01*
X109220000Y-52543281D01*
X109114039Y-52384698D01*
X108905302Y-52175961D01*
X108659853Y-52011958D01*
X108387125Y-51898990D01*
X108097599Y-51841400D01*
X107802401Y-51841400D01*
X107512875Y-51898990D01*
X107440000Y-51929176D01*
X107440000Y-44544116D01*
X107443673Y-44507980D01*
X107440000Y-44469458D01*
X107440000Y-44468267D01*
X107436440Y-44432125D01*
X107429463Y-44358949D01*
X107429121Y-44357807D01*
X107429003Y-44356614D01*
X107407563Y-44285935D01*
X107386453Y-44215554D01*
X107385894Y-44214500D01*
X107385546Y-44213353D01*
X107350753Y-44148261D01*
X107316293Y-44083305D01*
X107315538Y-44082379D01*
X107314974Y-44081324D01*
X107268208Y-44024339D01*
X107245389Y-43996357D01*
X107244553Y-43995516D01*
X107220001Y-43965599D01*
X107191920Y-43942553D01*
X99075130Y-35775000D01*
X99206260Y-35775000D01*
X99493158Y-35717932D01*
X99763411Y-35605990D01*
X100006632Y-35443475D01*
X100138487Y-35311620D01*
X100160498Y-35384180D01*
X100219463Y-35494494D01*
X100298815Y-35591185D01*
X100395506Y-35670537D01*
X100505820Y-35729502D01*
X100625518Y-35765812D01*
X100750000Y-35778072D01*
X102450000Y-35778072D01*
X102574482Y-35765812D01*
X102694180Y-35729502D01*
X102804494Y-35670537D01*
X102901185Y-35591185D01*
X102980537Y-35494494D01*
X103039502Y-35384180D01*
X103075812Y-35264482D01*
X103088072Y-35140000D01*
X103088072Y-33440000D01*
X103075812Y-33315518D01*
X103039502Y-33195820D01*
X102980537Y-33085506D01*
X102901185Y-32988815D01*
X102804494Y-32909463D01*
X102694180Y-32850498D01*
X102621620Y-32828487D01*
X102753475Y-32696632D01*
X102915990Y-32453411D01*
X102922899Y-32436731D01*
X109730001Y-39243901D01*
G36*
X122014286Y-54942170D02*
G01*
X121920000Y-55083281D01*
X121814039Y-54924698D01*
X121605302Y-54715961D01*
X121446719Y-54610000D01*
X121587729Y-54515781D01*
X122014286Y-54942170D01*
G37*
X122014286Y-54942170D02*
X121920000Y-55083281D01*
X121814039Y-54924698D01*
X121605302Y-54715961D01*
X121446719Y-54610000D01*
X121587729Y-54515781D01*
X122014286Y-54942170D01*
G36*
X71734601Y-51989403D02*
G01*
X71680147Y-52011958D01*
X71434698Y-52175961D01*
X71225961Y-52384698D01*
X71061958Y-52630147D01*
X70948990Y-52902875D01*
X70891400Y-53192401D01*
X70891400Y-53487599D01*
X70948990Y-53777125D01*
X71020524Y-53949822D01*
X70935647Y-53904454D01*
X70792386Y-53860997D01*
X70680733Y-53850000D01*
X70680722Y-53850000D01*
X70643400Y-53846324D01*
X70606078Y-53850000D01*
X69736824Y-53850000D01*
X69767010Y-53777125D01*
X69824600Y-53487599D01*
X69824600Y-53192401D01*
X69767010Y-52902875D01*
X69654042Y-52630147D01*
X69490039Y-52384698D01*
X69281302Y-52175961D01*
X69035853Y-52011958D01*
X68763125Y-51898990D01*
X68473599Y-51841400D01*
X68178401Y-51841400D01*
X67888875Y-51898990D01*
X67616147Y-52011958D01*
X67421751Y-52141849D01*
X65235804Y-49955903D01*
X65212001Y-49926899D01*
X65096276Y-49831926D01*
X64964247Y-49761354D01*
X64820986Y-49717897D01*
X64709333Y-49706900D01*
X64709322Y-49706900D01*
X64672000Y-49703224D01*
X64634678Y-49706900D01*
X62471211Y-49706900D01*
X62427274Y-49662963D01*
X62257756Y-49549695D01*
X62069398Y-49471674D01*
X61869439Y-49431900D01*
X61665561Y-49431900D01*
X61465602Y-49471674D01*
X61277244Y-49549695D01*
X61107726Y-49662963D01*
X60963563Y-49807126D01*
X60850295Y-49976644D01*
X60772274Y-50165002D01*
X60766323Y-50194921D01*
X53465000Y-42893599D01*
X53465000Y-36792800D01*
X56537999Y-36792800D01*
X71734601Y-51989403D01*
G37*
X71734601Y-51989403D02*
X71680147Y-52011958D01*
X71434698Y-52175961D01*
X71225961Y-52384698D01*
X71061958Y-52630147D01*
X70948990Y-52902875D01*
X70891400Y-53192401D01*
X70891400Y-53487599D01*
X70948990Y-53777125D01*
X71020524Y-53949822D01*
X70935647Y-53904454D01*
X70792386Y-53860997D01*
X70680733Y-53850000D01*
X70680722Y-53850000D01*
X70643400Y-53846324D01*
X70606078Y-53850000D01*
X69736824Y-53850000D01*
X69767010Y-53777125D01*
X69824600Y-53487599D01*
X69824600Y-53192401D01*
X69767010Y-52902875D01*
X69654042Y-52630147D01*
X69490039Y-52384698D01*
X69281302Y-52175961D01*
X69035853Y-52011958D01*
X68763125Y-51898990D01*
X68473599Y-51841400D01*
X68178401Y-51841400D01*
X67888875Y-51898990D01*
X67616147Y-52011958D01*
X67421751Y-52141849D01*
X65235804Y-49955903D01*
X65212001Y-49926899D01*
X65096276Y-49831926D01*
X64964247Y-49761354D01*
X64820986Y-49717897D01*
X64709333Y-49706900D01*
X64709322Y-49706900D01*
X64672000Y-49703224D01*
X64634678Y-49706900D01*
X62471211Y-49706900D01*
X62427274Y-49662963D01*
X62257756Y-49549695D01*
X62069398Y-49471674D01*
X61869439Y-49431900D01*
X61665561Y-49431900D01*
X61465602Y-49471674D01*
X61277244Y-49549695D01*
X61107726Y-49662963D01*
X60963563Y-49807126D01*
X60850295Y-49976644D01*
X60772274Y-50165002D01*
X60766323Y-50194921D01*
X53465000Y-42893599D01*
X53465000Y-36792800D01*
X56537999Y-36792800D01*
X71734601Y-51989403D01*
G36*
X95366525Y-35236632D02*
G01*
X95573368Y-35443475D01*
X95766911Y-35572796D01*
X95770997Y-35614285D01*
X95805947Y-35729502D01*
X95814454Y-35757546D01*
X95885026Y-35889576D01*
X95908030Y-35917606D01*
X95979999Y-36005301D01*
X96009003Y-36029104D01*
X103380001Y-43400103D01*
X103380000Y-51929176D01*
X103307125Y-51898990D01*
X103017599Y-51841400D01*
X102722401Y-51841400D01*
X102432875Y-51898990D01*
X102160147Y-52011958D01*
X101914698Y-52175961D01*
X101705961Y-52384698D01*
X101600000Y-52543281D01*
X101494039Y-52384698D01*
X101285302Y-52175961D01*
X101039853Y-52011958D01*
X100767125Y-51898990D01*
X100477599Y-51841400D01*
X100182401Y-51841400D01*
X99892875Y-51898990D01*
X99620147Y-52011958D01*
X99374698Y-52175961D01*
X99165961Y-52384698D01*
X99060000Y-52543281D01*
X98954039Y-52384698D01*
X98745302Y-52175961D01*
X98499853Y-52011958D01*
X98227125Y-51898990D01*
X97937599Y-51841400D01*
X97642401Y-51841400D01*
X97352875Y-51898990D01*
X97080147Y-52011958D01*
X96834698Y-52175961D01*
X96625961Y-52384698D01*
X96520000Y-52543281D01*
X96414039Y-52384698D01*
X96205302Y-52175961D01*
X95959853Y-52011958D01*
X95687125Y-51898990D01*
X95397599Y-51841400D01*
X95102401Y-51841400D01*
X94812875Y-51898990D01*
X94540147Y-52011958D01*
X94294698Y-52175961D01*
X94085961Y-52384698D01*
X93921958Y-52630147D01*
X93808990Y-52902875D01*
X93751400Y-53192401D01*
X93751400Y-53456198D01*
X90806904Y-50511703D01*
X90783101Y-50482699D01*
X90667376Y-50387726D01*
X90535347Y-50317154D01*
X90392086Y-50273697D01*
X90280433Y-50262700D01*
X90280422Y-50262700D01*
X90243100Y-50259024D01*
X90205778Y-50262700D01*
X89532202Y-50262700D01*
X81274419Y-42004917D01*
X81316456Y-41987505D01*
X81485974Y-41874237D01*
X81630137Y-41730074D01*
X81743405Y-41560556D01*
X81821426Y-41372198D01*
X81861200Y-41172239D01*
X81861200Y-41113329D01*
X84965052Y-38029578D01*
X84966002Y-38028799D01*
X84991354Y-38003447D01*
X85017136Y-37977832D01*
X85017929Y-37976872D01*
X85696004Y-37298798D01*
X85725001Y-37275001D01*
X85751332Y-37242917D01*
X85819974Y-37159277D01*
X85890546Y-37027247D01*
X85899611Y-36997363D01*
X85934003Y-36883986D01*
X85945000Y-36772333D01*
X85945000Y-36772323D01*
X85948676Y-36735000D01*
X85945000Y-36697677D01*
X85945000Y-35721544D01*
X86213740Y-35775000D01*
X86506260Y-35775000D01*
X86793158Y-35717932D01*
X87063411Y-35605990D01*
X87306632Y-35443475D01*
X87513475Y-35236632D01*
X87630000Y-35062240D01*
X87746525Y-35236632D01*
X87953368Y-35443475D01*
X88196589Y-35605990D01*
X88466842Y-35717932D01*
X88753740Y-35775000D01*
X89046260Y-35775000D01*
X89333158Y-35717932D01*
X89603411Y-35605990D01*
X89846632Y-35443475D01*
X90053475Y-35236632D01*
X90170000Y-35062240D01*
X90286525Y-35236632D01*
X90493368Y-35443475D01*
X90736589Y-35605990D01*
X91006842Y-35717932D01*
X91293740Y-35775000D01*
X91586260Y-35775000D01*
X91873158Y-35717932D01*
X92143411Y-35605990D01*
X92386632Y-35443475D01*
X92593475Y-35236632D01*
X92710000Y-35062240D01*
X92826525Y-35236632D01*
X93033368Y-35443475D01*
X93276589Y-35605990D01*
X93546842Y-35717932D01*
X93833740Y-35775000D01*
X94126260Y-35775000D01*
X94413158Y-35717932D01*
X94683411Y-35605990D01*
X94926632Y-35443475D01*
X95133475Y-35236632D01*
X95250000Y-35062240D01*
X95366525Y-35236632D01*
G37*
X95366525Y-35236632D02*
X95573368Y-35443475D01*
X95766911Y-35572796D01*
X95770997Y-35614285D01*
X95805947Y-35729502D01*
X95814454Y-35757546D01*
X95885026Y-35889576D01*
X95908030Y-35917606D01*
X95979999Y-36005301D01*
X96009003Y-36029104D01*
X103380001Y-43400103D01*
X103380000Y-51929176D01*
X103307125Y-51898990D01*
X103017599Y-51841400D01*
X102722401Y-51841400D01*
X102432875Y-51898990D01*
X102160147Y-52011958D01*
X101914698Y-52175961D01*
X101705961Y-52384698D01*
X101600000Y-52543281D01*
X101494039Y-52384698D01*
X101285302Y-52175961D01*
X101039853Y-52011958D01*
X100767125Y-51898990D01*
X100477599Y-51841400D01*
X100182401Y-51841400D01*
X99892875Y-51898990D01*
X99620147Y-52011958D01*
X99374698Y-52175961D01*
X99165961Y-52384698D01*
X99060000Y-52543281D01*
X98954039Y-52384698D01*
X98745302Y-52175961D01*
X98499853Y-52011958D01*
X98227125Y-51898990D01*
X97937599Y-51841400D01*
X97642401Y-51841400D01*
X97352875Y-51898990D01*
X97080147Y-52011958D01*
X96834698Y-52175961D01*
X96625961Y-52384698D01*
X96520000Y-52543281D01*
X96414039Y-52384698D01*
X96205302Y-52175961D01*
X95959853Y-52011958D01*
X95687125Y-51898990D01*
X95397599Y-51841400D01*
X95102401Y-51841400D01*
X94812875Y-51898990D01*
X94540147Y-52011958D01*
X94294698Y-52175961D01*
X94085961Y-52384698D01*
X93921958Y-52630147D01*
X93808990Y-52902875D01*
X93751400Y-53192401D01*
X93751400Y-53456198D01*
X90806904Y-50511703D01*
X90783101Y-50482699D01*
X90667376Y-50387726D01*
X90535347Y-50317154D01*
X90392086Y-50273697D01*
X90280433Y-50262700D01*
X90280422Y-50262700D01*
X90243100Y-50259024D01*
X90205778Y-50262700D01*
X89532202Y-50262700D01*
X81274419Y-42004917D01*
X81316456Y-41987505D01*
X81485974Y-41874237D01*
X81630137Y-41730074D01*
X81743405Y-41560556D01*
X81821426Y-41372198D01*
X81861200Y-41172239D01*
X81861200Y-41113329D01*
X84965052Y-38029578D01*
X84966002Y-38028799D01*
X84991354Y-38003447D01*
X85017136Y-37977832D01*
X85017929Y-37976872D01*
X85696004Y-37298798D01*
X85725001Y-37275001D01*
X85751332Y-37242917D01*
X85819974Y-37159277D01*
X85890546Y-37027247D01*
X85899611Y-36997363D01*
X85934003Y-36883986D01*
X85945000Y-36772333D01*
X85945000Y-36772323D01*
X85948676Y-36735000D01*
X85945000Y-36697677D01*
X85945000Y-35721544D01*
X86213740Y-35775000D01*
X86506260Y-35775000D01*
X86793158Y-35717932D01*
X87063411Y-35605990D01*
X87306632Y-35443475D01*
X87513475Y-35236632D01*
X87630000Y-35062240D01*
X87746525Y-35236632D01*
X87953368Y-35443475D01*
X88196589Y-35605990D01*
X88466842Y-35717932D01*
X88753740Y-35775000D01*
X89046260Y-35775000D01*
X89333158Y-35717932D01*
X89603411Y-35605990D01*
X89846632Y-35443475D01*
X90053475Y-35236632D01*
X90170000Y-35062240D01*
X90286525Y-35236632D01*
X90493368Y-35443475D01*
X90736589Y-35605990D01*
X91006842Y-35717932D01*
X91293740Y-35775000D01*
X91586260Y-35775000D01*
X91873158Y-35717932D01*
X92143411Y-35605990D01*
X92386632Y-35443475D01*
X92593475Y-35236632D01*
X92710000Y-35062240D01*
X92826525Y-35236632D01*
X93033368Y-35443475D01*
X93276589Y-35605990D01*
X93546842Y-35717932D01*
X93833740Y-35775000D01*
X94126260Y-35775000D01*
X94413158Y-35717932D01*
X94683411Y-35605990D01*
X94926632Y-35443475D01*
X95133475Y-35236632D01*
X95250000Y-35062240D01*
X95366525Y-35236632D01*
G36*
X65122893Y-51992595D02*
G01*
X65076147Y-52011958D01*
X64830698Y-52175961D01*
X64621961Y-52384698D01*
X64516000Y-52543281D01*
X64410039Y-52384698D01*
X64201302Y-52175961D01*
X63955853Y-52011958D01*
X63683125Y-51898990D01*
X63393599Y-51841400D01*
X63098401Y-51841400D01*
X62808875Y-51898990D01*
X62569754Y-51998038D01*
X62568003Y-51996601D01*
X62039479Y-51468077D01*
X62069398Y-51462126D01*
X62257756Y-51384105D01*
X62427274Y-51270837D01*
X62471211Y-51226900D01*
X64357199Y-51226900D01*
X65122893Y-51992595D01*
G37*
X65122893Y-51992595D02*
X65076147Y-52011958D01*
X64830698Y-52175961D01*
X64621961Y-52384698D01*
X64516000Y-52543281D01*
X64410039Y-52384698D01*
X64201302Y-52175961D01*
X63955853Y-52011958D01*
X63683125Y-51898990D01*
X63393599Y-51841400D01*
X63098401Y-51841400D01*
X62808875Y-51898990D01*
X62569754Y-51998038D01*
X62568003Y-51996601D01*
X62039479Y-51468077D01*
X62069398Y-51462126D01*
X62257756Y-51384105D01*
X62427274Y-51270837D01*
X62471211Y-51226900D01*
X64357199Y-51226900D01*
X65122893Y-51992595D01*
G36*
X60312175Y-51890377D02*
G01*
X60268875Y-51898990D01*
X59996147Y-52011958D01*
X59750698Y-52175961D01*
X59541961Y-52384698D01*
X59436000Y-52543281D01*
X59330039Y-52384698D01*
X59121302Y-52175961D01*
X58875853Y-52011958D01*
X58603125Y-51898990D01*
X58313599Y-51841400D01*
X58018401Y-51841400D01*
X57728875Y-51898990D01*
X57456147Y-52011958D01*
X57210698Y-52175961D01*
X57001961Y-52384698D01*
X56896000Y-52543281D01*
X56790039Y-52384698D01*
X56581302Y-52175961D01*
X56335853Y-52011958D01*
X56063125Y-51898990D01*
X55773599Y-51841400D01*
X55478401Y-51841400D01*
X55188875Y-51898990D01*
X54916147Y-52011958D01*
X54670698Y-52175961D01*
X54461961Y-52384698D01*
X54356000Y-52543281D01*
X54250039Y-52384698D01*
X54041302Y-52175961D01*
X53795853Y-52011958D01*
X53523125Y-51898990D01*
X53233599Y-51841400D01*
X52938401Y-51841400D01*
X52648875Y-51898990D01*
X52376147Y-52011958D01*
X52130698Y-52175961D01*
X51921961Y-52384698D01*
X51816000Y-52543281D01*
X51710039Y-52384698D01*
X51501302Y-52175961D01*
X51255853Y-52011958D01*
X50983125Y-51898990D01*
X50693599Y-51841400D01*
X50660401Y-51841400D01*
X52101904Y-50399898D01*
X52130901Y-50376101D01*
X52179278Y-50317154D01*
X52225874Y-50260377D01*
X52296446Y-50128347D01*
X52310456Y-50082161D01*
X52339903Y-49985086D01*
X52350900Y-49873433D01*
X52350900Y-49873423D01*
X52354576Y-49836100D01*
X52350900Y-49798777D01*
X52350900Y-43929101D01*
X60312175Y-51890377D01*
G37*
X60312175Y-51890377D02*
X60268875Y-51898990D01*
X59996147Y-52011958D01*
X59750698Y-52175961D01*
X59541961Y-52384698D01*
X59436000Y-52543281D01*
X59330039Y-52384698D01*
X59121302Y-52175961D01*
X58875853Y-52011958D01*
X58603125Y-51898990D01*
X58313599Y-51841400D01*
X58018401Y-51841400D01*
X57728875Y-51898990D01*
X57456147Y-52011958D01*
X57210698Y-52175961D01*
X57001961Y-52384698D01*
X56896000Y-52543281D01*
X56790039Y-52384698D01*
X56581302Y-52175961D01*
X56335853Y-52011958D01*
X56063125Y-51898990D01*
X55773599Y-51841400D01*
X55478401Y-51841400D01*
X55188875Y-51898990D01*
X54916147Y-52011958D01*
X54670698Y-52175961D01*
X54461961Y-52384698D01*
X54356000Y-52543281D01*
X54250039Y-52384698D01*
X54041302Y-52175961D01*
X53795853Y-52011958D01*
X53523125Y-51898990D01*
X53233599Y-51841400D01*
X52938401Y-51841400D01*
X52648875Y-51898990D01*
X52376147Y-52011958D01*
X52130698Y-52175961D01*
X51921961Y-52384698D01*
X51816000Y-52543281D01*
X51710039Y-52384698D01*
X51501302Y-52175961D01*
X51255853Y-52011958D01*
X50983125Y-51898990D01*
X50693599Y-51841400D01*
X50660401Y-51841400D01*
X52101904Y-50399898D01*
X52130901Y-50376101D01*
X52179278Y-50317154D01*
X52225874Y-50260377D01*
X52296446Y-50128347D01*
X52310456Y-50082161D01*
X52339903Y-49985086D01*
X52350900Y-49873433D01*
X52350900Y-49873423D01*
X52354576Y-49836100D01*
X52350900Y-49798777D01*
X52350900Y-43929101D01*
X60312175Y-51890377D01*
G36*
X70447667Y-36955000D02*
G01*
X70447677Y-36955000D01*
X70485000Y-36958676D01*
X70522323Y-36955000D01*
X71445855Y-36955000D01*
X86903102Y-52023347D01*
X86679173Y-52172971D01*
X83313704Y-48807503D01*
X83289901Y-48778499D01*
X83174176Y-48683526D01*
X83042147Y-48612954D01*
X82898886Y-48569497D01*
X82787233Y-48558500D01*
X82787222Y-48558500D01*
X82749900Y-48554824D01*
X82712578Y-48558500D01*
X82188525Y-48558500D01*
X70438175Y-36954065D01*
X70447667Y-36955000D01*
G37*
X70447667Y-36955000D02*
X70447677Y-36955000D01*
X70485000Y-36958676D01*
X70522323Y-36955000D01*
X71445855Y-36955000D01*
X86903102Y-52023347D01*
X86679173Y-52172971D01*
X83313704Y-48807503D01*
X83289901Y-48778499D01*
X83174176Y-48683526D01*
X83042147Y-48612954D01*
X82898886Y-48569497D01*
X82787233Y-48558500D01*
X82787222Y-48558500D01*
X82749900Y-48554824D01*
X82712578Y-48558500D01*
X82188525Y-48558500D01*
X70438175Y-36954065D01*
X70447667Y-36955000D01*
G36*
X84373199Y-52016601D02*
G01*
X84166481Y-52154724D01*
X82032760Y-50078500D01*
X82435099Y-50078500D01*
X84373199Y-52016601D01*
G37*
X84373199Y-52016601D02*
X84166481Y-52154724D01*
X82032760Y-50078500D01*
X82435099Y-50078500D01*
X84373199Y-52016601D01*
G36*
X76799533Y-51995644D02*
G01*
X76760147Y-52011958D01*
X76546542Y-52154684D01*
X61006206Y-37033200D01*
X61836999Y-37033200D01*
X76799533Y-51995644D01*
G37*
X76799533Y-51995644D02*
X76760147Y-52011958D01*
X76546542Y-52154684D01*
X61006206Y-37033200D01*
X61836999Y-37033200D01*
X76799533Y-51995644D01*
G36*
X79348518Y-51991922D02*
G01*
X79300147Y-52011958D01*
X79099516Y-52146015D01*
X63273406Y-36320000D01*
X63818176Y-36320000D01*
X79348518Y-51991922D01*
G37*
X79348518Y-51991922D02*
X79300147Y-52011958D01*
X79099516Y-52146015D01*
X63273406Y-36320000D01*
X63818176Y-36320000D01*
X79348518Y-51991922D01*
G36*
X81840176Y-52011946D02*
G01*
X81840147Y-52011958D01*
X81640490Y-52145364D01*
X72552939Y-42974967D01*
X81840176Y-52011946D01*
G37*
X81840176Y-52011946D02*
X81840147Y-52011958D01*
X81640490Y-52145364D01*
X72552939Y-42974967D01*
X81840176Y-52011946D01*
G36*
X74220242Y-52011919D02*
G01*
X74220147Y-52011958D01*
X74032285Y-52137483D01*
X62587817Y-40693016D01*
X74220242Y-52011919D01*
G37*
X74220242Y-52011919D02*
X74220147Y-52011958D01*
X74032285Y-52137483D01*
X62587817Y-40693016D01*
X74220242Y-52011919D01*
G36*
X105920001Y-44819016D02*
G01*
X105920000Y-51929176D01*
X105847125Y-51898990D01*
X105557599Y-51841400D01*
X105262401Y-51841400D01*
X104972875Y-51898990D01*
X104900000Y-51929176D01*
X104900000Y-43792635D01*
X105920001Y-44819016D01*
G37*
X105920001Y-44819016D02*
X105920000Y-51929176D01*
X105847125Y-51898990D01*
X105557599Y-51841400D01*
X105262401Y-51841400D01*
X104972875Y-51898990D01*
X104900000Y-51929176D01*
X104900000Y-43792635D01*
X105920001Y-44819016D01*
G36*
X50380501Y-45888006D02*
G01*
X50285397Y-45658405D01*
X50380501Y-45563301D01*
X50380501Y-45888006D01*
G37*
X50380501Y-45888006D02*
X50285397Y-45658405D01*
X50380501Y-45563301D01*
X50380501Y-45888006D01*
G36*
X80126525Y-35236632D02*
G01*
X80333368Y-35443475D01*
X80576589Y-35605990D01*
X80846842Y-35717932D01*
X81133740Y-35775000D01*
X81426260Y-35775000D01*
X81713158Y-35717932D01*
X81885001Y-35646753D01*
X81885001Y-36392997D01*
X81511699Y-36766300D01*
X81449561Y-36766300D01*
X81249602Y-36806074D01*
X81061244Y-36884095D01*
X80891726Y-36997363D01*
X80747563Y-37141526D01*
X80634295Y-37311044D01*
X80556274Y-37499402D01*
X80516500Y-37699361D01*
X80516500Y-37903239D01*
X80556274Y-38103198D01*
X80634295Y-38291556D01*
X80747563Y-38461074D01*
X80891726Y-38605237D01*
X81061244Y-38718505D01*
X81249602Y-38796526D01*
X81449561Y-38836300D01*
X81653439Y-38836300D01*
X81853398Y-38796526D01*
X82041756Y-38718505D01*
X82211274Y-38605237D01*
X82355437Y-38461074D01*
X82468705Y-38291556D01*
X82546726Y-38103198D01*
X82586500Y-37903239D01*
X82586500Y-37841101D01*
X83156003Y-37271599D01*
X83185001Y-37247801D01*
X83279974Y-37132076D01*
X83350546Y-37000047D01*
X83394003Y-36856786D01*
X83405000Y-36745133D01*
X83408677Y-36707800D01*
X83405000Y-36670467D01*
X83405000Y-35721544D01*
X83673740Y-35775000D01*
X83966260Y-35775000D01*
X84253158Y-35717932D01*
X84425000Y-35646753D01*
X84425000Y-36420198D01*
X83918647Y-36926552D01*
X80789636Y-40035300D01*
X80724261Y-40035300D01*
X80524302Y-40075074D01*
X80335944Y-40153095D01*
X80166426Y-40266363D01*
X80022263Y-40410526D01*
X79908995Y-40580044D01*
X79891583Y-40622081D01*
X74659804Y-35390303D01*
X74813475Y-35236632D01*
X74930000Y-35062240D01*
X75046525Y-35236632D01*
X75253368Y-35443475D01*
X75496589Y-35605990D01*
X75766842Y-35717932D01*
X76053740Y-35775000D01*
X76346260Y-35775000D01*
X76633158Y-35717932D01*
X76903411Y-35605990D01*
X77146632Y-35443475D01*
X77353475Y-35236632D01*
X77470000Y-35062240D01*
X77586525Y-35236632D01*
X77793368Y-35443475D01*
X78036589Y-35605990D01*
X78306842Y-35717932D01*
X78593740Y-35775000D01*
X78886260Y-35775000D01*
X79173158Y-35717932D01*
X79443411Y-35605990D01*
X79686632Y-35443475D01*
X79893475Y-35236632D01*
X80010000Y-35062240D01*
X80126525Y-35236632D01*
G37*
X80126525Y-35236632D02*
X80333368Y-35443475D01*
X80576589Y-35605990D01*
X80846842Y-35717932D01*
X81133740Y-35775000D01*
X81426260Y-35775000D01*
X81713158Y-35717932D01*
X81885001Y-35646753D01*
X81885001Y-36392997D01*
X81511699Y-36766300D01*
X81449561Y-36766300D01*
X81249602Y-36806074D01*
X81061244Y-36884095D01*
X80891726Y-36997363D01*
X80747563Y-37141526D01*
X80634295Y-37311044D01*
X80556274Y-37499402D01*
X80516500Y-37699361D01*
X80516500Y-37903239D01*
X80556274Y-38103198D01*
X80634295Y-38291556D01*
X80747563Y-38461074D01*
X80891726Y-38605237D01*
X81061244Y-38718505D01*
X81249602Y-38796526D01*
X81449561Y-38836300D01*
X81653439Y-38836300D01*
X81853398Y-38796526D01*
X82041756Y-38718505D01*
X82211274Y-38605237D01*
X82355437Y-38461074D01*
X82468705Y-38291556D01*
X82546726Y-38103198D01*
X82586500Y-37903239D01*
X82586500Y-37841101D01*
X83156003Y-37271599D01*
X83185001Y-37247801D01*
X83279974Y-37132076D01*
X83350546Y-37000047D01*
X83394003Y-36856786D01*
X83405000Y-36745133D01*
X83408677Y-36707800D01*
X83405000Y-36670467D01*
X83405000Y-35721544D01*
X83673740Y-35775000D01*
X83966260Y-35775000D01*
X84253158Y-35717932D01*
X84425000Y-35646753D01*
X84425000Y-36420198D01*
X83918647Y-36926552D01*
X80789636Y-40035300D01*
X80724261Y-40035300D01*
X80524302Y-40075074D01*
X80335944Y-40153095D01*
X80166426Y-40266363D01*
X80022263Y-40410526D01*
X79908995Y-40580044D01*
X79891583Y-40622081D01*
X74659804Y-35390303D01*
X74813475Y-35236632D01*
X74930000Y-35062240D01*
X75046525Y-35236632D01*
X75253368Y-35443475D01*
X75496589Y-35605990D01*
X75766842Y-35717932D01*
X76053740Y-35775000D01*
X76346260Y-35775000D01*
X76633158Y-35717932D01*
X76903411Y-35605990D01*
X77146632Y-35443475D01*
X77353475Y-35236632D01*
X77470000Y-35062240D01*
X77586525Y-35236632D01*
X77793368Y-35443475D01*
X78036589Y-35605990D01*
X78306842Y-35717932D01*
X78593740Y-35775000D01*
X78886260Y-35775000D01*
X79173158Y-35717932D01*
X79443411Y-35605990D01*
X79686632Y-35443475D01*
X79893475Y-35236632D01*
X80010000Y-35062240D01*
X80126525Y-35236632D01*
G36*
X54726525Y-35236632D02*
G01*
X54762693Y-35272800D01*
X54457307Y-35272800D01*
X54493475Y-35236632D01*
X54610000Y-35062240D01*
X54726525Y-35236632D01*
G37*
X54726525Y-35236632D02*
X54762693Y-35272800D01*
X54457307Y-35272800D01*
X54493475Y-35236632D01*
X54610000Y-35062240D01*
X54726525Y-35236632D01*
G36*
X49479700Y-34575967D02*
G01*
X49318669Y-34468369D01*
X49020000Y-34344656D01*
X49020000Y-32902501D01*
X49479700Y-32442801D01*
X49479700Y-34575967D01*
G37*
X49479700Y-34575967D02*
X49318669Y-34468369D01*
X49020000Y-34344656D01*
X49020000Y-32902501D01*
X49479700Y-32442801D01*
X49479700Y-34575967D01*
G36*
X62226298Y-33437302D02*
G01*
X62230026Y-33444276D01*
X62257077Y-33477237D01*
X62230000Y-33517760D01*
X62113475Y-33343368D01*
X61906632Y-33136525D01*
X61732240Y-33020000D01*
X61840886Y-32947405D01*
X62226298Y-33437302D01*
G37*
X62226298Y-33437302D02*
X62230026Y-33444276D01*
X62257077Y-33477237D01*
X62230000Y-33517760D01*
X62113475Y-33343368D01*
X61906632Y-33136525D01*
X61732240Y-33020000D01*
X61840886Y-32947405D01*
X62226298Y-33437302D01*
G36*
X87746525Y-32696632D02*
G01*
X87953368Y-32903475D01*
X88127760Y-33020000D01*
X87953368Y-33136525D01*
X87746525Y-33343368D01*
X87630000Y-33517760D01*
X87513475Y-33343368D01*
X87306632Y-33136525D01*
X87132240Y-33020000D01*
X87306632Y-32903475D01*
X87513475Y-32696632D01*
X87630000Y-32522240D01*
X87746525Y-32696632D01*
G37*
X87746525Y-32696632D02*
X87953368Y-32903475D01*
X88127760Y-33020000D01*
X87953368Y-33136525D01*
X87746525Y-33343368D01*
X87630000Y-33517760D01*
X87513475Y-33343368D01*
X87306632Y-33136525D01*
X87132240Y-33020000D01*
X87306632Y-32903475D01*
X87513475Y-32696632D01*
X87630000Y-32522240D01*
X87746525Y-32696632D01*
G36*
X80126525Y-32696632D02*
G01*
X80333368Y-32903475D01*
X80507760Y-33020000D01*
X80333368Y-33136525D01*
X80126525Y-33343368D01*
X80010000Y-33517760D01*
X79893475Y-33343368D01*
X79686632Y-33136525D01*
X79512240Y-33020000D01*
X79686632Y-32903475D01*
X79893475Y-32696632D01*
X80010000Y-32522240D01*
X80126525Y-32696632D01*
G37*
X80126525Y-32696632D02*
X80333368Y-32903475D01*
X80507760Y-33020000D01*
X80333368Y-33136525D01*
X80126525Y-33343368D01*
X80010000Y-33517760D01*
X79893475Y-33343368D01*
X79686632Y-33136525D01*
X79512240Y-33020000D01*
X79686632Y-32903475D01*
X79893475Y-32696632D01*
X80010000Y-32522240D01*
X80126525Y-32696632D01*
G36*
X59806525Y-32696632D02*
G01*
X60013368Y-32903475D01*
X60187760Y-33020000D01*
X60013368Y-33136525D01*
X59806525Y-33343368D01*
X59690000Y-33517760D01*
X59573475Y-33343368D01*
X59366632Y-33136525D01*
X59192240Y-33020000D01*
X59366632Y-32903475D01*
X59573475Y-32696632D01*
X59690000Y-32522240D01*
X59806525Y-32696632D01*
G37*
X59806525Y-32696632D02*
X60013368Y-32903475D01*
X60187760Y-33020000D01*
X60013368Y-33136525D01*
X59806525Y-33343368D01*
X59690000Y-33517760D01*
X59573475Y-33343368D01*
X59366632Y-33136525D01*
X59192240Y-33020000D01*
X59366632Y-32903475D01*
X59573475Y-32696632D01*
X59690000Y-32522240D01*
X59806525Y-32696632D01*
G36*
X92826525Y-32696632D02*
G01*
X93033368Y-32903475D01*
X93207760Y-33020000D01*
X93033368Y-33136525D01*
X92826525Y-33343368D01*
X92710000Y-33517760D01*
X92593475Y-33343368D01*
X92386632Y-33136525D01*
X92212240Y-33020000D01*
X92386632Y-32903475D01*
X92593475Y-32696632D01*
X92710000Y-32522240D01*
X92826525Y-32696632D01*
G37*
X92826525Y-32696632D02*
X93033368Y-32903475D01*
X93207760Y-33020000D01*
X93033368Y-33136525D01*
X92826525Y-33343368D01*
X92710000Y-33517760D01*
X92593475Y-33343368D01*
X92386632Y-33136525D01*
X92212240Y-33020000D01*
X92386632Y-32903475D01*
X92593475Y-32696632D01*
X92710000Y-32522240D01*
X92826525Y-32696632D01*
G36*
X95366525Y-32696632D02*
G01*
X95573368Y-32903475D01*
X95747760Y-33020000D01*
X95573368Y-33136525D01*
X95366525Y-33343368D01*
X95250000Y-33517760D01*
X95133475Y-33343368D01*
X94926632Y-33136525D01*
X94752240Y-33020000D01*
X94926632Y-32903475D01*
X95133475Y-32696632D01*
X95250000Y-32522240D01*
X95366525Y-32696632D01*
G37*
X95366525Y-32696632D02*
X95573368Y-32903475D01*
X95747760Y-33020000D01*
X95573368Y-33136525D01*
X95366525Y-33343368D01*
X95250000Y-33517760D01*
X95133475Y-33343368D01*
X94926632Y-33136525D01*
X94752240Y-33020000D01*
X94926632Y-32903475D01*
X95133475Y-32696632D01*
X95250000Y-32522240D01*
X95366525Y-32696632D01*
G36*
X90286525Y-32696632D02*
G01*
X90493368Y-32903475D01*
X90667760Y-33020000D01*
X90493368Y-33136525D01*
X90286525Y-33343368D01*
X90170000Y-33517760D01*
X90053475Y-33343368D01*
X89846632Y-33136525D01*
X89672240Y-33020000D01*
X89846632Y-32903475D01*
X90053475Y-32696632D01*
X90170000Y-32522240D01*
X90286525Y-32696632D01*
G37*
X90286525Y-32696632D02*
X90493368Y-32903475D01*
X90667760Y-33020000D01*
X90493368Y-33136525D01*
X90286525Y-33343368D01*
X90170000Y-33517760D01*
X90053475Y-33343368D01*
X89846632Y-33136525D01*
X89672240Y-33020000D01*
X89846632Y-32903475D01*
X90053475Y-32696632D01*
X90170000Y-32522240D01*
X90286525Y-32696632D01*
G36*
X54726525Y-32696632D02*
G01*
X54933368Y-32903475D01*
X55107760Y-33020000D01*
X54933368Y-33136525D01*
X54726525Y-33343368D01*
X54610000Y-33517760D01*
X54493475Y-33343368D01*
X54286632Y-33136525D01*
X54112240Y-33020000D01*
X54286632Y-32903475D01*
X54493475Y-32696632D01*
X54610000Y-32522240D01*
X54726525Y-32696632D01*
G37*
X54726525Y-32696632D02*
X54933368Y-32903475D01*
X55107760Y-33020000D01*
X54933368Y-33136525D01*
X54726525Y-33343368D01*
X54610000Y-33517760D01*
X54493475Y-33343368D01*
X54286632Y-33136525D01*
X54112240Y-33020000D01*
X54286632Y-32903475D01*
X54493475Y-32696632D01*
X54610000Y-32522240D01*
X54726525Y-32696632D01*
G36*
X57266525Y-32696632D02*
G01*
X57473368Y-32903475D01*
X57647760Y-33020000D01*
X57473368Y-33136525D01*
X57266525Y-33343368D01*
X57150000Y-33517760D01*
X57033475Y-33343368D01*
X56826632Y-33136525D01*
X56652240Y-33020000D01*
X56826632Y-32903475D01*
X57033475Y-32696632D01*
X57150000Y-32522240D01*
X57266525Y-32696632D01*
G37*
X57266525Y-32696632D02*
X57473368Y-32903475D01*
X57647760Y-33020000D01*
X57473368Y-33136525D01*
X57266525Y-33343368D01*
X57150000Y-33517760D01*
X57033475Y-33343368D01*
X56826632Y-33136525D01*
X56652240Y-33020000D01*
X56826632Y-32903475D01*
X57033475Y-32696632D01*
X57150000Y-32522240D01*
X57266525Y-32696632D01*
G36*
X88196589Y-30434010D02*
G01*
X87953368Y-30596525D01*
X87746525Y-30803368D01*
X87630000Y-30977760D01*
X87513475Y-30803368D01*
X87306632Y-30596525D01*
X87063411Y-30434010D01*
X87062421Y-30433600D01*
X88197579Y-30433600D01*
X88196589Y-30434010D01*
G37*
X88196589Y-30434010D02*
X87953368Y-30596525D01*
X87746525Y-30803368D01*
X87630000Y-30977760D01*
X87513475Y-30803368D01*
X87306632Y-30596525D01*
X87063411Y-30434010D01*
X87062421Y-30433600D01*
X88197579Y-30433600D01*
X88196589Y-30434010D01*
G36*
X90736589Y-30434010D02*
G01*
X90493368Y-30596525D01*
X90286525Y-30803368D01*
X90170000Y-30977760D01*
X90053475Y-30803368D01*
X89846632Y-30596525D01*
X89603411Y-30434010D01*
X89602421Y-30433600D01*
X90737579Y-30433600D01*
X90736589Y-30434010D01*
G37*
X90736589Y-30434010D02*
X90493368Y-30596525D01*
X90286525Y-30803368D01*
X90170000Y-30977760D01*
X90053475Y-30803368D01*
X89846632Y-30596525D01*
X89603411Y-30434010D01*
X89602421Y-30433600D01*
X90737579Y-30433600D01*
X90736589Y-30434010D01*
G36*
X93276589Y-30434010D02*
G01*
X93033368Y-30596525D01*
X92826525Y-30803368D01*
X92710000Y-30977760D01*
X92593475Y-30803368D01*
X92386632Y-30596525D01*
X92143411Y-30434010D01*
X92142421Y-30433600D01*
X93277579Y-30433600D01*
X93276589Y-30434010D01*
G37*
X93276589Y-30434010D02*
X93033368Y-30596525D01*
X92826525Y-30803368D01*
X92710000Y-30977760D01*
X92593475Y-30803368D01*
X92386632Y-30596525D01*
X92143411Y-30434010D01*
X92142421Y-30433600D01*
X93277579Y-30433600D01*
X93276589Y-30434010D01*
G36*
X95816589Y-30434010D02*
G01*
X95573368Y-30596525D01*
X95366525Y-30803368D01*
X95250000Y-30977760D01*
X95133475Y-30803368D01*
X94926632Y-30596525D01*
X94683411Y-30434010D01*
X94682421Y-30433600D01*
X95817579Y-30433600D01*
X95816589Y-30434010D01*
G37*
X95816589Y-30434010D02*
X95573368Y-30596525D01*
X95366525Y-30803368D01*
X95250000Y-30977760D01*
X95133475Y-30803368D01*
X94926632Y-30596525D01*
X94683411Y-30434010D01*
X94682421Y-30433600D01*
X95817579Y-30433600D01*
X95816589Y-30434010D01*
G36*
X83116589Y-30434010D02*
G01*
X82873368Y-30596525D01*
X82666525Y-30803368D01*
X82550000Y-30977760D01*
X82433475Y-30803368D01*
X82226632Y-30596525D01*
X81983411Y-30434010D01*
X81982421Y-30433600D01*
X83117579Y-30433600D01*
X83116589Y-30434010D01*
G37*
X83116589Y-30434010D02*
X82873368Y-30596525D01*
X82666525Y-30803368D01*
X82550000Y-30977760D01*
X82433475Y-30803368D01*
X82226632Y-30596525D01*
X81983411Y-30434010D01*
X81982421Y-30433600D01*
X83117579Y-30433600D01*
X83116589Y-30434010D01*
G36*
X80576589Y-30434010D02*
G01*
X80333368Y-30596525D01*
X80126525Y-30803368D01*
X80010000Y-30977760D01*
X79893475Y-30803368D01*
X79686632Y-30596525D01*
X79443411Y-30434010D01*
X79442421Y-30433600D01*
X80577579Y-30433600D01*
X80576589Y-30434010D01*
G37*
X80576589Y-30434010D02*
X80333368Y-30596525D01*
X80126525Y-30803368D01*
X80010000Y-30977760D01*
X79893475Y-30803368D01*
X79686632Y-30596525D01*
X79443411Y-30434010D01*
X79442421Y-30433600D01*
X80577579Y-30433600D01*
X80576589Y-30434010D01*
G36*
X85656589Y-30434010D02*
G01*
X85413368Y-30596525D01*
X85206525Y-30803368D01*
X85090000Y-30977760D01*
X84973475Y-30803368D01*
X84766632Y-30596525D01*
X84523411Y-30434010D01*
X84522421Y-30433600D01*
X85657579Y-30433600D01*
X85656589Y-30434010D01*
G37*
X85656589Y-30434010D02*
X85413368Y-30596525D01*
X85206525Y-30803368D01*
X85090000Y-30977760D01*
X84973475Y-30803368D01*
X84766632Y-30596525D01*
X84523411Y-30434010D01*
X84522421Y-30433600D01*
X85657579Y-30433600D01*
X85656589Y-30434010D01*
G36*
X72390000Y-30977760D02*
G01*
X72327285Y-30883900D01*
X72452715Y-30883900D01*
X72390000Y-30977760D01*
G37*
X72390000Y-30977760D02*
X72327285Y-30883900D01*
X72452715Y-30883900D01*
X72390000Y-30977760D01*
G36*
X69850000Y-30977760D02*
G01*
X69787285Y-30883900D01*
X69912715Y-30883900D01*
X69850000Y-30977760D01*
G37*
X69850000Y-30977760D02*
X69787285Y-30883900D01*
X69912715Y-30883900D01*
X69850000Y-30977760D01*
G36*
X67310000Y-30977760D02*
G01*
X67247285Y-30883900D01*
X67372715Y-30883900D01*
X67310000Y-30977760D01*
G37*
X67310000Y-30977760D02*
X67247285Y-30883900D01*
X67372715Y-30883900D01*
X67310000Y-30977760D01*
G36*
X64770000Y-30977760D02*
G01*
X64707285Y-30883900D01*
X64832715Y-30883900D01*
X64770000Y-30977760D01*
G37*
X64770000Y-30977760D02*
X64707285Y-30883900D01*
X64832715Y-30883900D01*
X64770000Y-30977760D01*
G36*
X74930000Y-30977760D02*
G01*
X74867285Y-30883900D01*
X74992715Y-30883900D01*
X74930000Y-30977760D01*
G37*
X74930000Y-30977760D02*
X74867285Y-30883900D01*
X74992715Y-30883900D01*
X74930000Y-30977760D01*
G36*
X78036589Y-30434010D02*
G01*
X77833507Y-30569705D01*
X77697402Y-30433600D01*
X78037579Y-30433600D01*
X78036589Y-30434010D01*
G37*
X78036589Y-30434010D02*
X77833507Y-30569705D01*
X77697402Y-30433600D01*
X78037579Y-30433600D01*
X78036589Y-30434010D01*
G36*
X99040199Y-30265000D02*
G01*
X98913740Y-30265000D01*
X98626842Y-30322068D01*
X98356589Y-30434010D01*
X98155725Y-30568223D01*
X97570802Y-29983300D01*
X98758499Y-29983300D01*
X99040199Y-30265000D01*
G37*
X99040199Y-30265000D02*
X98913740Y-30265000D01*
X98626842Y-30322068D01*
X98356589Y-30434010D01*
X98155725Y-30568223D01*
X97570802Y-29983300D01*
X98758499Y-29983300D01*
X99040199Y-30265000D01*
M02*
