M48
; DRILL file {KiCad (5.1.5-0-10_14)} date 2020 April 21, Tuesday 21:14:08
; FORMAT={-:-/ absolute / inch / decimal}
; #@! TF.CreationDate,2020-04-21T21:14:08+02:00
; #@! TF.GenerationSoftware,Kicad,Pcbnew,(5.1.5-0-10_14)
FMAT,2
INCH
T1C0.0157
T2C0.0276
T3C0.0295
T4C0.0315
T5C0.0354
T6C0.0394
T7C0.0512
T8C0.0551
T9C0.0748
T10C0.1260
%
G90
G05
T1
X3.6011Y-1.6534
T2
X4.5Y-3.35
X4.5Y-3.4484
X3.46Y-3.65
X3.46Y-3.7484
X2.7Y-3.64
X2.7Y-3.7384
X4.5Y-4.1516
X4.5Y-4.25
X3.94Y-2.95
X3.94Y-3.0484
X2.8Y-2.4016
X2.8Y-2.5
X1.6Y-2.7
X1.6984Y-2.7
X3.38Y-2.0
X3.38Y-2.0984
X3.46Y-3.2516
X3.46Y-3.35
X1.9Y-3.64
X1.9Y-3.7384
T3
X1.625Y-2.425
X1.625Y-2.525
X1.675Y-2.475
T4
X4.5Y-2.85
X4.5Y-3.15
X4.08Y-3.95
X4.08Y-4.05
X4.08Y-4.15
X4.08Y-4.25
X4.38Y-3.95
X4.38Y-4.05
X4.38Y-4.15
X4.38Y-4.25
X4.7Y-2.28
X4.7Y-2.58
X2.35Y-1.7531
X2.35Y-1.95
X3.91Y-2.04
X3.91Y-2.34
X4.21Y-2.04
X4.21Y-2.34
X2.7Y-1.8016
X2.7Y-1.9
X2.75Y-3.05
X2.75Y-3.35
X3.04Y-3.05
X3.04Y-3.15
X3.04Y-3.25
X3.04Y-3.35
X3.34Y-3.05
X3.34Y-3.15
X3.34Y-3.25
X3.34Y-3.35
X1.45Y-2.25
X1.75Y-2.25
X3.7Y-2.05
X3.7Y-2.35
X3.94Y-3.95
X3.94Y-4.25
X4.08Y-3.05
X4.08Y-3.15
X4.08Y-3.25
X4.08Y-3.35
X4.38Y-3.05
X4.38Y-3.15
X4.38Y-3.25
X4.38Y-3.35
X1.48Y-3.64
X1.48Y-3.74
X1.48Y-3.84
X1.48Y-3.94
X1.48Y-4.04
X1.48Y-4.14
X1.48Y-4.24
X1.78Y-3.64
X1.78Y-3.74
X1.78Y-3.84
X1.78Y-3.94
X1.78Y-4.04
X1.78Y-4.14
X1.78Y-4.24
X3.05Y-2.85
X3.35Y-2.85
X4.08Y-2.85
X4.38Y-2.85
X4.7Y-1.84
X4.7Y-2.14
X2.25Y-3.64
X2.25Y-3.74
X2.25Y-3.84
X2.25Y-3.94
X2.25Y-4.04
X2.25Y-4.14
X2.25Y-4.24
X2.55Y-3.64
X2.55Y-3.74
X2.55Y-3.84
X2.55Y-3.94
X2.55Y-4.04
X2.55Y-4.14
X2.55Y-4.24
X3.04Y-3.65
X3.04Y-3.75
X3.04Y-3.85
X3.04Y-3.95
X3.04Y-4.05
X3.04Y-4.15
X3.04Y-4.25
X3.34Y-3.65
X3.34Y-3.75
X3.34Y-3.85
X3.34Y-3.95
X3.34Y-4.05
X3.34Y-4.15
X3.34Y-4.25
X3.94Y-3.77
X4.24Y-3.77
X4.7Y-1.4
X4.7Y-1.7
X2.96Y-2.0
X2.96Y-2.1
X2.96Y-2.2
X2.96Y-2.3
X2.96Y-2.4
X2.96Y-2.5
X2.96Y-2.6
X3.26Y-2.0
X3.26Y-2.1
X3.26Y-2.2
X3.26Y-2.3
X3.26Y-2.4
X3.26Y-2.5
X3.26Y-2.6
X2.9Y-3.05
X2.9Y-3.35
T5
X4.915Y-3.9231
X4.915Y-4.0216
X4.915Y-4.12
X4.85Y-2.04
X4.85Y-2.14
X4.85Y-1.6
X4.85Y-1.7
X4.85Y-2.48
X4.85Y-2.58
T6
X2.15Y-4.8
X2.15Y-4.9
X2.25Y-4.8
X2.25Y-4.9
X2.35Y-4.8
X2.35Y-4.9
X2.45Y-4.8
X2.45Y-4.9
X2.55Y-4.8
X2.55Y-4.9
X2.65Y-4.8
X2.65Y-4.9
X2.75Y-4.8
X2.75Y-4.9
X2.85Y-4.8
X2.85Y-4.9
X2.95Y-4.8
X2.95Y-4.9
X3.05Y-4.8
X3.05Y-4.9
X3.15Y-4.8
X3.15Y-4.9
X3.25Y-4.8
X3.25Y-4.9
X3.35Y-4.8
X3.35Y-4.9
X3.45Y-4.8
X3.45Y-4.9
X3.55Y-4.8
X3.55Y-4.9
X3.65Y-4.8
X3.65Y-4.9
X3.75Y-4.8
X3.75Y-4.9
X3.85Y-4.8
X3.85Y-4.9
X3.95Y-4.8
X3.95Y-4.9
X4.05Y-4.8
X4.05Y-4.9
X5.0Y-2.9
X5.0Y-3.0772
X5.0Y-3.4
X5.0Y-3.5772
X2.15Y-1.3
X2.15Y-1.4
X2.25Y-1.3
X2.25Y-1.4
X2.35Y-1.3
X2.35Y-1.4
X2.45Y-1.3
X2.45Y-1.4
X2.55Y-1.3
X2.55Y-1.4
X2.65Y-1.3
X2.65Y-1.4
X2.75Y-1.3
X2.75Y-1.4
X2.85Y-1.3
X2.85Y-1.4
X2.95Y-1.3
X2.95Y-1.4
X3.05Y-1.3
X3.05Y-1.4
X3.15Y-1.3
X3.15Y-1.4
X3.25Y-1.3
X3.25Y-1.4
X3.35Y-1.3
X3.35Y-1.4
X3.45Y-1.3
X3.45Y-1.4
X3.55Y-1.3
X3.55Y-1.4
X3.65Y-1.3
X3.65Y-1.4
X3.75Y-1.3
X3.75Y-1.4
X3.85Y-1.3
X3.85Y-1.4
X3.95Y-1.3
X3.95Y-1.4
X4.05Y-1.3
X4.05Y-1.4
X1.2Y-2.3978
X1.2Y-2.575
T7
X1.2984Y-2.3486
X1.2984Y-2.6242
X4.9016Y-2.8508
X4.9016Y-3.1264
X4.9016Y-3.3508
X4.9016Y-3.6264
T8
X1.95Y-2.225
X1.95Y-2.625
T9
X1.75Y-1.485
X1.75Y-1.885
X1.95Y-1.485
X1.95Y-1.885
T10
X4.95Y-1.25
X4.95Y-4.95
X1.25Y-4.95
X1.25Y-1.25
T6
G00X1.2888Y-2.9856
M15
G01X1.2888Y-3.0644
M16
G05
G00X1.3675Y-3.21
M15
G01X1.4463Y-3.21
M16
G05
G00X1.525Y-2.9856
M15
G01X1.525Y-3.0644
M16
G05
T0
M30
