G04 #@! TF.GenerationSoftware,KiCad,Pcbnew,(5.1.5-0-10_14)*
G04 #@! TF.CreationDate,2020-04-15T16:47:41+02:00*
G04 #@! TF.ProjectId,Bottom-Plate,426f7474-6f6d-42d5-906c-6174652e6b69,rev?*
G04 #@! TF.SameCoordinates,Original*
G04 #@! TF.FileFunction,Copper,L1,Top*
G04 #@! TF.FilePolarity,Positive*
%FSLAX46Y46*%
G04 Gerber Fmt 4.6, Leading zero omitted, Abs format (unit mm)*
G04 Created by KiCad (PCBNEW (5.1.5-0-10_14)) date 2020-04-15 16:47:41*
%MOMM*%
%LPD*%
G04 APERTURE LIST*
%ADD10O,1.700000X1.700000*%
%ADD11R,1.700000X1.700000*%
%ADD12C,0.254000*%
G04 APERTURE END LIST*
D10*
X54610000Y-121920000D03*
X54610000Y-124460000D03*
X57150000Y-121920000D03*
X57150000Y-124460000D03*
X59690000Y-121920000D03*
X59690000Y-124460000D03*
X62230000Y-121920000D03*
X62230000Y-124460000D03*
X64770000Y-121920000D03*
X64770000Y-124460000D03*
X67310000Y-121920000D03*
X67310000Y-124460000D03*
X69850000Y-121920000D03*
X69850000Y-124460000D03*
X72390000Y-121920000D03*
X72390000Y-124460000D03*
X74930000Y-121920000D03*
X74930000Y-124460000D03*
X77470000Y-121920000D03*
X77470000Y-124460000D03*
X80010000Y-121920000D03*
X80010000Y-124460000D03*
X82550000Y-121920000D03*
X82550000Y-124460000D03*
X85090000Y-121920000D03*
X85090000Y-124460000D03*
X87630000Y-121920000D03*
X87630000Y-124460000D03*
X90170000Y-121920000D03*
X90170000Y-124460000D03*
X92710000Y-121920000D03*
X92710000Y-124460000D03*
X95250000Y-121920000D03*
X95250000Y-124460000D03*
X97790000Y-121920000D03*
X97790000Y-124460000D03*
X100330000Y-121920000D03*
X100330000Y-124460000D03*
X102870000Y-121920000D03*
D11*
X102870000Y-124460000D03*
D10*
X54610000Y-33020000D03*
X54610000Y-35560000D03*
X57150000Y-33020000D03*
X57150000Y-35560000D03*
X59690000Y-33020000D03*
X59690000Y-35560000D03*
X62230000Y-33020000D03*
X62230000Y-35560000D03*
X64770000Y-33020000D03*
X64770000Y-35560000D03*
X67310000Y-33020000D03*
X67310000Y-35560000D03*
X69850000Y-33020000D03*
X69850000Y-35560000D03*
X72390000Y-33020000D03*
X72390000Y-35560000D03*
X74930000Y-33020000D03*
X74930000Y-35560000D03*
X77470000Y-33020000D03*
X77470000Y-35560000D03*
X80010000Y-33020000D03*
X80010000Y-35560000D03*
X82550000Y-33020000D03*
X82550000Y-35560000D03*
X85090000Y-33020000D03*
X85090000Y-35560000D03*
X87630000Y-33020000D03*
X87630000Y-35560000D03*
X90170000Y-33020000D03*
X90170000Y-35560000D03*
X92710000Y-33020000D03*
X92710000Y-35560000D03*
X95250000Y-33020000D03*
X95250000Y-35560000D03*
X97790000Y-33020000D03*
X97790000Y-35560000D03*
X100330000Y-33020000D03*
X100330000Y-35560000D03*
X102870000Y-33020000D03*
D11*
X102870000Y-35560000D03*
D12*
G36*
X126503358Y-27451842D02*
G01*
X127252277Y-27656723D01*
X127953072Y-27990986D01*
X128583605Y-28444069D01*
X129123934Y-29001645D01*
X129556989Y-29646099D01*
X129869073Y-30357044D01*
X130051640Y-31117493D01*
X130100000Y-31776031D01*
X130100001Y-125698371D01*
X130028158Y-126503359D01*
X129823277Y-127252277D01*
X129489013Y-127953075D01*
X129035931Y-128583605D01*
X128478354Y-129123935D01*
X127833901Y-129556989D01*
X127122956Y-129869073D01*
X126362506Y-130051640D01*
X125703968Y-130100000D01*
X31781618Y-130100000D01*
X30976641Y-130028158D01*
X30227723Y-129823277D01*
X29526925Y-129489013D01*
X28896395Y-129035931D01*
X28356065Y-128478354D01*
X27923011Y-127833901D01*
X27610927Y-127122956D01*
X27428360Y-126362506D01*
X27380000Y-125703968D01*
X27380000Y-125509872D01*
X29515000Y-125509872D01*
X29515000Y-125950128D01*
X29600890Y-126381925D01*
X29769369Y-126788669D01*
X30013962Y-127154729D01*
X30325271Y-127466038D01*
X30691331Y-127710631D01*
X31098075Y-127879110D01*
X31529872Y-127965000D01*
X31970128Y-127965000D01*
X32401925Y-127879110D01*
X32808669Y-127710631D01*
X33174729Y-127466038D01*
X33486038Y-127154729D01*
X33730631Y-126788669D01*
X33899110Y-126381925D01*
X33985000Y-125950128D01*
X33985000Y-125509872D01*
X33899110Y-125078075D01*
X33730631Y-124671331D01*
X33486038Y-124305271D01*
X33174729Y-123993962D01*
X32808669Y-123749369D01*
X32401925Y-123580890D01*
X31970128Y-123495000D01*
X31529872Y-123495000D01*
X31098075Y-123580890D01*
X30691331Y-123749369D01*
X30325271Y-123993962D01*
X30013962Y-124305271D01*
X29769369Y-124671331D01*
X29600890Y-125078075D01*
X29515000Y-125509872D01*
X27380000Y-125509872D01*
X27380000Y-121773740D01*
X53125000Y-121773740D01*
X53125000Y-122066260D01*
X53182068Y-122353158D01*
X53294010Y-122623411D01*
X53456525Y-122866632D01*
X53663368Y-123073475D01*
X53837760Y-123190000D01*
X53663368Y-123306525D01*
X53456525Y-123513368D01*
X53294010Y-123756589D01*
X53182068Y-124026842D01*
X53125000Y-124313740D01*
X53125000Y-124606260D01*
X53182068Y-124893158D01*
X53294010Y-125163411D01*
X53456525Y-125406632D01*
X53663368Y-125613475D01*
X53906589Y-125775990D01*
X54176842Y-125887932D01*
X54463740Y-125945000D01*
X54756260Y-125945000D01*
X55043158Y-125887932D01*
X55313411Y-125775990D01*
X55556632Y-125613475D01*
X55763475Y-125406632D01*
X55880000Y-125232240D01*
X55996525Y-125406632D01*
X56203368Y-125613475D01*
X56446589Y-125775990D01*
X56716842Y-125887932D01*
X57003740Y-125945000D01*
X57296260Y-125945000D01*
X57583158Y-125887932D01*
X57853411Y-125775990D01*
X58096632Y-125613475D01*
X58303475Y-125406632D01*
X58420000Y-125232240D01*
X58536525Y-125406632D01*
X58743368Y-125613475D01*
X58986589Y-125775990D01*
X59256842Y-125887932D01*
X59543740Y-125945000D01*
X59836260Y-125945000D01*
X60123158Y-125887932D01*
X60393411Y-125775990D01*
X60636632Y-125613475D01*
X60843475Y-125406632D01*
X60960000Y-125232240D01*
X61076525Y-125406632D01*
X61283368Y-125613475D01*
X61526589Y-125775990D01*
X61796842Y-125887932D01*
X62083740Y-125945000D01*
X62376260Y-125945000D01*
X62663158Y-125887932D01*
X62933411Y-125775990D01*
X63176632Y-125613475D01*
X63383475Y-125406632D01*
X63500000Y-125232240D01*
X63616525Y-125406632D01*
X63823368Y-125613475D01*
X64066589Y-125775990D01*
X64336842Y-125887932D01*
X64623740Y-125945000D01*
X64916260Y-125945000D01*
X65203158Y-125887932D01*
X65473411Y-125775990D01*
X65716632Y-125613475D01*
X65923475Y-125406632D01*
X66040000Y-125232240D01*
X66156525Y-125406632D01*
X66363368Y-125613475D01*
X66606589Y-125775990D01*
X66876842Y-125887932D01*
X67163740Y-125945000D01*
X67456260Y-125945000D01*
X67743158Y-125887932D01*
X68013411Y-125775990D01*
X68256632Y-125613475D01*
X68463475Y-125406632D01*
X68580000Y-125232240D01*
X68696525Y-125406632D01*
X68903368Y-125613475D01*
X69146589Y-125775990D01*
X69416842Y-125887932D01*
X69703740Y-125945000D01*
X69996260Y-125945000D01*
X70283158Y-125887932D01*
X70553411Y-125775990D01*
X70796632Y-125613475D01*
X71003475Y-125406632D01*
X71120000Y-125232240D01*
X71236525Y-125406632D01*
X71443368Y-125613475D01*
X71686589Y-125775990D01*
X71956842Y-125887932D01*
X72243740Y-125945000D01*
X72536260Y-125945000D01*
X72823158Y-125887932D01*
X73093411Y-125775990D01*
X73336632Y-125613475D01*
X73543475Y-125406632D01*
X73660000Y-125232240D01*
X73776525Y-125406632D01*
X73983368Y-125613475D01*
X74226589Y-125775990D01*
X74496842Y-125887932D01*
X74783740Y-125945000D01*
X75076260Y-125945000D01*
X75363158Y-125887932D01*
X75633411Y-125775990D01*
X75876632Y-125613475D01*
X76083475Y-125406632D01*
X76200000Y-125232240D01*
X76316525Y-125406632D01*
X76523368Y-125613475D01*
X76766589Y-125775990D01*
X77036842Y-125887932D01*
X77323740Y-125945000D01*
X77616260Y-125945000D01*
X77903158Y-125887932D01*
X78173411Y-125775990D01*
X78416632Y-125613475D01*
X78623475Y-125406632D01*
X78740000Y-125232240D01*
X78856525Y-125406632D01*
X79063368Y-125613475D01*
X79306589Y-125775990D01*
X79576842Y-125887932D01*
X79863740Y-125945000D01*
X80156260Y-125945000D01*
X80443158Y-125887932D01*
X80713411Y-125775990D01*
X80956632Y-125613475D01*
X81163475Y-125406632D01*
X81280000Y-125232240D01*
X81396525Y-125406632D01*
X81603368Y-125613475D01*
X81846589Y-125775990D01*
X82116842Y-125887932D01*
X82403740Y-125945000D01*
X82696260Y-125945000D01*
X82983158Y-125887932D01*
X83253411Y-125775990D01*
X83496632Y-125613475D01*
X83703475Y-125406632D01*
X83820000Y-125232240D01*
X83936525Y-125406632D01*
X84143368Y-125613475D01*
X84386589Y-125775990D01*
X84656842Y-125887932D01*
X84943740Y-125945000D01*
X85236260Y-125945000D01*
X85523158Y-125887932D01*
X85793411Y-125775990D01*
X86036632Y-125613475D01*
X86243475Y-125406632D01*
X86360000Y-125232240D01*
X86476525Y-125406632D01*
X86683368Y-125613475D01*
X86926589Y-125775990D01*
X87196842Y-125887932D01*
X87483740Y-125945000D01*
X87776260Y-125945000D01*
X88063158Y-125887932D01*
X88333411Y-125775990D01*
X88576632Y-125613475D01*
X88783475Y-125406632D01*
X88900000Y-125232240D01*
X89016525Y-125406632D01*
X89223368Y-125613475D01*
X89466589Y-125775990D01*
X89736842Y-125887932D01*
X90023740Y-125945000D01*
X90316260Y-125945000D01*
X90603158Y-125887932D01*
X90873411Y-125775990D01*
X91116632Y-125613475D01*
X91323475Y-125406632D01*
X91440000Y-125232240D01*
X91556525Y-125406632D01*
X91763368Y-125613475D01*
X92006589Y-125775990D01*
X92276842Y-125887932D01*
X92563740Y-125945000D01*
X92856260Y-125945000D01*
X93143158Y-125887932D01*
X93413411Y-125775990D01*
X93656632Y-125613475D01*
X93863475Y-125406632D01*
X93980000Y-125232240D01*
X94096525Y-125406632D01*
X94303368Y-125613475D01*
X94546589Y-125775990D01*
X94816842Y-125887932D01*
X95103740Y-125945000D01*
X95396260Y-125945000D01*
X95683158Y-125887932D01*
X95953411Y-125775990D01*
X96196632Y-125613475D01*
X96403475Y-125406632D01*
X96520000Y-125232240D01*
X96636525Y-125406632D01*
X96843368Y-125613475D01*
X97086589Y-125775990D01*
X97356842Y-125887932D01*
X97643740Y-125945000D01*
X97936260Y-125945000D01*
X98223158Y-125887932D01*
X98493411Y-125775990D01*
X98736632Y-125613475D01*
X98943475Y-125406632D01*
X99060000Y-125232240D01*
X99176525Y-125406632D01*
X99383368Y-125613475D01*
X99626589Y-125775990D01*
X99896842Y-125887932D01*
X100183740Y-125945000D01*
X100476260Y-125945000D01*
X100763158Y-125887932D01*
X101033411Y-125775990D01*
X101276632Y-125613475D01*
X101408487Y-125481620D01*
X101430498Y-125554180D01*
X101489463Y-125664494D01*
X101568815Y-125761185D01*
X101665506Y-125840537D01*
X101775820Y-125899502D01*
X101895518Y-125935812D01*
X102020000Y-125948072D01*
X103720000Y-125948072D01*
X103844482Y-125935812D01*
X103964180Y-125899502D01*
X104074494Y-125840537D01*
X104171185Y-125761185D01*
X104250537Y-125664494D01*
X104309502Y-125554180D01*
X104322942Y-125509872D01*
X123495000Y-125509872D01*
X123495000Y-125950128D01*
X123580890Y-126381925D01*
X123749369Y-126788669D01*
X123993962Y-127154729D01*
X124305271Y-127466038D01*
X124671331Y-127710631D01*
X125078075Y-127879110D01*
X125509872Y-127965000D01*
X125950128Y-127965000D01*
X126381925Y-127879110D01*
X126788669Y-127710631D01*
X127154729Y-127466038D01*
X127466038Y-127154729D01*
X127710631Y-126788669D01*
X127879110Y-126381925D01*
X127965000Y-125950128D01*
X127965000Y-125509872D01*
X127879110Y-125078075D01*
X127710631Y-124671331D01*
X127466038Y-124305271D01*
X127154729Y-123993962D01*
X126788669Y-123749369D01*
X126381925Y-123580890D01*
X125950128Y-123495000D01*
X125509872Y-123495000D01*
X125078075Y-123580890D01*
X124671331Y-123749369D01*
X124305271Y-123993962D01*
X123993962Y-124305271D01*
X123749369Y-124671331D01*
X123580890Y-125078075D01*
X123495000Y-125509872D01*
X104322942Y-125509872D01*
X104345812Y-125434482D01*
X104358072Y-125310000D01*
X104358072Y-123610000D01*
X104345812Y-123485518D01*
X104309502Y-123365820D01*
X104250537Y-123255506D01*
X104171185Y-123158815D01*
X104074494Y-123079463D01*
X103964180Y-123020498D01*
X103891620Y-122998487D01*
X104023475Y-122866632D01*
X104185990Y-122623411D01*
X104297932Y-122353158D01*
X104355000Y-122066260D01*
X104355000Y-121773740D01*
X104297932Y-121486842D01*
X104185990Y-121216589D01*
X104023475Y-120973368D01*
X103816632Y-120766525D01*
X103573411Y-120604010D01*
X103303158Y-120492068D01*
X103016260Y-120435000D01*
X102723740Y-120435000D01*
X102436842Y-120492068D01*
X102166589Y-120604010D01*
X101923368Y-120766525D01*
X101716525Y-120973368D01*
X101600000Y-121147760D01*
X101483475Y-120973368D01*
X101276632Y-120766525D01*
X101033411Y-120604010D01*
X100763158Y-120492068D01*
X100476260Y-120435000D01*
X100183740Y-120435000D01*
X99896842Y-120492068D01*
X99626589Y-120604010D01*
X99383368Y-120766525D01*
X99176525Y-120973368D01*
X99060000Y-121147760D01*
X98943475Y-120973368D01*
X98736632Y-120766525D01*
X98493411Y-120604010D01*
X98223158Y-120492068D01*
X97936260Y-120435000D01*
X97643740Y-120435000D01*
X97356842Y-120492068D01*
X97086589Y-120604010D01*
X96843368Y-120766525D01*
X96636525Y-120973368D01*
X96520000Y-121147760D01*
X96403475Y-120973368D01*
X96196632Y-120766525D01*
X95953411Y-120604010D01*
X95683158Y-120492068D01*
X95396260Y-120435000D01*
X95103740Y-120435000D01*
X94816842Y-120492068D01*
X94546589Y-120604010D01*
X94303368Y-120766525D01*
X94096525Y-120973368D01*
X93980000Y-121147760D01*
X93863475Y-120973368D01*
X93656632Y-120766525D01*
X93413411Y-120604010D01*
X93143158Y-120492068D01*
X92856260Y-120435000D01*
X92563740Y-120435000D01*
X92276842Y-120492068D01*
X92006589Y-120604010D01*
X91763368Y-120766525D01*
X91556525Y-120973368D01*
X91440000Y-121147760D01*
X91323475Y-120973368D01*
X91116632Y-120766525D01*
X90873411Y-120604010D01*
X90603158Y-120492068D01*
X90316260Y-120435000D01*
X90023740Y-120435000D01*
X89736842Y-120492068D01*
X89466589Y-120604010D01*
X89223368Y-120766525D01*
X89016525Y-120973368D01*
X88900000Y-121147760D01*
X88783475Y-120973368D01*
X88576632Y-120766525D01*
X88333411Y-120604010D01*
X88063158Y-120492068D01*
X87776260Y-120435000D01*
X87483740Y-120435000D01*
X87196842Y-120492068D01*
X86926589Y-120604010D01*
X86683368Y-120766525D01*
X86476525Y-120973368D01*
X86360000Y-121147760D01*
X86243475Y-120973368D01*
X86036632Y-120766525D01*
X85793411Y-120604010D01*
X85523158Y-120492068D01*
X85236260Y-120435000D01*
X84943740Y-120435000D01*
X84656842Y-120492068D01*
X84386589Y-120604010D01*
X84143368Y-120766525D01*
X83936525Y-120973368D01*
X83820000Y-121147760D01*
X83703475Y-120973368D01*
X83496632Y-120766525D01*
X83253411Y-120604010D01*
X82983158Y-120492068D01*
X82696260Y-120435000D01*
X82403740Y-120435000D01*
X82116842Y-120492068D01*
X81846589Y-120604010D01*
X81603368Y-120766525D01*
X81396525Y-120973368D01*
X81280000Y-121147760D01*
X81163475Y-120973368D01*
X80956632Y-120766525D01*
X80713411Y-120604010D01*
X80443158Y-120492068D01*
X80156260Y-120435000D01*
X79863740Y-120435000D01*
X79576842Y-120492068D01*
X79306589Y-120604010D01*
X79063368Y-120766525D01*
X78856525Y-120973368D01*
X78740000Y-121147760D01*
X78623475Y-120973368D01*
X78416632Y-120766525D01*
X78173411Y-120604010D01*
X77903158Y-120492068D01*
X77616260Y-120435000D01*
X77323740Y-120435000D01*
X77036842Y-120492068D01*
X76766589Y-120604010D01*
X76523368Y-120766525D01*
X76316525Y-120973368D01*
X76200000Y-121147760D01*
X76083475Y-120973368D01*
X75876632Y-120766525D01*
X75633411Y-120604010D01*
X75363158Y-120492068D01*
X75076260Y-120435000D01*
X74783740Y-120435000D01*
X74496842Y-120492068D01*
X74226589Y-120604010D01*
X73983368Y-120766525D01*
X73776525Y-120973368D01*
X73660000Y-121147760D01*
X73543475Y-120973368D01*
X73336632Y-120766525D01*
X73093411Y-120604010D01*
X72823158Y-120492068D01*
X72536260Y-120435000D01*
X72243740Y-120435000D01*
X71956842Y-120492068D01*
X71686589Y-120604010D01*
X71443368Y-120766525D01*
X71236525Y-120973368D01*
X71120000Y-121147760D01*
X71003475Y-120973368D01*
X70796632Y-120766525D01*
X70553411Y-120604010D01*
X70283158Y-120492068D01*
X69996260Y-120435000D01*
X69703740Y-120435000D01*
X69416842Y-120492068D01*
X69146589Y-120604010D01*
X68903368Y-120766525D01*
X68696525Y-120973368D01*
X68580000Y-121147760D01*
X68463475Y-120973368D01*
X68256632Y-120766525D01*
X68013411Y-120604010D01*
X67743158Y-120492068D01*
X67456260Y-120435000D01*
X67163740Y-120435000D01*
X66876842Y-120492068D01*
X66606589Y-120604010D01*
X66363368Y-120766525D01*
X66156525Y-120973368D01*
X66040000Y-121147760D01*
X65923475Y-120973368D01*
X65716632Y-120766525D01*
X65473411Y-120604010D01*
X65203158Y-120492068D01*
X64916260Y-120435000D01*
X64623740Y-120435000D01*
X64336842Y-120492068D01*
X64066589Y-120604010D01*
X63823368Y-120766525D01*
X63616525Y-120973368D01*
X63500000Y-121147760D01*
X63383475Y-120973368D01*
X63176632Y-120766525D01*
X62933411Y-120604010D01*
X62663158Y-120492068D01*
X62376260Y-120435000D01*
X62083740Y-120435000D01*
X61796842Y-120492068D01*
X61526589Y-120604010D01*
X61283368Y-120766525D01*
X61076525Y-120973368D01*
X60960000Y-121147760D01*
X60843475Y-120973368D01*
X60636632Y-120766525D01*
X60393411Y-120604010D01*
X60123158Y-120492068D01*
X59836260Y-120435000D01*
X59543740Y-120435000D01*
X59256842Y-120492068D01*
X58986589Y-120604010D01*
X58743368Y-120766525D01*
X58536525Y-120973368D01*
X58420000Y-121147760D01*
X58303475Y-120973368D01*
X58096632Y-120766525D01*
X57853411Y-120604010D01*
X57583158Y-120492068D01*
X57296260Y-120435000D01*
X57003740Y-120435000D01*
X56716842Y-120492068D01*
X56446589Y-120604010D01*
X56203368Y-120766525D01*
X55996525Y-120973368D01*
X55880000Y-121147760D01*
X55763475Y-120973368D01*
X55556632Y-120766525D01*
X55313411Y-120604010D01*
X55043158Y-120492068D01*
X54756260Y-120435000D01*
X54463740Y-120435000D01*
X54176842Y-120492068D01*
X53906589Y-120604010D01*
X53663368Y-120766525D01*
X53456525Y-120973368D01*
X53294010Y-121216589D01*
X53182068Y-121486842D01*
X53125000Y-121773740D01*
X27380000Y-121773740D01*
X27380000Y-31781618D01*
X27402467Y-31529872D01*
X29515000Y-31529872D01*
X29515000Y-31970128D01*
X29600890Y-32401925D01*
X29769369Y-32808669D01*
X30013962Y-33174729D01*
X30325271Y-33486038D01*
X30691331Y-33730631D01*
X31098075Y-33899110D01*
X31529872Y-33985000D01*
X31970128Y-33985000D01*
X32401925Y-33899110D01*
X32808669Y-33730631D01*
X33174729Y-33486038D01*
X33486038Y-33174729D01*
X33687152Y-32873740D01*
X53125000Y-32873740D01*
X53125000Y-33166260D01*
X53182068Y-33453158D01*
X53294010Y-33723411D01*
X53456525Y-33966632D01*
X53663368Y-34173475D01*
X53837760Y-34290000D01*
X53663368Y-34406525D01*
X53456525Y-34613368D01*
X53294010Y-34856589D01*
X53182068Y-35126842D01*
X53125000Y-35413740D01*
X53125000Y-35706260D01*
X53182068Y-35993158D01*
X53294010Y-36263411D01*
X53456525Y-36506632D01*
X53663368Y-36713475D01*
X53906589Y-36875990D01*
X54176842Y-36987932D01*
X54463740Y-37045000D01*
X54756260Y-37045000D01*
X55043158Y-36987932D01*
X55313411Y-36875990D01*
X55556632Y-36713475D01*
X55763475Y-36506632D01*
X55880000Y-36332240D01*
X55996525Y-36506632D01*
X56203368Y-36713475D01*
X56446589Y-36875990D01*
X56716842Y-36987932D01*
X57003740Y-37045000D01*
X57296260Y-37045000D01*
X57583158Y-36987932D01*
X57853411Y-36875990D01*
X58096632Y-36713475D01*
X58303475Y-36506632D01*
X58420000Y-36332240D01*
X58536525Y-36506632D01*
X58743368Y-36713475D01*
X58986589Y-36875990D01*
X59256842Y-36987932D01*
X59543740Y-37045000D01*
X59836260Y-37045000D01*
X60123158Y-36987932D01*
X60393411Y-36875990D01*
X60636632Y-36713475D01*
X60843475Y-36506632D01*
X60960000Y-36332240D01*
X61076525Y-36506632D01*
X61283368Y-36713475D01*
X61526589Y-36875990D01*
X61796842Y-36987932D01*
X62083740Y-37045000D01*
X62376260Y-37045000D01*
X62663158Y-36987932D01*
X62933411Y-36875990D01*
X63176632Y-36713475D01*
X63383475Y-36506632D01*
X63500000Y-36332240D01*
X63616525Y-36506632D01*
X63823368Y-36713475D01*
X64066589Y-36875990D01*
X64336842Y-36987932D01*
X64623740Y-37045000D01*
X64916260Y-37045000D01*
X65203158Y-36987932D01*
X65473411Y-36875990D01*
X65716632Y-36713475D01*
X65923475Y-36506632D01*
X66040000Y-36332240D01*
X66156525Y-36506632D01*
X66363368Y-36713475D01*
X66606589Y-36875990D01*
X66876842Y-36987932D01*
X67163740Y-37045000D01*
X67456260Y-37045000D01*
X67743158Y-36987932D01*
X68013411Y-36875990D01*
X68256632Y-36713475D01*
X68463475Y-36506632D01*
X68580000Y-36332240D01*
X68696525Y-36506632D01*
X68903368Y-36713475D01*
X69146589Y-36875990D01*
X69416842Y-36987932D01*
X69703740Y-37045000D01*
X69996260Y-37045000D01*
X70283158Y-36987932D01*
X70553411Y-36875990D01*
X70796632Y-36713475D01*
X71003475Y-36506632D01*
X71120000Y-36332240D01*
X71236525Y-36506632D01*
X71443368Y-36713475D01*
X71686589Y-36875990D01*
X71956842Y-36987932D01*
X72243740Y-37045000D01*
X72536260Y-37045000D01*
X72823158Y-36987932D01*
X73093411Y-36875990D01*
X73336632Y-36713475D01*
X73543475Y-36506632D01*
X73660000Y-36332240D01*
X73776525Y-36506632D01*
X73983368Y-36713475D01*
X74226589Y-36875990D01*
X74496842Y-36987932D01*
X74783740Y-37045000D01*
X75076260Y-37045000D01*
X75363158Y-36987932D01*
X75633411Y-36875990D01*
X75876632Y-36713475D01*
X76083475Y-36506632D01*
X76200000Y-36332240D01*
X76316525Y-36506632D01*
X76523368Y-36713475D01*
X76766589Y-36875990D01*
X77036842Y-36987932D01*
X77323740Y-37045000D01*
X77616260Y-37045000D01*
X77903158Y-36987932D01*
X78173411Y-36875990D01*
X78416632Y-36713475D01*
X78623475Y-36506632D01*
X78740000Y-36332240D01*
X78856525Y-36506632D01*
X79063368Y-36713475D01*
X79306589Y-36875990D01*
X79576842Y-36987932D01*
X79863740Y-37045000D01*
X80156260Y-37045000D01*
X80443158Y-36987932D01*
X80713411Y-36875990D01*
X80956632Y-36713475D01*
X81163475Y-36506632D01*
X81280000Y-36332240D01*
X81396525Y-36506632D01*
X81603368Y-36713475D01*
X81846589Y-36875990D01*
X82116842Y-36987932D01*
X82403740Y-37045000D01*
X82696260Y-37045000D01*
X82983158Y-36987932D01*
X83253411Y-36875990D01*
X83496632Y-36713475D01*
X83703475Y-36506632D01*
X83820000Y-36332240D01*
X83936525Y-36506632D01*
X84143368Y-36713475D01*
X84386589Y-36875990D01*
X84656842Y-36987932D01*
X84943740Y-37045000D01*
X85236260Y-37045000D01*
X85523158Y-36987932D01*
X85793411Y-36875990D01*
X86036632Y-36713475D01*
X86243475Y-36506632D01*
X86360000Y-36332240D01*
X86476525Y-36506632D01*
X86683368Y-36713475D01*
X86926589Y-36875990D01*
X87196842Y-36987932D01*
X87483740Y-37045000D01*
X87776260Y-37045000D01*
X88063158Y-36987932D01*
X88333411Y-36875990D01*
X88576632Y-36713475D01*
X88783475Y-36506632D01*
X88900000Y-36332240D01*
X89016525Y-36506632D01*
X89223368Y-36713475D01*
X89466589Y-36875990D01*
X89736842Y-36987932D01*
X90023740Y-37045000D01*
X90316260Y-37045000D01*
X90603158Y-36987932D01*
X90873411Y-36875990D01*
X91116632Y-36713475D01*
X91323475Y-36506632D01*
X91440000Y-36332240D01*
X91556525Y-36506632D01*
X91763368Y-36713475D01*
X92006589Y-36875990D01*
X92276842Y-36987932D01*
X92563740Y-37045000D01*
X92856260Y-37045000D01*
X93143158Y-36987932D01*
X93413411Y-36875990D01*
X93656632Y-36713475D01*
X93863475Y-36506632D01*
X93980000Y-36332240D01*
X94096525Y-36506632D01*
X94303368Y-36713475D01*
X94546589Y-36875990D01*
X94816842Y-36987932D01*
X95103740Y-37045000D01*
X95396260Y-37045000D01*
X95683158Y-36987932D01*
X95953411Y-36875990D01*
X96196632Y-36713475D01*
X96403475Y-36506632D01*
X96520000Y-36332240D01*
X96636525Y-36506632D01*
X96843368Y-36713475D01*
X97086589Y-36875990D01*
X97356842Y-36987932D01*
X97643740Y-37045000D01*
X97936260Y-37045000D01*
X98223158Y-36987932D01*
X98493411Y-36875990D01*
X98736632Y-36713475D01*
X98943475Y-36506632D01*
X99060000Y-36332240D01*
X99176525Y-36506632D01*
X99383368Y-36713475D01*
X99626589Y-36875990D01*
X99896842Y-36987932D01*
X100183740Y-37045000D01*
X100476260Y-37045000D01*
X100763158Y-36987932D01*
X101033411Y-36875990D01*
X101276632Y-36713475D01*
X101408487Y-36581620D01*
X101430498Y-36654180D01*
X101489463Y-36764494D01*
X101568815Y-36861185D01*
X101665506Y-36940537D01*
X101775820Y-36999502D01*
X101895518Y-37035812D01*
X102020000Y-37048072D01*
X103720000Y-37048072D01*
X103844482Y-37035812D01*
X103964180Y-36999502D01*
X104074494Y-36940537D01*
X104171185Y-36861185D01*
X104250537Y-36764494D01*
X104309502Y-36654180D01*
X104345812Y-36534482D01*
X104358072Y-36410000D01*
X104358072Y-34710000D01*
X104345812Y-34585518D01*
X104309502Y-34465820D01*
X104250537Y-34355506D01*
X104171185Y-34258815D01*
X104074494Y-34179463D01*
X103964180Y-34120498D01*
X103891620Y-34098487D01*
X104023475Y-33966632D01*
X104185990Y-33723411D01*
X104297932Y-33453158D01*
X104355000Y-33166260D01*
X104355000Y-32873740D01*
X104297932Y-32586842D01*
X104185990Y-32316589D01*
X104023475Y-32073368D01*
X103816632Y-31866525D01*
X103573411Y-31704010D01*
X103303158Y-31592068D01*
X103016260Y-31535000D01*
X102723740Y-31535000D01*
X102436842Y-31592068D01*
X102166589Y-31704010D01*
X101923368Y-31866525D01*
X101716525Y-32073368D01*
X101600000Y-32247760D01*
X101483475Y-32073368D01*
X101276632Y-31866525D01*
X101033411Y-31704010D01*
X100763158Y-31592068D01*
X100476260Y-31535000D01*
X100183740Y-31535000D01*
X99896842Y-31592068D01*
X99626589Y-31704010D01*
X99383368Y-31866525D01*
X99176525Y-32073368D01*
X99060000Y-32247760D01*
X98943475Y-32073368D01*
X98736632Y-31866525D01*
X98493411Y-31704010D01*
X98223158Y-31592068D01*
X97936260Y-31535000D01*
X97643740Y-31535000D01*
X97356842Y-31592068D01*
X97086589Y-31704010D01*
X96843368Y-31866525D01*
X96636525Y-32073368D01*
X96520000Y-32247760D01*
X96403475Y-32073368D01*
X96196632Y-31866525D01*
X95953411Y-31704010D01*
X95683158Y-31592068D01*
X95396260Y-31535000D01*
X95103740Y-31535000D01*
X94816842Y-31592068D01*
X94546589Y-31704010D01*
X94303368Y-31866525D01*
X94096525Y-32073368D01*
X93980000Y-32247760D01*
X93863475Y-32073368D01*
X93656632Y-31866525D01*
X93413411Y-31704010D01*
X93143158Y-31592068D01*
X92856260Y-31535000D01*
X92563740Y-31535000D01*
X92276842Y-31592068D01*
X92006589Y-31704010D01*
X91763368Y-31866525D01*
X91556525Y-32073368D01*
X91440000Y-32247760D01*
X91323475Y-32073368D01*
X91116632Y-31866525D01*
X90873411Y-31704010D01*
X90603158Y-31592068D01*
X90316260Y-31535000D01*
X90023740Y-31535000D01*
X89736842Y-31592068D01*
X89466589Y-31704010D01*
X89223368Y-31866525D01*
X89016525Y-32073368D01*
X88900000Y-32247760D01*
X88783475Y-32073368D01*
X88576632Y-31866525D01*
X88333411Y-31704010D01*
X88063158Y-31592068D01*
X87776260Y-31535000D01*
X87483740Y-31535000D01*
X87196842Y-31592068D01*
X86926589Y-31704010D01*
X86683368Y-31866525D01*
X86476525Y-32073368D01*
X86360000Y-32247760D01*
X86243475Y-32073368D01*
X86036632Y-31866525D01*
X85793411Y-31704010D01*
X85523158Y-31592068D01*
X85236260Y-31535000D01*
X84943740Y-31535000D01*
X84656842Y-31592068D01*
X84386589Y-31704010D01*
X84143368Y-31866525D01*
X83936525Y-32073368D01*
X83820000Y-32247760D01*
X83703475Y-32073368D01*
X83496632Y-31866525D01*
X83253411Y-31704010D01*
X82983158Y-31592068D01*
X82696260Y-31535000D01*
X82403740Y-31535000D01*
X82116842Y-31592068D01*
X81846589Y-31704010D01*
X81603368Y-31866525D01*
X81396525Y-32073368D01*
X81280000Y-32247760D01*
X81163475Y-32073368D01*
X80956632Y-31866525D01*
X80713411Y-31704010D01*
X80443158Y-31592068D01*
X80156260Y-31535000D01*
X79863740Y-31535000D01*
X79576842Y-31592068D01*
X79306589Y-31704010D01*
X79063368Y-31866525D01*
X78856525Y-32073368D01*
X78740000Y-32247760D01*
X78623475Y-32073368D01*
X78416632Y-31866525D01*
X78173411Y-31704010D01*
X77903158Y-31592068D01*
X77616260Y-31535000D01*
X77323740Y-31535000D01*
X77036842Y-31592068D01*
X76766589Y-31704010D01*
X76523368Y-31866525D01*
X76316525Y-32073368D01*
X76200000Y-32247760D01*
X76083475Y-32073368D01*
X75876632Y-31866525D01*
X75633411Y-31704010D01*
X75363158Y-31592068D01*
X75076260Y-31535000D01*
X74783740Y-31535000D01*
X74496842Y-31592068D01*
X74226589Y-31704010D01*
X73983368Y-31866525D01*
X73776525Y-32073368D01*
X73660000Y-32247760D01*
X73543475Y-32073368D01*
X73336632Y-31866525D01*
X73093411Y-31704010D01*
X72823158Y-31592068D01*
X72536260Y-31535000D01*
X72243740Y-31535000D01*
X71956842Y-31592068D01*
X71686589Y-31704010D01*
X71443368Y-31866525D01*
X71236525Y-32073368D01*
X71120000Y-32247760D01*
X71003475Y-32073368D01*
X70796632Y-31866525D01*
X70553411Y-31704010D01*
X70283158Y-31592068D01*
X69996260Y-31535000D01*
X69703740Y-31535000D01*
X69416842Y-31592068D01*
X69146589Y-31704010D01*
X68903368Y-31866525D01*
X68696525Y-32073368D01*
X68580000Y-32247760D01*
X68463475Y-32073368D01*
X68256632Y-31866525D01*
X68013411Y-31704010D01*
X67743158Y-31592068D01*
X67456260Y-31535000D01*
X67163740Y-31535000D01*
X66876842Y-31592068D01*
X66606589Y-31704010D01*
X66363368Y-31866525D01*
X66156525Y-32073368D01*
X66040000Y-32247760D01*
X65923475Y-32073368D01*
X65716632Y-31866525D01*
X65473411Y-31704010D01*
X65203158Y-31592068D01*
X64916260Y-31535000D01*
X64623740Y-31535000D01*
X64336842Y-31592068D01*
X64066589Y-31704010D01*
X63823368Y-31866525D01*
X63616525Y-32073368D01*
X63500000Y-32247760D01*
X63383475Y-32073368D01*
X63176632Y-31866525D01*
X62933411Y-31704010D01*
X62663158Y-31592068D01*
X62376260Y-31535000D01*
X62083740Y-31535000D01*
X61796842Y-31592068D01*
X61526589Y-31704010D01*
X61283368Y-31866525D01*
X61076525Y-32073368D01*
X60960000Y-32247760D01*
X60843475Y-32073368D01*
X60636632Y-31866525D01*
X60393411Y-31704010D01*
X60123158Y-31592068D01*
X59836260Y-31535000D01*
X59543740Y-31535000D01*
X59256842Y-31592068D01*
X58986589Y-31704010D01*
X58743368Y-31866525D01*
X58536525Y-32073368D01*
X58420000Y-32247760D01*
X58303475Y-32073368D01*
X58096632Y-31866525D01*
X57853411Y-31704010D01*
X57583158Y-31592068D01*
X57296260Y-31535000D01*
X57003740Y-31535000D01*
X56716842Y-31592068D01*
X56446589Y-31704010D01*
X56203368Y-31866525D01*
X55996525Y-32073368D01*
X55880000Y-32247760D01*
X55763475Y-32073368D01*
X55556632Y-31866525D01*
X55313411Y-31704010D01*
X55043158Y-31592068D01*
X54756260Y-31535000D01*
X54463740Y-31535000D01*
X54176842Y-31592068D01*
X53906589Y-31704010D01*
X53663368Y-31866525D01*
X53456525Y-32073368D01*
X53294010Y-32316589D01*
X53182068Y-32586842D01*
X53125000Y-32873740D01*
X33687152Y-32873740D01*
X33730631Y-32808669D01*
X33899110Y-32401925D01*
X33985000Y-31970128D01*
X33985000Y-31529872D01*
X123495000Y-31529872D01*
X123495000Y-31970128D01*
X123580890Y-32401925D01*
X123749369Y-32808669D01*
X123993962Y-33174729D01*
X124305271Y-33486038D01*
X124671331Y-33730631D01*
X125078075Y-33899110D01*
X125509872Y-33985000D01*
X125950128Y-33985000D01*
X126381925Y-33899110D01*
X126788669Y-33730631D01*
X127154729Y-33486038D01*
X127466038Y-33174729D01*
X127710631Y-32808669D01*
X127879110Y-32401925D01*
X127965000Y-31970128D01*
X127965000Y-31529872D01*
X127879110Y-31098075D01*
X127710631Y-30691331D01*
X127466038Y-30325271D01*
X127154729Y-30013962D01*
X126788669Y-29769369D01*
X126381925Y-29600890D01*
X125950128Y-29515000D01*
X125509872Y-29515000D01*
X125078075Y-29600890D01*
X124671331Y-29769369D01*
X124305271Y-30013962D01*
X123993962Y-30325271D01*
X123749369Y-30691331D01*
X123580890Y-31098075D01*
X123495000Y-31529872D01*
X33985000Y-31529872D01*
X33899110Y-31098075D01*
X33730631Y-30691331D01*
X33486038Y-30325271D01*
X33174729Y-30013962D01*
X32808669Y-29769369D01*
X32401925Y-29600890D01*
X31970128Y-29515000D01*
X31529872Y-29515000D01*
X31098075Y-29600890D01*
X30691331Y-29769369D01*
X30325271Y-30013962D01*
X30013962Y-30325271D01*
X29769369Y-30691331D01*
X29600890Y-31098075D01*
X29515000Y-31529872D01*
X27402467Y-31529872D01*
X27451842Y-30976642D01*
X27656723Y-30227723D01*
X27990986Y-29526928D01*
X28444069Y-28896395D01*
X29001645Y-28356066D01*
X29646099Y-27923011D01*
X30357044Y-27610927D01*
X31117493Y-27428360D01*
X31776031Y-27380000D01*
X125698382Y-27380000D01*
X126503358Y-27451842D01*
G37*
X126503358Y-27451842D02*
X127252277Y-27656723D01*
X127953072Y-27990986D01*
X128583605Y-28444069D01*
X129123934Y-29001645D01*
X129556989Y-29646099D01*
X129869073Y-30357044D01*
X130051640Y-31117493D01*
X130100000Y-31776031D01*
X130100001Y-125698371D01*
X130028158Y-126503359D01*
X129823277Y-127252277D01*
X129489013Y-127953075D01*
X129035931Y-128583605D01*
X128478354Y-129123935D01*
X127833901Y-129556989D01*
X127122956Y-129869073D01*
X126362506Y-130051640D01*
X125703968Y-130100000D01*
X31781618Y-130100000D01*
X30976641Y-130028158D01*
X30227723Y-129823277D01*
X29526925Y-129489013D01*
X28896395Y-129035931D01*
X28356065Y-128478354D01*
X27923011Y-127833901D01*
X27610927Y-127122956D01*
X27428360Y-126362506D01*
X27380000Y-125703968D01*
X27380000Y-125509872D01*
X29515000Y-125509872D01*
X29515000Y-125950128D01*
X29600890Y-126381925D01*
X29769369Y-126788669D01*
X30013962Y-127154729D01*
X30325271Y-127466038D01*
X30691331Y-127710631D01*
X31098075Y-127879110D01*
X31529872Y-127965000D01*
X31970128Y-127965000D01*
X32401925Y-127879110D01*
X32808669Y-127710631D01*
X33174729Y-127466038D01*
X33486038Y-127154729D01*
X33730631Y-126788669D01*
X33899110Y-126381925D01*
X33985000Y-125950128D01*
X33985000Y-125509872D01*
X33899110Y-125078075D01*
X33730631Y-124671331D01*
X33486038Y-124305271D01*
X33174729Y-123993962D01*
X32808669Y-123749369D01*
X32401925Y-123580890D01*
X31970128Y-123495000D01*
X31529872Y-123495000D01*
X31098075Y-123580890D01*
X30691331Y-123749369D01*
X30325271Y-123993962D01*
X30013962Y-124305271D01*
X29769369Y-124671331D01*
X29600890Y-125078075D01*
X29515000Y-125509872D01*
X27380000Y-125509872D01*
X27380000Y-121773740D01*
X53125000Y-121773740D01*
X53125000Y-122066260D01*
X53182068Y-122353158D01*
X53294010Y-122623411D01*
X53456525Y-122866632D01*
X53663368Y-123073475D01*
X53837760Y-123190000D01*
X53663368Y-123306525D01*
X53456525Y-123513368D01*
X53294010Y-123756589D01*
X53182068Y-124026842D01*
X53125000Y-124313740D01*
X53125000Y-124606260D01*
X53182068Y-124893158D01*
X53294010Y-125163411D01*
X53456525Y-125406632D01*
X53663368Y-125613475D01*
X53906589Y-125775990D01*
X54176842Y-125887932D01*
X54463740Y-125945000D01*
X54756260Y-125945000D01*
X55043158Y-125887932D01*
X55313411Y-125775990D01*
X55556632Y-125613475D01*
X55763475Y-125406632D01*
X55880000Y-125232240D01*
X55996525Y-125406632D01*
X56203368Y-125613475D01*
X56446589Y-125775990D01*
X56716842Y-125887932D01*
X57003740Y-125945000D01*
X57296260Y-125945000D01*
X57583158Y-125887932D01*
X57853411Y-125775990D01*
X58096632Y-125613475D01*
X58303475Y-125406632D01*
X58420000Y-125232240D01*
X58536525Y-125406632D01*
X58743368Y-125613475D01*
X58986589Y-125775990D01*
X59256842Y-125887932D01*
X59543740Y-125945000D01*
X59836260Y-125945000D01*
X60123158Y-125887932D01*
X60393411Y-125775990D01*
X60636632Y-125613475D01*
X60843475Y-125406632D01*
X60960000Y-125232240D01*
X61076525Y-125406632D01*
X61283368Y-125613475D01*
X61526589Y-125775990D01*
X61796842Y-125887932D01*
X62083740Y-125945000D01*
X62376260Y-125945000D01*
X62663158Y-125887932D01*
X62933411Y-125775990D01*
X63176632Y-125613475D01*
X63383475Y-125406632D01*
X63500000Y-125232240D01*
X63616525Y-125406632D01*
X63823368Y-125613475D01*
X64066589Y-125775990D01*
X64336842Y-125887932D01*
X64623740Y-125945000D01*
X64916260Y-125945000D01*
X65203158Y-125887932D01*
X65473411Y-125775990D01*
X65716632Y-125613475D01*
X65923475Y-125406632D01*
X66040000Y-125232240D01*
X66156525Y-125406632D01*
X66363368Y-125613475D01*
X66606589Y-125775990D01*
X66876842Y-125887932D01*
X67163740Y-125945000D01*
X67456260Y-125945000D01*
X67743158Y-125887932D01*
X68013411Y-125775990D01*
X68256632Y-125613475D01*
X68463475Y-125406632D01*
X68580000Y-125232240D01*
X68696525Y-125406632D01*
X68903368Y-125613475D01*
X69146589Y-125775990D01*
X69416842Y-125887932D01*
X69703740Y-125945000D01*
X69996260Y-125945000D01*
X70283158Y-125887932D01*
X70553411Y-125775990D01*
X70796632Y-125613475D01*
X71003475Y-125406632D01*
X71120000Y-125232240D01*
X71236525Y-125406632D01*
X71443368Y-125613475D01*
X71686589Y-125775990D01*
X71956842Y-125887932D01*
X72243740Y-125945000D01*
X72536260Y-125945000D01*
X72823158Y-125887932D01*
X73093411Y-125775990D01*
X73336632Y-125613475D01*
X73543475Y-125406632D01*
X73660000Y-125232240D01*
X73776525Y-125406632D01*
X73983368Y-125613475D01*
X74226589Y-125775990D01*
X74496842Y-125887932D01*
X74783740Y-125945000D01*
X75076260Y-125945000D01*
X75363158Y-125887932D01*
X75633411Y-125775990D01*
X75876632Y-125613475D01*
X76083475Y-125406632D01*
X76200000Y-125232240D01*
X76316525Y-125406632D01*
X76523368Y-125613475D01*
X76766589Y-125775990D01*
X77036842Y-125887932D01*
X77323740Y-125945000D01*
X77616260Y-125945000D01*
X77903158Y-125887932D01*
X78173411Y-125775990D01*
X78416632Y-125613475D01*
X78623475Y-125406632D01*
X78740000Y-125232240D01*
X78856525Y-125406632D01*
X79063368Y-125613475D01*
X79306589Y-125775990D01*
X79576842Y-125887932D01*
X79863740Y-125945000D01*
X80156260Y-125945000D01*
X80443158Y-125887932D01*
X80713411Y-125775990D01*
X80956632Y-125613475D01*
X81163475Y-125406632D01*
X81280000Y-125232240D01*
X81396525Y-125406632D01*
X81603368Y-125613475D01*
X81846589Y-125775990D01*
X82116842Y-125887932D01*
X82403740Y-125945000D01*
X82696260Y-125945000D01*
X82983158Y-125887932D01*
X83253411Y-125775990D01*
X83496632Y-125613475D01*
X83703475Y-125406632D01*
X83820000Y-125232240D01*
X83936525Y-125406632D01*
X84143368Y-125613475D01*
X84386589Y-125775990D01*
X84656842Y-125887932D01*
X84943740Y-125945000D01*
X85236260Y-125945000D01*
X85523158Y-125887932D01*
X85793411Y-125775990D01*
X86036632Y-125613475D01*
X86243475Y-125406632D01*
X86360000Y-125232240D01*
X86476525Y-125406632D01*
X86683368Y-125613475D01*
X86926589Y-125775990D01*
X87196842Y-125887932D01*
X87483740Y-125945000D01*
X87776260Y-125945000D01*
X88063158Y-125887932D01*
X88333411Y-125775990D01*
X88576632Y-125613475D01*
X88783475Y-125406632D01*
X88900000Y-125232240D01*
X89016525Y-125406632D01*
X89223368Y-125613475D01*
X89466589Y-125775990D01*
X89736842Y-125887932D01*
X90023740Y-125945000D01*
X90316260Y-125945000D01*
X90603158Y-125887932D01*
X90873411Y-125775990D01*
X91116632Y-125613475D01*
X91323475Y-125406632D01*
X91440000Y-125232240D01*
X91556525Y-125406632D01*
X91763368Y-125613475D01*
X92006589Y-125775990D01*
X92276842Y-125887932D01*
X92563740Y-125945000D01*
X92856260Y-125945000D01*
X93143158Y-125887932D01*
X93413411Y-125775990D01*
X93656632Y-125613475D01*
X93863475Y-125406632D01*
X93980000Y-125232240D01*
X94096525Y-125406632D01*
X94303368Y-125613475D01*
X94546589Y-125775990D01*
X94816842Y-125887932D01*
X95103740Y-125945000D01*
X95396260Y-125945000D01*
X95683158Y-125887932D01*
X95953411Y-125775990D01*
X96196632Y-125613475D01*
X96403475Y-125406632D01*
X96520000Y-125232240D01*
X96636525Y-125406632D01*
X96843368Y-125613475D01*
X97086589Y-125775990D01*
X97356842Y-125887932D01*
X97643740Y-125945000D01*
X97936260Y-125945000D01*
X98223158Y-125887932D01*
X98493411Y-125775990D01*
X98736632Y-125613475D01*
X98943475Y-125406632D01*
X99060000Y-125232240D01*
X99176525Y-125406632D01*
X99383368Y-125613475D01*
X99626589Y-125775990D01*
X99896842Y-125887932D01*
X100183740Y-125945000D01*
X100476260Y-125945000D01*
X100763158Y-125887932D01*
X101033411Y-125775990D01*
X101276632Y-125613475D01*
X101408487Y-125481620D01*
X101430498Y-125554180D01*
X101489463Y-125664494D01*
X101568815Y-125761185D01*
X101665506Y-125840537D01*
X101775820Y-125899502D01*
X101895518Y-125935812D01*
X102020000Y-125948072D01*
X103720000Y-125948072D01*
X103844482Y-125935812D01*
X103964180Y-125899502D01*
X104074494Y-125840537D01*
X104171185Y-125761185D01*
X104250537Y-125664494D01*
X104309502Y-125554180D01*
X104322942Y-125509872D01*
X123495000Y-125509872D01*
X123495000Y-125950128D01*
X123580890Y-126381925D01*
X123749369Y-126788669D01*
X123993962Y-127154729D01*
X124305271Y-127466038D01*
X124671331Y-127710631D01*
X125078075Y-127879110D01*
X125509872Y-127965000D01*
X125950128Y-127965000D01*
X126381925Y-127879110D01*
X126788669Y-127710631D01*
X127154729Y-127466038D01*
X127466038Y-127154729D01*
X127710631Y-126788669D01*
X127879110Y-126381925D01*
X127965000Y-125950128D01*
X127965000Y-125509872D01*
X127879110Y-125078075D01*
X127710631Y-124671331D01*
X127466038Y-124305271D01*
X127154729Y-123993962D01*
X126788669Y-123749369D01*
X126381925Y-123580890D01*
X125950128Y-123495000D01*
X125509872Y-123495000D01*
X125078075Y-123580890D01*
X124671331Y-123749369D01*
X124305271Y-123993962D01*
X123993962Y-124305271D01*
X123749369Y-124671331D01*
X123580890Y-125078075D01*
X123495000Y-125509872D01*
X104322942Y-125509872D01*
X104345812Y-125434482D01*
X104358072Y-125310000D01*
X104358072Y-123610000D01*
X104345812Y-123485518D01*
X104309502Y-123365820D01*
X104250537Y-123255506D01*
X104171185Y-123158815D01*
X104074494Y-123079463D01*
X103964180Y-123020498D01*
X103891620Y-122998487D01*
X104023475Y-122866632D01*
X104185990Y-122623411D01*
X104297932Y-122353158D01*
X104355000Y-122066260D01*
X104355000Y-121773740D01*
X104297932Y-121486842D01*
X104185990Y-121216589D01*
X104023475Y-120973368D01*
X103816632Y-120766525D01*
X103573411Y-120604010D01*
X103303158Y-120492068D01*
X103016260Y-120435000D01*
X102723740Y-120435000D01*
X102436842Y-120492068D01*
X102166589Y-120604010D01*
X101923368Y-120766525D01*
X101716525Y-120973368D01*
X101600000Y-121147760D01*
X101483475Y-120973368D01*
X101276632Y-120766525D01*
X101033411Y-120604010D01*
X100763158Y-120492068D01*
X100476260Y-120435000D01*
X100183740Y-120435000D01*
X99896842Y-120492068D01*
X99626589Y-120604010D01*
X99383368Y-120766525D01*
X99176525Y-120973368D01*
X99060000Y-121147760D01*
X98943475Y-120973368D01*
X98736632Y-120766525D01*
X98493411Y-120604010D01*
X98223158Y-120492068D01*
X97936260Y-120435000D01*
X97643740Y-120435000D01*
X97356842Y-120492068D01*
X97086589Y-120604010D01*
X96843368Y-120766525D01*
X96636525Y-120973368D01*
X96520000Y-121147760D01*
X96403475Y-120973368D01*
X96196632Y-120766525D01*
X95953411Y-120604010D01*
X95683158Y-120492068D01*
X95396260Y-120435000D01*
X95103740Y-120435000D01*
X94816842Y-120492068D01*
X94546589Y-120604010D01*
X94303368Y-120766525D01*
X94096525Y-120973368D01*
X93980000Y-121147760D01*
X93863475Y-120973368D01*
X93656632Y-120766525D01*
X93413411Y-120604010D01*
X93143158Y-120492068D01*
X92856260Y-120435000D01*
X92563740Y-120435000D01*
X92276842Y-120492068D01*
X92006589Y-120604010D01*
X91763368Y-120766525D01*
X91556525Y-120973368D01*
X91440000Y-121147760D01*
X91323475Y-120973368D01*
X91116632Y-120766525D01*
X90873411Y-120604010D01*
X90603158Y-120492068D01*
X90316260Y-120435000D01*
X90023740Y-120435000D01*
X89736842Y-120492068D01*
X89466589Y-120604010D01*
X89223368Y-120766525D01*
X89016525Y-120973368D01*
X88900000Y-121147760D01*
X88783475Y-120973368D01*
X88576632Y-120766525D01*
X88333411Y-120604010D01*
X88063158Y-120492068D01*
X87776260Y-120435000D01*
X87483740Y-120435000D01*
X87196842Y-120492068D01*
X86926589Y-120604010D01*
X86683368Y-120766525D01*
X86476525Y-120973368D01*
X86360000Y-121147760D01*
X86243475Y-120973368D01*
X86036632Y-120766525D01*
X85793411Y-120604010D01*
X85523158Y-120492068D01*
X85236260Y-120435000D01*
X84943740Y-120435000D01*
X84656842Y-120492068D01*
X84386589Y-120604010D01*
X84143368Y-120766525D01*
X83936525Y-120973368D01*
X83820000Y-121147760D01*
X83703475Y-120973368D01*
X83496632Y-120766525D01*
X83253411Y-120604010D01*
X82983158Y-120492068D01*
X82696260Y-120435000D01*
X82403740Y-120435000D01*
X82116842Y-120492068D01*
X81846589Y-120604010D01*
X81603368Y-120766525D01*
X81396525Y-120973368D01*
X81280000Y-121147760D01*
X81163475Y-120973368D01*
X80956632Y-120766525D01*
X80713411Y-120604010D01*
X80443158Y-120492068D01*
X80156260Y-120435000D01*
X79863740Y-120435000D01*
X79576842Y-120492068D01*
X79306589Y-120604010D01*
X79063368Y-120766525D01*
X78856525Y-120973368D01*
X78740000Y-121147760D01*
X78623475Y-120973368D01*
X78416632Y-120766525D01*
X78173411Y-120604010D01*
X77903158Y-120492068D01*
X77616260Y-120435000D01*
X77323740Y-120435000D01*
X77036842Y-120492068D01*
X76766589Y-120604010D01*
X76523368Y-120766525D01*
X76316525Y-120973368D01*
X76200000Y-121147760D01*
X76083475Y-120973368D01*
X75876632Y-120766525D01*
X75633411Y-120604010D01*
X75363158Y-120492068D01*
X75076260Y-120435000D01*
X74783740Y-120435000D01*
X74496842Y-120492068D01*
X74226589Y-120604010D01*
X73983368Y-120766525D01*
X73776525Y-120973368D01*
X73660000Y-121147760D01*
X73543475Y-120973368D01*
X73336632Y-120766525D01*
X73093411Y-120604010D01*
X72823158Y-120492068D01*
X72536260Y-120435000D01*
X72243740Y-120435000D01*
X71956842Y-120492068D01*
X71686589Y-120604010D01*
X71443368Y-120766525D01*
X71236525Y-120973368D01*
X71120000Y-121147760D01*
X71003475Y-120973368D01*
X70796632Y-120766525D01*
X70553411Y-120604010D01*
X70283158Y-120492068D01*
X69996260Y-120435000D01*
X69703740Y-120435000D01*
X69416842Y-120492068D01*
X69146589Y-120604010D01*
X68903368Y-120766525D01*
X68696525Y-120973368D01*
X68580000Y-121147760D01*
X68463475Y-120973368D01*
X68256632Y-120766525D01*
X68013411Y-120604010D01*
X67743158Y-120492068D01*
X67456260Y-120435000D01*
X67163740Y-120435000D01*
X66876842Y-120492068D01*
X66606589Y-120604010D01*
X66363368Y-120766525D01*
X66156525Y-120973368D01*
X66040000Y-121147760D01*
X65923475Y-120973368D01*
X65716632Y-120766525D01*
X65473411Y-120604010D01*
X65203158Y-120492068D01*
X64916260Y-120435000D01*
X64623740Y-120435000D01*
X64336842Y-120492068D01*
X64066589Y-120604010D01*
X63823368Y-120766525D01*
X63616525Y-120973368D01*
X63500000Y-121147760D01*
X63383475Y-120973368D01*
X63176632Y-120766525D01*
X62933411Y-120604010D01*
X62663158Y-120492068D01*
X62376260Y-120435000D01*
X62083740Y-120435000D01*
X61796842Y-120492068D01*
X61526589Y-120604010D01*
X61283368Y-120766525D01*
X61076525Y-120973368D01*
X60960000Y-121147760D01*
X60843475Y-120973368D01*
X60636632Y-120766525D01*
X60393411Y-120604010D01*
X60123158Y-120492068D01*
X59836260Y-120435000D01*
X59543740Y-120435000D01*
X59256842Y-120492068D01*
X58986589Y-120604010D01*
X58743368Y-120766525D01*
X58536525Y-120973368D01*
X58420000Y-121147760D01*
X58303475Y-120973368D01*
X58096632Y-120766525D01*
X57853411Y-120604010D01*
X57583158Y-120492068D01*
X57296260Y-120435000D01*
X57003740Y-120435000D01*
X56716842Y-120492068D01*
X56446589Y-120604010D01*
X56203368Y-120766525D01*
X55996525Y-120973368D01*
X55880000Y-121147760D01*
X55763475Y-120973368D01*
X55556632Y-120766525D01*
X55313411Y-120604010D01*
X55043158Y-120492068D01*
X54756260Y-120435000D01*
X54463740Y-120435000D01*
X54176842Y-120492068D01*
X53906589Y-120604010D01*
X53663368Y-120766525D01*
X53456525Y-120973368D01*
X53294010Y-121216589D01*
X53182068Y-121486842D01*
X53125000Y-121773740D01*
X27380000Y-121773740D01*
X27380000Y-31781618D01*
X27402467Y-31529872D01*
X29515000Y-31529872D01*
X29515000Y-31970128D01*
X29600890Y-32401925D01*
X29769369Y-32808669D01*
X30013962Y-33174729D01*
X30325271Y-33486038D01*
X30691331Y-33730631D01*
X31098075Y-33899110D01*
X31529872Y-33985000D01*
X31970128Y-33985000D01*
X32401925Y-33899110D01*
X32808669Y-33730631D01*
X33174729Y-33486038D01*
X33486038Y-33174729D01*
X33687152Y-32873740D01*
X53125000Y-32873740D01*
X53125000Y-33166260D01*
X53182068Y-33453158D01*
X53294010Y-33723411D01*
X53456525Y-33966632D01*
X53663368Y-34173475D01*
X53837760Y-34290000D01*
X53663368Y-34406525D01*
X53456525Y-34613368D01*
X53294010Y-34856589D01*
X53182068Y-35126842D01*
X53125000Y-35413740D01*
X53125000Y-35706260D01*
X53182068Y-35993158D01*
X53294010Y-36263411D01*
X53456525Y-36506632D01*
X53663368Y-36713475D01*
X53906589Y-36875990D01*
X54176842Y-36987932D01*
X54463740Y-37045000D01*
X54756260Y-37045000D01*
X55043158Y-36987932D01*
X55313411Y-36875990D01*
X55556632Y-36713475D01*
X55763475Y-36506632D01*
X55880000Y-36332240D01*
X55996525Y-36506632D01*
X56203368Y-36713475D01*
X56446589Y-36875990D01*
X56716842Y-36987932D01*
X57003740Y-37045000D01*
X57296260Y-37045000D01*
X57583158Y-36987932D01*
X57853411Y-36875990D01*
X58096632Y-36713475D01*
X58303475Y-36506632D01*
X58420000Y-36332240D01*
X58536525Y-36506632D01*
X58743368Y-36713475D01*
X58986589Y-36875990D01*
X59256842Y-36987932D01*
X59543740Y-37045000D01*
X59836260Y-37045000D01*
X60123158Y-36987932D01*
X60393411Y-36875990D01*
X60636632Y-36713475D01*
X60843475Y-36506632D01*
X60960000Y-36332240D01*
X61076525Y-36506632D01*
X61283368Y-36713475D01*
X61526589Y-36875990D01*
X61796842Y-36987932D01*
X62083740Y-37045000D01*
X62376260Y-37045000D01*
X62663158Y-36987932D01*
X62933411Y-36875990D01*
X63176632Y-36713475D01*
X63383475Y-36506632D01*
X63500000Y-36332240D01*
X63616525Y-36506632D01*
X63823368Y-36713475D01*
X64066589Y-36875990D01*
X64336842Y-36987932D01*
X64623740Y-37045000D01*
X64916260Y-37045000D01*
X65203158Y-36987932D01*
X65473411Y-36875990D01*
X65716632Y-36713475D01*
X65923475Y-36506632D01*
X66040000Y-36332240D01*
X66156525Y-36506632D01*
X66363368Y-36713475D01*
X66606589Y-36875990D01*
X66876842Y-36987932D01*
X67163740Y-37045000D01*
X67456260Y-37045000D01*
X67743158Y-36987932D01*
X68013411Y-36875990D01*
X68256632Y-36713475D01*
X68463475Y-36506632D01*
X68580000Y-36332240D01*
X68696525Y-36506632D01*
X68903368Y-36713475D01*
X69146589Y-36875990D01*
X69416842Y-36987932D01*
X69703740Y-37045000D01*
X69996260Y-37045000D01*
X70283158Y-36987932D01*
X70553411Y-36875990D01*
X70796632Y-36713475D01*
X71003475Y-36506632D01*
X71120000Y-36332240D01*
X71236525Y-36506632D01*
X71443368Y-36713475D01*
X71686589Y-36875990D01*
X71956842Y-36987932D01*
X72243740Y-37045000D01*
X72536260Y-37045000D01*
X72823158Y-36987932D01*
X73093411Y-36875990D01*
X73336632Y-36713475D01*
X73543475Y-36506632D01*
X73660000Y-36332240D01*
X73776525Y-36506632D01*
X73983368Y-36713475D01*
X74226589Y-36875990D01*
X74496842Y-36987932D01*
X74783740Y-37045000D01*
X75076260Y-37045000D01*
X75363158Y-36987932D01*
X75633411Y-36875990D01*
X75876632Y-36713475D01*
X76083475Y-36506632D01*
X76200000Y-36332240D01*
X76316525Y-36506632D01*
X76523368Y-36713475D01*
X76766589Y-36875990D01*
X77036842Y-36987932D01*
X77323740Y-37045000D01*
X77616260Y-37045000D01*
X77903158Y-36987932D01*
X78173411Y-36875990D01*
X78416632Y-36713475D01*
X78623475Y-36506632D01*
X78740000Y-36332240D01*
X78856525Y-36506632D01*
X79063368Y-36713475D01*
X79306589Y-36875990D01*
X79576842Y-36987932D01*
X79863740Y-37045000D01*
X80156260Y-37045000D01*
X80443158Y-36987932D01*
X80713411Y-36875990D01*
X80956632Y-36713475D01*
X81163475Y-36506632D01*
X81280000Y-36332240D01*
X81396525Y-36506632D01*
X81603368Y-36713475D01*
X81846589Y-36875990D01*
X82116842Y-36987932D01*
X82403740Y-37045000D01*
X82696260Y-37045000D01*
X82983158Y-36987932D01*
X83253411Y-36875990D01*
X83496632Y-36713475D01*
X83703475Y-36506632D01*
X83820000Y-36332240D01*
X83936525Y-36506632D01*
X84143368Y-36713475D01*
X84386589Y-36875990D01*
X84656842Y-36987932D01*
X84943740Y-37045000D01*
X85236260Y-37045000D01*
X85523158Y-36987932D01*
X85793411Y-36875990D01*
X86036632Y-36713475D01*
X86243475Y-36506632D01*
X86360000Y-36332240D01*
X86476525Y-36506632D01*
X86683368Y-36713475D01*
X86926589Y-36875990D01*
X87196842Y-36987932D01*
X87483740Y-37045000D01*
X87776260Y-37045000D01*
X88063158Y-36987932D01*
X88333411Y-36875990D01*
X88576632Y-36713475D01*
X88783475Y-36506632D01*
X88900000Y-36332240D01*
X89016525Y-36506632D01*
X89223368Y-36713475D01*
X89466589Y-36875990D01*
X89736842Y-36987932D01*
X90023740Y-37045000D01*
X90316260Y-37045000D01*
X90603158Y-36987932D01*
X90873411Y-36875990D01*
X91116632Y-36713475D01*
X91323475Y-36506632D01*
X91440000Y-36332240D01*
X91556525Y-36506632D01*
X91763368Y-36713475D01*
X92006589Y-36875990D01*
X92276842Y-36987932D01*
X92563740Y-37045000D01*
X92856260Y-37045000D01*
X93143158Y-36987932D01*
X93413411Y-36875990D01*
X93656632Y-36713475D01*
X93863475Y-36506632D01*
X93980000Y-36332240D01*
X94096525Y-36506632D01*
X94303368Y-36713475D01*
X94546589Y-36875990D01*
X94816842Y-36987932D01*
X95103740Y-37045000D01*
X95396260Y-37045000D01*
X95683158Y-36987932D01*
X95953411Y-36875990D01*
X96196632Y-36713475D01*
X96403475Y-36506632D01*
X96520000Y-36332240D01*
X96636525Y-36506632D01*
X96843368Y-36713475D01*
X97086589Y-36875990D01*
X97356842Y-36987932D01*
X97643740Y-37045000D01*
X97936260Y-37045000D01*
X98223158Y-36987932D01*
X98493411Y-36875990D01*
X98736632Y-36713475D01*
X98943475Y-36506632D01*
X99060000Y-36332240D01*
X99176525Y-36506632D01*
X99383368Y-36713475D01*
X99626589Y-36875990D01*
X99896842Y-36987932D01*
X100183740Y-37045000D01*
X100476260Y-37045000D01*
X100763158Y-36987932D01*
X101033411Y-36875990D01*
X101276632Y-36713475D01*
X101408487Y-36581620D01*
X101430498Y-36654180D01*
X101489463Y-36764494D01*
X101568815Y-36861185D01*
X101665506Y-36940537D01*
X101775820Y-36999502D01*
X101895518Y-37035812D01*
X102020000Y-37048072D01*
X103720000Y-37048072D01*
X103844482Y-37035812D01*
X103964180Y-36999502D01*
X104074494Y-36940537D01*
X104171185Y-36861185D01*
X104250537Y-36764494D01*
X104309502Y-36654180D01*
X104345812Y-36534482D01*
X104358072Y-36410000D01*
X104358072Y-34710000D01*
X104345812Y-34585518D01*
X104309502Y-34465820D01*
X104250537Y-34355506D01*
X104171185Y-34258815D01*
X104074494Y-34179463D01*
X103964180Y-34120498D01*
X103891620Y-34098487D01*
X104023475Y-33966632D01*
X104185990Y-33723411D01*
X104297932Y-33453158D01*
X104355000Y-33166260D01*
X104355000Y-32873740D01*
X104297932Y-32586842D01*
X104185990Y-32316589D01*
X104023475Y-32073368D01*
X103816632Y-31866525D01*
X103573411Y-31704010D01*
X103303158Y-31592068D01*
X103016260Y-31535000D01*
X102723740Y-31535000D01*
X102436842Y-31592068D01*
X102166589Y-31704010D01*
X101923368Y-31866525D01*
X101716525Y-32073368D01*
X101600000Y-32247760D01*
X101483475Y-32073368D01*
X101276632Y-31866525D01*
X101033411Y-31704010D01*
X100763158Y-31592068D01*
X100476260Y-31535000D01*
X100183740Y-31535000D01*
X99896842Y-31592068D01*
X99626589Y-31704010D01*
X99383368Y-31866525D01*
X99176525Y-32073368D01*
X99060000Y-32247760D01*
X98943475Y-32073368D01*
X98736632Y-31866525D01*
X98493411Y-31704010D01*
X98223158Y-31592068D01*
X97936260Y-31535000D01*
X97643740Y-31535000D01*
X97356842Y-31592068D01*
X97086589Y-31704010D01*
X96843368Y-31866525D01*
X96636525Y-32073368D01*
X96520000Y-32247760D01*
X96403475Y-32073368D01*
X96196632Y-31866525D01*
X95953411Y-31704010D01*
X95683158Y-31592068D01*
X95396260Y-31535000D01*
X95103740Y-31535000D01*
X94816842Y-31592068D01*
X94546589Y-31704010D01*
X94303368Y-31866525D01*
X94096525Y-32073368D01*
X93980000Y-32247760D01*
X93863475Y-32073368D01*
X93656632Y-31866525D01*
X93413411Y-31704010D01*
X93143158Y-31592068D01*
X92856260Y-31535000D01*
X92563740Y-31535000D01*
X92276842Y-31592068D01*
X92006589Y-31704010D01*
X91763368Y-31866525D01*
X91556525Y-32073368D01*
X91440000Y-32247760D01*
X91323475Y-32073368D01*
X91116632Y-31866525D01*
X90873411Y-31704010D01*
X90603158Y-31592068D01*
X90316260Y-31535000D01*
X90023740Y-31535000D01*
X89736842Y-31592068D01*
X89466589Y-31704010D01*
X89223368Y-31866525D01*
X89016525Y-32073368D01*
X88900000Y-32247760D01*
X88783475Y-32073368D01*
X88576632Y-31866525D01*
X88333411Y-31704010D01*
X88063158Y-31592068D01*
X87776260Y-31535000D01*
X87483740Y-31535000D01*
X87196842Y-31592068D01*
X86926589Y-31704010D01*
X86683368Y-31866525D01*
X86476525Y-32073368D01*
X86360000Y-32247760D01*
X86243475Y-32073368D01*
X86036632Y-31866525D01*
X85793411Y-31704010D01*
X85523158Y-31592068D01*
X85236260Y-31535000D01*
X84943740Y-31535000D01*
X84656842Y-31592068D01*
X84386589Y-31704010D01*
X84143368Y-31866525D01*
X83936525Y-32073368D01*
X83820000Y-32247760D01*
X83703475Y-32073368D01*
X83496632Y-31866525D01*
X83253411Y-31704010D01*
X82983158Y-31592068D01*
X82696260Y-31535000D01*
X82403740Y-31535000D01*
X82116842Y-31592068D01*
X81846589Y-31704010D01*
X81603368Y-31866525D01*
X81396525Y-32073368D01*
X81280000Y-32247760D01*
X81163475Y-32073368D01*
X80956632Y-31866525D01*
X80713411Y-31704010D01*
X80443158Y-31592068D01*
X80156260Y-31535000D01*
X79863740Y-31535000D01*
X79576842Y-31592068D01*
X79306589Y-31704010D01*
X79063368Y-31866525D01*
X78856525Y-32073368D01*
X78740000Y-32247760D01*
X78623475Y-32073368D01*
X78416632Y-31866525D01*
X78173411Y-31704010D01*
X77903158Y-31592068D01*
X77616260Y-31535000D01*
X77323740Y-31535000D01*
X77036842Y-31592068D01*
X76766589Y-31704010D01*
X76523368Y-31866525D01*
X76316525Y-32073368D01*
X76200000Y-32247760D01*
X76083475Y-32073368D01*
X75876632Y-31866525D01*
X75633411Y-31704010D01*
X75363158Y-31592068D01*
X75076260Y-31535000D01*
X74783740Y-31535000D01*
X74496842Y-31592068D01*
X74226589Y-31704010D01*
X73983368Y-31866525D01*
X73776525Y-32073368D01*
X73660000Y-32247760D01*
X73543475Y-32073368D01*
X73336632Y-31866525D01*
X73093411Y-31704010D01*
X72823158Y-31592068D01*
X72536260Y-31535000D01*
X72243740Y-31535000D01*
X71956842Y-31592068D01*
X71686589Y-31704010D01*
X71443368Y-31866525D01*
X71236525Y-32073368D01*
X71120000Y-32247760D01*
X71003475Y-32073368D01*
X70796632Y-31866525D01*
X70553411Y-31704010D01*
X70283158Y-31592068D01*
X69996260Y-31535000D01*
X69703740Y-31535000D01*
X69416842Y-31592068D01*
X69146589Y-31704010D01*
X68903368Y-31866525D01*
X68696525Y-32073368D01*
X68580000Y-32247760D01*
X68463475Y-32073368D01*
X68256632Y-31866525D01*
X68013411Y-31704010D01*
X67743158Y-31592068D01*
X67456260Y-31535000D01*
X67163740Y-31535000D01*
X66876842Y-31592068D01*
X66606589Y-31704010D01*
X66363368Y-31866525D01*
X66156525Y-32073368D01*
X66040000Y-32247760D01*
X65923475Y-32073368D01*
X65716632Y-31866525D01*
X65473411Y-31704010D01*
X65203158Y-31592068D01*
X64916260Y-31535000D01*
X64623740Y-31535000D01*
X64336842Y-31592068D01*
X64066589Y-31704010D01*
X63823368Y-31866525D01*
X63616525Y-32073368D01*
X63500000Y-32247760D01*
X63383475Y-32073368D01*
X63176632Y-31866525D01*
X62933411Y-31704010D01*
X62663158Y-31592068D01*
X62376260Y-31535000D01*
X62083740Y-31535000D01*
X61796842Y-31592068D01*
X61526589Y-31704010D01*
X61283368Y-31866525D01*
X61076525Y-32073368D01*
X60960000Y-32247760D01*
X60843475Y-32073368D01*
X60636632Y-31866525D01*
X60393411Y-31704010D01*
X60123158Y-31592068D01*
X59836260Y-31535000D01*
X59543740Y-31535000D01*
X59256842Y-31592068D01*
X58986589Y-31704010D01*
X58743368Y-31866525D01*
X58536525Y-32073368D01*
X58420000Y-32247760D01*
X58303475Y-32073368D01*
X58096632Y-31866525D01*
X57853411Y-31704010D01*
X57583158Y-31592068D01*
X57296260Y-31535000D01*
X57003740Y-31535000D01*
X56716842Y-31592068D01*
X56446589Y-31704010D01*
X56203368Y-31866525D01*
X55996525Y-32073368D01*
X55880000Y-32247760D01*
X55763475Y-32073368D01*
X55556632Y-31866525D01*
X55313411Y-31704010D01*
X55043158Y-31592068D01*
X54756260Y-31535000D01*
X54463740Y-31535000D01*
X54176842Y-31592068D01*
X53906589Y-31704010D01*
X53663368Y-31866525D01*
X53456525Y-32073368D01*
X53294010Y-32316589D01*
X53182068Y-32586842D01*
X53125000Y-32873740D01*
X33687152Y-32873740D01*
X33730631Y-32808669D01*
X33899110Y-32401925D01*
X33985000Y-31970128D01*
X33985000Y-31529872D01*
X123495000Y-31529872D01*
X123495000Y-31970128D01*
X123580890Y-32401925D01*
X123749369Y-32808669D01*
X123993962Y-33174729D01*
X124305271Y-33486038D01*
X124671331Y-33730631D01*
X125078075Y-33899110D01*
X125509872Y-33985000D01*
X125950128Y-33985000D01*
X126381925Y-33899110D01*
X126788669Y-33730631D01*
X127154729Y-33486038D01*
X127466038Y-33174729D01*
X127710631Y-32808669D01*
X127879110Y-32401925D01*
X127965000Y-31970128D01*
X127965000Y-31529872D01*
X127879110Y-31098075D01*
X127710631Y-30691331D01*
X127466038Y-30325271D01*
X127154729Y-30013962D01*
X126788669Y-29769369D01*
X126381925Y-29600890D01*
X125950128Y-29515000D01*
X125509872Y-29515000D01*
X125078075Y-29600890D01*
X124671331Y-29769369D01*
X124305271Y-30013962D01*
X123993962Y-30325271D01*
X123749369Y-30691331D01*
X123580890Y-31098075D01*
X123495000Y-31529872D01*
X33985000Y-31529872D01*
X33899110Y-31098075D01*
X33730631Y-30691331D01*
X33486038Y-30325271D01*
X33174729Y-30013962D01*
X32808669Y-29769369D01*
X32401925Y-29600890D01*
X31970128Y-29515000D01*
X31529872Y-29515000D01*
X31098075Y-29600890D01*
X30691331Y-29769369D01*
X30325271Y-30013962D01*
X30013962Y-30325271D01*
X29769369Y-30691331D01*
X29600890Y-31098075D01*
X29515000Y-31529872D01*
X27402467Y-31529872D01*
X27451842Y-30976642D01*
X27656723Y-30227723D01*
X27990986Y-29526928D01*
X28444069Y-28896395D01*
X29001645Y-28356066D01*
X29646099Y-27923011D01*
X30357044Y-27610927D01*
X31117493Y-27428360D01*
X31776031Y-27380000D01*
X125698382Y-27380000D01*
X126503358Y-27451842D01*
G36*
X63616525Y-122866632D02*
G01*
X63823368Y-123073475D01*
X63997760Y-123190000D01*
X63823368Y-123306525D01*
X63616525Y-123513368D01*
X63500000Y-123687760D01*
X63383475Y-123513368D01*
X63176632Y-123306525D01*
X63002240Y-123190000D01*
X63176632Y-123073475D01*
X63383475Y-122866632D01*
X63500000Y-122692240D01*
X63616525Y-122866632D01*
G37*
X63616525Y-122866632D02*
X63823368Y-123073475D01*
X63997760Y-123190000D01*
X63823368Y-123306525D01*
X63616525Y-123513368D01*
X63500000Y-123687760D01*
X63383475Y-123513368D01*
X63176632Y-123306525D01*
X63002240Y-123190000D01*
X63176632Y-123073475D01*
X63383475Y-122866632D01*
X63500000Y-122692240D01*
X63616525Y-122866632D01*
G36*
X66156525Y-122866632D02*
G01*
X66363368Y-123073475D01*
X66537760Y-123190000D01*
X66363368Y-123306525D01*
X66156525Y-123513368D01*
X66040000Y-123687760D01*
X65923475Y-123513368D01*
X65716632Y-123306525D01*
X65542240Y-123190000D01*
X65716632Y-123073475D01*
X65923475Y-122866632D01*
X66040000Y-122692240D01*
X66156525Y-122866632D01*
G37*
X66156525Y-122866632D02*
X66363368Y-123073475D01*
X66537760Y-123190000D01*
X66363368Y-123306525D01*
X66156525Y-123513368D01*
X66040000Y-123687760D01*
X65923475Y-123513368D01*
X65716632Y-123306525D01*
X65542240Y-123190000D01*
X65716632Y-123073475D01*
X65923475Y-122866632D01*
X66040000Y-122692240D01*
X66156525Y-122866632D01*
G36*
X68696525Y-122866632D02*
G01*
X68903368Y-123073475D01*
X69077760Y-123190000D01*
X68903368Y-123306525D01*
X68696525Y-123513368D01*
X68580000Y-123687760D01*
X68463475Y-123513368D01*
X68256632Y-123306525D01*
X68082240Y-123190000D01*
X68256632Y-123073475D01*
X68463475Y-122866632D01*
X68580000Y-122692240D01*
X68696525Y-122866632D01*
G37*
X68696525Y-122866632D02*
X68903368Y-123073475D01*
X69077760Y-123190000D01*
X68903368Y-123306525D01*
X68696525Y-123513368D01*
X68580000Y-123687760D01*
X68463475Y-123513368D01*
X68256632Y-123306525D01*
X68082240Y-123190000D01*
X68256632Y-123073475D01*
X68463475Y-122866632D01*
X68580000Y-122692240D01*
X68696525Y-122866632D01*
G36*
X71236525Y-122866632D02*
G01*
X71443368Y-123073475D01*
X71617760Y-123190000D01*
X71443368Y-123306525D01*
X71236525Y-123513368D01*
X71120000Y-123687760D01*
X71003475Y-123513368D01*
X70796632Y-123306525D01*
X70622240Y-123190000D01*
X70796632Y-123073475D01*
X71003475Y-122866632D01*
X71120000Y-122692240D01*
X71236525Y-122866632D01*
G37*
X71236525Y-122866632D02*
X71443368Y-123073475D01*
X71617760Y-123190000D01*
X71443368Y-123306525D01*
X71236525Y-123513368D01*
X71120000Y-123687760D01*
X71003475Y-123513368D01*
X70796632Y-123306525D01*
X70622240Y-123190000D01*
X70796632Y-123073475D01*
X71003475Y-122866632D01*
X71120000Y-122692240D01*
X71236525Y-122866632D01*
G36*
X73776525Y-122866632D02*
G01*
X73983368Y-123073475D01*
X74157760Y-123190000D01*
X73983368Y-123306525D01*
X73776525Y-123513368D01*
X73660000Y-123687760D01*
X73543475Y-123513368D01*
X73336632Y-123306525D01*
X73162240Y-123190000D01*
X73336632Y-123073475D01*
X73543475Y-122866632D01*
X73660000Y-122692240D01*
X73776525Y-122866632D01*
G37*
X73776525Y-122866632D02*
X73983368Y-123073475D01*
X74157760Y-123190000D01*
X73983368Y-123306525D01*
X73776525Y-123513368D01*
X73660000Y-123687760D01*
X73543475Y-123513368D01*
X73336632Y-123306525D01*
X73162240Y-123190000D01*
X73336632Y-123073475D01*
X73543475Y-122866632D01*
X73660000Y-122692240D01*
X73776525Y-122866632D01*
G36*
X76316525Y-122866632D02*
G01*
X76523368Y-123073475D01*
X76697760Y-123190000D01*
X76523368Y-123306525D01*
X76316525Y-123513368D01*
X76200000Y-123687760D01*
X76083475Y-123513368D01*
X75876632Y-123306525D01*
X75702240Y-123190000D01*
X75876632Y-123073475D01*
X76083475Y-122866632D01*
X76200000Y-122692240D01*
X76316525Y-122866632D01*
G37*
X76316525Y-122866632D02*
X76523368Y-123073475D01*
X76697760Y-123190000D01*
X76523368Y-123306525D01*
X76316525Y-123513368D01*
X76200000Y-123687760D01*
X76083475Y-123513368D01*
X75876632Y-123306525D01*
X75702240Y-123190000D01*
X75876632Y-123073475D01*
X76083475Y-122866632D01*
X76200000Y-122692240D01*
X76316525Y-122866632D01*
G36*
X78856525Y-122866632D02*
G01*
X79063368Y-123073475D01*
X79237760Y-123190000D01*
X79063368Y-123306525D01*
X78856525Y-123513368D01*
X78740000Y-123687760D01*
X78623475Y-123513368D01*
X78416632Y-123306525D01*
X78242240Y-123190000D01*
X78416632Y-123073475D01*
X78623475Y-122866632D01*
X78740000Y-122692240D01*
X78856525Y-122866632D01*
G37*
X78856525Y-122866632D02*
X79063368Y-123073475D01*
X79237760Y-123190000D01*
X79063368Y-123306525D01*
X78856525Y-123513368D01*
X78740000Y-123687760D01*
X78623475Y-123513368D01*
X78416632Y-123306525D01*
X78242240Y-123190000D01*
X78416632Y-123073475D01*
X78623475Y-122866632D01*
X78740000Y-122692240D01*
X78856525Y-122866632D01*
G36*
X81396525Y-122866632D02*
G01*
X81603368Y-123073475D01*
X81777760Y-123190000D01*
X81603368Y-123306525D01*
X81396525Y-123513368D01*
X81280000Y-123687760D01*
X81163475Y-123513368D01*
X80956632Y-123306525D01*
X80782240Y-123190000D01*
X80956632Y-123073475D01*
X81163475Y-122866632D01*
X81280000Y-122692240D01*
X81396525Y-122866632D01*
G37*
X81396525Y-122866632D02*
X81603368Y-123073475D01*
X81777760Y-123190000D01*
X81603368Y-123306525D01*
X81396525Y-123513368D01*
X81280000Y-123687760D01*
X81163475Y-123513368D01*
X80956632Y-123306525D01*
X80782240Y-123190000D01*
X80956632Y-123073475D01*
X81163475Y-122866632D01*
X81280000Y-122692240D01*
X81396525Y-122866632D01*
G36*
X61076525Y-122866632D02*
G01*
X61283368Y-123073475D01*
X61457760Y-123190000D01*
X61283368Y-123306525D01*
X61076525Y-123513368D01*
X60960000Y-123687760D01*
X60843475Y-123513368D01*
X60636632Y-123306525D01*
X60462240Y-123190000D01*
X60636632Y-123073475D01*
X60843475Y-122866632D01*
X60960000Y-122692240D01*
X61076525Y-122866632D01*
G37*
X61076525Y-122866632D02*
X61283368Y-123073475D01*
X61457760Y-123190000D01*
X61283368Y-123306525D01*
X61076525Y-123513368D01*
X60960000Y-123687760D01*
X60843475Y-123513368D01*
X60636632Y-123306525D01*
X60462240Y-123190000D01*
X60636632Y-123073475D01*
X60843475Y-122866632D01*
X60960000Y-122692240D01*
X61076525Y-122866632D01*
G36*
X83936525Y-122866632D02*
G01*
X84143368Y-123073475D01*
X84317760Y-123190000D01*
X84143368Y-123306525D01*
X83936525Y-123513368D01*
X83820000Y-123687760D01*
X83703475Y-123513368D01*
X83496632Y-123306525D01*
X83322240Y-123190000D01*
X83496632Y-123073475D01*
X83703475Y-122866632D01*
X83820000Y-122692240D01*
X83936525Y-122866632D01*
G37*
X83936525Y-122866632D02*
X84143368Y-123073475D01*
X84317760Y-123190000D01*
X84143368Y-123306525D01*
X83936525Y-123513368D01*
X83820000Y-123687760D01*
X83703475Y-123513368D01*
X83496632Y-123306525D01*
X83322240Y-123190000D01*
X83496632Y-123073475D01*
X83703475Y-122866632D01*
X83820000Y-122692240D01*
X83936525Y-122866632D01*
G36*
X55996525Y-122866632D02*
G01*
X56203368Y-123073475D01*
X56377760Y-123190000D01*
X56203368Y-123306525D01*
X55996525Y-123513368D01*
X55880000Y-123687760D01*
X55763475Y-123513368D01*
X55556632Y-123306525D01*
X55382240Y-123190000D01*
X55556632Y-123073475D01*
X55763475Y-122866632D01*
X55880000Y-122692240D01*
X55996525Y-122866632D01*
G37*
X55996525Y-122866632D02*
X56203368Y-123073475D01*
X56377760Y-123190000D01*
X56203368Y-123306525D01*
X55996525Y-123513368D01*
X55880000Y-123687760D01*
X55763475Y-123513368D01*
X55556632Y-123306525D01*
X55382240Y-123190000D01*
X55556632Y-123073475D01*
X55763475Y-122866632D01*
X55880000Y-122692240D01*
X55996525Y-122866632D01*
G36*
X86476525Y-122866632D02*
G01*
X86683368Y-123073475D01*
X86857760Y-123190000D01*
X86683368Y-123306525D01*
X86476525Y-123513368D01*
X86360000Y-123687760D01*
X86243475Y-123513368D01*
X86036632Y-123306525D01*
X85862240Y-123190000D01*
X86036632Y-123073475D01*
X86243475Y-122866632D01*
X86360000Y-122692240D01*
X86476525Y-122866632D01*
G37*
X86476525Y-122866632D02*
X86683368Y-123073475D01*
X86857760Y-123190000D01*
X86683368Y-123306525D01*
X86476525Y-123513368D01*
X86360000Y-123687760D01*
X86243475Y-123513368D01*
X86036632Y-123306525D01*
X85862240Y-123190000D01*
X86036632Y-123073475D01*
X86243475Y-122866632D01*
X86360000Y-122692240D01*
X86476525Y-122866632D01*
G36*
X89016525Y-122866632D02*
G01*
X89223368Y-123073475D01*
X89397760Y-123190000D01*
X89223368Y-123306525D01*
X89016525Y-123513368D01*
X88900000Y-123687760D01*
X88783475Y-123513368D01*
X88576632Y-123306525D01*
X88402240Y-123190000D01*
X88576632Y-123073475D01*
X88783475Y-122866632D01*
X88900000Y-122692240D01*
X89016525Y-122866632D01*
G37*
X89016525Y-122866632D02*
X89223368Y-123073475D01*
X89397760Y-123190000D01*
X89223368Y-123306525D01*
X89016525Y-123513368D01*
X88900000Y-123687760D01*
X88783475Y-123513368D01*
X88576632Y-123306525D01*
X88402240Y-123190000D01*
X88576632Y-123073475D01*
X88783475Y-122866632D01*
X88900000Y-122692240D01*
X89016525Y-122866632D01*
G36*
X91556525Y-122866632D02*
G01*
X91763368Y-123073475D01*
X91937760Y-123190000D01*
X91763368Y-123306525D01*
X91556525Y-123513368D01*
X91440000Y-123687760D01*
X91323475Y-123513368D01*
X91116632Y-123306525D01*
X90942240Y-123190000D01*
X91116632Y-123073475D01*
X91323475Y-122866632D01*
X91440000Y-122692240D01*
X91556525Y-122866632D01*
G37*
X91556525Y-122866632D02*
X91763368Y-123073475D01*
X91937760Y-123190000D01*
X91763368Y-123306525D01*
X91556525Y-123513368D01*
X91440000Y-123687760D01*
X91323475Y-123513368D01*
X91116632Y-123306525D01*
X90942240Y-123190000D01*
X91116632Y-123073475D01*
X91323475Y-122866632D01*
X91440000Y-122692240D01*
X91556525Y-122866632D01*
G36*
X94096525Y-122866632D02*
G01*
X94303368Y-123073475D01*
X94477760Y-123190000D01*
X94303368Y-123306525D01*
X94096525Y-123513368D01*
X93980000Y-123687760D01*
X93863475Y-123513368D01*
X93656632Y-123306525D01*
X93482240Y-123190000D01*
X93656632Y-123073475D01*
X93863475Y-122866632D01*
X93980000Y-122692240D01*
X94096525Y-122866632D01*
G37*
X94096525Y-122866632D02*
X94303368Y-123073475D01*
X94477760Y-123190000D01*
X94303368Y-123306525D01*
X94096525Y-123513368D01*
X93980000Y-123687760D01*
X93863475Y-123513368D01*
X93656632Y-123306525D01*
X93482240Y-123190000D01*
X93656632Y-123073475D01*
X93863475Y-122866632D01*
X93980000Y-122692240D01*
X94096525Y-122866632D01*
G36*
X96636525Y-122866632D02*
G01*
X96843368Y-123073475D01*
X97017760Y-123190000D01*
X96843368Y-123306525D01*
X96636525Y-123513368D01*
X96520000Y-123687760D01*
X96403475Y-123513368D01*
X96196632Y-123306525D01*
X96022240Y-123190000D01*
X96196632Y-123073475D01*
X96403475Y-122866632D01*
X96520000Y-122692240D01*
X96636525Y-122866632D01*
G37*
X96636525Y-122866632D02*
X96843368Y-123073475D01*
X97017760Y-123190000D01*
X96843368Y-123306525D01*
X96636525Y-123513368D01*
X96520000Y-123687760D01*
X96403475Y-123513368D01*
X96196632Y-123306525D01*
X96022240Y-123190000D01*
X96196632Y-123073475D01*
X96403475Y-122866632D01*
X96520000Y-122692240D01*
X96636525Y-122866632D01*
G36*
X58536525Y-122866632D02*
G01*
X58743368Y-123073475D01*
X58917760Y-123190000D01*
X58743368Y-123306525D01*
X58536525Y-123513368D01*
X58420000Y-123687760D01*
X58303475Y-123513368D01*
X58096632Y-123306525D01*
X57922240Y-123190000D01*
X58096632Y-123073475D01*
X58303475Y-122866632D01*
X58420000Y-122692240D01*
X58536525Y-122866632D01*
G37*
X58536525Y-122866632D02*
X58743368Y-123073475D01*
X58917760Y-123190000D01*
X58743368Y-123306525D01*
X58536525Y-123513368D01*
X58420000Y-123687760D01*
X58303475Y-123513368D01*
X58096632Y-123306525D01*
X57922240Y-123190000D01*
X58096632Y-123073475D01*
X58303475Y-122866632D01*
X58420000Y-122692240D01*
X58536525Y-122866632D01*
G36*
X99176525Y-122866632D02*
G01*
X99383368Y-123073475D01*
X99557760Y-123190000D01*
X99383368Y-123306525D01*
X99176525Y-123513368D01*
X99060000Y-123687760D01*
X98943475Y-123513368D01*
X98736632Y-123306525D01*
X98562240Y-123190000D01*
X98736632Y-123073475D01*
X98943475Y-122866632D01*
X99060000Y-122692240D01*
X99176525Y-122866632D01*
G37*
X99176525Y-122866632D02*
X99383368Y-123073475D01*
X99557760Y-123190000D01*
X99383368Y-123306525D01*
X99176525Y-123513368D01*
X99060000Y-123687760D01*
X98943475Y-123513368D01*
X98736632Y-123306525D01*
X98562240Y-123190000D01*
X98736632Y-123073475D01*
X98943475Y-122866632D01*
X99060000Y-122692240D01*
X99176525Y-122866632D01*
G36*
X101716525Y-122866632D02*
G01*
X101848380Y-122998487D01*
X101775820Y-123020498D01*
X101665506Y-123079463D01*
X101568815Y-123158815D01*
X101489463Y-123255506D01*
X101430498Y-123365820D01*
X101408487Y-123438380D01*
X101276632Y-123306525D01*
X101102240Y-123190000D01*
X101276632Y-123073475D01*
X101483475Y-122866632D01*
X101600000Y-122692240D01*
X101716525Y-122866632D01*
G37*
X101716525Y-122866632D02*
X101848380Y-122998487D01*
X101775820Y-123020498D01*
X101665506Y-123079463D01*
X101568815Y-123158815D01*
X101489463Y-123255506D01*
X101430498Y-123365820D01*
X101408487Y-123438380D01*
X101276632Y-123306525D01*
X101102240Y-123190000D01*
X101276632Y-123073475D01*
X101483475Y-122866632D01*
X101600000Y-122692240D01*
X101716525Y-122866632D01*
G36*
X94096525Y-33966632D02*
G01*
X94303368Y-34173475D01*
X94477760Y-34290000D01*
X94303368Y-34406525D01*
X94096525Y-34613368D01*
X93980000Y-34787760D01*
X93863475Y-34613368D01*
X93656632Y-34406525D01*
X93482240Y-34290000D01*
X93656632Y-34173475D01*
X93863475Y-33966632D01*
X93980000Y-33792240D01*
X94096525Y-33966632D01*
G37*
X94096525Y-33966632D02*
X94303368Y-34173475D01*
X94477760Y-34290000D01*
X94303368Y-34406525D01*
X94096525Y-34613368D01*
X93980000Y-34787760D01*
X93863475Y-34613368D01*
X93656632Y-34406525D01*
X93482240Y-34290000D01*
X93656632Y-34173475D01*
X93863475Y-33966632D01*
X93980000Y-33792240D01*
X94096525Y-33966632D01*
G36*
X91556525Y-33966632D02*
G01*
X91763368Y-34173475D01*
X91937760Y-34290000D01*
X91763368Y-34406525D01*
X91556525Y-34613368D01*
X91440000Y-34787760D01*
X91323475Y-34613368D01*
X91116632Y-34406525D01*
X90942240Y-34290000D01*
X91116632Y-34173475D01*
X91323475Y-33966632D01*
X91440000Y-33792240D01*
X91556525Y-33966632D01*
G37*
X91556525Y-33966632D02*
X91763368Y-34173475D01*
X91937760Y-34290000D01*
X91763368Y-34406525D01*
X91556525Y-34613368D01*
X91440000Y-34787760D01*
X91323475Y-34613368D01*
X91116632Y-34406525D01*
X90942240Y-34290000D01*
X91116632Y-34173475D01*
X91323475Y-33966632D01*
X91440000Y-33792240D01*
X91556525Y-33966632D01*
G36*
X89016525Y-33966632D02*
G01*
X89223368Y-34173475D01*
X89397760Y-34290000D01*
X89223368Y-34406525D01*
X89016525Y-34613368D01*
X88900000Y-34787760D01*
X88783475Y-34613368D01*
X88576632Y-34406525D01*
X88402240Y-34290000D01*
X88576632Y-34173475D01*
X88783475Y-33966632D01*
X88900000Y-33792240D01*
X89016525Y-33966632D01*
G37*
X89016525Y-33966632D02*
X89223368Y-34173475D01*
X89397760Y-34290000D01*
X89223368Y-34406525D01*
X89016525Y-34613368D01*
X88900000Y-34787760D01*
X88783475Y-34613368D01*
X88576632Y-34406525D01*
X88402240Y-34290000D01*
X88576632Y-34173475D01*
X88783475Y-33966632D01*
X88900000Y-33792240D01*
X89016525Y-33966632D01*
G36*
X86476525Y-33966632D02*
G01*
X86683368Y-34173475D01*
X86857760Y-34290000D01*
X86683368Y-34406525D01*
X86476525Y-34613368D01*
X86360000Y-34787760D01*
X86243475Y-34613368D01*
X86036632Y-34406525D01*
X85862240Y-34290000D01*
X86036632Y-34173475D01*
X86243475Y-33966632D01*
X86360000Y-33792240D01*
X86476525Y-33966632D01*
G37*
X86476525Y-33966632D02*
X86683368Y-34173475D01*
X86857760Y-34290000D01*
X86683368Y-34406525D01*
X86476525Y-34613368D01*
X86360000Y-34787760D01*
X86243475Y-34613368D01*
X86036632Y-34406525D01*
X85862240Y-34290000D01*
X86036632Y-34173475D01*
X86243475Y-33966632D01*
X86360000Y-33792240D01*
X86476525Y-33966632D01*
G36*
X83936525Y-33966632D02*
G01*
X84143368Y-34173475D01*
X84317760Y-34290000D01*
X84143368Y-34406525D01*
X83936525Y-34613368D01*
X83820000Y-34787760D01*
X83703475Y-34613368D01*
X83496632Y-34406525D01*
X83322240Y-34290000D01*
X83496632Y-34173475D01*
X83703475Y-33966632D01*
X83820000Y-33792240D01*
X83936525Y-33966632D01*
G37*
X83936525Y-33966632D02*
X84143368Y-34173475D01*
X84317760Y-34290000D01*
X84143368Y-34406525D01*
X83936525Y-34613368D01*
X83820000Y-34787760D01*
X83703475Y-34613368D01*
X83496632Y-34406525D01*
X83322240Y-34290000D01*
X83496632Y-34173475D01*
X83703475Y-33966632D01*
X83820000Y-33792240D01*
X83936525Y-33966632D01*
G36*
X96636525Y-33966632D02*
G01*
X96843368Y-34173475D01*
X97017760Y-34290000D01*
X96843368Y-34406525D01*
X96636525Y-34613368D01*
X96520000Y-34787760D01*
X96403475Y-34613368D01*
X96196632Y-34406525D01*
X96022240Y-34290000D01*
X96196632Y-34173475D01*
X96403475Y-33966632D01*
X96520000Y-33792240D01*
X96636525Y-33966632D01*
G37*
X96636525Y-33966632D02*
X96843368Y-34173475D01*
X97017760Y-34290000D01*
X96843368Y-34406525D01*
X96636525Y-34613368D01*
X96520000Y-34787760D01*
X96403475Y-34613368D01*
X96196632Y-34406525D01*
X96022240Y-34290000D01*
X96196632Y-34173475D01*
X96403475Y-33966632D01*
X96520000Y-33792240D01*
X96636525Y-33966632D01*
G36*
X81396525Y-33966632D02*
G01*
X81603368Y-34173475D01*
X81777760Y-34290000D01*
X81603368Y-34406525D01*
X81396525Y-34613368D01*
X81280000Y-34787760D01*
X81163475Y-34613368D01*
X80956632Y-34406525D01*
X80782240Y-34290000D01*
X80956632Y-34173475D01*
X81163475Y-33966632D01*
X81280000Y-33792240D01*
X81396525Y-33966632D01*
G37*
X81396525Y-33966632D02*
X81603368Y-34173475D01*
X81777760Y-34290000D01*
X81603368Y-34406525D01*
X81396525Y-34613368D01*
X81280000Y-34787760D01*
X81163475Y-34613368D01*
X80956632Y-34406525D01*
X80782240Y-34290000D01*
X80956632Y-34173475D01*
X81163475Y-33966632D01*
X81280000Y-33792240D01*
X81396525Y-33966632D01*
G36*
X78856525Y-33966632D02*
G01*
X79063368Y-34173475D01*
X79237760Y-34290000D01*
X79063368Y-34406525D01*
X78856525Y-34613368D01*
X78740000Y-34787760D01*
X78623475Y-34613368D01*
X78416632Y-34406525D01*
X78242240Y-34290000D01*
X78416632Y-34173475D01*
X78623475Y-33966632D01*
X78740000Y-33792240D01*
X78856525Y-33966632D01*
G37*
X78856525Y-33966632D02*
X79063368Y-34173475D01*
X79237760Y-34290000D01*
X79063368Y-34406525D01*
X78856525Y-34613368D01*
X78740000Y-34787760D01*
X78623475Y-34613368D01*
X78416632Y-34406525D01*
X78242240Y-34290000D01*
X78416632Y-34173475D01*
X78623475Y-33966632D01*
X78740000Y-33792240D01*
X78856525Y-33966632D01*
G36*
X76316525Y-33966632D02*
G01*
X76523368Y-34173475D01*
X76697760Y-34290000D01*
X76523368Y-34406525D01*
X76316525Y-34613368D01*
X76200000Y-34787760D01*
X76083475Y-34613368D01*
X75876632Y-34406525D01*
X75702240Y-34290000D01*
X75876632Y-34173475D01*
X76083475Y-33966632D01*
X76200000Y-33792240D01*
X76316525Y-33966632D01*
G37*
X76316525Y-33966632D02*
X76523368Y-34173475D01*
X76697760Y-34290000D01*
X76523368Y-34406525D01*
X76316525Y-34613368D01*
X76200000Y-34787760D01*
X76083475Y-34613368D01*
X75876632Y-34406525D01*
X75702240Y-34290000D01*
X75876632Y-34173475D01*
X76083475Y-33966632D01*
X76200000Y-33792240D01*
X76316525Y-33966632D01*
G36*
X73776525Y-33966632D02*
G01*
X73983368Y-34173475D01*
X74157760Y-34290000D01*
X73983368Y-34406525D01*
X73776525Y-34613368D01*
X73660000Y-34787760D01*
X73543475Y-34613368D01*
X73336632Y-34406525D01*
X73162240Y-34290000D01*
X73336632Y-34173475D01*
X73543475Y-33966632D01*
X73660000Y-33792240D01*
X73776525Y-33966632D01*
G37*
X73776525Y-33966632D02*
X73983368Y-34173475D01*
X74157760Y-34290000D01*
X73983368Y-34406525D01*
X73776525Y-34613368D01*
X73660000Y-34787760D01*
X73543475Y-34613368D01*
X73336632Y-34406525D01*
X73162240Y-34290000D01*
X73336632Y-34173475D01*
X73543475Y-33966632D01*
X73660000Y-33792240D01*
X73776525Y-33966632D01*
G36*
X71236525Y-33966632D02*
G01*
X71443368Y-34173475D01*
X71617760Y-34290000D01*
X71443368Y-34406525D01*
X71236525Y-34613368D01*
X71120000Y-34787760D01*
X71003475Y-34613368D01*
X70796632Y-34406525D01*
X70622240Y-34290000D01*
X70796632Y-34173475D01*
X71003475Y-33966632D01*
X71120000Y-33792240D01*
X71236525Y-33966632D01*
G37*
X71236525Y-33966632D02*
X71443368Y-34173475D01*
X71617760Y-34290000D01*
X71443368Y-34406525D01*
X71236525Y-34613368D01*
X71120000Y-34787760D01*
X71003475Y-34613368D01*
X70796632Y-34406525D01*
X70622240Y-34290000D01*
X70796632Y-34173475D01*
X71003475Y-33966632D01*
X71120000Y-33792240D01*
X71236525Y-33966632D01*
G36*
X68696525Y-33966632D02*
G01*
X68903368Y-34173475D01*
X69077760Y-34290000D01*
X68903368Y-34406525D01*
X68696525Y-34613368D01*
X68580000Y-34787760D01*
X68463475Y-34613368D01*
X68256632Y-34406525D01*
X68082240Y-34290000D01*
X68256632Y-34173475D01*
X68463475Y-33966632D01*
X68580000Y-33792240D01*
X68696525Y-33966632D01*
G37*
X68696525Y-33966632D02*
X68903368Y-34173475D01*
X69077760Y-34290000D01*
X68903368Y-34406525D01*
X68696525Y-34613368D01*
X68580000Y-34787760D01*
X68463475Y-34613368D01*
X68256632Y-34406525D01*
X68082240Y-34290000D01*
X68256632Y-34173475D01*
X68463475Y-33966632D01*
X68580000Y-33792240D01*
X68696525Y-33966632D01*
G36*
X66156525Y-33966632D02*
G01*
X66363368Y-34173475D01*
X66537760Y-34290000D01*
X66363368Y-34406525D01*
X66156525Y-34613368D01*
X66040000Y-34787760D01*
X65923475Y-34613368D01*
X65716632Y-34406525D01*
X65542240Y-34290000D01*
X65716632Y-34173475D01*
X65923475Y-33966632D01*
X66040000Y-33792240D01*
X66156525Y-33966632D01*
G37*
X66156525Y-33966632D02*
X66363368Y-34173475D01*
X66537760Y-34290000D01*
X66363368Y-34406525D01*
X66156525Y-34613368D01*
X66040000Y-34787760D01*
X65923475Y-34613368D01*
X65716632Y-34406525D01*
X65542240Y-34290000D01*
X65716632Y-34173475D01*
X65923475Y-33966632D01*
X66040000Y-33792240D01*
X66156525Y-33966632D01*
G36*
X63616525Y-33966632D02*
G01*
X63823368Y-34173475D01*
X63997760Y-34290000D01*
X63823368Y-34406525D01*
X63616525Y-34613368D01*
X63500000Y-34787760D01*
X63383475Y-34613368D01*
X63176632Y-34406525D01*
X63002240Y-34290000D01*
X63176632Y-34173475D01*
X63383475Y-33966632D01*
X63500000Y-33792240D01*
X63616525Y-33966632D01*
G37*
X63616525Y-33966632D02*
X63823368Y-34173475D01*
X63997760Y-34290000D01*
X63823368Y-34406525D01*
X63616525Y-34613368D01*
X63500000Y-34787760D01*
X63383475Y-34613368D01*
X63176632Y-34406525D01*
X63002240Y-34290000D01*
X63176632Y-34173475D01*
X63383475Y-33966632D01*
X63500000Y-33792240D01*
X63616525Y-33966632D01*
G36*
X61076525Y-33966632D02*
G01*
X61283368Y-34173475D01*
X61457760Y-34290000D01*
X61283368Y-34406525D01*
X61076525Y-34613368D01*
X60960000Y-34787760D01*
X60843475Y-34613368D01*
X60636632Y-34406525D01*
X60462240Y-34290000D01*
X60636632Y-34173475D01*
X60843475Y-33966632D01*
X60960000Y-33792240D01*
X61076525Y-33966632D01*
G37*
X61076525Y-33966632D02*
X61283368Y-34173475D01*
X61457760Y-34290000D01*
X61283368Y-34406525D01*
X61076525Y-34613368D01*
X60960000Y-34787760D01*
X60843475Y-34613368D01*
X60636632Y-34406525D01*
X60462240Y-34290000D01*
X60636632Y-34173475D01*
X60843475Y-33966632D01*
X60960000Y-33792240D01*
X61076525Y-33966632D01*
G36*
X55996525Y-33966632D02*
G01*
X56203368Y-34173475D01*
X56377760Y-34290000D01*
X56203368Y-34406525D01*
X55996525Y-34613368D01*
X55880000Y-34787760D01*
X55763475Y-34613368D01*
X55556632Y-34406525D01*
X55382240Y-34290000D01*
X55556632Y-34173475D01*
X55763475Y-33966632D01*
X55880000Y-33792240D01*
X55996525Y-33966632D01*
G37*
X55996525Y-33966632D02*
X56203368Y-34173475D01*
X56377760Y-34290000D01*
X56203368Y-34406525D01*
X55996525Y-34613368D01*
X55880000Y-34787760D01*
X55763475Y-34613368D01*
X55556632Y-34406525D01*
X55382240Y-34290000D01*
X55556632Y-34173475D01*
X55763475Y-33966632D01*
X55880000Y-33792240D01*
X55996525Y-33966632D01*
G36*
X58536525Y-33966632D02*
G01*
X58743368Y-34173475D01*
X58917760Y-34290000D01*
X58743368Y-34406525D01*
X58536525Y-34613368D01*
X58420000Y-34787760D01*
X58303475Y-34613368D01*
X58096632Y-34406525D01*
X57922240Y-34290000D01*
X58096632Y-34173475D01*
X58303475Y-33966632D01*
X58420000Y-33792240D01*
X58536525Y-33966632D01*
G37*
X58536525Y-33966632D02*
X58743368Y-34173475D01*
X58917760Y-34290000D01*
X58743368Y-34406525D01*
X58536525Y-34613368D01*
X58420000Y-34787760D01*
X58303475Y-34613368D01*
X58096632Y-34406525D01*
X57922240Y-34290000D01*
X58096632Y-34173475D01*
X58303475Y-33966632D01*
X58420000Y-33792240D01*
X58536525Y-33966632D01*
G36*
X99176525Y-33966632D02*
G01*
X99383368Y-34173475D01*
X99557760Y-34290000D01*
X99383368Y-34406525D01*
X99176525Y-34613368D01*
X99060000Y-34787760D01*
X98943475Y-34613368D01*
X98736632Y-34406525D01*
X98562240Y-34290000D01*
X98736632Y-34173475D01*
X98943475Y-33966632D01*
X99060000Y-33792240D01*
X99176525Y-33966632D01*
G37*
X99176525Y-33966632D02*
X99383368Y-34173475D01*
X99557760Y-34290000D01*
X99383368Y-34406525D01*
X99176525Y-34613368D01*
X99060000Y-34787760D01*
X98943475Y-34613368D01*
X98736632Y-34406525D01*
X98562240Y-34290000D01*
X98736632Y-34173475D01*
X98943475Y-33966632D01*
X99060000Y-33792240D01*
X99176525Y-33966632D01*
G36*
X101716525Y-33966632D02*
G01*
X101848380Y-34098487D01*
X101775820Y-34120498D01*
X101665506Y-34179463D01*
X101568815Y-34258815D01*
X101489463Y-34355506D01*
X101430498Y-34465820D01*
X101408487Y-34538380D01*
X101276632Y-34406525D01*
X101102240Y-34290000D01*
X101276632Y-34173475D01*
X101483475Y-33966632D01*
X101600000Y-33792240D01*
X101716525Y-33966632D01*
G37*
X101716525Y-33966632D02*
X101848380Y-34098487D01*
X101775820Y-34120498D01*
X101665506Y-34179463D01*
X101568815Y-34258815D01*
X101489463Y-34355506D01*
X101430498Y-34465820D01*
X101408487Y-34538380D01*
X101276632Y-34406525D01*
X101102240Y-34290000D01*
X101276632Y-34173475D01*
X101483475Y-33966632D01*
X101600000Y-33792240D01*
X101716525Y-33966632D01*
M02*
