G04 #@! TF.GenerationSoftware,KiCad,Pcbnew,(5.1.5-0-10_14)*
G04 #@! TF.CreationDate,2020-04-15T16:47:41+02:00*
G04 #@! TF.ProjectId,Bottom-Plate,426f7474-6f6d-42d5-906c-6174652e6b69,rev?*
G04 #@! TF.SameCoordinates,Original*
G04 #@! TF.FileFunction,Copper,L2,Bot*
G04 #@! TF.FilePolarity,Positive*
%FSLAX46Y46*%
G04 Gerber Fmt 4.6, Leading zero omitted, Abs format (unit mm)*
G04 Created by KiCad (PCBNEW (5.1.5-0-10_14)) date 2020-04-15 16:47:41*
%MOMM*%
%LPD*%
G04 APERTURE LIST*
%ADD10O,1.700000X1.700000*%
%ADD11R,1.700000X1.700000*%
G04 APERTURE END LIST*
D10*
X54610000Y-121920000D03*
X54610000Y-124460000D03*
X57150000Y-121920000D03*
X57150000Y-124460000D03*
X59690000Y-121920000D03*
X59690000Y-124460000D03*
X62230000Y-121920000D03*
X62230000Y-124460000D03*
X64770000Y-121920000D03*
X64770000Y-124460000D03*
X67310000Y-121920000D03*
X67310000Y-124460000D03*
X69850000Y-121920000D03*
X69850000Y-124460000D03*
X72390000Y-121920000D03*
X72390000Y-124460000D03*
X74930000Y-121920000D03*
X74930000Y-124460000D03*
X77470000Y-121920000D03*
X77470000Y-124460000D03*
X80010000Y-121920000D03*
X80010000Y-124460000D03*
X82550000Y-121920000D03*
X82550000Y-124460000D03*
X85090000Y-121920000D03*
X85090000Y-124460000D03*
X87630000Y-121920000D03*
X87630000Y-124460000D03*
X90170000Y-121920000D03*
X90170000Y-124460000D03*
X92710000Y-121920000D03*
X92710000Y-124460000D03*
X95250000Y-121920000D03*
X95250000Y-124460000D03*
X97790000Y-121920000D03*
X97790000Y-124460000D03*
X100330000Y-121920000D03*
X100330000Y-124460000D03*
X102870000Y-121920000D03*
D11*
X102870000Y-124460000D03*
D10*
X54610000Y-33020000D03*
X54610000Y-35560000D03*
X57150000Y-33020000D03*
X57150000Y-35560000D03*
X59690000Y-33020000D03*
X59690000Y-35560000D03*
X62230000Y-33020000D03*
X62230000Y-35560000D03*
X64770000Y-33020000D03*
X64770000Y-35560000D03*
X67310000Y-33020000D03*
X67310000Y-35560000D03*
X69850000Y-33020000D03*
X69850000Y-35560000D03*
X72390000Y-33020000D03*
X72390000Y-35560000D03*
X74930000Y-33020000D03*
X74930000Y-35560000D03*
X77470000Y-33020000D03*
X77470000Y-35560000D03*
X80010000Y-33020000D03*
X80010000Y-35560000D03*
X82550000Y-33020000D03*
X82550000Y-35560000D03*
X85090000Y-33020000D03*
X85090000Y-35560000D03*
X87630000Y-33020000D03*
X87630000Y-35560000D03*
X90170000Y-33020000D03*
X90170000Y-35560000D03*
X92710000Y-33020000D03*
X92710000Y-35560000D03*
X95250000Y-33020000D03*
X95250000Y-35560000D03*
X97790000Y-33020000D03*
X97790000Y-35560000D03*
X100330000Y-33020000D03*
X100330000Y-35560000D03*
X102870000Y-33020000D03*
D11*
X102870000Y-35560000D03*
M02*
