G04 #@! TF.GenerationSoftware,KiCad,Pcbnew,(5.1.5-0-10_14)*
G04 #@! TF.CreationDate,2020-04-15T16:47:41+02:00*
G04 #@! TF.ProjectId,Bottom-Plate,426f7474-6f6d-42d5-906c-6174652e6b69,rev?*
G04 #@! TF.SameCoordinates,Original*
G04 #@! TF.FileFunction,Soldermask,Top*
G04 #@! TF.FilePolarity,Negative*
%FSLAX46Y46*%
G04 Gerber Fmt 4.6, Leading zero omitted, Abs format (unit mm)*
G04 Created by KiCad (PCBNEW (5.1.5-0-10_14)) date 2020-04-15 16:47:41*
%MOMM*%
%LPD*%
G04 APERTURE LIST*
%ADD10C,0.100000*%
G04 APERTURE END LIST*
D10*
G36*
X126105256Y-124121298D02*
G01*
X126211579Y-124142447D01*
X126512042Y-124266903D01*
X126782451Y-124447585D01*
X127012415Y-124677549D01*
X127193097Y-124947958D01*
X127317553Y-125248421D01*
X127381000Y-125567391D01*
X127381000Y-125892609D01*
X127317553Y-126211579D01*
X127193097Y-126512042D01*
X127012415Y-126782451D01*
X126782451Y-127012415D01*
X126512042Y-127193097D01*
X126211579Y-127317553D01*
X126105256Y-127338702D01*
X125892611Y-127381000D01*
X125567389Y-127381000D01*
X125354744Y-127338702D01*
X125248421Y-127317553D01*
X124947958Y-127193097D01*
X124677549Y-127012415D01*
X124447585Y-126782451D01*
X124266903Y-126512042D01*
X124142447Y-126211579D01*
X124079000Y-125892609D01*
X124079000Y-125567391D01*
X124142447Y-125248421D01*
X124266903Y-124947958D01*
X124447585Y-124677549D01*
X124677549Y-124447585D01*
X124947958Y-124266903D01*
X125248421Y-124142447D01*
X125354744Y-124121298D01*
X125567389Y-124079000D01*
X125892611Y-124079000D01*
X126105256Y-124121298D01*
G37*
G36*
X32125256Y-124121298D02*
G01*
X32231579Y-124142447D01*
X32532042Y-124266903D01*
X32802451Y-124447585D01*
X33032415Y-124677549D01*
X33213097Y-124947958D01*
X33337553Y-125248421D01*
X33401000Y-125567391D01*
X33401000Y-125892609D01*
X33337553Y-126211579D01*
X33213097Y-126512042D01*
X33032415Y-126782451D01*
X32802451Y-127012415D01*
X32532042Y-127193097D01*
X32231579Y-127317553D01*
X32125256Y-127338702D01*
X31912611Y-127381000D01*
X31587389Y-127381000D01*
X31374744Y-127338702D01*
X31268421Y-127317553D01*
X30967958Y-127193097D01*
X30697549Y-127012415D01*
X30467585Y-126782451D01*
X30286903Y-126512042D01*
X30162447Y-126211579D01*
X30099000Y-125892609D01*
X30099000Y-125567391D01*
X30162447Y-125248421D01*
X30286903Y-124947958D01*
X30467585Y-124677549D01*
X30697549Y-124447585D01*
X30967958Y-124266903D01*
X31268421Y-124142447D01*
X31374744Y-124121298D01*
X31587389Y-124079000D01*
X31912611Y-124079000D01*
X32125256Y-124121298D01*
G37*
G36*
X97903512Y-123563927D02*
G01*
X98052812Y-123593624D01*
X98216784Y-123661544D01*
X98364354Y-123760147D01*
X98489853Y-123885646D01*
X98588456Y-124033216D01*
X98656376Y-124197188D01*
X98691000Y-124371259D01*
X98691000Y-124548741D01*
X98656376Y-124722812D01*
X98588456Y-124886784D01*
X98489853Y-125034354D01*
X98364354Y-125159853D01*
X98216784Y-125258456D01*
X98052812Y-125326376D01*
X97903512Y-125356073D01*
X97878742Y-125361000D01*
X97701258Y-125361000D01*
X97676488Y-125356073D01*
X97527188Y-125326376D01*
X97363216Y-125258456D01*
X97215646Y-125159853D01*
X97090147Y-125034354D01*
X96991544Y-124886784D01*
X96923624Y-124722812D01*
X96889000Y-124548741D01*
X96889000Y-124371259D01*
X96923624Y-124197188D01*
X96991544Y-124033216D01*
X97090147Y-123885646D01*
X97215646Y-123760147D01*
X97363216Y-123661544D01*
X97527188Y-123593624D01*
X97676488Y-123563927D01*
X97701258Y-123559000D01*
X97878742Y-123559000D01*
X97903512Y-123563927D01*
G37*
G36*
X95363512Y-123563927D02*
G01*
X95512812Y-123593624D01*
X95676784Y-123661544D01*
X95824354Y-123760147D01*
X95949853Y-123885646D01*
X96048456Y-124033216D01*
X96116376Y-124197188D01*
X96151000Y-124371259D01*
X96151000Y-124548741D01*
X96116376Y-124722812D01*
X96048456Y-124886784D01*
X95949853Y-125034354D01*
X95824354Y-125159853D01*
X95676784Y-125258456D01*
X95512812Y-125326376D01*
X95363512Y-125356073D01*
X95338742Y-125361000D01*
X95161258Y-125361000D01*
X95136488Y-125356073D01*
X94987188Y-125326376D01*
X94823216Y-125258456D01*
X94675646Y-125159853D01*
X94550147Y-125034354D01*
X94451544Y-124886784D01*
X94383624Y-124722812D01*
X94349000Y-124548741D01*
X94349000Y-124371259D01*
X94383624Y-124197188D01*
X94451544Y-124033216D01*
X94550147Y-123885646D01*
X94675646Y-123760147D01*
X94823216Y-123661544D01*
X94987188Y-123593624D01*
X95136488Y-123563927D01*
X95161258Y-123559000D01*
X95338742Y-123559000D01*
X95363512Y-123563927D01*
G37*
G36*
X92823512Y-123563927D02*
G01*
X92972812Y-123593624D01*
X93136784Y-123661544D01*
X93284354Y-123760147D01*
X93409853Y-123885646D01*
X93508456Y-124033216D01*
X93576376Y-124197188D01*
X93611000Y-124371259D01*
X93611000Y-124548741D01*
X93576376Y-124722812D01*
X93508456Y-124886784D01*
X93409853Y-125034354D01*
X93284354Y-125159853D01*
X93136784Y-125258456D01*
X92972812Y-125326376D01*
X92823512Y-125356073D01*
X92798742Y-125361000D01*
X92621258Y-125361000D01*
X92596488Y-125356073D01*
X92447188Y-125326376D01*
X92283216Y-125258456D01*
X92135646Y-125159853D01*
X92010147Y-125034354D01*
X91911544Y-124886784D01*
X91843624Y-124722812D01*
X91809000Y-124548741D01*
X91809000Y-124371259D01*
X91843624Y-124197188D01*
X91911544Y-124033216D01*
X92010147Y-123885646D01*
X92135646Y-123760147D01*
X92283216Y-123661544D01*
X92447188Y-123593624D01*
X92596488Y-123563927D01*
X92621258Y-123559000D01*
X92798742Y-123559000D01*
X92823512Y-123563927D01*
G37*
G36*
X90283512Y-123563927D02*
G01*
X90432812Y-123593624D01*
X90596784Y-123661544D01*
X90744354Y-123760147D01*
X90869853Y-123885646D01*
X90968456Y-124033216D01*
X91036376Y-124197188D01*
X91071000Y-124371259D01*
X91071000Y-124548741D01*
X91036376Y-124722812D01*
X90968456Y-124886784D01*
X90869853Y-125034354D01*
X90744354Y-125159853D01*
X90596784Y-125258456D01*
X90432812Y-125326376D01*
X90283512Y-125356073D01*
X90258742Y-125361000D01*
X90081258Y-125361000D01*
X90056488Y-125356073D01*
X89907188Y-125326376D01*
X89743216Y-125258456D01*
X89595646Y-125159853D01*
X89470147Y-125034354D01*
X89371544Y-124886784D01*
X89303624Y-124722812D01*
X89269000Y-124548741D01*
X89269000Y-124371259D01*
X89303624Y-124197188D01*
X89371544Y-124033216D01*
X89470147Y-123885646D01*
X89595646Y-123760147D01*
X89743216Y-123661544D01*
X89907188Y-123593624D01*
X90056488Y-123563927D01*
X90081258Y-123559000D01*
X90258742Y-123559000D01*
X90283512Y-123563927D01*
G37*
G36*
X87743512Y-123563927D02*
G01*
X87892812Y-123593624D01*
X88056784Y-123661544D01*
X88204354Y-123760147D01*
X88329853Y-123885646D01*
X88428456Y-124033216D01*
X88496376Y-124197188D01*
X88531000Y-124371259D01*
X88531000Y-124548741D01*
X88496376Y-124722812D01*
X88428456Y-124886784D01*
X88329853Y-125034354D01*
X88204354Y-125159853D01*
X88056784Y-125258456D01*
X87892812Y-125326376D01*
X87743512Y-125356073D01*
X87718742Y-125361000D01*
X87541258Y-125361000D01*
X87516488Y-125356073D01*
X87367188Y-125326376D01*
X87203216Y-125258456D01*
X87055646Y-125159853D01*
X86930147Y-125034354D01*
X86831544Y-124886784D01*
X86763624Y-124722812D01*
X86729000Y-124548741D01*
X86729000Y-124371259D01*
X86763624Y-124197188D01*
X86831544Y-124033216D01*
X86930147Y-123885646D01*
X87055646Y-123760147D01*
X87203216Y-123661544D01*
X87367188Y-123593624D01*
X87516488Y-123563927D01*
X87541258Y-123559000D01*
X87718742Y-123559000D01*
X87743512Y-123563927D01*
G37*
G36*
X85203512Y-123563927D02*
G01*
X85352812Y-123593624D01*
X85516784Y-123661544D01*
X85664354Y-123760147D01*
X85789853Y-123885646D01*
X85888456Y-124033216D01*
X85956376Y-124197188D01*
X85991000Y-124371259D01*
X85991000Y-124548741D01*
X85956376Y-124722812D01*
X85888456Y-124886784D01*
X85789853Y-125034354D01*
X85664354Y-125159853D01*
X85516784Y-125258456D01*
X85352812Y-125326376D01*
X85203512Y-125356073D01*
X85178742Y-125361000D01*
X85001258Y-125361000D01*
X84976488Y-125356073D01*
X84827188Y-125326376D01*
X84663216Y-125258456D01*
X84515646Y-125159853D01*
X84390147Y-125034354D01*
X84291544Y-124886784D01*
X84223624Y-124722812D01*
X84189000Y-124548741D01*
X84189000Y-124371259D01*
X84223624Y-124197188D01*
X84291544Y-124033216D01*
X84390147Y-123885646D01*
X84515646Y-123760147D01*
X84663216Y-123661544D01*
X84827188Y-123593624D01*
X84976488Y-123563927D01*
X85001258Y-123559000D01*
X85178742Y-123559000D01*
X85203512Y-123563927D01*
G37*
G36*
X82663512Y-123563927D02*
G01*
X82812812Y-123593624D01*
X82976784Y-123661544D01*
X83124354Y-123760147D01*
X83249853Y-123885646D01*
X83348456Y-124033216D01*
X83416376Y-124197188D01*
X83451000Y-124371259D01*
X83451000Y-124548741D01*
X83416376Y-124722812D01*
X83348456Y-124886784D01*
X83249853Y-125034354D01*
X83124354Y-125159853D01*
X82976784Y-125258456D01*
X82812812Y-125326376D01*
X82663512Y-125356073D01*
X82638742Y-125361000D01*
X82461258Y-125361000D01*
X82436488Y-125356073D01*
X82287188Y-125326376D01*
X82123216Y-125258456D01*
X81975646Y-125159853D01*
X81850147Y-125034354D01*
X81751544Y-124886784D01*
X81683624Y-124722812D01*
X81649000Y-124548741D01*
X81649000Y-124371259D01*
X81683624Y-124197188D01*
X81751544Y-124033216D01*
X81850147Y-123885646D01*
X81975646Y-123760147D01*
X82123216Y-123661544D01*
X82287188Y-123593624D01*
X82436488Y-123563927D01*
X82461258Y-123559000D01*
X82638742Y-123559000D01*
X82663512Y-123563927D01*
G37*
G36*
X80123512Y-123563927D02*
G01*
X80272812Y-123593624D01*
X80436784Y-123661544D01*
X80584354Y-123760147D01*
X80709853Y-123885646D01*
X80808456Y-124033216D01*
X80876376Y-124197188D01*
X80911000Y-124371259D01*
X80911000Y-124548741D01*
X80876376Y-124722812D01*
X80808456Y-124886784D01*
X80709853Y-125034354D01*
X80584354Y-125159853D01*
X80436784Y-125258456D01*
X80272812Y-125326376D01*
X80123512Y-125356073D01*
X80098742Y-125361000D01*
X79921258Y-125361000D01*
X79896488Y-125356073D01*
X79747188Y-125326376D01*
X79583216Y-125258456D01*
X79435646Y-125159853D01*
X79310147Y-125034354D01*
X79211544Y-124886784D01*
X79143624Y-124722812D01*
X79109000Y-124548741D01*
X79109000Y-124371259D01*
X79143624Y-124197188D01*
X79211544Y-124033216D01*
X79310147Y-123885646D01*
X79435646Y-123760147D01*
X79583216Y-123661544D01*
X79747188Y-123593624D01*
X79896488Y-123563927D01*
X79921258Y-123559000D01*
X80098742Y-123559000D01*
X80123512Y-123563927D01*
G37*
G36*
X77583512Y-123563927D02*
G01*
X77732812Y-123593624D01*
X77896784Y-123661544D01*
X78044354Y-123760147D01*
X78169853Y-123885646D01*
X78268456Y-124033216D01*
X78336376Y-124197188D01*
X78371000Y-124371259D01*
X78371000Y-124548741D01*
X78336376Y-124722812D01*
X78268456Y-124886784D01*
X78169853Y-125034354D01*
X78044354Y-125159853D01*
X77896784Y-125258456D01*
X77732812Y-125326376D01*
X77583512Y-125356073D01*
X77558742Y-125361000D01*
X77381258Y-125361000D01*
X77356488Y-125356073D01*
X77207188Y-125326376D01*
X77043216Y-125258456D01*
X76895646Y-125159853D01*
X76770147Y-125034354D01*
X76671544Y-124886784D01*
X76603624Y-124722812D01*
X76569000Y-124548741D01*
X76569000Y-124371259D01*
X76603624Y-124197188D01*
X76671544Y-124033216D01*
X76770147Y-123885646D01*
X76895646Y-123760147D01*
X77043216Y-123661544D01*
X77207188Y-123593624D01*
X77356488Y-123563927D01*
X77381258Y-123559000D01*
X77558742Y-123559000D01*
X77583512Y-123563927D01*
G37*
G36*
X75043512Y-123563927D02*
G01*
X75192812Y-123593624D01*
X75356784Y-123661544D01*
X75504354Y-123760147D01*
X75629853Y-123885646D01*
X75728456Y-124033216D01*
X75796376Y-124197188D01*
X75831000Y-124371259D01*
X75831000Y-124548741D01*
X75796376Y-124722812D01*
X75728456Y-124886784D01*
X75629853Y-125034354D01*
X75504354Y-125159853D01*
X75356784Y-125258456D01*
X75192812Y-125326376D01*
X75043512Y-125356073D01*
X75018742Y-125361000D01*
X74841258Y-125361000D01*
X74816488Y-125356073D01*
X74667188Y-125326376D01*
X74503216Y-125258456D01*
X74355646Y-125159853D01*
X74230147Y-125034354D01*
X74131544Y-124886784D01*
X74063624Y-124722812D01*
X74029000Y-124548741D01*
X74029000Y-124371259D01*
X74063624Y-124197188D01*
X74131544Y-124033216D01*
X74230147Y-123885646D01*
X74355646Y-123760147D01*
X74503216Y-123661544D01*
X74667188Y-123593624D01*
X74816488Y-123563927D01*
X74841258Y-123559000D01*
X75018742Y-123559000D01*
X75043512Y-123563927D01*
G37*
G36*
X72503512Y-123563927D02*
G01*
X72652812Y-123593624D01*
X72816784Y-123661544D01*
X72964354Y-123760147D01*
X73089853Y-123885646D01*
X73188456Y-124033216D01*
X73256376Y-124197188D01*
X73291000Y-124371259D01*
X73291000Y-124548741D01*
X73256376Y-124722812D01*
X73188456Y-124886784D01*
X73089853Y-125034354D01*
X72964354Y-125159853D01*
X72816784Y-125258456D01*
X72652812Y-125326376D01*
X72503512Y-125356073D01*
X72478742Y-125361000D01*
X72301258Y-125361000D01*
X72276488Y-125356073D01*
X72127188Y-125326376D01*
X71963216Y-125258456D01*
X71815646Y-125159853D01*
X71690147Y-125034354D01*
X71591544Y-124886784D01*
X71523624Y-124722812D01*
X71489000Y-124548741D01*
X71489000Y-124371259D01*
X71523624Y-124197188D01*
X71591544Y-124033216D01*
X71690147Y-123885646D01*
X71815646Y-123760147D01*
X71963216Y-123661544D01*
X72127188Y-123593624D01*
X72276488Y-123563927D01*
X72301258Y-123559000D01*
X72478742Y-123559000D01*
X72503512Y-123563927D01*
G37*
G36*
X69963512Y-123563927D02*
G01*
X70112812Y-123593624D01*
X70276784Y-123661544D01*
X70424354Y-123760147D01*
X70549853Y-123885646D01*
X70648456Y-124033216D01*
X70716376Y-124197188D01*
X70751000Y-124371259D01*
X70751000Y-124548741D01*
X70716376Y-124722812D01*
X70648456Y-124886784D01*
X70549853Y-125034354D01*
X70424354Y-125159853D01*
X70276784Y-125258456D01*
X70112812Y-125326376D01*
X69963512Y-125356073D01*
X69938742Y-125361000D01*
X69761258Y-125361000D01*
X69736488Y-125356073D01*
X69587188Y-125326376D01*
X69423216Y-125258456D01*
X69275646Y-125159853D01*
X69150147Y-125034354D01*
X69051544Y-124886784D01*
X68983624Y-124722812D01*
X68949000Y-124548741D01*
X68949000Y-124371259D01*
X68983624Y-124197188D01*
X69051544Y-124033216D01*
X69150147Y-123885646D01*
X69275646Y-123760147D01*
X69423216Y-123661544D01*
X69587188Y-123593624D01*
X69736488Y-123563927D01*
X69761258Y-123559000D01*
X69938742Y-123559000D01*
X69963512Y-123563927D01*
G37*
G36*
X67423512Y-123563927D02*
G01*
X67572812Y-123593624D01*
X67736784Y-123661544D01*
X67884354Y-123760147D01*
X68009853Y-123885646D01*
X68108456Y-124033216D01*
X68176376Y-124197188D01*
X68211000Y-124371259D01*
X68211000Y-124548741D01*
X68176376Y-124722812D01*
X68108456Y-124886784D01*
X68009853Y-125034354D01*
X67884354Y-125159853D01*
X67736784Y-125258456D01*
X67572812Y-125326376D01*
X67423512Y-125356073D01*
X67398742Y-125361000D01*
X67221258Y-125361000D01*
X67196488Y-125356073D01*
X67047188Y-125326376D01*
X66883216Y-125258456D01*
X66735646Y-125159853D01*
X66610147Y-125034354D01*
X66511544Y-124886784D01*
X66443624Y-124722812D01*
X66409000Y-124548741D01*
X66409000Y-124371259D01*
X66443624Y-124197188D01*
X66511544Y-124033216D01*
X66610147Y-123885646D01*
X66735646Y-123760147D01*
X66883216Y-123661544D01*
X67047188Y-123593624D01*
X67196488Y-123563927D01*
X67221258Y-123559000D01*
X67398742Y-123559000D01*
X67423512Y-123563927D01*
G37*
G36*
X64883512Y-123563927D02*
G01*
X65032812Y-123593624D01*
X65196784Y-123661544D01*
X65344354Y-123760147D01*
X65469853Y-123885646D01*
X65568456Y-124033216D01*
X65636376Y-124197188D01*
X65671000Y-124371259D01*
X65671000Y-124548741D01*
X65636376Y-124722812D01*
X65568456Y-124886784D01*
X65469853Y-125034354D01*
X65344354Y-125159853D01*
X65196784Y-125258456D01*
X65032812Y-125326376D01*
X64883512Y-125356073D01*
X64858742Y-125361000D01*
X64681258Y-125361000D01*
X64656488Y-125356073D01*
X64507188Y-125326376D01*
X64343216Y-125258456D01*
X64195646Y-125159853D01*
X64070147Y-125034354D01*
X63971544Y-124886784D01*
X63903624Y-124722812D01*
X63869000Y-124548741D01*
X63869000Y-124371259D01*
X63903624Y-124197188D01*
X63971544Y-124033216D01*
X64070147Y-123885646D01*
X64195646Y-123760147D01*
X64343216Y-123661544D01*
X64507188Y-123593624D01*
X64656488Y-123563927D01*
X64681258Y-123559000D01*
X64858742Y-123559000D01*
X64883512Y-123563927D01*
G37*
G36*
X62343512Y-123563927D02*
G01*
X62492812Y-123593624D01*
X62656784Y-123661544D01*
X62804354Y-123760147D01*
X62929853Y-123885646D01*
X63028456Y-124033216D01*
X63096376Y-124197188D01*
X63131000Y-124371259D01*
X63131000Y-124548741D01*
X63096376Y-124722812D01*
X63028456Y-124886784D01*
X62929853Y-125034354D01*
X62804354Y-125159853D01*
X62656784Y-125258456D01*
X62492812Y-125326376D01*
X62343512Y-125356073D01*
X62318742Y-125361000D01*
X62141258Y-125361000D01*
X62116488Y-125356073D01*
X61967188Y-125326376D01*
X61803216Y-125258456D01*
X61655646Y-125159853D01*
X61530147Y-125034354D01*
X61431544Y-124886784D01*
X61363624Y-124722812D01*
X61329000Y-124548741D01*
X61329000Y-124371259D01*
X61363624Y-124197188D01*
X61431544Y-124033216D01*
X61530147Y-123885646D01*
X61655646Y-123760147D01*
X61803216Y-123661544D01*
X61967188Y-123593624D01*
X62116488Y-123563927D01*
X62141258Y-123559000D01*
X62318742Y-123559000D01*
X62343512Y-123563927D01*
G37*
G36*
X59803512Y-123563927D02*
G01*
X59952812Y-123593624D01*
X60116784Y-123661544D01*
X60264354Y-123760147D01*
X60389853Y-123885646D01*
X60488456Y-124033216D01*
X60556376Y-124197188D01*
X60591000Y-124371259D01*
X60591000Y-124548741D01*
X60556376Y-124722812D01*
X60488456Y-124886784D01*
X60389853Y-125034354D01*
X60264354Y-125159853D01*
X60116784Y-125258456D01*
X59952812Y-125326376D01*
X59803512Y-125356073D01*
X59778742Y-125361000D01*
X59601258Y-125361000D01*
X59576488Y-125356073D01*
X59427188Y-125326376D01*
X59263216Y-125258456D01*
X59115646Y-125159853D01*
X58990147Y-125034354D01*
X58891544Y-124886784D01*
X58823624Y-124722812D01*
X58789000Y-124548741D01*
X58789000Y-124371259D01*
X58823624Y-124197188D01*
X58891544Y-124033216D01*
X58990147Y-123885646D01*
X59115646Y-123760147D01*
X59263216Y-123661544D01*
X59427188Y-123593624D01*
X59576488Y-123563927D01*
X59601258Y-123559000D01*
X59778742Y-123559000D01*
X59803512Y-123563927D01*
G37*
G36*
X57263512Y-123563927D02*
G01*
X57412812Y-123593624D01*
X57576784Y-123661544D01*
X57724354Y-123760147D01*
X57849853Y-123885646D01*
X57948456Y-124033216D01*
X58016376Y-124197188D01*
X58051000Y-124371259D01*
X58051000Y-124548741D01*
X58016376Y-124722812D01*
X57948456Y-124886784D01*
X57849853Y-125034354D01*
X57724354Y-125159853D01*
X57576784Y-125258456D01*
X57412812Y-125326376D01*
X57263512Y-125356073D01*
X57238742Y-125361000D01*
X57061258Y-125361000D01*
X57036488Y-125356073D01*
X56887188Y-125326376D01*
X56723216Y-125258456D01*
X56575646Y-125159853D01*
X56450147Y-125034354D01*
X56351544Y-124886784D01*
X56283624Y-124722812D01*
X56249000Y-124548741D01*
X56249000Y-124371259D01*
X56283624Y-124197188D01*
X56351544Y-124033216D01*
X56450147Y-123885646D01*
X56575646Y-123760147D01*
X56723216Y-123661544D01*
X56887188Y-123593624D01*
X57036488Y-123563927D01*
X57061258Y-123559000D01*
X57238742Y-123559000D01*
X57263512Y-123563927D01*
G37*
G36*
X54723512Y-123563927D02*
G01*
X54872812Y-123593624D01*
X55036784Y-123661544D01*
X55184354Y-123760147D01*
X55309853Y-123885646D01*
X55408456Y-124033216D01*
X55476376Y-124197188D01*
X55511000Y-124371259D01*
X55511000Y-124548741D01*
X55476376Y-124722812D01*
X55408456Y-124886784D01*
X55309853Y-125034354D01*
X55184354Y-125159853D01*
X55036784Y-125258456D01*
X54872812Y-125326376D01*
X54723512Y-125356073D01*
X54698742Y-125361000D01*
X54521258Y-125361000D01*
X54496488Y-125356073D01*
X54347188Y-125326376D01*
X54183216Y-125258456D01*
X54035646Y-125159853D01*
X53910147Y-125034354D01*
X53811544Y-124886784D01*
X53743624Y-124722812D01*
X53709000Y-124548741D01*
X53709000Y-124371259D01*
X53743624Y-124197188D01*
X53811544Y-124033216D01*
X53910147Y-123885646D01*
X54035646Y-123760147D01*
X54183216Y-123661544D01*
X54347188Y-123593624D01*
X54496488Y-123563927D01*
X54521258Y-123559000D01*
X54698742Y-123559000D01*
X54723512Y-123563927D01*
G37*
G36*
X103771000Y-125361000D02*
G01*
X101969000Y-125361000D01*
X101969000Y-123559000D01*
X103771000Y-123559000D01*
X103771000Y-125361000D01*
G37*
G36*
X100443512Y-123563927D02*
G01*
X100592812Y-123593624D01*
X100756784Y-123661544D01*
X100904354Y-123760147D01*
X101029853Y-123885646D01*
X101128456Y-124033216D01*
X101196376Y-124197188D01*
X101231000Y-124371259D01*
X101231000Y-124548741D01*
X101196376Y-124722812D01*
X101128456Y-124886784D01*
X101029853Y-125034354D01*
X100904354Y-125159853D01*
X100756784Y-125258456D01*
X100592812Y-125326376D01*
X100443512Y-125356073D01*
X100418742Y-125361000D01*
X100241258Y-125361000D01*
X100216488Y-125356073D01*
X100067188Y-125326376D01*
X99903216Y-125258456D01*
X99755646Y-125159853D01*
X99630147Y-125034354D01*
X99531544Y-124886784D01*
X99463624Y-124722812D01*
X99429000Y-124548741D01*
X99429000Y-124371259D01*
X99463624Y-124197188D01*
X99531544Y-124033216D01*
X99630147Y-123885646D01*
X99755646Y-123760147D01*
X99903216Y-123661544D01*
X100067188Y-123593624D01*
X100216488Y-123563927D01*
X100241258Y-123559000D01*
X100418742Y-123559000D01*
X100443512Y-123563927D01*
G37*
G36*
X77583512Y-121023927D02*
G01*
X77732812Y-121053624D01*
X77896784Y-121121544D01*
X78044354Y-121220147D01*
X78169853Y-121345646D01*
X78268456Y-121493216D01*
X78336376Y-121657188D01*
X78371000Y-121831259D01*
X78371000Y-122008741D01*
X78336376Y-122182812D01*
X78268456Y-122346784D01*
X78169853Y-122494354D01*
X78044354Y-122619853D01*
X77896784Y-122718456D01*
X77732812Y-122786376D01*
X77583512Y-122816073D01*
X77558742Y-122821000D01*
X77381258Y-122821000D01*
X77356488Y-122816073D01*
X77207188Y-122786376D01*
X77043216Y-122718456D01*
X76895646Y-122619853D01*
X76770147Y-122494354D01*
X76671544Y-122346784D01*
X76603624Y-122182812D01*
X76569000Y-122008741D01*
X76569000Y-121831259D01*
X76603624Y-121657188D01*
X76671544Y-121493216D01*
X76770147Y-121345646D01*
X76895646Y-121220147D01*
X77043216Y-121121544D01*
X77207188Y-121053624D01*
X77356488Y-121023927D01*
X77381258Y-121019000D01*
X77558742Y-121019000D01*
X77583512Y-121023927D01*
G37*
G36*
X102983512Y-121023927D02*
G01*
X103132812Y-121053624D01*
X103296784Y-121121544D01*
X103444354Y-121220147D01*
X103569853Y-121345646D01*
X103668456Y-121493216D01*
X103736376Y-121657188D01*
X103771000Y-121831259D01*
X103771000Y-122008741D01*
X103736376Y-122182812D01*
X103668456Y-122346784D01*
X103569853Y-122494354D01*
X103444354Y-122619853D01*
X103296784Y-122718456D01*
X103132812Y-122786376D01*
X102983512Y-122816073D01*
X102958742Y-122821000D01*
X102781258Y-122821000D01*
X102756488Y-122816073D01*
X102607188Y-122786376D01*
X102443216Y-122718456D01*
X102295646Y-122619853D01*
X102170147Y-122494354D01*
X102071544Y-122346784D01*
X102003624Y-122182812D01*
X101969000Y-122008741D01*
X101969000Y-121831259D01*
X102003624Y-121657188D01*
X102071544Y-121493216D01*
X102170147Y-121345646D01*
X102295646Y-121220147D01*
X102443216Y-121121544D01*
X102607188Y-121053624D01*
X102756488Y-121023927D01*
X102781258Y-121019000D01*
X102958742Y-121019000D01*
X102983512Y-121023927D01*
G37*
G36*
X100443512Y-121023927D02*
G01*
X100592812Y-121053624D01*
X100756784Y-121121544D01*
X100904354Y-121220147D01*
X101029853Y-121345646D01*
X101128456Y-121493216D01*
X101196376Y-121657188D01*
X101231000Y-121831259D01*
X101231000Y-122008741D01*
X101196376Y-122182812D01*
X101128456Y-122346784D01*
X101029853Y-122494354D01*
X100904354Y-122619853D01*
X100756784Y-122718456D01*
X100592812Y-122786376D01*
X100443512Y-122816073D01*
X100418742Y-122821000D01*
X100241258Y-122821000D01*
X100216488Y-122816073D01*
X100067188Y-122786376D01*
X99903216Y-122718456D01*
X99755646Y-122619853D01*
X99630147Y-122494354D01*
X99531544Y-122346784D01*
X99463624Y-122182812D01*
X99429000Y-122008741D01*
X99429000Y-121831259D01*
X99463624Y-121657188D01*
X99531544Y-121493216D01*
X99630147Y-121345646D01*
X99755646Y-121220147D01*
X99903216Y-121121544D01*
X100067188Y-121053624D01*
X100216488Y-121023927D01*
X100241258Y-121019000D01*
X100418742Y-121019000D01*
X100443512Y-121023927D01*
G37*
G36*
X97903512Y-121023927D02*
G01*
X98052812Y-121053624D01*
X98216784Y-121121544D01*
X98364354Y-121220147D01*
X98489853Y-121345646D01*
X98588456Y-121493216D01*
X98656376Y-121657188D01*
X98691000Y-121831259D01*
X98691000Y-122008741D01*
X98656376Y-122182812D01*
X98588456Y-122346784D01*
X98489853Y-122494354D01*
X98364354Y-122619853D01*
X98216784Y-122718456D01*
X98052812Y-122786376D01*
X97903512Y-122816073D01*
X97878742Y-122821000D01*
X97701258Y-122821000D01*
X97676488Y-122816073D01*
X97527188Y-122786376D01*
X97363216Y-122718456D01*
X97215646Y-122619853D01*
X97090147Y-122494354D01*
X96991544Y-122346784D01*
X96923624Y-122182812D01*
X96889000Y-122008741D01*
X96889000Y-121831259D01*
X96923624Y-121657188D01*
X96991544Y-121493216D01*
X97090147Y-121345646D01*
X97215646Y-121220147D01*
X97363216Y-121121544D01*
X97527188Y-121053624D01*
X97676488Y-121023927D01*
X97701258Y-121019000D01*
X97878742Y-121019000D01*
X97903512Y-121023927D01*
G37*
G36*
X95363512Y-121023927D02*
G01*
X95512812Y-121053624D01*
X95676784Y-121121544D01*
X95824354Y-121220147D01*
X95949853Y-121345646D01*
X96048456Y-121493216D01*
X96116376Y-121657188D01*
X96151000Y-121831259D01*
X96151000Y-122008741D01*
X96116376Y-122182812D01*
X96048456Y-122346784D01*
X95949853Y-122494354D01*
X95824354Y-122619853D01*
X95676784Y-122718456D01*
X95512812Y-122786376D01*
X95363512Y-122816073D01*
X95338742Y-122821000D01*
X95161258Y-122821000D01*
X95136488Y-122816073D01*
X94987188Y-122786376D01*
X94823216Y-122718456D01*
X94675646Y-122619853D01*
X94550147Y-122494354D01*
X94451544Y-122346784D01*
X94383624Y-122182812D01*
X94349000Y-122008741D01*
X94349000Y-121831259D01*
X94383624Y-121657188D01*
X94451544Y-121493216D01*
X94550147Y-121345646D01*
X94675646Y-121220147D01*
X94823216Y-121121544D01*
X94987188Y-121053624D01*
X95136488Y-121023927D01*
X95161258Y-121019000D01*
X95338742Y-121019000D01*
X95363512Y-121023927D01*
G37*
G36*
X92823512Y-121023927D02*
G01*
X92972812Y-121053624D01*
X93136784Y-121121544D01*
X93284354Y-121220147D01*
X93409853Y-121345646D01*
X93508456Y-121493216D01*
X93576376Y-121657188D01*
X93611000Y-121831259D01*
X93611000Y-122008741D01*
X93576376Y-122182812D01*
X93508456Y-122346784D01*
X93409853Y-122494354D01*
X93284354Y-122619853D01*
X93136784Y-122718456D01*
X92972812Y-122786376D01*
X92823512Y-122816073D01*
X92798742Y-122821000D01*
X92621258Y-122821000D01*
X92596488Y-122816073D01*
X92447188Y-122786376D01*
X92283216Y-122718456D01*
X92135646Y-122619853D01*
X92010147Y-122494354D01*
X91911544Y-122346784D01*
X91843624Y-122182812D01*
X91809000Y-122008741D01*
X91809000Y-121831259D01*
X91843624Y-121657188D01*
X91911544Y-121493216D01*
X92010147Y-121345646D01*
X92135646Y-121220147D01*
X92283216Y-121121544D01*
X92447188Y-121053624D01*
X92596488Y-121023927D01*
X92621258Y-121019000D01*
X92798742Y-121019000D01*
X92823512Y-121023927D01*
G37*
G36*
X90283512Y-121023927D02*
G01*
X90432812Y-121053624D01*
X90596784Y-121121544D01*
X90744354Y-121220147D01*
X90869853Y-121345646D01*
X90968456Y-121493216D01*
X91036376Y-121657188D01*
X91071000Y-121831259D01*
X91071000Y-122008741D01*
X91036376Y-122182812D01*
X90968456Y-122346784D01*
X90869853Y-122494354D01*
X90744354Y-122619853D01*
X90596784Y-122718456D01*
X90432812Y-122786376D01*
X90283512Y-122816073D01*
X90258742Y-122821000D01*
X90081258Y-122821000D01*
X90056488Y-122816073D01*
X89907188Y-122786376D01*
X89743216Y-122718456D01*
X89595646Y-122619853D01*
X89470147Y-122494354D01*
X89371544Y-122346784D01*
X89303624Y-122182812D01*
X89269000Y-122008741D01*
X89269000Y-121831259D01*
X89303624Y-121657188D01*
X89371544Y-121493216D01*
X89470147Y-121345646D01*
X89595646Y-121220147D01*
X89743216Y-121121544D01*
X89907188Y-121053624D01*
X90056488Y-121023927D01*
X90081258Y-121019000D01*
X90258742Y-121019000D01*
X90283512Y-121023927D01*
G37*
G36*
X87743512Y-121023927D02*
G01*
X87892812Y-121053624D01*
X88056784Y-121121544D01*
X88204354Y-121220147D01*
X88329853Y-121345646D01*
X88428456Y-121493216D01*
X88496376Y-121657188D01*
X88531000Y-121831259D01*
X88531000Y-122008741D01*
X88496376Y-122182812D01*
X88428456Y-122346784D01*
X88329853Y-122494354D01*
X88204354Y-122619853D01*
X88056784Y-122718456D01*
X87892812Y-122786376D01*
X87743512Y-122816073D01*
X87718742Y-122821000D01*
X87541258Y-122821000D01*
X87516488Y-122816073D01*
X87367188Y-122786376D01*
X87203216Y-122718456D01*
X87055646Y-122619853D01*
X86930147Y-122494354D01*
X86831544Y-122346784D01*
X86763624Y-122182812D01*
X86729000Y-122008741D01*
X86729000Y-121831259D01*
X86763624Y-121657188D01*
X86831544Y-121493216D01*
X86930147Y-121345646D01*
X87055646Y-121220147D01*
X87203216Y-121121544D01*
X87367188Y-121053624D01*
X87516488Y-121023927D01*
X87541258Y-121019000D01*
X87718742Y-121019000D01*
X87743512Y-121023927D01*
G37*
G36*
X85203512Y-121023927D02*
G01*
X85352812Y-121053624D01*
X85516784Y-121121544D01*
X85664354Y-121220147D01*
X85789853Y-121345646D01*
X85888456Y-121493216D01*
X85956376Y-121657188D01*
X85991000Y-121831259D01*
X85991000Y-122008741D01*
X85956376Y-122182812D01*
X85888456Y-122346784D01*
X85789853Y-122494354D01*
X85664354Y-122619853D01*
X85516784Y-122718456D01*
X85352812Y-122786376D01*
X85203512Y-122816073D01*
X85178742Y-122821000D01*
X85001258Y-122821000D01*
X84976488Y-122816073D01*
X84827188Y-122786376D01*
X84663216Y-122718456D01*
X84515646Y-122619853D01*
X84390147Y-122494354D01*
X84291544Y-122346784D01*
X84223624Y-122182812D01*
X84189000Y-122008741D01*
X84189000Y-121831259D01*
X84223624Y-121657188D01*
X84291544Y-121493216D01*
X84390147Y-121345646D01*
X84515646Y-121220147D01*
X84663216Y-121121544D01*
X84827188Y-121053624D01*
X84976488Y-121023927D01*
X85001258Y-121019000D01*
X85178742Y-121019000D01*
X85203512Y-121023927D01*
G37*
G36*
X82663512Y-121023927D02*
G01*
X82812812Y-121053624D01*
X82976784Y-121121544D01*
X83124354Y-121220147D01*
X83249853Y-121345646D01*
X83348456Y-121493216D01*
X83416376Y-121657188D01*
X83451000Y-121831259D01*
X83451000Y-122008741D01*
X83416376Y-122182812D01*
X83348456Y-122346784D01*
X83249853Y-122494354D01*
X83124354Y-122619853D01*
X82976784Y-122718456D01*
X82812812Y-122786376D01*
X82663512Y-122816073D01*
X82638742Y-122821000D01*
X82461258Y-122821000D01*
X82436488Y-122816073D01*
X82287188Y-122786376D01*
X82123216Y-122718456D01*
X81975646Y-122619853D01*
X81850147Y-122494354D01*
X81751544Y-122346784D01*
X81683624Y-122182812D01*
X81649000Y-122008741D01*
X81649000Y-121831259D01*
X81683624Y-121657188D01*
X81751544Y-121493216D01*
X81850147Y-121345646D01*
X81975646Y-121220147D01*
X82123216Y-121121544D01*
X82287188Y-121053624D01*
X82436488Y-121023927D01*
X82461258Y-121019000D01*
X82638742Y-121019000D01*
X82663512Y-121023927D01*
G37*
G36*
X80123512Y-121023927D02*
G01*
X80272812Y-121053624D01*
X80436784Y-121121544D01*
X80584354Y-121220147D01*
X80709853Y-121345646D01*
X80808456Y-121493216D01*
X80876376Y-121657188D01*
X80911000Y-121831259D01*
X80911000Y-122008741D01*
X80876376Y-122182812D01*
X80808456Y-122346784D01*
X80709853Y-122494354D01*
X80584354Y-122619853D01*
X80436784Y-122718456D01*
X80272812Y-122786376D01*
X80123512Y-122816073D01*
X80098742Y-122821000D01*
X79921258Y-122821000D01*
X79896488Y-122816073D01*
X79747188Y-122786376D01*
X79583216Y-122718456D01*
X79435646Y-122619853D01*
X79310147Y-122494354D01*
X79211544Y-122346784D01*
X79143624Y-122182812D01*
X79109000Y-122008741D01*
X79109000Y-121831259D01*
X79143624Y-121657188D01*
X79211544Y-121493216D01*
X79310147Y-121345646D01*
X79435646Y-121220147D01*
X79583216Y-121121544D01*
X79747188Y-121053624D01*
X79896488Y-121023927D01*
X79921258Y-121019000D01*
X80098742Y-121019000D01*
X80123512Y-121023927D01*
G37*
G36*
X75043512Y-121023927D02*
G01*
X75192812Y-121053624D01*
X75356784Y-121121544D01*
X75504354Y-121220147D01*
X75629853Y-121345646D01*
X75728456Y-121493216D01*
X75796376Y-121657188D01*
X75831000Y-121831259D01*
X75831000Y-122008741D01*
X75796376Y-122182812D01*
X75728456Y-122346784D01*
X75629853Y-122494354D01*
X75504354Y-122619853D01*
X75356784Y-122718456D01*
X75192812Y-122786376D01*
X75043512Y-122816073D01*
X75018742Y-122821000D01*
X74841258Y-122821000D01*
X74816488Y-122816073D01*
X74667188Y-122786376D01*
X74503216Y-122718456D01*
X74355646Y-122619853D01*
X74230147Y-122494354D01*
X74131544Y-122346784D01*
X74063624Y-122182812D01*
X74029000Y-122008741D01*
X74029000Y-121831259D01*
X74063624Y-121657188D01*
X74131544Y-121493216D01*
X74230147Y-121345646D01*
X74355646Y-121220147D01*
X74503216Y-121121544D01*
X74667188Y-121053624D01*
X74816488Y-121023927D01*
X74841258Y-121019000D01*
X75018742Y-121019000D01*
X75043512Y-121023927D01*
G37*
G36*
X72503512Y-121023927D02*
G01*
X72652812Y-121053624D01*
X72816784Y-121121544D01*
X72964354Y-121220147D01*
X73089853Y-121345646D01*
X73188456Y-121493216D01*
X73256376Y-121657188D01*
X73291000Y-121831259D01*
X73291000Y-122008741D01*
X73256376Y-122182812D01*
X73188456Y-122346784D01*
X73089853Y-122494354D01*
X72964354Y-122619853D01*
X72816784Y-122718456D01*
X72652812Y-122786376D01*
X72503512Y-122816073D01*
X72478742Y-122821000D01*
X72301258Y-122821000D01*
X72276488Y-122816073D01*
X72127188Y-122786376D01*
X71963216Y-122718456D01*
X71815646Y-122619853D01*
X71690147Y-122494354D01*
X71591544Y-122346784D01*
X71523624Y-122182812D01*
X71489000Y-122008741D01*
X71489000Y-121831259D01*
X71523624Y-121657188D01*
X71591544Y-121493216D01*
X71690147Y-121345646D01*
X71815646Y-121220147D01*
X71963216Y-121121544D01*
X72127188Y-121053624D01*
X72276488Y-121023927D01*
X72301258Y-121019000D01*
X72478742Y-121019000D01*
X72503512Y-121023927D01*
G37*
G36*
X69963512Y-121023927D02*
G01*
X70112812Y-121053624D01*
X70276784Y-121121544D01*
X70424354Y-121220147D01*
X70549853Y-121345646D01*
X70648456Y-121493216D01*
X70716376Y-121657188D01*
X70751000Y-121831259D01*
X70751000Y-122008741D01*
X70716376Y-122182812D01*
X70648456Y-122346784D01*
X70549853Y-122494354D01*
X70424354Y-122619853D01*
X70276784Y-122718456D01*
X70112812Y-122786376D01*
X69963512Y-122816073D01*
X69938742Y-122821000D01*
X69761258Y-122821000D01*
X69736488Y-122816073D01*
X69587188Y-122786376D01*
X69423216Y-122718456D01*
X69275646Y-122619853D01*
X69150147Y-122494354D01*
X69051544Y-122346784D01*
X68983624Y-122182812D01*
X68949000Y-122008741D01*
X68949000Y-121831259D01*
X68983624Y-121657188D01*
X69051544Y-121493216D01*
X69150147Y-121345646D01*
X69275646Y-121220147D01*
X69423216Y-121121544D01*
X69587188Y-121053624D01*
X69736488Y-121023927D01*
X69761258Y-121019000D01*
X69938742Y-121019000D01*
X69963512Y-121023927D01*
G37*
G36*
X67423512Y-121023927D02*
G01*
X67572812Y-121053624D01*
X67736784Y-121121544D01*
X67884354Y-121220147D01*
X68009853Y-121345646D01*
X68108456Y-121493216D01*
X68176376Y-121657188D01*
X68211000Y-121831259D01*
X68211000Y-122008741D01*
X68176376Y-122182812D01*
X68108456Y-122346784D01*
X68009853Y-122494354D01*
X67884354Y-122619853D01*
X67736784Y-122718456D01*
X67572812Y-122786376D01*
X67423512Y-122816073D01*
X67398742Y-122821000D01*
X67221258Y-122821000D01*
X67196488Y-122816073D01*
X67047188Y-122786376D01*
X66883216Y-122718456D01*
X66735646Y-122619853D01*
X66610147Y-122494354D01*
X66511544Y-122346784D01*
X66443624Y-122182812D01*
X66409000Y-122008741D01*
X66409000Y-121831259D01*
X66443624Y-121657188D01*
X66511544Y-121493216D01*
X66610147Y-121345646D01*
X66735646Y-121220147D01*
X66883216Y-121121544D01*
X67047188Y-121053624D01*
X67196488Y-121023927D01*
X67221258Y-121019000D01*
X67398742Y-121019000D01*
X67423512Y-121023927D01*
G37*
G36*
X64883512Y-121023927D02*
G01*
X65032812Y-121053624D01*
X65196784Y-121121544D01*
X65344354Y-121220147D01*
X65469853Y-121345646D01*
X65568456Y-121493216D01*
X65636376Y-121657188D01*
X65671000Y-121831259D01*
X65671000Y-122008741D01*
X65636376Y-122182812D01*
X65568456Y-122346784D01*
X65469853Y-122494354D01*
X65344354Y-122619853D01*
X65196784Y-122718456D01*
X65032812Y-122786376D01*
X64883512Y-122816073D01*
X64858742Y-122821000D01*
X64681258Y-122821000D01*
X64656488Y-122816073D01*
X64507188Y-122786376D01*
X64343216Y-122718456D01*
X64195646Y-122619853D01*
X64070147Y-122494354D01*
X63971544Y-122346784D01*
X63903624Y-122182812D01*
X63869000Y-122008741D01*
X63869000Y-121831259D01*
X63903624Y-121657188D01*
X63971544Y-121493216D01*
X64070147Y-121345646D01*
X64195646Y-121220147D01*
X64343216Y-121121544D01*
X64507188Y-121053624D01*
X64656488Y-121023927D01*
X64681258Y-121019000D01*
X64858742Y-121019000D01*
X64883512Y-121023927D01*
G37*
G36*
X62343512Y-121023927D02*
G01*
X62492812Y-121053624D01*
X62656784Y-121121544D01*
X62804354Y-121220147D01*
X62929853Y-121345646D01*
X63028456Y-121493216D01*
X63096376Y-121657188D01*
X63131000Y-121831259D01*
X63131000Y-122008741D01*
X63096376Y-122182812D01*
X63028456Y-122346784D01*
X62929853Y-122494354D01*
X62804354Y-122619853D01*
X62656784Y-122718456D01*
X62492812Y-122786376D01*
X62343512Y-122816073D01*
X62318742Y-122821000D01*
X62141258Y-122821000D01*
X62116488Y-122816073D01*
X61967188Y-122786376D01*
X61803216Y-122718456D01*
X61655646Y-122619853D01*
X61530147Y-122494354D01*
X61431544Y-122346784D01*
X61363624Y-122182812D01*
X61329000Y-122008741D01*
X61329000Y-121831259D01*
X61363624Y-121657188D01*
X61431544Y-121493216D01*
X61530147Y-121345646D01*
X61655646Y-121220147D01*
X61803216Y-121121544D01*
X61967188Y-121053624D01*
X62116488Y-121023927D01*
X62141258Y-121019000D01*
X62318742Y-121019000D01*
X62343512Y-121023927D01*
G37*
G36*
X59803512Y-121023927D02*
G01*
X59952812Y-121053624D01*
X60116784Y-121121544D01*
X60264354Y-121220147D01*
X60389853Y-121345646D01*
X60488456Y-121493216D01*
X60556376Y-121657188D01*
X60591000Y-121831259D01*
X60591000Y-122008741D01*
X60556376Y-122182812D01*
X60488456Y-122346784D01*
X60389853Y-122494354D01*
X60264354Y-122619853D01*
X60116784Y-122718456D01*
X59952812Y-122786376D01*
X59803512Y-122816073D01*
X59778742Y-122821000D01*
X59601258Y-122821000D01*
X59576488Y-122816073D01*
X59427188Y-122786376D01*
X59263216Y-122718456D01*
X59115646Y-122619853D01*
X58990147Y-122494354D01*
X58891544Y-122346784D01*
X58823624Y-122182812D01*
X58789000Y-122008741D01*
X58789000Y-121831259D01*
X58823624Y-121657188D01*
X58891544Y-121493216D01*
X58990147Y-121345646D01*
X59115646Y-121220147D01*
X59263216Y-121121544D01*
X59427188Y-121053624D01*
X59576488Y-121023927D01*
X59601258Y-121019000D01*
X59778742Y-121019000D01*
X59803512Y-121023927D01*
G37*
G36*
X57263512Y-121023927D02*
G01*
X57412812Y-121053624D01*
X57576784Y-121121544D01*
X57724354Y-121220147D01*
X57849853Y-121345646D01*
X57948456Y-121493216D01*
X58016376Y-121657188D01*
X58051000Y-121831259D01*
X58051000Y-122008741D01*
X58016376Y-122182812D01*
X57948456Y-122346784D01*
X57849853Y-122494354D01*
X57724354Y-122619853D01*
X57576784Y-122718456D01*
X57412812Y-122786376D01*
X57263512Y-122816073D01*
X57238742Y-122821000D01*
X57061258Y-122821000D01*
X57036488Y-122816073D01*
X56887188Y-122786376D01*
X56723216Y-122718456D01*
X56575646Y-122619853D01*
X56450147Y-122494354D01*
X56351544Y-122346784D01*
X56283624Y-122182812D01*
X56249000Y-122008741D01*
X56249000Y-121831259D01*
X56283624Y-121657188D01*
X56351544Y-121493216D01*
X56450147Y-121345646D01*
X56575646Y-121220147D01*
X56723216Y-121121544D01*
X56887188Y-121053624D01*
X57036488Y-121023927D01*
X57061258Y-121019000D01*
X57238742Y-121019000D01*
X57263512Y-121023927D01*
G37*
G36*
X54723512Y-121023927D02*
G01*
X54872812Y-121053624D01*
X55036784Y-121121544D01*
X55184354Y-121220147D01*
X55309853Y-121345646D01*
X55408456Y-121493216D01*
X55476376Y-121657188D01*
X55511000Y-121831259D01*
X55511000Y-122008741D01*
X55476376Y-122182812D01*
X55408456Y-122346784D01*
X55309853Y-122494354D01*
X55184354Y-122619853D01*
X55036784Y-122718456D01*
X54872812Y-122786376D01*
X54723512Y-122816073D01*
X54698742Y-122821000D01*
X54521258Y-122821000D01*
X54496488Y-122816073D01*
X54347188Y-122786376D01*
X54183216Y-122718456D01*
X54035646Y-122619853D01*
X53910147Y-122494354D01*
X53811544Y-122346784D01*
X53743624Y-122182812D01*
X53709000Y-122008741D01*
X53709000Y-121831259D01*
X53743624Y-121657188D01*
X53811544Y-121493216D01*
X53910147Y-121345646D01*
X54035646Y-121220147D01*
X54183216Y-121121544D01*
X54347188Y-121053624D01*
X54496488Y-121023927D01*
X54521258Y-121019000D01*
X54698742Y-121019000D01*
X54723512Y-121023927D01*
G37*
G36*
X100443512Y-34663927D02*
G01*
X100592812Y-34693624D01*
X100756784Y-34761544D01*
X100904354Y-34860147D01*
X101029853Y-34985646D01*
X101128456Y-35133216D01*
X101196376Y-35297188D01*
X101231000Y-35471259D01*
X101231000Y-35648741D01*
X101196376Y-35822812D01*
X101128456Y-35986784D01*
X101029853Y-36134354D01*
X100904354Y-36259853D01*
X100756784Y-36358456D01*
X100592812Y-36426376D01*
X100443512Y-36456073D01*
X100418742Y-36461000D01*
X100241258Y-36461000D01*
X100216488Y-36456073D01*
X100067188Y-36426376D01*
X99903216Y-36358456D01*
X99755646Y-36259853D01*
X99630147Y-36134354D01*
X99531544Y-35986784D01*
X99463624Y-35822812D01*
X99429000Y-35648741D01*
X99429000Y-35471259D01*
X99463624Y-35297188D01*
X99531544Y-35133216D01*
X99630147Y-34985646D01*
X99755646Y-34860147D01*
X99903216Y-34761544D01*
X100067188Y-34693624D01*
X100216488Y-34663927D01*
X100241258Y-34659000D01*
X100418742Y-34659000D01*
X100443512Y-34663927D01*
G37*
G36*
X54723512Y-34663927D02*
G01*
X54872812Y-34693624D01*
X55036784Y-34761544D01*
X55184354Y-34860147D01*
X55309853Y-34985646D01*
X55408456Y-35133216D01*
X55476376Y-35297188D01*
X55511000Y-35471259D01*
X55511000Y-35648741D01*
X55476376Y-35822812D01*
X55408456Y-35986784D01*
X55309853Y-36134354D01*
X55184354Y-36259853D01*
X55036784Y-36358456D01*
X54872812Y-36426376D01*
X54723512Y-36456073D01*
X54698742Y-36461000D01*
X54521258Y-36461000D01*
X54496488Y-36456073D01*
X54347188Y-36426376D01*
X54183216Y-36358456D01*
X54035646Y-36259853D01*
X53910147Y-36134354D01*
X53811544Y-35986784D01*
X53743624Y-35822812D01*
X53709000Y-35648741D01*
X53709000Y-35471259D01*
X53743624Y-35297188D01*
X53811544Y-35133216D01*
X53910147Y-34985646D01*
X54035646Y-34860147D01*
X54183216Y-34761544D01*
X54347188Y-34693624D01*
X54496488Y-34663927D01*
X54521258Y-34659000D01*
X54698742Y-34659000D01*
X54723512Y-34663927D01*
G37*
G36*
X103771000Y-36461000D02*
G01*
X101969000Y-36461000D01*
X101969000Y-34659000D01*
X103771000Y-34659000D01*
X103771000Y-36461000D01*
G37*
G36*
X95363512Y-34663927D02*
G01*
X95512812Y-34693624D01*
X95676784Y-34761544D01*
X95824354Y-34860147D01*
X95949853Y-34985646D01*
X96048456Y-35133216D01*
X96116376Y-35297188D01*
X96151000Y-35471259D01*
X96151000Y-35648741D01*
X96116376Y-35822812D01*
X96048456Y-35986784D01*
X95949853Y-36134354D01*
X95824354Y-36259853D01*
X95676784Y-36358456D01*
X95512812Y-36426376D01*
X95363512Y-36456073D01*
X95338742Y-36461000D01*
X95161258Y-36461000D01*
X95136488Y-36456073D01*
X94987188Y-36426376D01*
X94823216Y-36358456D01*
X94675646Y-36259853D01*
X94550147Y-36134354D01*
X94451544Y-35986784D01*
X94383624Y-35822812D01*
X94349000Y-35648741D01*
X94349000Y-35471259D01*
X94383624Y-35297188D01*
X94451544Y-35133216D01*
X94550147Y-34985646D01*
X94675646Y-34860147D01*
X94823216Y-34761544D01*
X94987188Y-34693624D01*
X95136488Y-34663927D01*
X95161258Y-34659000D01*
X95338742Y-34659000D01*
X95363512Y-34663927D01*
G37*
G36*
X97903512Y-34663927D02*
G01*
X98052812Y-34693624D01*
X98216784Y-34761544D01*
X98364354Y-34860147D01*
X98489853Y-34985646D01*
X98588456Y-35133216D01*
X98656376Y-35297188D01*
X98691000Y-35471259D01*
X98691000Y-35648741D01*
X98656376Y-35822812D01*
X98588456Y-35986784D01*
X98489853Y-36134354D01*
X98364354Y-36259853D01*
X98216784Y-36358456D01*
X98052812Y-36426376D01*
X97903512Y-36456073D01*
X97878742Y-36461000D01*
X97701258Y-36461000D01*
X97676488Y-36456073D01*
X97527188Y-36426376D01*
X97363216Y-36358456D01*
X97215646Y-36259853D01*
X97090147Y-36134354D01*
X96991544Y-35986784D01*
X96923624Y-35822812D01*
X96889000Y-35648741D01*
X96889000Y-35471259D01*
X96923624Y-35297188D01*
X96991544Y-35133216D01*
X97090147Y-34985646D01*
X97215646Y-34860147D01*
X97363216Y-34761544D01*
X97527188Y-34693624D01*
X97676488Y-34663927D01*
X97701258Y-34659000D01*
X97878742Y-34659000D01*
X97903512Y-34663927D01*
G37*
G36*
X92823512Y-34663927D02*
G01*
X92972812Y-34693624D01*
X93136784Y-34761544D01*
X93284354Y-34860147D01*
X93409853Y-34985646D01*
X93508456Y-35133216D01*
X93576376Y-35297188D01*
X93611000Y-35471259D01*
X93611000Y-35648741D01*
X93576376Y-35822812D01*
X93508456Y-35986784D01*
X93409853Y-36134354D01*
X93284354Y-36259853D01*
X93136784Y-36358456D01*
X92972812Y-36426376D01*
X92823512Y-36456073D01*
X92798742Y-36461000D01*
X92621258Y-36461000D01*
X92596488Y-36456073D01*
X92447188Y-36426376D01*
X92283216Y-36358456D01*
X92135646Y-36259853D01*
X92010147Y-36134354D01*
X91911544Y-35986784D01*
X91843624Y-35822812D01*
X91809000Y-35648741D01*
X91809000Y-35471259D01*
X91843624Y-35297188D01*
X91911544Y-35133216D01*
X92010147Y-34985646D01*
X92135646Y-34860147D01*
X92283216Y-34761544D01*
X92447188Y-34693624D01*
X92596488Y-34663927D01*
X92621258Y-34659000D01*
X92798742Y-34659000D01*
X92823512Y-34663927D01*
G37*
G36*
X90283512Y-34663927D02*
G01*
X90432812Y-34693624D01*
X90596784Y-34761544D01*
X90744354Y-34860147D01*
X90869853Y-34985646D01*
X90968456Y-35133216D01*
X91036376Y-35297188D01*
X91071000Y-35471259D01*
X91071000Y-35648741D01*
X91036376Y-35822812D01*
X90968456Y-35986784D01*
X90869853Y-36134354D01*
X90744354Y-36259853D01*
X90596784Y-36358456D01*
X90432812Y-36426376D01*
X90283512Y-36456073D01*
X90258742Y-36461000D01*
X90081258Y-36461000D01*
X90056488Y-36456073D01*
X89907188Y-36426376D01*
X89743216Y-36358456D01*
X89595646Y-36259853D01*
X89470147Y-36134354D01*
X89371544Y-35986784D01*
X89303624Y-35822812D01*
X89269000Y-35648741D01*
X89269000Y-35471259D01*
X89303624Y-35297188D01*
X89371544Y-35133216D01*
X89470147Y-34985646D01*
X89595646Y-34860147D01*
X89743216Y-34761544D01*
X89907188Y-34693624D01*
X90056488Y-34663927D01*
X90081258Y-34659000D01*
X90258742Y-34659000D01*
X90283512Y-34663927D01*
G37*
G36*
X87743512Y-34663927D02*
G01*
X87892812Y-34693624D01*
X88056784Y-34761544D01*
X88204354Y-34860147D01*
X88329853Y-34985646D01*
X88428456Y-35133216D01*
X88496376Y-35297188D01*
X88531000Y-35471259D01*
X88531000Y-35648741D01*
X88496376Y-35822812D01*
X88428456Y-35986784D01*
X88329853Y-36134354D01*
X88204354Y-36259853D01*
X88056784Y-36358456D01*
X87892812Y-36426376D01*
X87743512Y-36456073D01*
X87718742Y-36461000D01*
X87541258Y-36461000D01*
X87516488Y-36456073D01*
X87367188Y-36426376D01*
X87203216Y-36358456D01*
X87055646Y-36259853D01*
X86930147Y-36134354D01*
X86831544Y-35986784D01*
X86763624Y-35822812D01*
X86729000Y-35648741D01*
X86729000Y-35471259D01*
X86763624Y-35297188D01*
X86831544Y-35133216D01*
X86930147Y-34985646D01*
X87055646Y-34860147D01*
X87203216Y-34761544D01*
X87367188Y-34693624D01*
X87516488Y-34663927D01*
X87541258Y-34659000D01*
X87718742Y-34659000D01*
X87743512Y-34663927D01*
G37*
G36*
X85203512Y-34663927D02*
G01*
X85352812Y-34693624D01*
X85516784Y-34761544D01*
X85664354Y-34860147D01*
X85789853Y-34985646D01*
X85888456Y-35133216D01*
X85956376Y-35297188D01*
X85991000Y-35471259D01*
X85991000Y-35648741D01*
X85956376Y-35822812D01*
X85888456Y-35986784D01*
X85789853Y-36134354D01*
X85664354Y-36259853D01*
X85516784Y-36358456D01*
X85352812Y-36426376D01*
X85203512Y-36456073D01*
X85178742Y-36461000D01*
X85001258Y-36461000D01*
X84976488Y-36456073D01*
X84827188Y-36426376D01*
X84663216Y-36358456D01*
X84515646Y-36259853D01*
X84390147Y-36134354D01*
X84291544Y-35986784D01*
X84223624Y-35822812D01*
X84189000Y-35648741D01*
X84189000Y-35471259D01*
X84223624Y-35297188D01*
X84291544Y-35133216D01*
X84390147Y-34985646D01*
X84515646Y-34860147D01*
X84663216Y-34761544D01*
X84827188Y-34693624D01*
X84976488Y-34663927D01*
X85001258Y-34659000D01*
X85178742Y-34659000D01*
X85203512Y-34663927D01*
G37*
G36*
X82663512Y-34663927D02*
G01*
X82812812Y-34693624D01*
X82976784Y-34761544D01*
X83124354Y-34860147D01*
X83249853Y-34985646D01*
X83348456Y-35133216D01*
X83416376Y-35297188D01*
X83451000Y-35471259D01*
X83451000Y-35648741D01*
X83416376Y-35822812D01*
X83348456Y-35986784D01*
X83249853Y-36134354D01*
X83124354Y-36259853D01*
X82976784Y-36358456D01*
X82812812Y-36426376D01*
X82663512Y-36456073D01*
X82638742Y-36461000D01*
X82461258Y-36461000D01*
X82436488Y-36456073D01*
X82287188Y-36426376D01*
X82123216Y-36358456D01*
X81975646Y-36259853D01*
X81850147Y-36134354D01*
X81751544Y-35986784D01*
X81683624Y-35822812D01*
X81649000Y-35648741D01*
X81649000Y-35471259D01*
X81683624Y-35297188D01*
X81751544Y-35133216D01*
X81850147Y-34985646D01*
X81975646Y-34860147D01*
X82123216Y-34761544D01*
X82287188Y-34693624D01*
X82436488Y-34663927D01*
X82461258Y-34659000D01*
X82638742Y-34659000D01*
X82663512Y-34663927D01*
G37*
G36*
X80123512Y-34663927D02*
G01*
X80272812Y-34693624D01*
X80436784Y-34761544D01*
X80584354Y-34860147D01*
X80709853Y-34985646D01*
X80808456Y-35133216D01*
X80876376Y-35297188D01*
X80911000Y-35471259D01*
X80911000Y-35648741D01*
X80876376Y-35822812D01*
X80808456Y-35986784D01*
X80709853Y-36134354D01*
X80584354Y-36259853D01*
X80436784Y-36358456D01*
X80272812Y-36426376D01*
X80123512Y-36456073D01*
X80098742Y-36461000D01*
X79921258Y-36461000D01*
X79896488Y-36456073D01*
X79747188Y-36426376D01*
X79583216Y-36358456D01*
X79435646Y-36259853D01*
X79310147Y-36134354D01*
X79211544Y-35986784D01*
X79143624Y-35822812D01*
X79109000Y-35648741D01*
X79109000Y-35471259D01*
X79143624Y-35297188D01*
X79211544Y-35133216D01*
X79310147Y-34985646D01*
X79435646Y-34860147D01*
X79583216Y-34761544D01*
X79747188Y-34693624D01*
X79896488Y-34663927D01*
X79921258Y-34659000D01*
X80098742Y-34659000D01*
X80123512Y-34663927D01*
G37*
G36*
X77583512Y-34663927D02*
G01*
X77732812Y-34693624D01*
X77896784Y-34761544D01*
X78044354Y-34860147D01*
X78169853Y-34985646D01*
X78268456Y-35133216D01*
X78336376Y-35297188D01*
X78371000Y-35471259D01*
X78371000Y-35648741D01*
X78336376Y-35822812D01*
X78268456Y-35986784D01*
X78169853Y-36134354D01*
X78044354Y-36259853D01*
X77896784Y-36358456D01*
X77732812Y-36426376D01*
X77583512Y-36456073D01*
X77558742Y-36461000D01*
X77381258Y-36461000D01*
X77356488Y-36456073D01*
X77207188Y-36426376D01*
X77043216Y-36358456D01*
X76895646Y-36259853D01*
X76770147Y-36134354D01*
X76671544Y-35986784D01*
X76603624Y-35822812D01*
X76569000Y-35648741D01*
X76569000Y-35471259D01*
X76603624Y-35297188D01*
X76671544Y-35133216D01*
X76770147Y-34985646D01*
X76895646Y-34860147D01*
X77043216Y-34761544D01*
X77207188Y-34693624D01*
X77356488Y-34663927D01*
X77381258Y-34659000D01*
X77558742Y-34659000D01*
X77583512Y-34663927D01*
G37*
G36*
X75043512Y-34663927D02*
G01*
X75192812Y-34693624D01*
X75356784Y-34761544D01*
X75504354Y-34860147D01*
X75629853Y-34985646D01*
X75728456Y-35133216D01*
X75796376Y-35297188D01*
X75831000Y-35471259D01*
X75831000Y-35648741D01*
X75796376Y-35822812D01*
X75728456Y-35986784D01*
X75629853Y-36134354D01*
X75504354Y-36259853D01*
X75356784Y-36358456D01*
X75192812Y-36426376D01*
X75043512Y-36456073D01*
X75018742Y-36461000D01*
X74841258Y-36461000D01*
X74816488Y-36456073D01*
X74667188Y-36426376D01*
X74503216Y-36358456D01*
X74355646Y-36259853D01*
X74230147Y-36134354D01*
X74131544Y-35986784D01*
X74063624Y-35822812D01*
X74029000Y-35648741D01*
X74029000Y-35471259D01*
X74063624Y-35297188D01*
X74131544Y-35133216D01*
X74230147Y-34985646D01*
X74355646Y-34860147D01*
X74503216Y-34761544D01*
X74667188Y-34693624D01*
X74816488Y-34663927D01*
X74841258Y-34659000D01*
X75018742Y-34659000D01*
X75043512Y-34663927D01*
G37*
G36*
X72503512Y-34663927D02*
G01*
X72652812Y-34693624D01*
X72816784Y-34761544D01*
X72964354Y-34860147D01*
X73089853Y-34985646D01*
X73188456Y-35133216D01*
X73256376Y-35297188D01*
X73291000Y-35471259D01*
X73291000Y-35648741D01*
X73256376Y-35822812D01*
X73188456Y-35986784D01*
X73089853Y-36134354D01*
X72964354Y-36259853D01*
X72816784Y-36358456D01*
X72652812Y-36426376D01*
X72503512Y-36456073D01*
X72478742Y-36461000D01*
X72301258Y-36461000D01*
X72276488Y-36456073D01*
X72127188Y-36426376D01*
X71963216Y-36358456D01*
X71815646Y-36259853D01*
X71690147Y-36134354D01*
X71591544Y-35986784D01*
X71523624Y-35822812D01*
X71489000Y-35648741D01*
X71489000Y-35471259D01*
X71523624Y-35297188D01*
X71591544Y-35133216D01*
X71690147Y-34985646D01*
X71815646Y-34860147D01*
X71963216Y-34761544D01*
X72127188Y-34693624D01*
X72276488Y-34663927D01*
X72301258Y-34659000D01*
X72478742Y-34659000D01*
X72503512Y-34663927D01*
G37*
G36*
X69963512Y-34663927D02*
G01*
X70112812Y-34693624D01*
X70276784Y-34761544D01*
X70424354Y-34860147D01*
X70549853Y-34985646D01*
X70648456Y-35133216D01*
X70716376Y-35297188D01*
X70751000Y-35471259D01*
X70751000Y-35648741D01*
X70716376Y-35822812D01*
X70648456Y-35986784D01*
X70549853Y-36134354D01*
X70424354Y-36259853D01*
X70276784Y-36358456D01*
X70112812Y-36426376D01*
X69963512Y-36456073D01*
X69938742Y-36461000D01*
X69761258Y-36461000D01*
X69736488Y-36456073D01*
X69587188Y-36426376D01*
X69423216Y-36358456D01*
X69275646Y-36259853D01*
X69150147Y-36134354D01*
X69051544Y-35986784D01*
X68983624Y-35822812D01*
X68949000Y-35648741D01*
X68949000Y-35471259D01*
X68983624Y-35297188D01*
X69051544Y-35133216D01*
X69150147Y-34985646D01*
X69275646Y-34860147D01*
X69423216Y-34761544D01*
X69587188Y-34693624D01*
X69736488Y-34663927D01*
X69761258Y-34659000D01*
X69938742Y-34659000D01*
X69963512Y-34663927D01*
G37*
G36*
X67423512Y-34663927D02*
G01*
X67572812Y-34693624D01*
X67736784Y-34761544D01*
X67884354Y-34860147D01*
X68009853Y-34985646D01*
X68108456Y-35133216D01*
X68176376Y-35297188D01*
X68211000Y-35471259D01*
X68211000Y-35648741D01*
X68176376Y-35822812D01*
X68108456Y-35986784D01*
X68009853Y-36134354D01*
X67884354Y-36259853D01*
X67736784Y-36358456D01*
X67572812Y-36426376D01*
X67423512Y-36456073D01*
X67398742Y-36461000D01*
X67221258Y-36461000D01*
X67196488Y-36456073D01*
X67047188Y-36426376D01*
X66883216Y-36358456D01*
X66735646Y-36259853D01*
X66610147Y-36134354D01*
X66511544Y-35986784D01*
X66443624Y-35822812D01*
X66409000Y-35648741D01*
X66409000Y-35471259D01*
X66443624Y-35297188D01*
X66511544Y-35133216D01*
X66610147Y-34985646D01*
X66735646Y-34860147D01*
X66883216Y-34761544D01*
X67047188Y-34693624D01*
X67196488Y-34663927D01*
X67221258Y-34659000D01*
X67398742Y-34659000D01*
X67423512Y-34663927D01*
G37*
G36*
X64883512Y-34663927D02*
G01*
X65032812Y-34693624D01*
X65196784Y-34761544D01*
X65344354Y-34860147D01*
X65469853Y-34985646D01*
X65568456Y-35133216D01*
X65636376Y-35297188D01*
X65671000Y-35471259D01*
X65671000Y-35648741D01*
X65636376Y-35822812D01*
X65568456Y-35986784D01*
X65469853Y-36134354D01*
X65344354Y-36259853D01*
X65196784Y-36358456D01*
X65032812Y-36426376D01*
X64883512Y-36456073D01*
X64858742Y-36461000D01*
X64681258Y-36461000D01*
X64656488Y-36456073D01*
X64507188Y-36426376D01*
X64343216Y-36358456D01*
X64195646Y-36259853D01*
X64070147Y-36134354D01*
X63971544Y-35986784D01*
X63903624Y-35822812D01*
X63869000Y-35648741D01*
X63869000Y-35471259D01*
X63903624Y-35297188D01*
X63971544Y-35133216D01*
X64070147Y-34985646D01*
X64195646Y-34860147D01*
X64343216Y-34761544D01*
X64507188Y-34693624D01*
X64656488Y-34663927D01*
X64681258Y-34659000D01*
X64858742Y-34659000D01*
X64883512Y-34663927D01*
G37*
G36*
X62343512Y-34663927D02*
G01*
X62492812Y-34693624D01*
X62656784Y-34761544D01*
X62804354Y-34860147D01*
X62929853Y-34985646D01*
X63028456Y-35133216D01*
X63096376Y-35297188D01*
X63131000Y-35471259D01*
X63131000Y-35648741D01*
X63096376Y-35822812D01*
X63028456Y-35986784D01*
X62929853Y-36134354D01*
X62804354Y-36259853D01*
X62656784Y-36358456D01*
X62492812Y-36426376D01*
X62343512Y-36456073D01*
X62318742Y-36461000D01*
X62141258Y-36461000D01*
X62116488Y-36456073D01*
X61967188Y-36426376D01*
X61803216Y-36358456D01*
X61655646Y-36259853D01*
X61530147Y-36134354D01*
X61431544Y-35986784D01*
X61363624Y-35822812D01*
X61329000Y-35648741D01*
X61329000Y-35471259D01*
X61363624Y-35297188D01*
X61431544Y-35133216D01*
X61530147Y-34985646D01*
X61655646Y-34860147D01*
X61803216Y-34761544D01*
X61967188Y-34693624D01*
X62116488Y-34663927D01*
X62141258Y-34659000D01*
X62318742Y-34659000D01*
X62343512Y-34663927D01*
G37*
G36*
X59803512Y-34663927D02*
G01*
X59952812Y-34693624D01*
X60116784Y-34761544D01*
X60264354Y-34860147D01*
X60389853Y-34985646D01*
X60488456Y-35133216D01*
X60556376Y-35297188D01*
X60591000Y-35471259D01*
X60591000Y-35648741D01*
X60556376Y-35822812D01*
X60488456Y-35986784D01*
X60389853Y-36134354D01*
X60264354Y-36259853D01*
X60116784Y-36358456D01*
X59952812Y-36426376D01*
X59803512Y-36456073D01*
X59778742Y-36461000D01*
X59601258Y-36461000D01*
X59576488Y-36456073D01*
X59427188Y-36426376D01*
X59263216Y-36358456D01*
X59115646Y-36259853D01*
X58990147Y-36134354D01*
X58891544Y-35986784D01*
X58823624Y-35822812D01*
X58789000Y-35648741D01*
X58789000Y-35471259D01*
X58823624Y-35297188D01*
X58891544Y-35133216D01*
X58990147Y-34985646D01*
X59115646Y-34860147D01*
X59263216Y-34761544D01*
X59427188Y-34693624D01*
X59576488Y-34663927D01*
X59601258Y-34659000D01*
X59778742Y-34659000D01*
X59803512Y-34663927D01*
G37*
G36*
X57263512Y-34663927D02*
G01*
X57412812Y-34693624D01*
X57576784Y-34761544D01*
X57724354Y-34860147D01*
X57849853Y-34985646D01*
X57948456Y-35133216D01*
X58016376Y-35297188D01*
X58051000Y-35471259D01*
X58051000Y-35648741D01*
X58016376Y-35822812D01*
X57948456Y-35986784D01*
X57849853Y-36134354D01*
X57724354Y-36259853D01*
X57576784Y-36358456D01*
X57412812Y-36426376D01*
X57263512Y-36456073D01*
X57238742Y-36461000D01*
X57061258Y-36461000D01*
X57036488Y-36456073D01*
X56887188Y-36426376D01*
X56723216Y-36358456D01*
X56575646Y-36259853D01*
X56450147Y-36134354D01*
X56351544Y-35986784D01*
X56283624Y-35822812D01*
X56249000Y-35648741D01*
X56249000Y-35471259D01*
X56283624Y-35297188D01*
X56351544Y-35133216D01*
X56450147Y-34985646D01*
X56575646Y-34860147D01*
X56723216Y-34761544D01*
X56887188Y-34693624D01*
X57036488Y-34663927D01*
X57061258Y-34659000D01*
X57238742Y-34659000D01*
X57263512Y-34663927D01*
G37*
G36*
X102983512Y-32123927D02*
G01*
X103132812Y-32153624D01*
X103296784Y-32221544D01*
X103444354Y-32320147D01*
X103569853Y-32445646D01*
X103668456Y-32593216D01*
X103736376Y-32757188D01*
X103771000Y-32931259D01*
X103771000Y-33108741D01*
X103736376Y-33282812D01*
X103668456Y-33446784D01*
X103569853Y-33594354D01*
X103444354Y-33719853D01*
X103296784Y-33818456D01*
X103132812Y-33886376D01*
X102983512Y-33916073D01*
X102958742Y-33921000D01*
X102781258Y-33921000D01*
X102756488Y-33916073D01*
X102607188Y-33886376D01*
X102443216Y-33818456D01*
X102295646Y-33719853D01*
X102170147Y-33594354D01*
X102071544Y-33446784D01*
X102003624Y-33282812D01*
X101969000Y-33108741D01*
X101969000Y-32931259D01*
X102003624Y-32757188D01*
X102071544Y-32593216D01*
X102170147Y-32445646D01*
X102295646Y-32320147D01*
X102443216Y-32221544D01*
X102607188Y-32153624D01*
X102756488Y-32123927D01*
X102781258Y-32119000D01*
X102958742Y-32119000D01*
X102983512Y-32123927D01*
G37*
G36*
X54723512Y-32123927D02*
G01*
X54872812Y-32153624D01*
X55036784Y-32221544D01*
X55184354Y-32320147D01*
X55309853Y-32445646D01*
X55408456Y-32593216D01*
X55476376Y-32757188D01*
X55511000Y-32931259D01*
X55511000Y-33108741D01*
X55476376Y-33282812D01*
X55408456Y-33446784D01*
X55309853Y-33594354D01*
X55184354Y-33719853D01*
X55036784Y-33818456D01*
X54872812Y-33886376D01*
X54723512Y-33916073D01*
X54698742Y-33921000D01*
X54521258Y-33921000D01*
X54496488Y-33916073D01*
X54347188Y-33886376D01*
X54183216Y-33818456D01*
X54035646Y-33719853D01*
X53910147Y-33594354D01*
X53811544Y-33446784D01*
X53743624Y-33282812D01*
X53709000Y-33108741D01*
X53709000Y-32931259D01*
X53743624Y-32757188D01*
X53811544Y-32593216D01*
X53910147Y-32445646D01*
X54035646Y-32320147D01*
X54183216Y-32221544D01*
X54347188Y-32153624D01*
X54496488Y-32123927D01*
X54521258Y-32119000D01*
X54698742Y-32119000D01*
X54723512Y-32123927D01*
G37*
G36*
X100443512Y-32123927D02*
G01*
X100592812Y-32153624D01*
X100756784Y-32221544D01*
X100904354Y-32320147D01*
X101029853Y-32445646D01*
X101128456Y-32593216D01*
X101196376Y-32757188D01*
X101231000Y-32931259D01*
X101231000Y-33108741D01*
X101196376Y-33282812D01*
X101128456Y-33446784D01*
X101029853Y-33594354D01*
X100904354Y-33719853D01*
X100756784Y-33818456D01*
X100592812Y-33886376D01*
X100443512Y-33916073D01*
X100418742Y-33921000D01*
X100241258Y-33921000D01*
X100216488Y-33916073D01*
X100067188Y-33886376D01*
X99903216Y-33818456D01*
X99755646Y-33719853D01*
X99630147Y-33594354D01*
X99531544Y-33446784D01*
X99463624Y-33282812D01*
X99429000Y-33108741D01*
X99429000Y-32931259D01*
X99463624Y-32757188D01*
X99531544Y-32593216D01*
X99630147Y-32445646D01*
X99755646Y-32320147D01*
X99903216Y-32221544D01*
X100067188Y-32153624D01*
X100216488Y-32123927D01*
X100241258Y-32119000D01*
X100418742Y-32119000D01*
X100443512Y-32123927D01*
G37*
G36*
X57263512Y-32123927D02*
G01*
X57412812Y-32153624D01*
X57576784Y-32221544D01*
X57724354Y-32320147D01*
X57849853Y-32445646D01*
X57948456Y-32593216D01*
X58016376Y-32757188D01*
X58051000Y-32931259D01*
X58051000Y-33108741D01*
X58016376Y-33282812D01*
X57948456Y-33446784D01*
X57849853Y-33594354D01*
X57724354Y-33719853D01*
X57576784Y-33818456D01*
X57412812Y-33886376D01*
X57263512Y-33916073D01*
X57238742Y-33921000D01*
X57061258Y-33921000D01*
X57036488Y-33916073D01*
X56887188Y-33886376D01*
X56723216Y-33818456D01*
X56575646Y-33719853D01*
X56450147Y-33594354D01*
X56351544Y-33446784D01*
X56283624Y-33282812D01*
X56249000Y-33108741D01*
X56249000Y-32931259D01*
X56283624Y-32757188D01*
X56351544Y-32593216D01*
X56450147Y-32445646D01*
X56575646Y-32320147D01*
X56723216Y-32221544D01*
X56887188Y-32153624D01*
X57036488Y-32123927D01*
X57061258Y-32119000D01*
X57238742Y-32119000D01*
X57263512Y-32123927D01*
G37*
G36*
X97903512Y-32123927D02*
G01*
X98052812Y-32153624D01*
X98216784Y-32221544D01*
X98364354Y-32320147D01*
X98489853Y-32445646D01*
X98588456Y-32593216D01*
X98656376Y-32757188D01*
X98691000Y-32931259D01*
X98691000Y-33108741D01*
X98656376Y-33282812D01*
X98588456Y-33446784D01*
X98489853Y-33594354D01*
X98364354Y-33719853D01*
X98216784Y-33818456D01*
X98052812Y-33886376D01*
X97903512Y-33916073D01*
X97878742Y-33921000D01*
X97701258Y-33921000D01*
X97676488Y-33916073D01*
X97527188Y-33886376D01*
X97363216Y-33818456D01*
X97215646Y-33719853D01*
X97090147Y-33594354D01*
X96991544Y-33446784D01*
X96923624Y-33282812D01*
X96889000Y-33108741D01*
X96889000Y-32931259D01*
X96923624Y-32757188D01*
X96991544Y-32593216D01*
X97090147Y-32445646D01*
X97215646Y-32320147D01*
X97363216Y-32221544D01*
X97527188Y-32153624D01*
X97676488Y-32123927D01*
X97701258Y-32119000D01*
X97878742Y-32119000D01*
X97903512Y-32123927D01*
G37*
G36*
X59803512Y-32123927D02*
G01*
X59952812Y-32153624D01*
X60116784Y-32221544D01*
X60264354Y-32320147D01*
X60389853Y-32445646D01*
X60488456Y-32593216D01*
X60556376Y-32757188D01*
X60591000Y-32931259D01*
X60591000Y-33108741D01*
X60556376Y-33282812D01*
X60488456Y-33446784D01*
X60389853Y-33594354D01*
X60264354Y-33719853D01*
X60116784Y-33818456D01*
X59952812Y-33886376D01*
X59803512Y-33916073D01*
X59778742Y-33921000D01*
X59601258Y-33921000D01*
X59576488Y-33916073D01*
X59427188Y-33886376D01*
X59263216Y-33818456D01*
X59115646Y-33719853D01*
X58990147Y-33594354D01*
X58891544Y-33446784D01*
X58823624Y-33282812D01*
X58789000Y-33108741D01*
X58789000Y-32931259D01*
X58823624Y-32757188D01*
X58891544Y-32593216D01*
X58990147Y-32445646D01*
X59115646Y-32320147D01*
X59263216Y-32221544D01*
X59427188Y-32153624D01*
X59576488Y-32123927D01*
X59601258Y-32119000D01*
X59778742Y-32119000D01*
X59803512Y-32123927D01*
G37*
G36*
X95363512Y-32123927D02*
G01*
X95512812Y-32153624D01*
X95676784Y-32221544D01*
X95824354Y-32320147D01*
X95949853Y-32445646D01*
X96048456Y-32593216D01*
X96116376Y-32757188D01*
X96151000Y-32931259D01*
X96151000Y-33108741D01*
X96116376Y-33282812D01*
X96048456Y-33446784D01*
X95949853Y-33594354D01*
X95824354Y-33719853D01*
X95676784Y-33818456D01*
X95512812Y-33886376D01*
X95363512Y-33916073D01*
X95338742Y-33921000D01*
X95161258Y-33921000D01*
X95136488Y-33916073D01*
X94987188Y-33886376D01*
X94823216Y-33818456D01*
X94675646Y-33719853D01*
X94550147Y-33594354D01*
X94451544Y-33446784D01*
X94383624Y-33282812D01*
X94349000Y-33108741D01*
X94349000Y-32931259D01*
X94383624Y-32757188D01*
X94451544Y-32593216D01*
X94550147Y-32445646D01*
X94675646Y-32320147D01*
X94823216Y-32221544D01*
X94987188Y-32153624D01*
X95136488Y-32123927D01*
X95161258Y-32119000D01*
X95338742Y-32119000D01*
X95363512Y-32123927D01*
G37*
G36*
X62343512Y-32123927D02*
G01*
X62492812Y-32153624D01*
X62656784Y-32221544D01*
X62804354Y-32320147D01*
X62929853Y-32445646D01*
X63028456Y-32593216D01*
X63096376Y-32757188D01*
X63131000Y-32931259D01*
X63131000Y-33108741D01*
X63096376Y-33282812D01*
X63028456Y-33446784D01*
X62929853Y-33594354D01*
X62804354Y-33719853D01*
X62656784Y-33818456D01*
X62492812Y-33886376D01*
X62343512Y-33916073D01*
X62318742Y-33921000D01*
X62141258Y-33921000D01*
X62116488Y-33916073D01*
X61967188Y-33886376D01*
X61803216Y-33818456D01*
X61655646Y-33719853D01*
X61530147Y-33594354D01*
X61431544Y-33446784D01*
X61363624Y-33282812D01*
X61329000Y-33108741D01*
X61329000Y-32931259D01*
X61363624Y-32757188D01*
X61431544Y-32593216D01*
X61530147Y-32445646D01*
X61655646Y-32320147D01*
X61803216Y-32221544D01*
X61967188Y-32153624D01*
X62116488Y-32123927D01*
X62141258Y-32119000D01*
X62318742Y-32119000D01*
X62343512Y-32123927D01*
G37*
G36*
X92823512Y-32123927D02*
G01*
X92972812Y-32153624D01*
X93136784Y-32221544D01*
X93284354Y-32320147D01*
X93409853Y-32445646D01*
X93508456Y-32593216D01*
X93576376Y-32757188D01*
X93611000Y-32931259D01*
X93611000Y-33108741D01*
X93576376Y-33282812D01*
X93508456Y-33446784D01*
X93409853Y-33594354D01*
X93284354Y-33719853D01*
X93136784Y-33818456D01*
X92972812Y-33886376D01*
X92823512Y-33916073D01*
X92798742Y-33921000D01*
X92621258Y-33921000D01*
X92596488Y-33916073D01*
X92447188Y-33886376D01*
X92283216Y-33818456D01*
X92135646Y-33719853D01*
X92010147Y-33594354D01*
X91911544Y-33446784D01*
X91843624Y-33282812D01*
X91809000Y-33108741D01*
X91809000Y-32931259D01*
X91843624Y-32757188D01*
X91911544Y-32593216D01*
X92010147Y-32445646D01*
X92135646Y-32320147D01*
X92283216Y-32221544D01*
X92447188Y-32153624D01*
X92596488Y-32123927D01*
X92621258Y-32119000D01*
X92798742Y-32119000D01*
X92823512Y-32123927D01*
G37*
G36*
X64883512Y-32123927D02*
G01*
X65032812Y-32153624D01*
X65196784Y-32221544D01*
X65344354Y-32320147D01*
X65469853Y-32445646D01*
X65568456Y-32593216D01*
X65636376Y-32757188D01*
X65671000Y-32931259D01*
X65671000Y-33108741D01*
X65636376Y-33282812D01*
X65568456Y-33446784D01*
X65469853Y-33594354D01*
X65344354Y-33719853D01*
X65196784Y-33818456D01*
X65032812Y-33886376D01*
X64883512Y-33916073D01*
X64858742Y-33921000D01*
X64681258Y-33921000D01*
X64656488Y-33916073D01*
X64507188Y-33886376D01*
X64343216Y-33818456D01*
X64195646Y-33719853D01*
X64070147Y-33594354D01*
X63971544Y-33446784D01*
X63903624Y-33282812D01*
X63869000Y-33108741D01*
X63869000Y-32931259D01*
X63903624Y-32757188D01*
X63971544Y-32593216D01*
X64070147Y-32445646D01*
X64195646Y-32320147D01*
X64343216Y-32221544D01*
X64507188Y-32153624D01*
X64656488Y-32123927D01*
X64681258Y-32119000D01*
X64858742Y-32119000D01*
X64883512Y-32123927D01*
G37*
G36*
X90283512Y-32123927D02*
G01*
X90432812Y-32153624D01*
X90596784Y-32221544D01*
X90744354Y-32320147D01*
X90869853Y-32445646D01*
X90968456Y-32593216D01*
X91036376Y-32757188D01*
X91071000Y-32931259D01*
X91071000Y-33108741D01*
X91036376Y-33282812D01*
X90968456Y-33446784D01*
X90869853Y-33594354D01*
X90744354Y-33719853D01*
X90596784Y-33818456D01*
X90432812Y-33886376D01*
X90283512Y-33916073D01*
X90258742Y-33921000D01*
X90081258Y-33921000D01*
X90056488Y-33916073D01*
X89907188Y-33886376D01*
X89743216Y-33818456D01*
X89595646Y-33719853D01*
X89470147Y-33594354D01*
X89371544Y-33446784D01*
X89303624Y-33282812D01*
X89269000Y-33108741D01*
X89269000Y-32931259D01*
X89303624Y-32757188D01*
X89371544Y-32593216D01*
X89470147Y-32445646D01*
X89595646Y-32320147D01*
X89743216Y-32221544D01*
X89907188Y-32153624D01*
X90056488Y-32123927D01*
X90081258Y-32119000D01*
X90258742Y-32119000D01*
X90283512Y-32123927D01*
G37*
G36*
X67423512Y-32123927D02*
G01*
X67572812Y-32153624D01*
X67736784Y-32221544D01*
X67884354Y-32320147D01*
X68009853Y-32445646D01*
X68108456Y-32593216D01*
X68176376Y-32757188D01*
X68211000Y-32931259D01*
X68211000Y-33108741D01*
X68176376Y-33282812D01*
X68108456Y-33446784D01*
X68009853Y-33594354D01*
X67884354Y-33719853D01*
X67736784Y-33818456D01*
X67572812Y-33886376D01*
X67423512Y-33916073D01*
X67398742Y-33921000D01*
X67221258Y-33921000D01*
X67196488Y-33916073D01*
X67047188Y-33886376D01*
X66883216Y-33818456D01*
X66735646Y-33719853D01*
X66610147Y-33594354D01*
X66511544Y-33446784D01*
X66443624Y-33282812D01*
X66409000Y-33108741D01*
X66409000Y-32931259D01*
X66443624Y-32757188D01*
X66511544Y-32593216D01*
X66610147Y-32445646D01*
X66735646Y-32320147D01*
X66883216Y-32221544D01*
X67047188Y-32153624D01*
X67196488Y-32123927D01*
X67221258Y-32119000D01*
X67398742Y-32119000D01*
X67423512Y-32123927D01*
G37*
G36*
X87743512Y-32123927D02*
G01*
X87892812Y-32153624D01*
X88056784Y-32221544D01*
X88204354Y-32320147D01*
X88329853Y-32445646D01*
X88428456Y-32593216D01*
X88496376Y-32757188D01*
X88531000Y-32931259D01*
X88531000Y-33108741D01*
X88496376Y-33282812D01*
X88428456Y-33446784D01*
X88329853Y-33594354D01*
X88204354Y-33719853D01*
X88056784Y-33818456D01*
X87892812Y-33886376D01*
X87743512Y-33916073D01*
X87718742Y-33921000D01*
X87541258Y-33921000D01*
X87516488Y-33916073D01*
X87367188Y-33886376D01*
X87203216Y-33818456D01*
X87055646Y-33719853D01*
X86930147Y-33594354D01*
X86831544Y-33446784D01*
X86763624Y-33282812D01*
X86729000Y-33108741D01*
X86729000Y-32931259D01*
X86763624Y-32757188D01*
X86831544Y-32593216D01*
X86930147Y-32445646D01*
X87055646Y-32320147D01*
X87203216Y-32221544D01*
X87367188Y-32153624D01*
X87516488Y-32123927D01*
X87541258Y-32119000D01*
X87718742Y-32119000D01*
X87743512Y-32123927D01*
G37*
G36*
X69963512Y-32123927D02*
G01*
X70112812Y-32153624D01*
X70276784Y-32221544D01*
X70424354Y-32320147D01*
X70549853Y-32445646D01*
X70648456Y-32593216D01*
X70716376Y-32757188D01*
X70751000Y-32931259D01*
X70751000Y-33108741D01*
X70716376Y-33282812D01*
X70648456Y-33446784D01*
X70549853Y-33594354D01*
X70424354Y-33719853D01*
X70276784Y-33818456D01*
X70112812Y-33886376D01*
X69963512Y-33916073D01*
X69938742Y-33921000D01*
X69761258Y-33921000D01*
X69736488Y-33916073D01*
X69587188Y-33886376D01*
X69423216Y-33818456D01*
X69275646Y-33719853D01*
X69150147Y-33594354D01*
X69051544Y-33446784D01*
X68983624Y-33282812D01*
X68949000Y-33108741D01*
X68949000Y-32931259D01*
X68983624Y-32757188D01*
X69051544Y-32593216D01*
X69150147Y-32445646D01*
X69275646Y-32320147D01*
X69423216Y-32221544D01*
X69587188Y-32153624D01*
X69736488Y-32123927D01*
X69761258Y-32119000D01*
X69938742Y-32119000D01*
X69963512Y-32123927D01*
G37*
G36*
X85203512Y-32123927D02*
G01*
X85352812Y-32153624D01*
X85516784Y-32221544D01*
X85664354Y-32320147D01*
X85789853Y-32445646D01*
X85888456Y-32593216D01*
X85956376Y-32757188D01*
X85991000Y-32931259D01*
X85991000Y-33108741D01*
X85956376Y-33282812D01*
X85888456Y-33446784D01*
X85789853Y-33594354D01*
X85664354Y-33719853D01*
X85516784Y-33818456D01*
X85352812Y-33886376D01*
X85203512Y-33916073D01*
X85178742Y-33921000D01*
X85001258Y-33921000D01*
X84976488Y-33916073D01*
X84827188Y-33886376D01*
X84663216Y-33818456D01*
X84515646Y-33719853D01*
X84390147Y-33594354D01*
X84291544Y-33446784D01*
X84223624Y-33282812D01*
X84189000Y-33108741D01*
X84189000Y-32931259D01*
X84223624Y-32757188D01*
X84291544Y-32593216D01*
X84390147Y-32445646D01*
X84515646Y-32320147D01*
X84663216Y-32221544D01*
X84827188Y-32153624D01*
X84976488Y-32123927D01*
X85001258Y-32119000D01*
X85178742Y-32119000D01*
X85203512Y-32123927D01*
G37*
G36*
X72503512Y-32123927D02*
G01*
X72652812Y-32153624D01*
X72816784Y-32221544D01*
X72964354Y-32320147D01*
X73089853Y-32445646D01*
X73188456Y-32593216D01*
X73256376Y-32757188D01*
X73291000Y-32931259D01*
X73291000Y-33108741D01*
X73256376Y-33282812D01*
X73188456Y-33446784D01*
X73089853Y-33594354D01*
X72964354Y-33719853D01*
X72816784Y-33818456D01*
X72652812Y-33886376D01*
X72503512Y-33916073D01*
X72478742Y-33921000D01*
X72301258Y-33921000D01*
X72276488Y-33916073D01*
X72127188Y-33886376D01*
X71963216Y-33818456D01*
X71815646Y-33719853D01*
X71690147Y-33594354D01*
X71591544Y-33446784D01*
X71523624Y-33282812D01*
X71489000Y-33108741D01*
X71489000Y-32931259D01*
X71523624Y-32757188D01*
X71591544Y-32593216D01*
X71690147Y-32445646D01*
X71815646Y-32320147D01*
X71963216Y-32221544D01*
X72127188Y-32153624D01*
X72276488Y-32123927D01*
X72301258Y-32119000D01*
X72478742Y-32119000D01*
X72503512Y-32123927D01*
G37*
G36*
X82663512Y-32123927D02*
G01*
X82812812Y-32153624D01*
X82976784Y-32221544D01*
X83124354Y-32320147D01*
X83249853Y-32445646D01*
X83348456Y-32593216D01*
X83416376Y-32757188D01*
X83451000Y-32931259D01*
X83451000Y-33108741D01*
X83416376Y-33282812D01*
X83348456Y-33446784D01*
X83249853Y-33594354D01*
X83124354Y-33719853D01*
X82976784Y-33818456D01*
X82812812Y-33886376D01*
X82663512Y-33916073D01*
X82638742Y-33921000D01*
X82461258Y-33921000D01*
X82436488Y-33916073D01*
X82287188Y-33886376D01*
X82123216Y-33818456D01*
X81975646Y-33719853D01*
X81850147Y-33594354D01*
X81751544Y-33446784D01*
X81683624Y-33282812D01*
X81649000Y-33108741D01*
X81649000Y-32931259D01*
X81683624Y-32757188D01*
X81751544Y-32593216D01*
X81850147Y-32445646D01*
X81975646Y-32320147D01*
X82123216Y-32221544D01*
X82287188Y-32153624D01*
X82436488Y-32123927D01*
X82461258Y-32119000D01*
X82638742Y-32119000D01*
X82663512Y-32123927D01*
G37*
G36*
X75043512Y-32123927D02*
G01*
X75192812Y-32153624D01*
X75356784Y-32221544D01*
X75504354Y-32320147D01*
X75629853Y-32445646D01*
X75728456Y-32593216D01*
X75796376Y-32757188D01*
X75831000Y-32931259D01*
X75831000Y-33108741D01*
X75796376Y-33282812D01*
X75728456Y-33446784D01*
X75629853Y-33594354D01*
X75504354Y-33719853D01*
X75356784Y-33818456D01*
X75192812Y-33886376D01*
X75043512Y-33916073D01*
X75018742Y-33921000D01*
X74841258Y-33921000D01*
X74816488Y-33916073D01*
X74667188Y-33886376D01*
X74503216Y-33818456D01*
X74355646Y-33719853D01*
X74230147Y-33594354D01*
X74131544Y-33446784D01*
X74063624Y-33282812D01*
X74029000Y-33108741D01*
X74029000Y-32931259D01*
X74063624Y-32757188D01*
X74131544Y-32593216D01*
X74230147Y-32445646D01*
X74355646Y-32320147D01*
X74503216Y-32221544D01*
X74667188Y-32153624D01*
X74816488Y-32123927D01*
X74841258Y-32119000D01*
X75018742Y-32119000D01*
X75043512Y-32123927D01*
G37*
G36*
X80123512Y-32123927D02*
G01*
X80272812Y-32153624D01*
X80436784Y-32221544D01*
X80584354Y-32320147D01*
X80709853Y-32445646D01*
X80808456Y-32593216D01*
X80876376Y-32757188D01*
X80911000Y-32931259D01*
X80911000Y-33108741D01*
X80876376Y-33282812D01*
X80808456Y-33446784D01*
X80709853Y-33594354D01*
X80584354Y-33719853D01*
X80436784Y-33818456D01*
X80272812Y-33886376D01*
X80123512Y-33916073D01*
X80098742Y-33921000D01*
X79921258Y-33921000D01*
X79896488Y-33916073D01*
X79747188Y-33886376D01*
X79583216Y-33818456D01*
X79435646Y-33719853D01*
X79310147Y-33594354D01*
X79211544Y-33446784D01*
X79143624Y-33282812D01*
X79109000Y-33108741D01*
X79109000Y-32931259D01*
X79143624Y-32757188D01*
X79211544Y-32593216D01*
X79310147Y-32445646D01*
X79435646Y-32320147D01*
X79583216Y-32221544D01*
X79747188Y-32153624D01*
X79896488Y-32123927D01*
X79921258Y-32119000D01*
X80098742Y-32119000D01*
X80123512Y-32123927D01*
G37*
G36*
X77583512Y-32123927D02*
G01*
X77732812Y-32153624D01*
X77896784Y-32221544D01*
X78044354Y-32320147D01*
X78169853Y-32445646D01*
X78268456Y-32593216D01*
X78336376Y-32757188D01*
X78371000Y-32931259D01*
X78371000Y-33108741D01*
X78336376Y-33282812D01*
X78268456Y-33446784D01*
X78169853Y-33594354D01*
X78044354Y-33719853D01*
X77896784Y-33818456D01*
X77732812Y-33886376D01*
X77583512Y-33916073D01*
X77558742Y-33921000D01*
X77381258Y-33921000D01*
X77356488Y-33916073D01*
X77207188Y-33886376D01*
X77043216Y-33818456D01*
X76895646Y-33719853D01*
X76770147Y-33594354D01*
X76671544Y-33446784D01*
X76603624Y-33282812D01*
X76569000Y-33108741D01*
X76569000Y-32931259D01*
X76603624Y-32757188D01*
X76671544Y-32593216D01*
X76770147Y-32445646D01*
X76895646Y-32320147D01*
X77043216Y-32221544D01*
X77207188Y-32153624D01*
X77356488Y-32123927D01*
X77381258Y-32119000D01*
X77558742Y-32119000D01*
X77583512Y-32123927D01*
G37*
G36*
X32125256Y-30141298D02*
G01*
X32231579Y-30162447D01*
X32532042Y-30286903D01*
X32802451Y-30467585D01*
X33032415Y-30697549D01*
X33213097Y-30967958D01*
X33337553Y-31268421D01*
X33401000Y-31587391D01*
X33401000Y-31912609D01*
X33337553Y-32231579D01*
X33213097Y-32532042D01*
X33032415Y-32802451D01*
X32802451Y-33032415D01*
X32532042Y-33213097D01*
X32231579Y-33337553D01*
X32125256Y-33358702D01*
X31912611Y-33401000D01*
X31587389Y-33401000D01*
X31374744Y-33358702D01*
X31268421Y-33337553D01*
X30967958Y-33213097D01*
X30697549Y-33032415D01*
X30467585Y-32802451D01*
X30286903Y-32532042D01*
X30162447Y-32231579D01*
X30099000Y-31912609D01*
X30099000Y-31587391D01*
X30162447Y-31268421D01*
X30286903Y-30967958D01*
X30467585Y-30697549D01*
X30697549Y-30467585D01*
X30967958Y-30286903D01*
X31268421Y-30162447D01*
X31374744Y-30141298D01*
X31587389Y-30099000D01*
X31912611Y-30099000D01*
X32125256Y-30141298D01*
G37*
G36*
X126105256Y-30141298D02*
G01*
X126211579Y-30162447D01*
X126512042Y-30286903D01*
X126782451Y-30467585D01*
X127012415Y-30697549D01*
X127193097Y-30967958D01*
X127317553Y-31268421D01*
X127381000Y-31587391D01*
X127381000Y-31912609D01*
X127317553Y-32231579D01*
X127193097Y-32532042D01*
X127012415Y-32802451D01*
X126782451Y-33032415D01*
X126512042Y-33213097D01*
X126211579Y-33337553D01*
X126105256Y-33358702D01*
X125892611Y-33401000D01*
X125567389Y-33401000D01*
X125354744Y-33358702D01*
X125248421Y-33337553D01*
X124947958Y-33213097D01*
X124677549Y-33032415D01*
X124447585Y-32802451D01*
X124266903Y-32532042D01*
X124142447Y-32231579D01*
X124079000Y-31912609D01*
X124079000Y-31587391D01*
X124142447Y-31268421D01*
X124266903Y-30967958D01*
X124447585Y-30697549D01*
X124677549Y-30467585D01*
X124947958Y-30286903D01*
X125248421Y-30162447D01*
X125354744Y-30141298D01*
X125567389Y-30099000D01*
X125892611Y-30099000D01*
X126105256Y-30141298D01*
G37*
M02*
