G04 #@! TF.GenerationSoftware,KiCad,Pcbnew,5.0.2+dfsg1-1*
G04 #@! TF.CreationDate,2019-09-11T11:00:06+02:00*
G04 #@! TF.ProjectId,Bottom-Plate,426f7474-6f6d-42d5-906c-6174652e6b69,rev?*
G04 #@! TF.SameCoordinates,Original*
G04 #@! TF.FileFunction,Soldermask,Top*
G04 #@! TF.FilePolarity,Negative*
%FSLAX46Y46*%
G04 Gerber Fmt 4.6, Leading zero omitted, Abs format (unit mm)*
G04 Created by KiCad (PCBNEW 5.0.2+dfsg1-1) date wo 11 sep 2019 11:00:06 CEST*
%MOMM*%
%LPD*%
G01*
G04 APERTURE LIST*
%ADD10C,0.100000*%
G04 APERTURE END LIST*
D10*
G36*
X126105256Y-124121298D02*
X126211579Y-124142447D01*
X126512042Y-124266903D01*
X126778852Y-124445180D01*
X126782454Y-124447587D01*
X127012413Y-124677546D01*
X127193098Y-124947960D01*
X127317553Y-125248422D01*
X127381000Y-125567389D01*
X127381000Y-125892611D01*
X127317553Y-126211578D01*
X127193098Y-126512040D01*
X127012413Y-126782454D01*
X126782454Y-127012413D01*
X126782451Y-127012415D01*
X126512042Y-127193097D01*
X126211579Y-127317553D01*
X126105256Y-127338702D01*
X125892611Y-127381000D01*
X125567389Y-127381000D01*
X125354744Y-127338702D01*
X125248421Y-127317553D01*
X124947958Y-127193097D01*
X124677549Y-127012415D01*
X124677546Y-127012413D01*
X124447587Y-126782454D01*
X124266902Y-126512040D01*
X124142447Y-126211578D01*
X124079000Y-125892611D01*
X124079000Y-125567389D01*
X124142447Y-125248422D01*
X124266902Y-124947960D01*
X124447587Y-124677546D01*
X124677546Y-124447587D01*
X124681148Y-124445180D01*
X124947958Y-124266903D01*
X125248421Y-124142447D01*
X125354744Y-124121298D01*
X125567389Y-124079000D01*
X125892611Y-124079000D01*
X126105256Y-124121298D01*
X126105256Y-124121298D01*
G37*
G36*
X32125256Y-124121298D02*
X32231579Y-124142447D01*
X32532042Y-124266903D01*
X32798852Y-124445180D01*
X32802454Y-124447587D01*
X33032413Y-124677546D01*
X33213098Y-124947960D01*
X33337553Y-125248422D01*
X33401000Y-125567389D01*
X33401000Y-125892611D01*
X33337553Y-126211578D01*
X33213098Y-126512040D01*
X33032413Y-126782454D01*
X32802454Y-127012413D01*
X32802451Y-127012415D01*
X32532042Y-127193097D01*
X32231579Y-127317553D01*
X32125256Y-127338702D01*
X31912611Y-127381000D01*
X31587389Y-127381000D01*
X31374744Y-127338702D01*
X31268421Y-127317553D01*
X30967958Y-127193097D01*
X30697549Y-127012415D01*
X30697546Y-127012413D01*
X30467587Y-126782454D01*
X30286902Y-126512040D01*
X30162447Y-126211578D01*
X30099000Y-125892611D01*
X30099000Y-125567389D01*
X30162447Y-125248422D01*
X30286902Y-124947960D01*
X30467587Y-124677546D01*
X30697546Y-124447587D01*
X30701148Y-124445180D01*
X30967958Y-124266903D01*
X31268421Y-124142447D01*
X31374744Y-124121298D01*
X31587389Y-124079000D01*
X31912611Y-124079000D01*
X32125256Y-124121298D01*
X32125256Y-124121298D01*
G37*
G36*
X124835256Y-101261298D02*
X124941579Y-101282447D01*
X125242042Y-101406903D01*
X125508852Y-101585180D01*
X125512454Y-101587587D01*
X125742413Y-101817546D01*
X125923098Y-102087960D01*
X126047553Y-102388422D01*
X126111000Y-102707389D01*
X126111000Y-103032611D01*
X126047553Y-103351578D01*
X125923098Y-103652040D01*
X125742413Y-103922454D01*
X125512454Y-104152413D01*
X125512451Y-104152415D01*
X125242042Y-104333097D01*
X124941579Y-104457553D01*
X124835256Y-104478702D01*
X124622611Y-104521000D01*
X124297389Y-104521000D01*
X124084744Y-104478702D01*
X123978421Y-104457553D01*
X123677958Y-104333097D01*
X123407549Y-104152415D01*
X123407546Y-104152413D01*
X123177587Y-103922454D01*
X122996902Y-103652040D01*
X122872447Y-103351578D01*
X122809000Y-103032611D01*
X122809000Y-102707389D01*
X122872447Y-102388422D01*
X122996902Y-102087960D01*
X123177587Y-101817546D01*
X123407546Y-101587587D01*
X123411148Y-101585180D01*
X123677958Y-101406903D01*
X123978421Y-101282447D01*
X124084744Y-101261298D01*
X124297389Y-101219000D01*
X124622611Y-101219000D01*
X124835256Y-101261298D01*
X124835256Y-101261298D01*
G37*
G36*
X42285256Y-101261298D02*
X42391579Y-101282447D01*
X42692042Y-101406903D01*
X42958852Y-101585180D01*
X42962454Y-101587587D01*
X43192413Y-101817546D01*
X43373098Y-102087960D01*
X43497553Y-102388422D01*
X43561000Y-102707389D01*
X43561000Y-103032611D01*
X43497553Y-103351578D01*
X43373098Y-103652040D01*
X43192413Y-103922454D01*
X42962454Y-104152413D01*
X42962451Y-104152415D01*
X42692042Y-104333097D01*
X42391579Y-104457553D01*
X42285256Y-104478702D01*
X42072611Y-104521000D01*
X41747389Y-104521000D01*
X41534744Y-104478702D01*
X41428421Y-104457553D01*
X41127958Y-104333097D01*
X40857549Y-104152415D01*
X40857546Y-104152413D01*
X40627587Y-103922454D01*
X40446902Y-103652040D01*
X40322447Y-103351578D01*
X40259000Y-103032611D01*
X40259000Y-102707389D01*
X40322447Y-102388422D01*
X40446902Y-102087960D01*
X40627587Y-101817546D01*
X40857546Y-101587587D01*
X40861148Y-101585180D01*
X41127958Y-101406903D01*
X41428421Y-101282447D01*
X41534744Y-101261298D01*
X41747389Y-101219000D01*
X42072611Y-101219000D01*
X42285256Y-101261298D01*
X42285256Y-101261298D01*
G37*
G36*
X118485256Y-53001298D02*
X118591579Y-53022447D01*
X118892042Y-53146903D01*
X119158852Y-53325180D01*
X119162454Y-53327587D01*
X119392413Y-53557546D01*
X119573098Y-53827960D01*
X119697553Y-54128422D01*
X119761000Y-54447389D01*
X119761000Y-54772611D01*
X119697553Y-55091578D01*
X119573098Y-55392040D01*
X119392413Y-55662454D01*
X119162454Y-55892413D01*
X119162451Y-55892415D01*
X118892042Y-56073097D01*
X118591579Y-56197553D01*
X118485256Y-56218702D01*
X118272611Y-56261000D01*
X117947389Y-56261000D01*
X117734744Y-56218702D01*
X117628421Y-56197553D01*
X117327958Y-56073097D01*
X117057549Y-55892415D01*
X117057546Y-55892413D01*
X116827587Y-55662454D01*
X116646902Y-55392040D01*
X116522447Y-55091578D01*
X116459000Y-54772611D01*
X116459000Y-54447389D01*
X116522447Y-54128422D01*
X116646902Y-53827960D01*
X116827587Y-53557546D01*
X117057546Y-53327587D01*
X117061148Y-53325180D01*
X117327958Y-53146903D01*
X117628421Y-53022447D01*
X117734744Y-53001298D01*
X117947389Y-52959000D01*
X118272611Y-52959000D01*
X118485256Y-53001298D01*
X118485256Y-53001298D01*
G37*
G36*
X43555256Y-53001298D02*
X43661579Y-53022447D01*
X43962042Y-53146903D01*
X44228852Y-53325180D01*
X44232454Y-53327587D01*
X44462413Y-53557546D01*
X44643098Y-53827960D01*
X44767553Y-54128422D01*
X44831000Y-54447389D01*
X44831000Y-54772611D01*
X44767553Y-55091578D01*
X44643098Y-55392040D01*
X44462413Y-55662454D01*
X44232454Y-55892413D01*
X44232451Y-55892415D01*
X43962042Y-56073097D01*
X43661579Y-56197553D01*
X43555256Y-56218702D01*
X43342611Y-56261000D01*
X43017389Y-56261000D01*
X42804744Y-56218702D01*
X42698421Y-56197553D01*
X42397958Y-56073097D01*
X42127549Y-55892415D01*
X42127546Y-55892413D01*
X41897587Y-55662454D01*
X41716902Y-55392040D01*
X41592447Y-55091578D01*
X41529000Y-54772611D01*
X41529000Y-54447389D01*
X41592447Y-54128422D01*
X41716902Y-53827960D01*
X41897587Y-53557546D01*
X42127546Y-53327587D01*
X42131148Y-53325180D01*
X42397958Y-53146903D01*
X42698421Y-53022447D01*
X42804744Y-53001298D01*
X43017389Y-52959000D01*
X43342611Y-52959000D01*
X43555256Y-53001298D01*
X43555256Y-53001298D01*
G37*
G36*
X126105256Y-30141298D02*
X126211579Y-30162447D01*
X126512042Y-30286903D01*
X126778852Y-30465180D01*
X126782454Y-30467587D01*
X127012413Y-30697546D01*
X127193098Y-30967960D01*
X127317553Y-31268422D01*
X127381000Y-31587389D01*
X127381000Y-31912611D01*
X127317553Y-32231578D01*
X127193098Y-32532040D01*
X127012413Y-32802454D01*
X126782454Y-33032413D01*
X126782451Y-33032415D01*
X126512042Y-33213097D01*
X126211579Y-33337553D01*
X126105256Y-33358702D01*
X125892611Y-33401000D01*
X125567389Y-33401000D01*
X125354744Y-33358702D01*
X125248421Y-33337553D01*
X124947958Y-33213097D01*
X124677549Y-33032415D01*
X124677546Y-33032413D01*
X124447587Y-32802454D01*
X124266902Y-32532040D01*
X124142447Y-32231578D01*
X124079000Y-31912611D01*
X124079000Y-31587389D01*
X124142447Y-31268422D01*
X124266902Y-30967960D01*
X124447587Y-30697546D01*
X124677546Y-30467587D01*
X124681148Y-30465180D01*
X124947958Y-30286903D01*
X125248421Y-30162447D01*
X125354744Y-30141298D01*
X125567389Y-30099000D01*
X125892611Y-30099000D01*
X126105256Y-30141298D01*
X126105256Y-30141298D01*
G37*
G36*
X32125256Y-30141298D02*
X32231579Y-30162447D01*
X32532042Y-30286903D01*
X32798852Y-30465180D01*
X32802454Y-30467587D01*
X33032413Y-30697546D01*
X33213098Y-30967960D01*
X33337553Y-31268422D01*
X33401000Y-31587389D01*
X33401000Y-31912611D01*
X33337553Y-32231578D01*
X33213098Y-32532040D01*
X33032413Y-32802454D01*
X32802454Y-33032413D01*
X32802451Y-33032415D01*
X32532042Y-33213097D01*
X32231579Y-33337553D01*
X32125256Y-33358702D01*
X31912611Y-33401000D01*
X31587389Y-33401000D01*
X31374744Y-33358702D01*
X31268421Y-33337553D01*
X30967958Y-33213097D01*
X30697549Y-33032415D01*
X30697546Y-33032413D01*
X30467587Y-32802454D01*
X30286902Y-32532040D01*
X30162447Y-32231578D01*
X30099000Y-31912611D01*
X30099000Y-31587389D01*
X30162447Y-31268422D01*
X30286902Y-30967960D01*
X30467587Y-30697546D01*
X30697546Y-30467587D01*
X30701148Y-30465180D01*
X30967958Y-30286903D01*
X31268421Y-30162447D01*
X31374744Y-30141298D01*
X31587389Y-30099000D01*
X31912611Y-30099000D01*
X32125256Y-30141298D01*
X32125256Y-30141298D01*
G37*
M02*
