G04 #@! TF.GenerationSoftware,KiCad,Pcbnew,5.0.2+dfsg1-1*
G04 #@! TF.CreationDate,2019-09-11T11:00:06+02:00*
G04 #@! TF.ProjectId,Bottom-Plate,426f7474-6f6d-42d5-906c-6174652e6b69,rev?*
G04 #@! TF.SameCoordinates,Original*
G04 #@! TF.FileFunction,Legend,Bot*
G04 #@! TF.FilePolarity,Positive*
%FSLAX46Y46*%
G04 Gerber Fmt 4.6, Leading zero omitted, Abs format (unit mm)*
G04 Created by KiCad (PCBNEW 5.0.2+dfsg1-1) date wo 11 sep 2019 11:00:06 CEST*
%MOMM*%
%LPD*%
G01*
G04 APERTURE LIST*
%ADD10C,0.250000*%
%ADD11C,0.600000*%
%ADD12C,0.100000*%
G04 APERTURE END LIST*
D10*
X56504761Y-85759523D02*
X56504761Y-84279523D01*
X57139047Y-85759523D02*
X57139047Y-84984285D01*
X57068571Y-84843333D01*
X56927619Y-84772857D01*
X56716190Y-84772857D01*
X56575238Y-84843333D01*
X56504761Y-84913809D01*
X57632380Y-84772857D02*
X58196190Y-84772857D01*
X57843809Y-84279523D02*
X57843809Y-85548095D01*
X57914285Y-85689047D01*
X58055238Y-85759523D01*
X58196190Y-85759523D01*
X58478095Y-84772857D02*
X59041904Y-84772857D01*
X58689523Y-84279523D02*
X58689523Y-85548095D01*
X58759999Y-85689047D01*
X58900952Y-85759523D01*
X59041904Y-85759523D01*
X59535238Y-84772857D02*
X59535238Y-86252857D01*
X59535238Y-84843333D02*
X59676190Y-84772857D01*
X59958095Y-84772857D01*
X60099047Y-84843333D01*
X60169523Y-84913809D01*
X60239999Y-85054761D01*
X60239999Y-85477619D01*
X60169523Y-85618571D01*
X60099047Y-85689047D01*
X59958095Y-85759523D01*
X59676190Y-85759523D01*
X59535238Y-85689047D01*
X60803809Y-85689047D02*
X60944761Y-85759523D01*
X61226666Y-85759523D01*
X61367619Y-85689047D01*
X61438095Y-85548095D01*
X61438095Y-85477619D01*
X61367619Y-85336666D01*
X61226666Y-85266190D01*
X61015238Y-85266190D01*
X60874285Y-85195714D01*
X60803809Y-85054761D01*
X60803809Y-84984285D01*
X60874285Y-84843333D01*
X61015238Y-84772857D01*
X61226666Y-84772857D01*
X61367619Y-84843333D01*
X62072380Y-85618571D02*
X62142857Y-85689047D01*
X62072380Y-85759523D01*
X62001904Y-85689047D01*
X62072380Y-85618571D01*
X62072380Y-85759523D01*
X62072380Y-84843333D02*
X62142857Y-84913809D01*
X62072380Y-84984285D01*
X62001904Y-84913809D01*
X62072380Y-84843333D01*
X62072380Y-84984285D01*
X63834285Y-84209047D02*
X62565714Y-86111904D01*
X65384761Y-84209047D02*
X64116190Y-86111904D01*
X66512380Y-84772857D02*
X66512380Y-85970952D01*
X66441904Y-86111904D01*
X66371428Y-86182380D01*
X66230476Y-86252857D01*
X66019047Y-86252857D01*
X65878095Y-86182380D01*
X66512380Y-85689047D02*
X66371428Y-85759523D01*
X66089523Y-85759523D01*
X65948571Y-85689047D01*
X65878095Y-85618571D01*
X65807619Y-85477619D01*
X65807619Y-85054761D01*
X65878095Y-84913809D01*
X65948571Y-84843333D01*
X66089523Y-84772857D01*
X66371428Y-84772857D01*
X66512380Y-84843333D01*
X67217142Y-85759523D02*
X67217142Y-84772857D01*
X67217142Y-84279523D02*
X67146666Y-84350000D01*
X67217142Y-84420476D01*
X67287619Y-84350000D01*
X67217142Y-84279523D01*
X67217142Y-84420476D01*
X67710476Y-84772857D02*
X68274285Y-84772857D01*
X67921904Y-84279523D02*
X67921904Y-85548095D01*
X67992380Y-85689047D01*
X68133333Y-85759523D01*
X68274285Y-85759523D01*
X68767619Y-85759523D02*
X68767619Y-84279523D01*
X69401904Y-85759523D02*
X69401904Y-84984285D01*
X69331428Y-84843333D01*
X69190476Y-84772857D01*
X68979047Y-84772857D01*
X68838095Y-84843333D01*
X68767619Y-84913809D01*
X70740952Y-84772857D02*
X70740952Y-85759523D01*
X70106666Y-84772857D02*
X70106666Y-85548095D01*
X70177142Y-85689047D01*
X70318095Y-85759523D01*
X70529523Y-85759523D01*
X70670476Y-85689047D01*
X70740952Y-85618571D01*
X71445714Y-85759523D02*
X71445714Y-84279523D01*
X71445714Y-84843333D02*
X71586666Y-84772857D01*
X71868571Y-84772857D01*
X72009523Y-84843333D01*
X72080000Y-84913809D01*
X72150476Y-85054761D01*
X72150476Y-85477619D01*
X72080000Y-85618571D01*
X72009523Y-85689047D01*
X71868571Y-85759523D01*
X71586666Y-85759523D01*
X71445714Y-85689047D01*
X72784761Y-85618571D02*
X72855238Y-85689047D01*
X72784761Y-85759523D01*
X72714285Y-85689047D01*
X72784761Y-85618571D01*
X72784761Y-85759523D01*
X74123809Y-85689047D02*
X73982857Y-85759523D01*
X73700952Y-85759523D01*
X73560000Y-85689047D01*
X73489523Y-85618571D01*
X73419047Y-85477619D01*
X73419047Y-85054761D01*
X73489523Y-84913809D01*
X73560000Y-84843333D01*
X73700952Y-84772857D01*
X73982857Y-84772857D01*
X74123809Y-84843333D01*
X74969523Y-85759523D02*
X74828571Y-85689047D01*
X74758095Y-85618571D01*
X74687619Y-85477619D01*
X74687619Y-85054761D01*
X74758095Y-84913809D01*
X74828571Y-84843333D01*
X74969523Y-84772857D01*
X75180952Y-84772857D01*
X75321904Y-84843333D01*
X75392380Y-84913809D01*
X75462857Y-85054761D01*
X75462857Y-85477619D01*
X75392380Y-85618571D01*
X75321904Y-85689047D01*
X75180952Y-85759523D01*
X74969523Y-85759523D01*
X76097142Y-85759523D02*
X76097142Y-84772857D01*
X76097142Y-84913809D02*
X76167619Y-84843333D01*
X76308571Y-84772857D01*
X76520000Y-84772857D01*
X76660952Y-84843333D01*
X76731428Y-84984285D01*
X76731428Y-85759523D01*
X76731428Y-84984285D02*
X76801904Y-84843333D01*
X76942857Y-84772857D01*
X77154285Y-84772857D01*
X77295238Y-84843333D01*
X77365714Y-84984285D01*
X77365714Y-85759523D01*
X79127619Y-84209047D02*
X77859047Y-86111904D01*
X79620952Y-85759523D02*
X79620952Y-84279523D01*
X79973333Y-84279523D01*
X80184761Y-84350000D01*
X80325714Y-84490952D01*
X80396190Y-84631904D01*
X80466666Y-84913809D01*
X80466666Y-85125238D01*
X80396190Y-85407142D01*
X80325714Y-85548095D01*
X80184761Y-85689047D01*
X79973333Y-85759523D01*
X79620952Y-85759523D01*
X81735238Y-84772857D02*
X81735238Y-85759523D01*
X81100952Y-84772857D02*
X81100952Y-85548095D01*
X81171428Y-85689047D01*
X81312380Y-85759523D01*
X81523809Y-85759523D01*
X81664761Y-85689047D01*
X81735238Y-85618571D01*
X82228571Y-84772857D02*
X82792380Y-84772857D01*
X82440000Y-84279523D02*
X82440000Y-85548095D01*
X82510476Y-85689047D01*
X82651428Y-85759523D01*
X82792380Y-85759523D01*
X83920000Y-85689047D02*
X83779047Y-85759523D01*
X83497142Y-85759523D01*
X83356190Y-85689047D01*
X83285714Y-85618571D01*
X83215238Y-85477619D01*
X83215238Y-85054761D01*
X83285714Y-84913809D01*
X83356190Y-84843333D01*
X83497142Y-84772857D01*
X83779047Y-84772857D01*
X83920000Y-84843333D01*
X84554285Y-85759523D02*
X84554285Y-84279523D01*
X85188571Y-85759523D02*
X85188571Y-84984285D01*
X85118095Y-84843333D01*
X84977142Y-84772857D01*
X84765714Y-84772857D01*
X84624761Y-84843333D01*
X84554285Y-84913809D01*
X85893333Y-85759523D02*
X85893333Y-84279523D01*
X86386666Y-85336666D01*
X86880000Y-84279523D01*
X86880000Y-85759523D01*
X88219047Y-85759523D02*
X88219047Y-84984285D01*
X88148571Y-84843333D01*
X88007619Y-84772857D01*
X87725714Y-84772857D01*
X87584761Y-84843333D01*
X88219047Y-85689047D02*
X88078095Y-85759523D01*
X87725714Y-85759523D01*
X87584761Y-85689047D01*
X87514285Y-85548095D01*
X87514285Y-85407142D01*
X87584761Y-85266190D01*
X87725714Y-85195714D01*
X88078095Y-85195714D01*
X88219047Y-85125238D01*
X88923809Y-85759523D02*
X88923809Y-84279523D01*
X89064761Y-85195714D02*
X89487619Y-85759523D01*
X89487619Y-84772857D02*
X88923809Y-85336666D01*
X90685714Y-85689047D02*
X90544761Y-85759523D01*
X90262857Y-85759523D01*
X90121904Y-85689047D01*
X90051428Y-85548095D01*
X90051428Y-84984285D01*
X90121904Y-84843333D01*
X90262857Y-84772857D01*
X90544761Y-84772857D01*
X90685714Y-84843333D01*
X90756190Y-84984285D01*
X90756190Y-85125238D01*
X90051428Y-85266190D01*
X91390476Y-85759523D02*
X91390476Y-84772857D01*
X91390476Y-85054761D02*
X91460952Y-84913809D01*
X91531428Y-84843333D01*
X91672380Y-84772857D01*
X91813333Y-84772857D01*
X93363809Y-84209047D02*
X92095238Y-86111904D01*
X93857142Y-85759523D02*
X93857142Y-84279523D01*
X94209523Y-84279523D01*
X94420952Y-84350000D01*
X94561904Y-84490952D01*
X94632380Y-84631904D01*
X94702857Y-84913809D01*
X94702857Y-85125238D01*
X94632380Y-85407142D01*
X94561904Y-85548095D01*
X94420952Y-85689047D01*
X94209523Y-85759523D01*
X93857142Y-85759523D01*
X95337142Y-85759523D02*
X95337142Y-84279523D01*
X95830476Y-85336666D01*
X96323809Y-84279523D01*
X96323809Y-85759523D01*
X97028571Y-85195714D02*
X98156190Y-85195714D01*
X99142857Y-84279523D02*
X99283809Y-84279523D01*
X99424761Y-84350000D01*
X99495238Y-84420476D01*
X99565714Y-84561428D01*
X99636190Y-84843333D01*
X99636190Y-85195714D01*
X99565714Y-85477619D01*
X99495238Y-85618571D01*
X99424761Y-85689047D01*
X99283809Y-85759523D01*
X99142857Y-85759523D01*
X99001904Y-85689047D01*
X98931428Y-85618571D01*
X98860952Y-85477619D01*
X98790476Y-85195714D01*
X98790476Y-84843333D01*
X98860952Y-84561428D01*
X98931428Y-84420476D01*
X99001904Y-84350000D01*
X99142857Y-84279523D01*
X100200000Y-84420476D02*
X100270476Y-84350000D01*
X100411428Y-84279523D01*
X100763809Y-84279523D01*
X100904761Y-84350000D01*
X100975238Y-84420476D01*
X101045714Y-84561428D01*
X101045714Y-84702380D01*
X100975238Y-84913809D01*
X100129523Y-85759523D01*
X101045714Y-85759523D01*
X56437619Y-82139523D02*
X56437619Y-80239523D01*
X56889999Y-80239523D01*
X57161428Y-80330000D01*
X57342380Y-80510952D01*
X57432857Y-80691904D01*
X57523333Y-81053809D01*
X57523333Y-81325238D01*
X57432857Y-81687142D01*
X57342380Y-81868095D01*
X57161428Y-82049047D01*
X56889999Y-82139523D01*
X56437619Y-82139523D01*
X58337619Y-81144285D02*
X58970952Y-81144285D01*
X59242380Y-82139523D02*
X58337619Y-82139523D01*
X58337619Y-80239523D01*
X59242380Y-80239523D01*
X59966190Y-82049047D02*
X60237619Y-82139523D01*
X60689999Y-82139523D01*
X60870952Y-82049047D01*
X60961428Y-81958571D01*
X61051904Y-81777619D01*
X61051904Y-81596666D01*
X60961428Y-81415714D01*
X60870952Y-81325238D01*
X60689999Y-81234761D01*
X60328095Y-81144285D01*
X60147142Y-81053809D01*
X60056666Y-80963333D01*
X59966190Y-80782380D01*
X59966190Y-80601428D01*
X60056666Y-80420476D01*
X60147142Y-80330000D01*
X60328095Y-80239523D01*
X60780476Y-80239523D01*
X61051904Y-80330000D01*
X61866190Y-82139523D02*
X61866190Y-80239523D01*
X63766190Y-80330000D02*
X63585238Y-80239523D01*
X63313809Y-80239523D01*
X63042380Y-80330000D01*
X62861428Y-80510952D01*
X62770952Y-80691904D01*
X62680476Y-81053809D01*
X62680476Y-81325238D01*
X62770952Y-81687142D01*
X62861428Y-81868095D01*
X63042380Y-82049047D01*
X63313809Y-82139523D01*
X63494761Y-82139523D01*
X63766190Y-82049047D01*
X63856666Y-81958571D01*
X63856666Y-81325238D01*
X63494761Y-81325238D01*
X64670952Y-82139523D02*
X64670952Y-80239523D01*
X65756666Y-82139523D01*
X65756666Y-80239523D01*
X66661428Y-81144285D02*
X67294761Y-81144285D01*
X67566190Y-82139523D02*
X66661428Y-82139523D01*
X66661428Y-80239523D01*
X67566190Y-80239523D01*
X68380476Y-82139523D02*
X68380476Y-80239523D01*
X68832857Y-80239523D01*
X69104285Y-80330000D01*
X69285238Y-80510952D01*
X69375714Y-80691904D01*
X69466190Y-81053809D01*
X69466190Y-81325238D01*
X69375714Y-81687142D01*
X69285238Y-81868095D01*
X69104285Y-82049047D01*
X68832857Y-82139523D01*
X68380476Y-82139523D01*
X72361428Y-81144285D02*
X72632857Y-81234761D01*
X72723333Y-81325238D01*
X72813809Y-81506190D01*
X72813809Y-81777619D01*
X72723333Y-81958571D01*
X72632857Y-82049047D01*
X72451904Y-82139523D01*
X71728095Y-82139523D01*
X71728095Y-80239523D01*
X72361428Y-80239523D01*
X72542380Y-80330000D01*
X72632857Y-80420476D01*
X72723333Y-80601428D01*
X72723333Y-80782380D01*
X72632857Y-80963333D01*
X72542380Y-81053809D01*
X72361428Y-81144285D01*
X71728095Y-81144285D01*
X73990000Y-81234761D02*
X73990000Y-82139523D01*
X73356666Y-80239523D02*
X73990000Y-81234761D01*
X74623333Y-80239523D01*
X77790000Y-82139523D02*
X77156666Y-81234761D01*
X76704285Y-82139523D02*
X76704285Y-80239523D01*
X77428095Y-80239523D01*
X77609047Y-80330000D01*
X77699523Y-80420476D01*
X77790000Y-80601428D01*
X77790000Y-80872857D01*
X77699523Y-81053809D01*
X77609047Y-81144285D01*
X77428095Y-81234761D01*
X76704285Y-81234761D01*
X78604285Y-80239523D02*
X78604285Y-81777619D01*
X78694761Y-81958571D01*
X78785238Y-82049047D01*
X78966190Y-82139523D01*
X79328095Y-82139523D01*
X79509047Y-82049047D01*
X79599523Y-81958571D01*
X79690000Y-81777619D01*
X79690000Y-80239523D01*
X80594761Y-80239523D02*
X80594761Y-81777619D01*
X80685238Y-81958571D01*
X80775714Y-82049047D01*
X80956666Y-82139523D01*
X81318571Y-82139523D01*
X81499523Y-82049047D01*
X81590000Y-81958571D01*
X81680476Y-81777619D01*
X81680476Y-80239523D01*
X82585238Y-82139523D02*
X82585238Y-80239523D01*
X83037619Y-80239523D01*
X83309047Y-80330000D01*
X83490000Y-80510952D01*
X83580476Y-80691904D01*
X83670952Y-81053809D01*
X83670952Y-81325238D01*
X83580476Y-81687142D01*
X83490000Y-81868095D01*
X83309047Y-82049047D01*
X83037619Y-82139523D01*
X82585238Y-82139523D01*
X85661428Y-80239523D02*
X86294761Y-82139523D01*
X86928095Y-80239523D01*
X87470952Y-81596666D02*
X88375714Y-81596666D01*
X87290000Y-82139523D02*
X87923333Y-80239523D01*
X88556666Y-82139523D01*
X89190000Y-82139523D02*
X89190000Y-80239523D01*
X90275714Y-82139523D01*
X90275714Y-80239523D01*
X93261428Y-81144285D02*
X92628095Y-81144285D01*
X92628095Y-82139523D02*
X92628095Y-80239523D01*
X93532857Y-80239523D01*
X94166190Y-81596666D02*
X95070952Y-81596666D01*
X93985238Y-82139523D02*
X94618571Y-80239523D01*
X95251904Y-82139523D01*
X96789999Y-82139523D02*
X95885238Y-82139523D01*
X95885238Y-80239523D01*
X97423333Y-82139523D02*
X97423333Y-80239523D01*
X98328095Y-81144285D02*
X98961428Y-81144285D01*
X99232857Y-82139523D02*
X98328095Y-82139523D01*
X98328095Y-80239523D01*
X99232857Y-80239523D01*
X101132857Y-82139523D02*
X100499523Y-81234761D01*
X100047142Y-82139523D02*
X100047142Y-80239523D01*
X100770952Y-80239523D01*
X100951904Y-80330000D01*
X101042380Y-80420476D01*
X101132857Y-80601428D01*
X101132857Y-80872857D01*
X101042380Y-81053809D01*
X100951904Y-81144285D01*
X100770952Y-81234761D01*
X100047142Y-81234761D01*
D11*
X52240000Y-76287142D02*
X52240000Y-73287142D01*
X52954285Y-73287142D01*
X53382857Y-73430000D01*
X53668571Y-73715714D01*
X53811428Y-74001428D01*
X53954285Y-74572857D01*
X53954285Y-75001428D01*
X53811428Y-75572857D01*
X53668571Y-75858571D01*
X53382857Y-76144285D01*
X52954285Y-76287142D01*
X52240000Y-76287142D01*
X55240000Y-76287142D02*
X55240000Y-73287142D01*
X56240000Y-75430000D01*
X57240000Y-73287142D01*
X57240000Y-76287142D01*
X58668571Y-75144285D02*
X60954285Y-75144285D01*
X62954285Y-73287142D02*
X63240000Y-73287142D01*
X63525714Y-73430000D01*
X63668571Y-73572857D01*
X63811428Y-73858571D01*
X63954285Y-74430000D01*
X63954285Y-75144285D01*
X63811428Y-75715714D01*
X63668571Y-76001428D01*
X63525714Y-76144285D01*
X63240000Y-76287142D01*
X62954285Y-76287142D01*
X62668571Y-76144285D01*
X62525714Y-76001428D01*
X62382857Y-75715714D01*
X62240000Y-75144285D01*
X62240000Y-74430000D01*
X62382857Y-73858571D01*
X62525714Y-73572857D01*
X62668571Y-73430000D01*
X62954285Y-73287142D01*
X65097142Y-73572857D02*
X65240000Y-73430000D01*
X65525714Y-73287142D01*
X66240000Y-73287142D01*
X66525714Y-73430000D01*
X66668571Y-73572857D01*
X66811428Y-73858571D01*
X66811428Y-74144285D01*
X66668571Y-74572857D01*
X64954285Y-76287142D01*
X66811428Y-76287142D01*
X70811428Y-74572857D02*
X70525714Y-74430000D01*
X70382857Y-74287142D01*
X70240000Y-74001428D01*
X70240000Y-73858571D01*
X70382857Y-73572857D01*
X70525714Y-73430000D01*
X70811428Y-73287142D01*
X71382857Y-73287142D01*
X71668571Y-73430000D01*
X71811428Y-73572857D01*
X71954285Y-73858571D01*
X71954285Y-74001428D01*
X71811428Y-74287142D01*
X71668571Y-74430000D01*
X71382857Y-74572857D01*
X70811428Y-74572857D01*
X70525714Y-74715714D01*
X70382857Y-74858571D01*
X70240000Y-75144285D01*
X70240000Y-75715714D01*
X70382857Y-76001428D01*
X70525714Y-76144285D01*
X70811428Y-76287142D01*
X71382857Y-76287142D01*
X71668571Y-76144285D01*
X71811428Y-76001428D01*
X71954285Y-75715714D01*
X71954285Y-75144285D01*
X71811428Y-74858571D01*
X71668571Y-74715714D01*
X71382857Y-74572857D01*
X73240000Y-75144285D02*
X75525714Y-75144285D01*
X77954285Y-74715714D02*
X78382857Y-74858571D01*
X78525714Y-75001428D01*
X78668571Y-75287142D01*
X78668571Y-75715714D01*
X78525714Y-76001428D01*
X78382857Y-76144285D01*
X78097142Y-76287142D01*
X76954285Y-76287142D01*
X76954285Y-73287142D01*
X77954285Y-73287142D01*
X78240000Y-73430000D01*
X78382857Y-73572857D01*
X78525714Y-73858571D01*
X78525714Y-74144285D01*
X78382857Y-74430000D01*
X78240000Y-74572857D01*
X77954285Y-74715714D01*
X76954285Y-74715714D01*
X79954285Y-76287142D02*
X79954285Y-74287142D01*
X79954285Y-73287142D02*
X79811428Y-73430000D01*
X79954285Y-73572857D01*
X80097142Y-73430000D01*
X79954285Y-73287142D01*
X79954285Y-73572857D01*
X80954285Y-74287142D02*
X82097142Y-74287142D01*
X81382857Y-73287142D02*
X81382857Y-75858571D01*
X81525714Y-76144285D01*
X81811428Y-76287142D01*
X82097142Y-76287142D01*
X87097142Y-76001428D02*
X86954285Y-76144285D01*
X86525714Y-76287142D01*
X86240000Y-76287142D01*
X85811428Y-76144285D01*
X85525714Y-75858571D01*
X85382857Y-75572857D01*
X85240000Y-75001428D01*
X85240000Y-74572857D01*
X85382857Y-74001428D01*
X85525714Y-73715714D01*
X85811428Y-73430000D01*
X86240000Y-73287142D01*
X86525714Y-73287142D01*
X86954285Y-73430000D01*
X87097142Y-73572857D01*
X88811428Y-76287142D02*
X88525714Y-76144285D01*
X88382857Y-76001428D01*
X88240000Y-75715714D01*
X88240000Y-74858571D01*
X88382857Y-74572857D01*
X88525714Y-74430000D01*
X88811428Y-74287142D01*
X89240000Y-74287142D01*
X89525714Y-74430000D01*
X89668571Y-74572857D01*
X89811428Y-74858571D01*
X89811428Y-75715714D01*
X89668571Y-76001428D01*
X89525714Y-76144285D01*
X89240000Y-76287142D01*
X88811428Y-76287142D01*
X91097142Y-76287142D02*
X91097142Y-74287142D01*
X91097142Y-74572857D02*
X91240000Y-74430000D01*
X91525714Y-74287142D01*
X91954285Y-74287142D01*
X92240000Y-74430000D01*
X92382857Y-74715714D01*
X92382857Y-76287142D01*
X92382857Y-74715714D02*
X92525714Y-74430000D01*
X92811428Y-74287142D01*
X93240000Y-74287142D01*
X93525714Y-74430000D01*
X93668571Y-74715714D01*
X93668571Y-76287142D01*
X95097142Y-74287142D02*
X95097142Y-77287142D01*
X95097142Y-74430000D02*
X95382857Y-74287142D01*
X95954285Y-74287142D01*
X96240000Y-74430000D01*
X96382857Y-74572857D01*
X96525714Y-74858571D01*
X96525714Y-75715714D01*
X96382857Y-76001428D01*
X96240000Y-76144285D01*
X95954285Y-76287142D01*
X95382857Y-76287142D01*
X95097142Y-76144285D01*
X99097142Y-74287142D02*
X99097142Y-76287142D01*
X97811428Y-74287142D02*
X97811428Y-75858571D01*
X97954285Y-76144285D01*
X98240000Y-76287142D01*
X98668571Y-76287142D01*
X98954285Y-76144285D01*
X99097142Y-76001428D01*
X100097142Y-74287142D02*
X101240000Y-74287142D01*
X100525714Y-73287142D02*
X100525714Y-75858571D01*
X100668571Y-76144285D01*
X100954285Y-76287142D01*
X101240000Y-76287142D01*
X103382857Y-76144285D02*
X103097142Y-76287142D01*
X102525714Y-76287142D01*
X102240000Y-76144285D01*
X102097142Y-75858571D01*
X102097142Y-74715714D01*
X102240000Y-74430000D01*
X102525714Y-74287142D01*
X103097142Y-74287142D01*
X103382857Y-74430000D01*
X103525714Y-74715714D01*
X103525714Y-75001428D01*
X102097142Y-75287142D01*
X104811428Y-76287142D02*
X104811428Y-74287142D01*
X104811428Y-74858571D02*
X104954285Y-74572857D01*
X105097142Y-74430000D01*
X105382857Y-74287142D01*
X105668571Y-74287142D01*
D12*
X75597142Y-127452380D02*
X75263809Y-126976190D01*
X75025714Y-127452380D02*
X75025714Y-126452380D01*
X75406666Y-126452380D01*
X75501904Y-126500000D01*
X75549523Y-126547619D01*
X75597142Y-126642857D01*
X75597142Y-126785714D01*
X75549523Y-126880952D01*
X75501904Y-126928571D01*
X75406666Y-126976190D01*
X75025714Y-126976190D01*
X76406666Y-127404761D02*
X76311428Y-127452380D01*
X76120952Y-127452380D01*
X76025714Y-127404761D01*
X75978095Y-127309523D01*
X75978095Y-126928571D01*
X76025714Y-126833333D01*
X76120952Y-126785714D01*
X76311428Y-126785714D01*
X76406666Y-126833333D01*
X76454285Y-126928571D01*
X76454285Y-127023809D01*
X75978095Y-127119047D01*
X76787619Y-126785714D02*
X77025714Y-127452380D01*
X77263809Y-126785714D01*
X77644761Y-127452380D02*
X77644761Y-126785714D01*
X77644761Y-126452380D02*
X77597142Y-126500000D01*
X77644761Y-126547619D01*
X77692380Y-126500000D01*
X77644761Y-126452380D01*
X77644761Y-126547619D01*
X78073333Y-127404761D02*
X78168571Y-127452380D01*
X78359047Y-127452380D01*
X78454285Y-127404761D01*
X78501904Y-127309523D01*
X78501904Y-127261904D01*
X78454285Y-127166666D01*
X78359047Y-127119047D01*
X78216190Y-127119047D01*
X78120952Y-127071428D01*
X78073333Y-126976190D01*
X78073333Y-126928571D01*
X78120952Y-126833333D01*
X78216190Y-126785714D01*
X78359047Y-126785714D01*
X78454285Y-126833333D01*
X78930476Y-127452380D02*
X78930476Y-126785714D01*
X78930476Y-126452380D02*
X78882857Y-126500000D01*
X78930476Y-126547619D01*
X78978095Y-126500000D01*
X78930476Y-126452380D01*
X78930476Y-126547619D01*
X79549523Y-127452380D02*
X79454285Y-127404761D01*
X79406666Y-127357142D01*
X79359047Y-127261904D01*
X79359047Y-126976190D01*
X79406666Y-126880952D01*
X79454285Y-126833333D01*
X79549523Y-126785714D01*
X79692380Y-126785714D01*
X79787619Y-126833333D01*
X79835238Y-126880952D01*
X79882857Y-126976190D01*
X79882857Y-127261904D01*
X79835238Y-127357142D01*
X79787619Y-127404761D01*
X79692380Y-127452380D01*
X79549523Y-127452380D01*
X80311428Y-126785714D02*
X80311428Y-127452380D01*
X80311428Y-126880952D02*
X80359047Y-126833333D01*
X80454285Y-126785714D01*
X80597142Y-126785714D01*
X80692380Y-126833333D01*
X80740000Y-126928571D01*
X80740000Y-127452380D01*
X82501904Y-127452380D02*
X81930476Y-127452380D01*
X82216190Y-127452380D02*
X82216190Y-126452380D01*
X82120952Y-126595238D01*
X82025714Y-126690476D01*
X81930476Y-126738095D01*
M02*
