M48
; DRILL file {KiCad (5.1.5-0-10_14)} date 2020 April 15, Wednesday 16:47:45
; FORMAT={-:-/ absolute / inch / decimal}
; #@! TF.CreationDate,2020-04-15T16:47:45+02:00
; #@! TF.GenerationSoftware,Kicad,Pcbnew,(5.1.5-0-10_14)
FMAT,2
INCH
T1C0.0394
T2C0.1260
%
G90
G05
T1
X2.15Y-4.8
X2.15Y-4.9
X2.25Y-4.8
X2.25Y-4.9
X2.35Y-4.8
X2.35Y-4.9
X2.45Y-4.8
X2.45Y-4.9
X2.55Y-4.8
X2.55Y-4.9
X2.65Y-4.8
X2.65Y-4.9
X2.75Y-4.8
X2.75Y-4.9
X2.85Y-4.8
X2.85Y-4.9
X2.95Y-4.8
X2.95Y-4.9
X3.05Y-4.8
X3.05Y-4.9
X3.15Y-4.8
X3.15Y-4.9
X3.25Y-4.8
X3.25Y-4.9
X3.35Y-4.8
X3.35Y-4.9
X3.45Y-4.8
X3.45Y-4.9
X3.55Y-4.8
X3.55Y-4.9
X3.65Y-4.8
X3.65Y-4.9
X3.75Y-4.8
X3.75Y-4.9
X3.85Y-4.8
X3.85Y-4.9
X3.95Y-4.8
X3.95Y-4.9
X4.05Y-4.8
X4.05Y-4.9
X2.15Y-1.3
X2.15Y-1.4
X2.25Y-1.3
X2.25Y-1.4
X2.35Y-1.3
X2.35Y-1.4
X2.45Y-1.3
X2.45Y-1.4
X2.55Y-1.3
X2.55Y-1.4
X2.65Y-1.3
X2.65Y-1.4
X2.75Y-1.3
X2.75Y-1.4
X2.85Y-1.3
X2.85Y-1.4
X2.95Y-1.3
X2.95Y-1.4
X3.05Y-1.3
X3.05Y-1.4
X3.15Y-1.3
X3.15Y-1.4
X3.25Y-1.3
X3.25Y-1.4
X3.35Y-1.3
X3.35Y-1.4
X3.45Y-1.3
X3.45Y-1.4
X3.55Y-1.3
X3.55Y-1.4
X3.65Y-1.3
X3.65Y-1.4
X3.75Y-1.3
X3.75Y-1.4
X3.85Y-1.3
X3.85Y-1.4
X3.95Y-1.3
X3.95Y-1.4
X4.05Y-1.3
X4.05Y-1.4
T2
X1.25Y-4.95
X4.95Y-4.95
X1.25Y-1.25
X4.95Y-1.25
T0
M30
